<?xml version="1.0" encoding="UTF-8"?>
<svg width="141px" height="43px" viewBox="0 0 141 43" version="1.1" xmlns="http://www.w3.org/2000/svg" xmlns:xlink="http://www.w3.org/1999/xlink">
    <!-- Generator: Sketch 49.2 (51160) - http://www.bohemiancoding.com/sketch -->
    <title>airbnb logo</title>
    <desc>Created with Sketch.</desc>
    <defs></defs>
    <g id="Final-Designs" stroke="none" stroke-width="1" fill="none" fill-rule="evenodd">
        <g id="01-homepagerefresh-design-desktop-copy" transform="translate(-243.000000, -2065.000000)" fill="#9F9F9F" fill-rule="nonzero">
            <g id="airbnb-logo" transform="translate(243.000000, 2065.000000)">
                <path d="M74.3040515,10.6239772 C74.3040515,12.1477349 73.034271,13.3752063 71.4579918,13.3752063 C69.8817125,13.3752063 68.6119321,12.1477349 68.6119321,10.6239772 C68.6119321,9.10021949 69.837927,7.87274803 71.4579918,7.87274803 C73.0780565,7.91507463 74.3040515,9.14254609 74.3040515,10.6239772 Z M62.5695283,16.1687621 C62.5695283,16.4227217 62.5695283,16.8459877 62.5695283,16.8459877 C62.5695283,16.8459877 61.2121768,15.1529236 58.3223315,15.1529236 C53.5497083,15.1529236 49.8279379,18.6660316 49.8279379,23.5335909 C49.8279379,28.3588235 53.5059228,31.9142581 58.3223315,31.9142581 C61.2559623,31.9142581 62.5695283,30.1788674 62.5695283,30.1788674 L62.5695283,30.8984197 C62.5695283,31.2370325 62.8322415,31.4909921 63.1825258,31.4909921 L66.7291541,31.4909921 L66.7291541,15.5761896 C66.7291541,15.5761896 63.4890246,15.5761896 63.1825258,15.5761896 C62.8322415,15.5761896 62.5695283,15.8724759 62.5695283,16.1687621 Z M62.5695283,26.3694732 C61.9127453,27.3006585 60.5991793,28.1048639 59.0229001,28.1048639 C56.2206259,28.1048639 54.0751347,26.4117998 54.0751347,23.5335909 C54.0751347,20.6553819 56.2206259,18.9623178 59.0229001,18.9623178 C60.5553938,18.9623178 61.9565309,19.8088499 62.5695283,20.6977085 L62.5695283,26.3694732 Z M69.3562861,15.5761896 L73.5596974,15.5761896 L73.5596974,31.4909921 L69.3562861,31.4909921 L69.3562861,15.5761896 Z M132.144742,15.1529236 C129.254897,15.1529236 127.897545,16.8459877 127.897545,16.8459877 L127.897545,7.91507463 L123.694134,7.91507463 L123.694134,31.4909921 C123.694134,31.4909921 126.934264,31.4909921 127.240762,31.4909921 C127.591047,31.4909921 127.85376,31.1947059 127.85376,30.8984197 L127.85376,30.1788674 C127.85376,30.1788674 129.211111,31.9142581 132.100957,31.9142581 C136.87358,31.9142581 140.59535,28.3588235 140.59535,23.5335909 C140.59535,18.7083582 136.87358,15.1529236 132.144742,15.1529236 Z M131.444174,28.0625373 C129.824109,28.0625373 128.554328,27.2583319 127.897545,26.3271466 L127.897545,20.6553819 C128.554328,19.8088499 129.955465,18.9199912 131.444174,18.9199912 C134.246448,18.9199912 136.391939,20.6130553 136.391939,23.4912643 C136.391939,26.3694732 134.246448,28.0625373 131.444174,28.0625373 Z M121.504857,22.0521598 L121.504857,31.5333187 L117.301446,31.5333187 L117.301446,22.5177524 C117.301446,19.8935031 116.425735,18.835338 114.061317,18.835338 C112.791536,18.835338 111.47797,19.4702371 110.646045,20.4014223 L110.646045,31.4909921 L106.442634,31.4909921 L106.442634,15.5761896 L109.770334,15.5761896 C110.120618,15.5761896 110.383332,15.8724759 110.383332,16.1687621 L110.383332,16.8459877 C111.609327,15.6185162 113.229391,15.1529236 114.849456,15.1529236 C116.688449,15.1529236 118.220942,15.6608428 119.446937,16.6766813 C120.935645,17.8618262 121.504857,19.3855838 121.504857,22.0521598 Z M96.2406041,15.1529236 C93.3507589,15.1529236 91.9934073,16.8459877 91.9934073,16.8459877 L91.9934073,7.91507463 L87.789996,7.91507463 L87.789996,31.4909921 C87.789996,31.4909921 91.0301256,31.4909921 91.3366243,31.4909921 C91.6869086,31.4909921 91.9496218,31.1947059 91.9496218,30.8984197 L91.9496218,30.1788674 C91.9496218,30.1788674 93.3069733,31.9142581 96.1968186,31.9142581 C100.969442,31.9142581 104.691212,28.3588235 104.691212,23.5335909 C104.734998,18.7083582 101.013227,15.1529236 96.2406041,15.1529236 Z M95.5400356,28.0625373 C93.9199708,28.0625373 92.6501903,27.2583319 91.9934073,26.3271466 L91.9934073,20.6553819 C92.6501903,19.8088499 94.0513274,18.9199912 95.5400356,18.9199912 C98.3423098,18.9199912 100.487801,20.6130553 100.487801,23.4912643 C100.487801,26.3694732 98.3423098,28.0625373 95.5400356,28.0625373 Z M84.1557967,15.1529236 C85.4255772,15.1529236 86.0823602,15.3645566 86.0823602,15.3645566 L86.0823602,19.1316242 C86.0823602,19.1316242 82.5795175,17.988806 80.3902407,20.4014223 L80.3902407,31.5333187 L76.1868295,31.5333187 L76.1868295,15.5761896 C76.1868295,15.5761896 79.426959,15.5761896 79.7334577,15.5761896 C80.083742,15.5761896 80.3464552,15.8724759 80.3464552,16.1687621 L80.3464552,16.8459877 C81.1345948,15.9571291 82.8422307,15.1529236 84.1557967,15.1529236 Z M40.5016191,30.0518876 C40.2826914,29.5439684 40.0637638,28.9937226 39.8448361,28.5281299 C39.4945518,27.7662511 39.1442676,27.0466989 38.8377688,26.3694732 L38.7939833,26.3271466 C35.7727814,19.9781563 32.5326519,13.5445127 29.1173802,7.19552239 L28.9860236,6.94156278 C28.6357394,6.30666374 28.2854551,5.6294381 27.9351708,4.95221247 C27.4973155,4.19033363 27.0594601,3.38612818 26.3588916,2.62424934 C24.9577545,0.93118525 22.9436199,0 20.7981287,0 C18.608852,0 16.638503,0.93118525 15.1935804,2.53959614 C14.5367973,3.30147498 14.0551565,4.10568042 13.6173011,4.86755926 C13.2670169,5.5447849 12.9167326,6.22201054 12.5664483,6.85690957 L12.4350917,7.11086918 C9.06360557,13.4598595 5.77969051,19.8935031 2.75848865,26.2424934 L2.71470312,26.3271466 C2.40820438,27.0043723 2.05792011,27.7239245 1.70763583,28.4858033 C1.48870816,28.951396 1.26978049,29.4593152 1.05085282,30.009561 C0.481640876,31.5756453 0.306498739,33.0570764 0.52542641,34.5808341 C1.00706729,37.7553292 3.19634399,40.4219052 6.21754585,41.60705 C7.35596974,42.0726427 8.53817916,42.2842757 9.76417412,42.2842757 C10.1144584,42.2842757 10.5523137,42.2419491 10.902598,42.1996225 C12.3475206,42.0303161 13.8362288,41.5647234 15.2811514,40.760518 C17.0763583,39.7870062 18.7839942,38.3902283 20.7105577,36.3585514 C22.6371212,38.3902283 24.3885425,39.7870062 26.1399639,40.760518 C27.5848865,41.5647234 29.0735947,42.0303161 30.5185173,42.1996225 C30.8688016,42.2419491 31.3066569,42.2842757 31.6569412,42.2842757 C32.8829362,42.2842757 34.1089311,42.0726427 35.2035695,41.60705 C38.2685569,40.4219052 40.414048,37.7130026 40.8956889,34.5808341 C41.2459732,33.099403 41.0708311,31.6179719 40.5016191,30.0518876 Z M20.7543432,32.2528709 C18.3899244,29.374662 16.8574307,26.6657594 16.3320042,24.3801229 C16.1130766,23.4066111 16.069291,22.560079 16.2006476,21.7982002 C16.2882187,21.1209745 16.5509319,20.5284021 16.9012162,20.0204829 C17.7331413,18.8776646 19.1342784,18.1581124 20.7543432,18.1581124 C22.374408,18.1581124 23.8193306,18.835338 24.6074702,20.0204829 C24.9577545,20.5284021 25.2204677,21.1209745 25.3080388,21.7982002 C25.4393954,22.560079 25.3956098,23.4489377 25.1766822,24.3801229 C24.6512557,26.6234328 23.118762,29.3323354 20.7543432,32.2528709 Z M38.2247713,34.2422213 C37.9182726,36.4432046 36.3857789,38.3479017 34.2402877,39.1944337 C33.1894349,39.6176997 32.051011,39.7446795 30.9125871,39.6176997 C29.8179488,39.4907199 28.7233104,39.1521071 27.5848865,38.5172081 C26.0086073,37.670676 24.4323281,36.3585514 22.5933356,34.4115277 C25.4831809,30.9830729 27.2346023,27.8509043 27.8913853,25.0573486 C28.197884,23.7452239 28.2416695,22.560079 28.1103129,21.4595874 C27.9351708,20.4014223 27.541101,19.4279105 26.9281035,18.5813784 C25.570752,16.6766813 23.2939042,15.5761896 20.7543432,15.5761896 C18.2147822,15.5761896 15.9379344,16.7190079 14.5805829,18.5813784 C13.9675854,19.4279105 13.5735156,20.4014223 13.3983735,21.4595874 C13.2232313,22.560079 13.2670169,23.7875505 13.6173011,25.0573486 C14.2740841,27.8509043 16.069291,31.0253995 18.9153508,34.4538543 C17.1201439,36.400878 15.5000791,37.7130026 13.9237999,38.5595347 C12.785376,39.1944337 11.6907376,39.5330465 10.5960993,39.6600263 C9.41388985,39.7870062 8.27546596,39.6176997 7.26839867,39.2367603 C5.1229075,38.3902283 3.5904138,36.4855312 3.28391506,34.2845479 C3.15255846,33.2263828 3.24012953,32.1682177 3.67798487,30.9830729 C3.80934147,30.5598069 4.02826914,30.1365408 4.24719682,29.6286216 C4.55369555,28.951396 4.90397983,28.2318437 5.2542641,27.5122915 L5.29804964,27.4276383 C8.31925149,21.1209745 11.559381,14.687331 14.9308672,8.42299386 L15.0622238,8.16903424 C15.412508,7.53413521 15.7627923,6.85690957 16.1130766,6.22201054 C16.4633609,5.5447849 16.8574307,4.90988587 17.3390715,4.35964004 C18.2585678,3.34380158 19.4845627,2.79355575 20.8419143,2.79355575 C22.1992658,2.79355575 23.4252608,3.34380158 24.344757,4.35964004 C24.8263979,4.90988587 25.2204677,5.5447849 25.570752,6.22201054 C25.9210362,6.85690957 26.2713205,7.53413521 26.6216048,8.16903424 L26.7529614,8.42299386 C30.080662,14.7296576 33.3207915,21.1633011 36.3419934,27.4699649 L36.3419934,27.5122915 C36.6922776,28.1895171 36.9987764,28.951396 37.3490607,29.6286216 C37.5679883,30.1365408 37.786916,30.5598069 37.9182726,30.9830729 C38.2685569,32.0835645 38.3999135,33.1417296 38.2247713,34.2422213 Z" id="Shape"></path>
            </g>
        </g>
    </g>
</svg>