<svg xmlns="http://www.w3.org/2000/svg" width="112" height="30" viewBox="0 0 112 30">
  <path fill="#9f9f9f" fill-rule="evenodd" d="m343.910906 32c.118357 0 .127741.0951175-.026335.1519524-1.52562.6505095-3.729596 2.6650568-3.729596 2.6650568-1.53228 1.3331174-2.743998 2.1829908-5.322114 2.1829908h-13.071901c-.087178 0-.0896-.0680252-.02573-.1018906 1.44268-.7114671 3.575218-2.7666529 3.575218-2.7666529.875719-.8840332 2.691025-2.1314565 4.93072-2.1314565zm-22.434789 0c.11654 0 .155286.0951175 0 .1519524-1.527134.6505095-3.757142 2.6650568-3.757142 2.6650568-1.530464 1.3331174-2.743392 2.1829908-5.322114 2.1829908h-13.070085c-.087784 0-.0896-.0680252-.026941-.1018906 1.443891-.7114671 3.601251-2.7666529 3.601251-2.7666529.877232-.8840332 2.665295-2.1314565 4.90499-2.1314565zm-22.409968 0c.116843 0 .128043.0951175-.026335.1519524-1.527739.6505095-3.755931 2.6650568-3.755931 2.6650568-1.531372 1.3331174-2.717965 2.1829908-5.296082 2.1829908h-13.070387c-.088087 0-.089903-.0680252-.026941-.1018906 1.443285-.7114671 3.574613-2.7666529 3.574613-2.7666529.876929-.8840332 2.690722-2.1314565 4.930719-2.1314565zm-22.436605 0c.116843 0 .128043.0951175-.02573.1519524-1.527134.6505095-3.730807 2.6650568-3.730807 2.6650568-1.529858 1.3331174-2.743695 2.1829908-5.321812 2.1829908h-13.070387c-.088389 0-.0896-.0680252-.02573-.1018906 1.442983-.7114671 3.573705-2.7666529 3.573705-2.7666529.877837-.8840332 2.690419-2.1314565 4.931022-2.1314565zm-22.436606 0c.117751 0 .154075.0951175 0 .1519524-1.528345.6505095-3.756537 2.6650568-3.756537 2.6650568-1.530463 1.3331174-2.742787 2.1829908-5.321508 2.1829908h-13.044658c-.088087 0-.089298-.0680252-.026033-.1018906 1.443285-.7114671 3.574613-2.7666529 3.574613-2.7666529.875718-.8840332 2.690116-2.1314565 4.93072-2.1314565zm32.022072-25c2.626213 0 6.065516.4821375 8.656035 1.29330531v4.34674269c-2.001572-1.8396877-5.645056-2.81987388-9.020232-2.81987388l-.194931.00180693c-1.956647.03631695-4.107374.62541925-4.107374 2.24916875 0 4.1666166 14.312282.3464425 14.312282 8.8483939 0 4.8135695-4.624457 6.0804563-9.567132 6.0804563-3.541545 0-6.804497-.3797658-9.202935-1.1645152v-4.0876613l.36828.2148607c3.045631 1.7405967 5.528493 2.24326 9.068781 2.24326l.199806-.0020491c2.011258-.0410878 4.38805-.7032995 4.38805-2.2750449 0-4.9819874-14.31198-.6802762-14.31198-8.8231762 0-4.70189135 4.646236-6.105674 9.41135-6.105674zm45.334679.05133594.335357.00305768c6.781901.1241769 11.292912 4.02030058 11.291425 9.80360698 0 5.9909937-5.124775 10.1164815-12.564802 10.1164815-7.00293 0-11.706034-3.8805163-11.706034-9.7292104 0-5.9621735 5.2373-10.19393576 12.644054-10.19393576zm-20.047177 0 .529274.0036357c1.937295.02664591 3.828034.19958155 5.361403.51302596v4.8384869c-1.608941-1.5589913-3.607488-2.45872107-6.100302-2.45872107l-.272911.0035375c-4.431486.11531387-7.573359 3.03786747-7.573359 7.00847087 0 4.1074753 3.155568 6.9600721 7.768833 6.9600721l.296715-.0041183c2.268135-.0633618 4.380084-.862776 6.168389-2.7383014v4.8384869c-2.639825.6289403-4.898512.9579706-7.429138.9579706-7.811786 0-13.034869-3.8381867-13.034869-9.5731012 0-6.2488742 5.691034-10.34944456 14.285965-10.34944456zm-41.086216 11.72110476c-1.333978-.3941759-3.628964-.5436806-4.900932-.5436806h-1.876946v5.2002402h2.554522c1.864544.0282198 6.452702.0222156 8.863542-1.6811768v4.5274692h-17.570999c.722344-.9231462.859977-1.4689282.859977-3.2861003v-12.0309216c0-1.81897329-.151245-2.36115282-.912005-3.31191835l.001545.00264755 16.500759.00005434v4.55388776c-1.490365-1.2392675-5.460234-1.7078956-7.742819-1.7078956h-2.554522v4.9405584h1.876946c1.267733 0 3.585709-.124287 4.900932-.5436806zm-14.938737-11.12548783v4.57970583c-1.610151-1.2401682-5.415466-1.8105674-8.602796-1.8381868v12.6007205c0 1.8171721.122508 2.3347343.938927 3.2861003h-7.273658c.776792-.951366.938322-1.4689282.938322-3.2861003v-12.4965475l-.392782.0046871c-3.523164.0575823-6.709689.5345868-8.262043 1.7287262v-4.57910533zm75.578467 2.2248574-.249702.00430309c-3.798902.13160074-6.216625 3.26513234-6.217217 7.11097764 0 3.9297508 2.524576 7.1155809 6.466919 7.1155809l.2458-.0043031c3.741086-.1316009 6.192987-3.2651387 6.192987-7.1112778 0-3.9300511-2.559664-7.11528073-6.438787-7.11528073z" transform="translate(-232 -7)"/>
</svg>
