<svg xmlns="http://www.w3.org/2000/svg" width="164" height="37" viewBox="0 0 164 37">
  <path fill="#9f9f9f" fill-rule="evenodd" d="m314.131436 8.18776814-.462383 2.23597016c-4.939435 4.5104205-7.584966 10.0185756-6.582761 15.0484778 1.745978 8.7542286 13.886785 12.7300501 27.113989 8.879289 2.647782-.7691444 5.133483-1.7975716 7.408027-3.0133604h1.954433c-2.837327 1.4402562-5.938487 2.6826145-9.235496 3.6423272-15.932615 4.6368551-30.322754 1.018349-32.138067-8.0831169-1.234521-6.189345 3.667545-13.3205369 11.942258-18.70958686zm64.976219 12.68457156c.307652 0 .585939.0324231.828084.0920116.241694.0595884.467576.1529144.671774.2812924.207811.1292544.443632.3457006.708366.6510913l.431887-.8285421h2.087151l-1.45197 6.4088238c-.383097 1.6930126-.810466 2.834394-1.2803 3.4197628-.467576.5858069-1.082879 1.0283386-1.842747 1.3267189-.756253.2979422-1.587951.4482278-2.486511.4482278-1.002013 0-2.037908-.2028636-3.104072-.6090289l.557025-1.6509502c.856997.4337688 1.716705.6515295 2.57596.6515295.811821 0 1.45694-.166059 1.941231-.4951098.481129-.3312416.819049-.92143 1.009242-1.7710034l.26112-1.1453247c-.373158.5398011-.838475.9775132-1.394145 1.3166415-.557025.3395664-1.163293.5095687-1.821062.5095687-.670418 0-1.221571-.1638682-1.656168-.4916046-.432338-.3259837-.71198-.8175883-.835764-1.4739374-.120621-.6576636-.093063-1.3871837.088546-2.195571.288226-1.2623109.852931-2.3173767 1.699989-3.1682645.847058-.8504496 1.851782-1.2763317 3.012364-1.2763317zm-36.268878-13.74094263c4.728729 0 7.798823 1.97943599 7.011377 5.79446563-.33812 1.6331148-1.214711 3.987274-5.257745 5.1068624 3.977751 1.0884378 3.480251 3.4939038 3.276748 4.4728565l-1.520865 7.3634469h-9.081068l1.386698-6.7042457c.367835-1.7801639-.804105-2.1787081-4.257792-2.064642l-1.812612 8.7688877h-9.120238l4.701265-22.73763143zm-17.408457-.0004581-4.701265 22.73763143h-9.678969l4.701265-22.73763143zm140.56968 10.24452353-2.740854 12.1025864h-2.331556l.360508-1.5869802c-.432338.5941317-.912563 1.0392924-1.443387 1.3376727-.534437.2966278-1.11902.4434081-1.757814.4434081-1.050352 0-1.776338-.3816289-2.179311-1.1453248-.404781-.7636959-.462607-1.7723178-.180254-3.0249894.301326-1.3232137.871001-2.4238472 1.713993-3.3067199.844348-.8815584 1.843651-1.3227757 2.997005-1.3227757.311265 0 .589552.031985.833957.0968312.243501.0648463.4739.1625538.682164.2970659.209167.1331977.435952.3522728.685778.6528439l1.029571-4.5436182zm-54.330981 3.4973154c.944639 0 1.714445.1818323 2.304449.5415537.587746.3605977.979425.8846254 1.173684 1.5707687.192903.6857051.195162 1.4507155.00497 2.2867062-.188838.8447537-.538052 1.609764-1.04719 2.300727-.509138.6909629-1.140705 1.2123617-1.890182 1.5677016-.752639.3549017-1.597438.5319144-2.538915.5319144-.936959 0-1.701796-.1770127-2.290445-.5319144-.591811-.3553399-.984395-.8767387-1.18046-1.5677016-.19697-.690963-.198325-1.4559733-.007229-2.300727.190193-.8359907.535793-1.6010011 1.03951-2.2867062.500555-.6861433 1.132121-1.210171 1.88702-1.5707687.753542-.3597214 1.603311-.5415537 2.544788-.5415537zm-8.16564-.0008763c.704752 0 1.518832.1038416 2.447207.3045144l-.360056 1.5878565c-.863321-.3194115-1.600601-.4793363-2.214548-.4793363-.482485 0-.861967.0819341-1.140253.242297-.278287.1621156-.446344.3697989-.503266.6256786-.045176.1993584-.005873.3750566.117459.5284092.114748.1533526.360508.3040763.729599.4530474l.620273.2532508c1.023246.414052 1.666106.816274 1.92316 1.2040369.252085.3943353.316687.8649087.191548 1.4125965-.16128.7106797-.616206 1.3324149-1.366135 1.8665201-.748573.5341051-1.723029.8018149-2.92156.8018149-1.020987 0-2.028873-.1524762-3.020948-.4547999l.378127-1.6728577c1.050804.4767075 1.986408.7163757 2.808167.7163757.438663 0 .807755-.0893827 1.107726-.2707769.303586-.1783271.484291-.405289.546635-.6817618.055567-.2396682.001355-.4425318-.152245-.6050855-.162635-.1586104-.421948-.3154682-.787425-.4679445l-.720112-.3071433c-.740894-.3163445-1.266295-.6659884-1.568526-1.049808-.302682-.379-.386258-.8741098-.247115-1.481386.166249-.7325873.594522-1.3350439 1.288884-1.8104369.692103-.4767075 1.639904-.7150612 2.843404-.7150612zm-14.361135.0004381c1.103208 0 1.906897.3443861 2.409711 1.0318439.503265.6865814.542117 1.9651039.120169 3.8355673h-5.32359c-.075445.5674046-.046984 1.0182612.090804 1.344245.135981.3277364.361412.5884358.679002.7799075.315331.1923479.775227.288741 1.38014.288741.774776 0 1.692761-.1822705 2.750793-.5428682l-.358701 1.5852277c-1.175943.3180971-2.260177.4767074-3.24683.4767074-.936056 0-1.718963-.1695641-2.345109-.5082543-.626597-.3400046-1.046286-.8714808-1.262681-1.5935524-.215943-.7242624-.225882-1.510304-.036593-2.3581247.179802-.787356.505524-1.5146855.97807-2.181112.472094-.6646739 1.060742-1.1930832 1.761881-1.5786554.702945-.3851341 1.502116-.5796728 2.402934-.5796728zm53.405316 0c.641505 0 1.192658.0858775 1.662493.2532509.46351.1695641.806399.4324543 1.030926.7877941.221816.3535873.252084.8841873.091708 1.589171l-.844347 3.7247154c-.102099.4543618-.090805.7347779.032527.8381814.125138.102089.259764.1507237.405232.1507237.086739 0 .193807-.0078867.327078-.023222l-.240339 1.2675687c-.526757.1406463-.982136.2111884-1.36478.2111884-.435049 0-.788781-.0670369-1.069326-.2085595-.282805-.1384555-.458541-.4307017-.525402-.8767386h-.101647c-.407491.3141537-.751284.5389248-1.028667.6760658-.278287.1367029-.561092.2396682-.844348.3080196-.282352.0683515-.574644.1012127-.87326.1012127-.773872 0-1.340837-.2322196-1.700441-.6975352-.359153-.469697-.46351-1.044112-.309007-1.7210542.187031-.8276658.692555-1.5181906 1.512959-2.0737651.819049-.5529457 2.011255-.8307329 3.571197-.8307329h.621627l.175285-.7615052c.113393-.5121976.045628-.8565837-.209167-1.035349-.254343-.1783272-.606268-.2663954-1.058935-.2663954-.893138 0-1.860366.2493075-2.902134.7452936l.355086-1.571645c1.142061-.39083 2.239848-.5866832 3.285682-.5866832zm-18.041659-3.4968772-2.742661 12.1025864h-2.328845l2.739499-12.1025864zm28.614299 3.4968772c.685778 0 1.223829.21557 1.622286.6405757.3971.4267584.48926 1.1001953.280093 2.0172438l-1.347161 5.9478897h-2.329296l1.220215-5.3910007c.106616-.4583052.132367-.76983.082673-.9336982-.051501-.1625538-.142306-.2887411-.273318-.3711133-.131011-.0850012-.290032-.1288162-.4739-.1288162-.321205 0-.683068.1051561-1.077458.311963-.395746.2072451-.866032.6120959-1.409053 1.2132381l-1.199886 5.2994273h-2.328845l1.904638-8.409856h2.328845l-.356442 1.5777791c.566964-.6449572 1.138898-1.1045768 1.709928-1.3714103.572385-.2677098 1.120376-.402222 1.646681-.402222zm-18.613593-2.7366865c.892687 0 1.5491.1099757 1.968789.326422.418334.2164462.714691.5463733.883651.9875906.171671.4412173.193807.9424612.067765 1.4997884-.149986.6651121-.49152 1.2929814-1.019632 1.8827316-.528113.5928173-1.188592 1.0423595-1.978728 1.3543225l2.631979 5.2915406h-2.965833l-1.858558-4.6281811h-1.334963l-1.050804 4.6281811h-2.28412l2.569635-11.3423957zm-14.218377-.7601907-2.744468 12.1025864h-2.328845l2.740402-12.1025864zm-21.093327 3.4968772c.141402 0 .287322.0092012.428273.0223457l-.461252 2.0422183c-.301327-.1156716-.594522-.1730693-.883199-.1730693-.466221 0-.91166.1134809-1.339933.3395664-.432338.2287145-.847058.5722243-1.245514 1.0279005l-1.210728 5.3467476h-2.330652l1.905993-8.409856h2.328845l-.358249 1.5852276c.401167-.5415537.881392-.9753225 1.437062-1.2956103.558381-.3229167 1.133025-.4854705 1.729354-.4854705zm-27.445584 0c.684422 0 1.222474.21557 1.619575.6405757.395745.4267584.491519 1.1001953.282352 2.0172438l-1.348516 5.9474516h-2.3302l1.221119-5.3905626c.105712-.4583052.132366-.76983.080865-.9336982-.049242-.1625538-.140498-.2887411-.270155-.3715515-.133722-.084563-.290936-.128378-.474804-.128378-.323011 0-.682164.1051561-1.07791.311963-.39439.2072451-.864676.6120959-1.407697 1.2132381l-1.199886 5.2989892h-2.331556l1.905994-8.4094179h2.331555l-.358249 1.5777791c.566061-.6449572 1.137995-1.1045768 1.709025-1.3714103.57103-.2677098 1.120375-.402222 1.648488-.402222zm-6.496371-2.7366865-2.570087 11.3419576h-2.41965l2.567377-11.3419576zm-37.501711-16.1166157c15.937568-4.63639706 30.324105-1.01697475 32.140318 8.0844912 1.233621 6.1870545-3.65854 13.3090844-11.920646 18.6940116l.463283-2.2423836c4.923677-4.5076718 7.561103-10.006665 6.558899-15.0251148-1.748229-8.75697717-13.886786-12.73417303-27.117591-8.88341187-2.645081.76914442-5.132132 1.79940397-7.408027 3.01473461h-1.950381c2.834626-1.44025613 5.937137-2.68215638 9.234145-3.64232714zm83.597481 20.266775c-.656865 0-1.212535.2834832-1.677401.8504496-.463962.5700335-.787877 1.2811514-.984394 2.1355444-.191548.8618415-.190193 1.5742738.016263 2.140364.205101.5660901.636536.8500115 1.291594.8500115.661835 0 1.222926-.2839214 1.684178-.8500115.459896-.5660902.78878-1.2785225.984394-2.140364.193807-.854393.187482-1.5655109-.016264-2.1355444-.204649-.5669664-.637891-.8504496-1.29837-.8504496zm31.259379 3.3671847h-.552056c-.759868 0-1.357552.1331977-1.789891.3974023-.431886.2659572-.693006.595008-.784714.9906577-.074541.3242312-.018974.5906265.157666.8000624.178446.2063687.421947.3115248.724178.3115248.273769 0 .56606-.0661607.877778-.1980439.309458-.1296925.636084-.3255457.976714-.5823017zm18.166797-3.3040911c-.615303 0-1.145674.2970659-1.584337.886378-.441374.5879976-.749929 1.2811513-.930183 2.0781466-.178899.7847271-.174833 1.4117202.002259 1.8783502.181609.4661919.539406.6992878 1.082879.6992878.341534 0 .70927-.1187387 1.099594-.355778.391228-.2383537.768903-.5494404 1.13438-.9372034l.753543-3.3286275c-.235821-.3592832-.482936-.5989514-.736827-.7268913-.253892-.1288162-.527661-.1936624-.821308-.1936624zm-81.295437-.0630936c-.575999 0-1.099142.2602612-1.564008.7847271-.465317.5218369-.797815 1.2298877-.999754 2.1219617-.173477.7636959-.169863 1.3639617.009035 1.8029883.178899.4372739.529468.6559109 1.049901.6559109.374512 0 .756253-.1082231 1.145674-.3299271.387162-.2212659.787877-.5511931 1.192206-.9910959l.707011-3.1134957c-.249374-.370237-.504169-.6169156-.758964-.7426647-.254343-.125311-.515011-.1884046-.781101-.1884046zm9.262524-.0004382c-.451313 0-.864677.183585-1.236931.5525075-.374061.3689225-.676743.9091618-.912112 1.6207178h3.061155c.17664-.7772786.172574-1.3346057-.014908-1.6697906-.183868-.3369376-.485195-.5034347-.897204-.5034347zm44.173061-2.5859628h-.849317l-.81182 3.5836309h.561994c.999303 0 1.743359-.2089976 2.225843-.6318126.481129-.4232532.782456-.903904.90398-1.437571.103906-.463563.031172-.8311711-.216847-1.105015-.253439-.2725294-.857448-.4092323-1.813833-.4092323zm-96.475334-8.4707972-1.020213 4.9291208c3.619821-.0549716 4.638683.2185122 5.24784-2.7307146.473638-2.2813217-1.60911-2.1713785-4.227627-2.1984062z" transform="translate(-302)"/>
</svg>
