<?xml version="1.0" encoding="UTF-8"?>
<svg width="166px" height="31px" viewBox="0 0 166 31" version="1.1" xmlns="http://www.w3.org/2000/svg" xmlns:xlink="http://www.w3.org/1999/xlink">
  <path d="M34.6146,14.2464 C34.6146,15.1004 34.6596,15.6864 34.8176,15.9344 C34.9526,16.1594 35.2226,16.2474 35.7626,16.2724 L36.8416,16.3384 L36.8416,17.0134 C35.6716,16.9684 34.6156,16.9444 33.5806,16.9444 C32.4786,16.9444 31.4216,16.9684 30.2536,17.0134 L30.2536,16.3384 L31.3316,16.2724 C31.8716,16.2474 32.1406,16.1594 32.2756,15.9344 C32.4316,15.6874 32.4786,15.1004 32.4786,14.2464 L32.4786,9.2324 C32.2096,9.2094 31.6006,9.1874 30.6126,9.1874 L25.3486,9.1874 C24.3606,9.1874 23.7536,9.2094 23.4836,9.2324 L23.4836,14.2464 C23.4836,15.1004 23.5286,15.6864 23.6866,15.9344 C23.8216,16.1594 24.0916,16.2474 24.6306,16.2724 L25.7106,16.3384 L25.7106,17.0134 C24.5406,16.9684 23.4836,16.9444 22.4496,16.9444 C21.3476,16.9444 20.2906,16.9684 19.1206,17.0134 L19.1206,16.3384 L20.1996,16.2724 C20.7386,16.2474 21.0086,16.1594 21.1446,15.9344 C21.3016,15.6874 21.3456,15.1004 21.3456,14.2464 L21.3456,4.1494 C21.3456,3.2934 21.3016,2.7094 21.1446,2.4634 C21.0086,2.2384 20.7386,2.1484 20.1996,2.1254 L19.1206,2.0584 L19.1206,1.3824 C20.2906,1.4274 21.3456,1.4514 22.4496,1.4514 C23.4846,1.4514 24.5406,1.4274 25.7106,1.3824 L25.7106,2.0584 L24.6306,2.1254 C24.0916,2.1464 23.8196,2.2384 23.6866,2.4634 C23.5286,2.7094 23.4836,3.2954 23.4836,4.1494 L23.4836,8.1524 C23.7536,8.1754 24.3606,8.1974 25.3486,8.1974 L30.6126,8.1974 C31.6006,8.1974 32.2096,8.1754 32.4786,8.1524 L32.4786,4.1494 C32.4786,3.2934 32.4336,2.7094 32.2756,2.4634 C32.1386,2.2384 31.8696,2.1484 31.3316,2.1254 L30.2536,2.0584 L30.2536,1.3824 C31.4216,1.4274 32.4786,1.4514 33.5806,1.4514 C34.6156,1.4514 35.6716,1.4274 36.8416,1.3824 L36.8416,2.0584 L35.7626,2.1254 C35.2226,2.1464 34.9526,2.2384 34.8176,2.4634 C34.6596,2.7094 34.6146,3.2954 34.6146,4.1494 L34.6146,14.2464 Z" fill="#9F9F9F"></path>
  <path d="M39.2396,6.7078 C39.2396,6.0218 39.2036,5.5558 39.0766,5.3578 C38.9686,5.1758 38.7546,5.1048 38.3206,5.0878 L37.4556,5.0328 L37.4556,4.4938 C37.9606,4.4938 38.4626,4.5118 38.9676,4.5288 C39.4706,4.5288 39.9926,4.5448 40.4956,4.5448 C42.0606,4.5448 43.7166,4.4918 44.7426,4.4918 C45.5506,4.4918 46.3626,4.5108 47.0626,4.5448 C46.8656,5.3378 46.7756,6.3628 46.7756,7.2818 L46.1456,7.2818 L46.1456,6.1138 C46.1456,5.8798 46.1296,5.6828 45.9846,5.6268 C45.0306,5.2678 43.6106,5.2498 42.4596,5.2498 C41.9726,5.2498 41.4526,5.2668 40.9456,5.3928 L40.9456,10.1978 C41.5216,10.2328 42.1696,10.2508 43.0336,10.2508 C44.1326,10.2508 44.7426,10.1818 44.9406,10.0538 C45.0306,9.9818 45.0676,9.8208 45.0846,9.5868 L45.1746,8.6498 L45.7136,8.6498 C45.6966,9.3858 45.6606,10.0718 45.6606,10.7378 C45.6606,11.4018 45.6946,12.0858 45.7136,12.7328 L45.1746,12.7328 L45.0846,11.6708 C45.0706,11.4378 45.0346,11.2748 44.9426,11.2218 C44.7446,11.0788 44.1346,11.0068 43.0356,11.0068 C42.1716,11.0068 41.5056,11.0068 40.9476,11.0608 L40.9476,16.0988 C41.4526,16.2238 41.9726,16.2438 42.4616,16.2438 C43.9356,16.2438 45.7696,16.1908 46.0936,16.0088 C46.3646,15.8658 46.5986,15.0718 46.7236,13.9938 L47.3526,13.9938 C47.1736,14.8568 47.0646,15.9708 47.0646,16.9428 C46.2726,16.9608 44.8506,17.0148 43.5206,16.9968 C42.1356,16.9778 40.7156,16.9428 39.5996,16.9428 C38.9156,16.9428 38.3226,16.9778 37.6736,16.9968 L37.6736,16.4598 L38.3226,16.4058 C38.7546,16.3708 38.9696,16.3148 39.0786,16.1378 C39.2036,15.9378 39.2416,15.4718 39.2416,14.7858 L39.2416,6.7078 L39.2396,6.7078 Z" fill="#9F9F9F"></path>
  <path d="M49.8529,6.7078 C49.8529,6.0218 49.8169,5.5558 49.6899,5.3578 C49.5829,5.1758 49.3669,5.1228 48.9339,5.0878 L48.1439,5.0328 L48.1439,4.4938 C48.9339,4.5118 49.6549,4.5468 50.3019,4.5468 C50.6249,4.5468 50.9519,4.5118 51.2729,4.4938 L59.8739,15.1088 L59.9289,15.1088 L59.9289,6.7078 C59.9289,6.0218 59.8919,5.5558 59.7649,5.3578 C59.6589,5.1758 59.4409,5.1228 59.0099,5.0878 L58.2169,5.0328 L58.2169,4.4938 C58.9379,4.5118 59.6579,4.5468 60.3049,4.5468 C61.0239,4.5468 61.6709,4.5118 62.4629,4.4938 L62.4629,5.0328 L61.6709,5.0878 C61.2409,5.1228 61.0219,5.1758 60.9159,5.3578 C60.7909,5.5538 60.7559,6.0218 60.7559,6.7078 L60.7559,16.6398 C60.7559,16.8558 60.7919,17.0908 60.8109,17.3058 L59.1909,17.0168 L50.7149,6.4898 L50.6789,6.4898 L50.6789,14.7858 C50.6789,15.4698 50.7149,15.9358 50.8419,16.1378 C50.9499,16.3148 51.1659,16.3708 51.5979,16.4058 L52.3899,16.4598 L52.3899,16.9978 C51.5979,16.9798 50.9519,16.9448 50.2309,16.9448 C49.5829,16.9448 48.8629,16.9798 48.1449,16.9978 L48.1449,16.4598 L48.9359,16.4058 C49.3679,16.3708 49.5849,16.3148 49.6919,16.1378 C49.8179,15.9378 49.8549,15.4718 49.8549,14.7858 L49.8549,6.7078 L49.8529,6.7078 Z" fill="#9F9F9F"></path>
  <path d="M66.4555,14.7859 C66.4555,15.4699 66.4905,15.9359 66.6165,16.1379 C66.7255,16.3149 66.9395,16.3869 67.3725,16.4059 L68.2375,16.4599 L68.2375,16.9979 C67.3015,16.9629 66.4575,16.9449 65.6285,16.9449 C64.7475,16.9449 63.9015,16.9629 62.9665,16.9979 L62.9665,16.4599 L63.8325,16.4059 C64.2615,16.3869 64.4795,16.3149 64.5875,16.1379 C64.7145,15.9379 64.7495,15.4719 64.7495,14.7859 L64.7495,6.7079 C64.7495,6.0219 64.7145,5.5559 64.5875,5.3579 C64.4795,5.1759 64.2635,5.1229 63.8325,5.0879 L63.0945,5.0329 L63.0945,4.4939 C64.0465,4.5119 65.0905,4.5469 66.1525,4.5469 C67.2145,4.5469 68.2585,4.5119 69.3005,4.4939 C72.1805,4.4389 72.9365,5.8969 72.9365,7.1939 C72.9365,9.1549 71.1725,10.3229 69.4285,10.6659 L73.5135,15.9929 C73.7825,16.3499 74.1795,16.4239 74.6115,16.4599 L74.6115,16.9979 C74.1425,16.9799 73.7275,16.9449 73.3145,16.9449 C72.9015,16.9449 72.5065,16.9799 72.0915,16.9979 C71.8565,16.6569 71.5885,16.3489 71.3535,16.0279 L68.0435,11.5849 C67.7555,11.1869 67.4145,10.8459 67.1075,10.4679 L67.2165,10.2509 C67.7015,10.2879 68.2595,10.2699 68.7995,10.1819 C70.0595,9.9649 71.1385,8.9949 71.1385,7.6609 C71.1385,5.7189 69.6975,5.1779 68.2945,5.1779 C67.4855,5.1779 66.9635,5.2679 66.4605,5.3939 L66.4605,14.7859 L66.4555,14.7859 Z" fill="#9F9F9F"></path>
  <path d="M79.9135,10.8094 L81.7665,7.8764 C82.4845,6.7444 83.1155,5.6094 83.7085,4.4574 L85.1475,4.4574 L85.1475,4.7284 C83.6375,6.4754 81.4615,9.5164 80.7225,11.1174 C80.5075,11.5864 80.4715,12.0344 80.4715,12.4674 L80.4715,14.7884 C80.4715,15.4734 80.5075,15.9394 80.6345,16.1414 C80.7405,16.3184 80.9555,16.3904 81.3885,16.4084 L82.2515,16.4634 L82.2515,17.0014 C81.3165,16.9664 80.4715,16.9484 79.6445,16.9484 C78.7635,16.9484 77.9175,16.9664 76.9795,17.0014 L76.9795,16.4604 L77.8445,16.4054 C78.2765,16.3874 78.4915,16.3154 78.6015,16.1374 C78.7265,15.9374 78.7635,15.4714 78.7635,14.7864 L78.7635,12.2304 C78.7635,11.9444 78.7095,11.6914 78.6015,11.5104 L76.3695,7.6234 C75.4325,6.0034 74.5155,5.3374 74.0655,5.2844 L73.5445,5.2314 L73.5445,4.7084 L75.6135,4.2774 C75.9735,4.2054 76.2425,4.5674 76.5495,4.9434 C76.8555,5.3214 77.1065,5.6804 77.3435,6.1134 L79.9135,10.8094 Z" fill="#9F9F9F"></path>
  <path d="M98.1,5.1165 L97.963,3.8325 C97.895,3.2255 97.809,3.0005 96.976,2.4845 C96.345,2.1015 95.4,1.9455 94.525,1.9455 C92.95,1.9455 91.194,3.0005 91.194,5.2295 C91.194,6.7575 92.096,7.7045 94.906,8.0175 C98.079,8.3555 100.079,9.1425 100.079,11.7065 C100.079,15.5535 96.637,17.3935 93.288,17.3935 C91.711,17.3935 90.182,16.9015 89.44,16.5385 C89.62,15.3715 89.62,14.1565 89.597,13.1015 L90.318,13.1015 L90.496,14.6075 C90.61,15.5515 92.387,16.4055 94.165,16.4055 C96.191,16.4055 98.188,15.1685 98.188,12.9415 C98.188,10.8055 96.524,10.1995 94.233,9.9285 C90.7,9.5245 89.306,8.4225 89.306,6.0815 C89.304,2.5965 92.364,0.9995 95.062,0.9995 C96.862,0.9995 98.211,1.5845 99.132,1.9455 C98.909,3.0905 98.818,4.0595 98.818,5.1165 L98.1,5.1165 Z" fill="#9F9F9F"></path>
  <path d="M111.8529,16.3338 C110.8089,16.9628 109.0279,17.3058 107.9289,17.3058 C103.6129,17.3058 100.6969,14.8388 100.6969,10.7558 C100.6969,8.6858 101.5069,7.0488 102.8909,5.9158 C104.2409,4.7998 106.0769,4.1878 108.0919,4.1878 C109.7649,4.1878 111.3859,4.6208 112.2499,4.9268 C112.0689,5.7718 111.9059,6.7258 111.9059,7.6618 L111.3499,7.6618 L111.3499,6.3648 C111.3499,5.8608 110.6289,5.5538 109.8019,5.2498 C109.2259,5.0518 108.4539,4.9428 107.7899,4.9428 C104.4059,4.9428 102.6239,7.4098 102.6239,10.4658 C102.6239,14.0298 104.9799,16.3328 108.5429,16.3328 C109.8399,16.3328 111.3679,15.8658 112.1969,15.2538 L112.3569,15.4338 L111.8529,16.3338 Z" fill="#9F9F9F"></path>
  <path d="M125.6351,14.7859 C125.6351,15.4699 125.6701,15.9359 125.7961,16.1379 C125.9031,16.3149 126.1191,16.3869 126.5541,16.4059 L127.4161,16.4599 L127.4161,16.9979 C126.4811,16.9629 125.6361,16.9449 124.8081,16.9449 C123.9271,16.9449 123.0811,16.9629 122.1441,16.9979 L122.1441,16.4599 L123.0081,16.4059 C123.4411,16.3869 123.6541,16.3149 123.7641,16.1379 C123.8901,15.9379 123.9251,15.4719 123.9251,14.7859 L123.9251,10.7739 C123.7101,10.7559 123.2251,10.7389 122.4341,10.7389 L118.2241,10.7389 C117.4301,10.7389 116.9461,10.7559 116.7301,10.7739 L116.7301,14.7869 C116.7301,15.4719 116.7641,15.9379 116.8911,16.1389 C116.9971,16.3169 117.2151,16.3889 117.6471,16.4069 L118.5101,16.4619 L118.5101,16.9999 C117.5761,16.9649 116.7311,16.9459 115.9031,16.9459 C115.0241,16.9459 114.1781,16.9649 113.2401,16.9999 L113.2401,16.4599 L114.1061,16.4059 C114.5351,16.3869 114.7521,16.3149 114.8621,16.1379 C114.9891,15.9379 115.0241,15.4719 115.0241,14.7859 L115.0241,6.7079 C115.0241,6.0219 114.9891,5.5559 114.8621,5.3579 C114.7521,5.1759 114.5351,5.1049 114.1061,5.0879 L113.2401,5.0329 L113.2401,4.4939 C114.1781,4.5289 115.0241,4.5469 115.9031,4.5469 C116.7311,4.5469 117.5761,4.5309 118.5101,4.4939 L118.5101,5.0329 L117.6471,5.0879 C117.2151,5.1049 116.9971,5.1759 116.8911,5.3579 C116.7641,5.5539 116.7301,6.0219 116.7301,6.7079 L116.7301,9.9089 C116.9461,9.9269 117.4301,9.9449 118.2241,9.9449 L122.4341,9.9449 C123.2261,9.9449 123.7101,9.9269 123.9251,9.9089 L123.9251,6.7079 C123.9251,6.0219 123.8901,5.5559 123.7641,5.3579 C123.6541,5.1759 123.4411,5.1049 123.0081,5.0879 L122.1441,5.0329 L122.1441,4.4939 C123.0811,4.5289 123.9251,4.5469 124.8081,4.5469 C125.6361,4.5469 126.4821,4.5309 127.4161,4.4939 L127.4161,5.0329 L126.5541,5.0879 C126.1201,5.1049 125.9031,5.1759 125.7961,5.3579 C125.6681,5.5539 125.6351,6.0219 125.6351,6.7079 L125.6351,14.7859 Z" fill="#9F9F9F"></path>
  <path d="M129.766,6.7078 C129.766,6.0218 129.73,5.5558 129.607,5.3578 C129.498,5.1758 129.282,5.1048 128.851,5.0878 L127.984,5.0328 L127.984,4.4938 C128.488,4.4938 128.991,4.5118 129.496,4.5288 C130.001,4.5288 130.522,4.5448 131.025,4.5448 C132.591,4.5448 134.245,4.4918 135.271,4.4918 C136.079,4.4918 136.89,4.5108 137.593,4.5448 C137.393,5.3378 137.307,6.3628 137.307,7.2818 L136.676,7.2818 L136.676,6.1138 C136.676,5.8798 136.66,5.6828 136.513,5.6268 C135.561,5.2678 134.137,5.2498 132.986,5.2498 C132.499,5.2498 131.977,5.2668 131.474,5.3928 L131.474,10.1978 C132.05,10.2328 132.696,10.2508 133.562,10.2508 C134.659,10.2508 135.269,10.1818 135.469,10.0538 C135.559,9.9818 135.595,9.8208 135.614,9.5868 L135.702,8.6498 L136.243,8.6498 C136.228,9.3878 136.193,10.0718 136.193,10.7388 C136.193,11.4038 136.228,12.0878 136.246,12.7348 L135.705,12.7348 L135.618,11.6728 C135.599,11.4378 135.562,11.2768 135.472,11.2218 C135.273,11.0788 134.662,11.0068 133.565,11.0068 C132.7,11.0068 132.034,11.0068 131.477,11.0608 L131.477,16.0988 C131.98,16.2238 132.502,16.2438 132.989,16.2438 C134.463,16.2438 136.301,16.1908 136.622,16.0088 C136.892,15.8658 137.128,15.0718 137.25,13.9938 L137.882,13.9938 C137.702,14.8568 137.594,15.9708 137.594,16.9428 C136.802,16.9608 135.379,17.0148 134.051,16.9968 C132.664,16.9778 131.243,16.9428 130.127,16.9428 C129.444,16.9428 128.851,16.9778 128.204,16.9968 L128.204,16.4598 L128.852,16.4058 C129.284,16.3708 129.5,16.3148 129.608,16.1378 C129.731,15.9378 129.768,15.4718 129.768,14.7858 L129.768,6.7078 L129.766,6.7078 Z" fill="#9F9F9F"></path>
  <path d="M142.2523,14.7859 C142.2523,15.4699 142.2883,15.9359 142.4153,16.1379 C142.5203,16.3149 142.7373,16.3869 143.1713,16.4059 L144.0323,16.4599 L144.0323,16.9979 C143.0983,16.9629 142.2533,16.9449 141.4253,16.9449 C140.5443,16.9449 139.6963,16.9629 138.7603,16.9979 L138.7603,16.4599 L139.6253,16.4059 C140.0603,16.3869 140.2733,16.3149 140.3813,16.1379 C140.5093,15.9379 140.5463,15.4719 140.5463,14.7859 L140.5463,6.7079 C140.5463,6.0219 140.5093,5.5559 140.3813,5.3579 C140.2733,5.1759 140.0603,5.1049 139.6253,5.0879 L138.7603,5.0329 L138.7603,4.4939 C139.6963,4.5289 140.5443,4.5469 141.4253,4.5469 C142.2533,4.5469 143.0983,4.5309 144.0323,4.4939 L144.0323,5.0329 L143.1713,5.0879 C142.7373,5.1049 142.5203,5.1759 142.4153,5.3579 C142.2883,5.5539 142.2523,6.0219 142.2523,6.7079 L142.2523,14.7859 Z" fill="#9F9F9F"></path>
  <path d="M146.225,6.7078 C146.225,6.0218 146.192,5.5558 146.064,5.3578 C145.957,5.1758 145.743,5.1228 145.31,5.0878 L144.516,5.0328 L144.516,4.4938 C145.31,4.5118 146.029,4.5468 146.676,4.5468 C146.999,4.5468 147.323,4.5118 147.647,4.4938 L156.25,15.1088 L156.302,15.1088 L156.302,6.7078 C156.302,6.0218 156.268,5.5558 156.141,5.3578 C156.033,5.1758 155.818,5.1228 155.385,5.0878 L154.593,5.0328 L154.593,4.4938 C155.312,4.5118 156.031,4.5468 156.679,4.5468 C157.4,4.5468 158.045,4.5118 158.839,4.4938 L158.839,5.0328 L158.045,5.0878 C157.614,5.1228 157.398,5.1758 157.289,5.3578 C157.163,5.5538 157.128,6.0218 157.128,6.7078 L157.128,16.6398 C157.128,16.8558 157.163,17.0908 157.181,17.3058 L155.563,17.0168 L147.087,6.4898 L147.052,6.4898 L147.052,14.7858 C147.052,15.4698 147.087,15.9358 147.214,16.1378 C147.321,16.3148 147.54,16.3708 147.971,16.4058 L148.764,16.4598 L148.764,16.9978 C147.971,16.9798 147.323,16.9448 146.605,16.9448 C145.955,16.9448 145.239,16.9798 144.516,16.9978 L144.516,16.4598 L145.31,16.4058 C145.741,16.3708 145.957,16.3148 146.064,16.1378 C146.192,15.9378 146.225,15.4718 146.225,14.7858 L146.225,6.7078 Z" fill="#9F9F9F"></path>
  <path d="M16.4877,2.2649 L16.4877,1.0649 L0.0007,1.0649 L0.0007,13.5959 C2.3097,13.5959 4.8257,12.0959 7.3347,8.1609 C9.8537,4.2059 13.5227,2.2649 16.4877,2.2649" fill="#9F9F9F"></path>
  <path d="M0.0014,15.8792 L0.0014,17.0782 L16.4874,17.0782 L16.4874,4.5482 C14.1784,4.5482 11.6634,6.0482 9.1534,9.9822 C6.6334,13.9372 2.9644,15.8792 0.0014,15.8792" fill="#9F9F9F"></path>
  <path d="M161.6205,6.2918 L161.8235,6.2918 C162.2945,6.2918 162.7515,6.1868 162.7515,5.6178 C162.7515,5.1848 162.4665,4.9818 162.0455,4.9818 L161.8325,4.9818 C161.6055,4.9818 161.6205,5.1248 161.6205,5.3048 L161.6205,6.2918 Z M162.0105,4.8398 C162.5275,4.8398 163.1705,4.9068 163.1705,5.5808 C163.1705,6.0588 162.7675,6.3088 162.3405,6.3558 L162.3405,6.3738 C162.6745,6.4078 162.8795,6.8658 162.9885,7.1438 C163.0425,7.2688 163.1405,7.4998 163.2285,7.5918 C163.3055,7.6678 163.3875,7.6898 163.5215,7.6898 L163.5215,7.8098 L163.3195,7.8098 C163.1725,7.8098 162.9905,7.8248 162.8575,7.7198 C162.7235,7.6148 162.6045,7.2998 162.5445,7.1508 C162.4755,6.9868 162.3665,6.6708 162.2385,6.5428 C162.1095,6.4168 161.9175,6.4398 161.7605,6.4398 L161.6245,6.4398 L161.6245,7.4038 C161.6245,7.5898 161.6395,7.6728 161.8355,7.6818 L161.9905,7.6868 L161.9905,7.8068 L160.8525,7.8068 L160.8525,7.6898 L160.9735,7.6898 C161.1615,7.6898 161.2135,7.6578 161.2135,7.4598 L161.2135,5.1908 C161.2135,4.9968 161.1075,4.9818 160.9735,4.9748 L160.8455,4.9668 L160.8455,4.8398 L162.0105,4.8398 Z M159.7215,6.4178 C159.7215,7.7218 160.7905,8.7898 162.0935,8.7898 C163.4035,8.7898 164.4865,7.7268 164.4865,6.4098 C164.4865,5.0878 163.4045,4.0308 162.0885,4.0308 C160.7855,4.0328 159.7215,5.1078 159.7215,6.4178 Z M164.8145,6.4098 C164.8145,7.9058 163.5905,9.1178 162.0925,9.1178 C160.6135,9.1178 159.3915,7.8998 159.3915,6.4168 C159.3915,4.9288 160.6035,3.7018 162.0855,3.7018 C163.5905,3.7038 164.8145,4.9068 164.8145,6.4098 Z" fill="#9F9F9F"></path>
  <polygon fill="#9F9F9F" points="0.1488 31.076 1.4058 23.1 4.3068 29.478 7.2638 23.089 8.4428 31.076 7.5808 31.076 6.8678 25.819 4.2948 31.393 1.7568 25.819 1.0088 31.076"></polygon>
  <polygon fill="#9F9F9F" points="14.2416 24.3118 11.1606 24.3118 11.1606 26.5558 14.1516 26.5558 14.1516 27.3488 11.1606 27.3488 11.1606 30.2828 14.2416 30.2828 14.2416 31.0758 10.3216 31.0758 10.3216 23.5188 14.2416 23.5188"></polygon>
  <path d="M16.7572,30.283 L17.4932,30.283 C18.0942,30.283 18.9212,30.215 19.6572,29.603 C20.2242,29.128 20.6772,28.38 20.6772,27.303 C20.6772,25.491 19.4082,24.312 17.4932,24.312 L16.7572,24.312 L16.7572,30.283 Z M15.9182,23.519 L17.4592,23.519 C18.2182,23.519 19.2952,23.598 20.2462,24.403 C20.9382,24.98 21.5382,25.943 21.5382,27.303 C21.5382,28.889 20.7562,29.739 20.2122,30.203 C19.5222,30.792 18.7962,31.076 17.4472,31.076 L15.9182,31.076 L15.9182,23.519 Z" fill="#9F9F9F"></path>
  <polygon fill="#9F9F9F"  points="23.214 31.0755 24.053 31.0755 24.053 23.5185 23.214 23.5185"></polygon>
  <path d="M31.9164,25.1849 C31.6784,24.9469 31.3154,24.6629 30.9304,24.4819 C30.5334,24.3009 30.0684,24.1879 29.6274,24.1879 C27.8824,24.1879 26.5904,25.5929 26.5904,27.3379 C26.5904,29.3879 28.2564,30.4189 29.6384,30.4189 C30.1484,30.4189 30.6464,30.2719 31.0434,30.0669 C31.4744,29.8529 31.7794,29.5689 31.9164,29.4339 L31.9164,30.4769 C31.0774,31.0759 30.2044,31.2129 29.6384,31.2129 C27.3954,31.2129 25.7294,29.5129 25.7294,27.3259 C25.7294,25.0709 27.4174,23.3949 29.6844,23.3949 C30.1374,23.3949 31.0094,23.4509 31.9164,24.1429 L31.9164,25.1849 Z" fill="#9F9F9F" ></path>
  <path d="M37.433,28.1531 L36.164,25.1281 L34.872,28.1531 L37.433,28.1531 Z M37.762,28.9461 L34.544,28.9461 L33.637,31.0761 L32.708,31.0761 L36.187,23.1561 L39.575,31.0761 L38.646,31.0761 L37.762,28.9461 Z" fill="#9F9F9F" ></path>
  <polygon fill="#9F9F9F"  points="41.6127 23.5189 41.6127 30.2829 43.6977 30.2829 43.6977 31.0759 40.7747 31.0759 40.7747 23.5189"></polygon>
  <path d="M51.1185,25.0149 C51.0155,24.8099 50.8465,24.5839 50.6765,24.4489 C50.5285,24.3339 50.2575,24.1879 49.8265,24.1879 C49.0785,24.1879 48.5565,24.6519 48.5565,25.3539 C48.5565,25.6489 48.6365,25.8189 48.8405,26.0119 C49.0675,26.2379 49.3505,26.3619 49.6345,26.4879 L50.3585,26.8049 C50.8015,26.9969 51.2085,27.2019 51.5255,27.5189 C51.9115,27.9039 52.0695,28.3459 52.0695,28.8899 C52.0695,30.2829 51.0385,31.2129 49.6795,31.2129 C49.1815,31.2129 48.5565,31.1099 48.0365,30.5999 C47.6625,30.2379 47.4355,29.7169 47.3335,29.2629 L48.1495,29.0369 C48.2065,29.4339 48.3875,29.7729 48.6025,29.9999 C48.9305,30.3289 49.3055,30.4189 49.6905,30.4189 C50.7215,30.4189 51.2085,29.6829 51.2085,28.9229 C51.2085,28.5829 51.1065,28.2879 50.8345,28.0389 C50.6195,27.8359 50.3245,27.6999 49.9285,27.5189 L49.2485,27.2019 C48.9535,27.0649 48.5805,26.9069 48.2405,26.5779 C47.9115,26.2609 47.7195,25.9099 47.7195,25.3429 C47.7195,24.1759 48.6145,23.3949 49.8375,23.3949 C50.3025,23.3949 50.6765,23.4849 51.0505,23.7339 C51.3555,23.9379 51.6165,24.2439 51.7865,24.5729 L51.1185,25.0149 Z" fill="#9F9F9F" ></path>
  <polygon fill="#9F9F9F"  points="54.9926 27.825 52.5116 23.519 53.4856 23.519 55.4116 26.895 57.3606 23.519 58.3356 23.519 55.8316 27.825 55.8316 31.076 54.9926 31.076"></polygon>
  <path d="M62.5609,25.0149 C62.4579,24.8099 62.2889,24.5839 62.1199,24.4489 C61.9719,24.3339 61.6999,24.1879 61.2689,24.1879 C60.5209,24.1879 59.9999,24.6519 59.9999,25.3539 C59.9999,25.6489 60.0799,25.8189 60.2839,26.0119 C60.5099,26.2379 60.7929,26.3619 61.0769,26.4879 L61.8019,26.8049 C62.2439,26.9969 62.6519,27.2019 62.9689,27.5189 C63.3539,27.9039 63.5129,28.3459 63.5129,28.8899 C63.5129,30.2829 62.4819,31.2129 61.1219,31.2129 C60.6239,31.2129 59.9999,31.1099 59.4799,30.5999 C59.1049,30.2379 58.8789,29.7169 58.7769,29.2629 L59.5919,29.0369 C59.6489,29.4339 59.8309,29.7729 60.0459,29.9999 C60.3739,30.3289 60.7489,30.4189 61.1329,30.4189 C62.1649,30.4189 62.6519,29.6829 62.6519,28.9229 C62.6519,28.5829 62.5499,28.2879 62.2779,28.0389 C62.0629,27.8359 61.7679,27.6999 61.3719,27.5189 L60.6919,27.2019 C60.3969,27.0649 60.0229,26.9069 59.6829,26.5779 C59.3539,26.2609 59.1629,25.9099 59.1629,25.3429 C59.1629,24.1759 60.0569,23.3949 61.2809,23.3949 C61.7459,23.3949 62.1199,23.4849 62.4929,23.7339 C62.7989,23.9379 63.0589,24.2439 63.2299,24.5729 L62.5609,25.0149 Z" fill="#9F9F9F" ></path>
  <polygon fill="#9F9F9F"  points="66.5707 24.3118 66.5707 31.0758 65.7327 31.0758 65.7327 24.3118 63.8967 24.3118 63.8967 23.5188 68.4067 23.5188 68.4067 24.3118"></polygon>
  <polygon fill="#9F9F9F"  points="73.5951 24.3118 70.5131 24.3118 70.5131 26.5558 73.5041 26.5558 73.5041 27.3488 70.5131 27.3488 70.5131 30.2828 73.5951 30.2828 73.5951 31.0758 69.6751 31.0758 69.6751 23.5188 73.5951 23.5188"></polygon>
  <polygon fill="#9F9F9F"  points="75.0111 31.076 76.2691 23.1 79.1691 29.478 82.1261 23.089 83.3051 31.076 82.4441 31.076 81.7301 25.819 79.1571 31.393 76.6201 25.819 75.8721 31.076"></polygon>
  <path d="M88.5609,25.0149 C88.4589,24.8099 88.2899,24.5839 88.1199,24.4489 C87.9719,24.3339 87.7009,24.1879 87.2699,24.1879 C86.5219,24.1879 85.9999,24.6519 85.9999,25.3539 C85.9999,25.6489 86.0799,25.8189 86.2839,26.0119 C86.5099,26.2379 86.7929,26.3619 87.0769,26.4879 L87.8019,26.8049 C88.2449,26.9969 88.6519,27.2019 88.9689,27.5189 C89.3549,27.9039 89.5129,28.3459 89.5129,28.8899 C89.5129,30.2829 88.4819,31.2129 87.1229,31.2129 C86.6239,31.2129 85.9999,31.1099 85.4789,30.5999 C85.1059,30.2379 84.8789,29.7169 84.7769,29.2629 L85.5929,29.0369 C85.6499,29.4339 85.8309,29.7729 86.0459,29.9999 C86.3739,30.3289 86.7489,30.4189 87.1339,30.4189 C88.1649,30.4189 88.6519,29.6829 88.6519,28.9229 C88.6519,28.5829 88.5499,28.2879 88.2779,28.0389 C88.0629,27.8359 87.7679,27.6999 87.3719,27.5189 L86.6919,27.2019 C86.3969,27.0649 86.0239,26.9069 85.6839,26.5779 C85.3549,26.2609 85.1629,25.9099 85.1629,25.3429 C85.1629,24.1759 86.0569,23.3949 87.2809,23.3949 C87.7459,23.3949 88.1199,23.4849 88.4939,23.7339 C88.7989,23.9379 89.0599,24.2439 89.2299,24.5729 L88.5609,25.0149 Z" fill="#9F9F9F" ></path>
</svg>
