<svg height="21" viewBox="0 0 262 21" width="262" xmlns="http://www.w3.org/2000/svg"><path d="m19.8221714 25.39596c2.5414 0 5.0551029.2747257 7.4759829.6594914l1.6026914.2994286.0486572.0097314c3.3970171.6579943 5.8807771 1.5682572 7.3898971 2.1910686.9385765.4445193 1.3462241.7981222 1.4291505.8751704l.0163409.0156296-1.6258971-.4027314c-5.5888343-1.3122457-11.3670572-1.9784743-17.1782172-1.9784743-5.8201428 0-11.66873139.5090286-17.26804567 1.9837143-.43192572.1137828-1.71273143.50304-1.71273143.50304s.66622857-.6512572 1.75016-1.1086343c1.78309714-.7508172 3.80723429-1.4155486 7.20574857-2.0757886l.04491429-.01048 1.60418854-.2882c2.4734786-.3940711 4.9716711-.6131976 7.4759829-.6557486l1.7366857-.0172171zm103.5117086-16.07033143c.301674 0 .5502.19612572.5502.47085143v11.2383029c0 2.3355428 1.613171 4.17628 4.00336 4.17628 2.390937 0 4.031806-1.8414858 4.031806-4.1485829v-11.266c0-.27472571.15196-.47085143.454383-.47085143h2.60952c.275474 0 .538971.19612572.538971.47085143v11.4306857c0 4.1770286-3.292217 7.55608-7.63468 7.55608-4.313269 0-7.605486-3.3798-7.605486-7.55608v-11.4306857c0-.27472571.166183-.47085143.441657-.47085143zm104.255789-.32562857c5.495262 0 9.892371 4.4233086 9.892371 9.9185714 0 5.4960115-4.397109 9.8639257-9.892371 9.8639257-5.495263 0-9.863926-4.3679142-9.863926-9.8624285 0-5.49676 4.368663-9.9200686 9.863926-9.9200686zm-178.705709.04865714 11.4306857 12.19123426h.1197714v-11.4434114c0-.27472571.1272572-.47085143.42968-.47085143h2.5279258c.2747257 0 .6437714.19612572.6437714.47085143v18.49196c0 .2747257-.3690457.4326743-.6437714.4326743h-.66024l-11.4417829-12.4221143.0006171 11.6877657c0 .2747257-.2904457.4566286-.5936171.4566286h-2.5002286c-.2747257 0-.50828-.1819029-.50828-.4566286v-18.49270856c0-.27472571.2335543-.4454.5090286-.4454zm33.6819714 0c.2747257 0 .3847657.11228572.4671086.27697143l8.4633486 18.44854283c.1646857.3570686-.0553943.6699715-.4678572.6699715h-2.3901885c-.4117143 0-.6048458-.0688686-.79648-.4536343l-1.3474286-2.87152h-8.2155714l-1.34668 2.87152c-.1092915.2747257-.35632.4536343-.7957315.4536343h-2.3901885c-.4124629 0-.6325429-.32488-.4678572-.6819486l8.5456914-18.45228573c.0823429-.16468571.2193315-.26125143.46636-.26125143zm27.6649546.27697143c.302423 0 .631045.19687429.631045.4716v2.25320003c0 .2747257-.329371.6011028-.631045.6011028h-4.079715v15.3359829c0 .2747257-.371291.4566286-.646765.4566286h-2.554875c-.274725 0-.399737-.1819029-.399737-.4566286v-15.3367314h-4.3267426c-.3016743 0-.3840171-.3263772-.3840171-.6011029v-2.25245143c0-.27472571.0823428-.4716.3847657-.4716zm45.245903 0c3.297457 0 5.990068 2.61326283 5.990068 5.88227433 0 2.5286742-1.6768 4.5760171-4.06624 5.5379314l3.763817 6.9407543c.192383.3570685 0 .7583028-.467108.7583028h-2.884995c-.247028 0-.384017-.1137828-.439411-.2238228l-3.654526-7.2574h-2.957605v7.0238457c0 .2747257-.339852.4566286-.613829.4566286h-2.528674c-.301675 0-.459623-.1819029-.459623-.4566286v-18.19028573h-.000749c0-.27472571.158697-.4716.460372-.4716zm28.488382 0c.302423 0 .598858.19612572.598858.47085143v2.2532c0 .2747257-.296435.6011029-.598858.6011029h-8.267971v4.43304h6.921291c.275475 0 .559932.2417885.559932.5165142v2.2801486c0 .3024229-.284457.5277429-.559932.5277429h-6.921291v4.71076h8.267971c.302423 0 .598858.3391028.598858.6138285v2.2532c0 .2754743-.296435.4581258-.598858.4581258h-11.183657c-.301674 0-.40872-.1826515-.40872-.4573772v-18.1902857c0-.27472571.107046-.47085143.40872-.47085143zm18.131149.00074857c3.26976 0 5.797686 2.17235426 5.797686 5.05734856 0 2.1162114-1.731446 3.75184-3.022732 4.3566857 1.455972.4671086 3.572183 1.9126 3.572183 4.4397772 0 3.0773771-2.637966 5.2639543-5.990068 5.2639543h-6.64956c-.302423 0-.434172-.1819029-.434172-.4566286v-18.19028573c0-.27472571.131749-.47085143.434172-.47085143zm47.77308-.00074857c.22008 0 .357069.14896572.439411.25900572l3.516789 5.83661141h.027697l3.572183-5.83661141c.090097-.15822741.257344-.25680938.439411-.25900572h3.188166c.46636 0 .68644.38626286.46636.74408003l-5.52296 8.5868628 5.715343 9.0569657c.22008.3847658 0 .7306058-.467109.7306058h-2.967337c-.22008 0-.412463-.0538972-.467857-.1646858l-3.928503-6.2086514h-.082343l-3.873857 6.2094c-.082343.11004-.247028.1639372-.467857.1639372h-2.967337c-.494057 0-.714137-.3802743-.494057-.7373429l5.715343-9.0629543-5.495263-8.5741371c-.220829-.35781717 0-.74408003.46636-.74408003zm-48.047806 11.08334853h-3.127531v4.9869829h3.456903c1.374377 0 2.472531-1.1191143 2.472531-2.5481371 0-1.3743772-1.37288-2.4388458-2.801903-2.4388458zm25.768075-7.8375428c-3.462143 0-6.291743 2.8857428-6.291743 6.3478857s2.8296 6.2917429 6.291743 6.2917429c3.462142 0 6.320188-2.8296 6.320188-6.2917429s-2.858046-6.3478857-6.320188-6.3478857zm-195.2072176 2.8513086c.3208175-.3204041.8406303-.3200689 1.1610343.0007485.3204041.3208175.3200689.8406303-.0007486 1.1610343l-6.1143314 6.1135829c-.1586971.1594457-.3705428.2395432-.5801428.2395432-.3323627.0003113-.6320776-.1999286-.7590123-.5070974-.1269346-.3071687-.056008-.6605728.179618-.8949773zm-28.12738371-.3022519c.31540262-.3158095.82530167-.3218697 1.14812088-.0136453l6.11208573 6.1128343c.3218857.3203886.3218857.8413943 0 1.1610343-.1536664.1542342-.3624239.2409299-.5801429.2409299s-.4264764-.0866957-.5801428-.2409299v.0007486l-6.11208574-6.1128343c-.30864039-.3224215-.30323779-.832328.01216483-1.1481376zm78.14617801.8546976h-.0823428l-2.69336 6.0956171h5.52296zm-57.4401459-1.6308248c.2911293-.0383827.5806207.0814659.7594257.3144.178805.232934.2197588.5435652.1074345.8148819l-1.8354971 4.4390286c-.1741217.4187294-.6540333.6178559-1.0734515.4454-.4192-.1744172-.6175714-.6542514-.4454-1.0734514l1.8354972-4.4397772c.1123243-.2713167.3608619-.4620993.6519912-.5004819zm-12.5786055.4282448c.4194192-.1736383.9001874.0256065 1.0738257.4450257l1.6842857 4.0602514c.1420474.4116885-.06104.8627958-.4634252 1.0293821-.4023853.1665863-.8649059-.0089612-1.0554262-.4005821l-1.6842857-4.0602514c-.1736383-.4194193.0256065-.9001874.4450257-1.0738257zm6.4201228-5.57573431c.4528858 0 .917.36754857.917.82193141v8.6437543c0 .4536343-.4641142.8211829-.917.8211829-.4528857 0-.917-.3675486-.917-.8211829v-8.6437543c0-.45438284.4641143-.82193141.917-.82193141zm136.3724969 3.45390861h-4.414325v5.2639542h4.414325c1.455972 0 2.71956-1.1625314 2.71956-2.7008457 0-1.4559714-1.263588-2.5631085-2.71956-2.5631085zm46.591835 0h-3.072886v4.7100114h3.072886c1.401325 0 2.362491-1.0502457 2.362491-2.4238743 0-1.3743771-.961166-2.2861371-2.362491-2.2861371z" fill="#9f9f9f" fill-rule="evenodd" transform="translate(0 -9)"/></svg>