<svg height="42" viewBox="0 0 138 42" width="138" xmlns="http://www.w3.org/2000/svg"><path d="m441.452129 11.1099196c.899822 0 1.162271.6380697.899822 1.2761394l-12.485031 28.9758713c-.112478.2627346-.374926.6380697-.899822.6380697h-2.849437c-.787344 0-1.274748-.6380697-.899822-1.4262735l4.124185-9.9088471-7.048607-18.2412869c-.262448-.6380697.112478-1.2761394.899822-1.2761394h2.961915c.262448 0 .787344.2627346.899822.5254692l4.761558 14.0375335h.112478l5.811351-14.0750671c.112478-.5254691.524896-.5254691 1.0123-.5254691zm57.101211-.6756032c3.861736 0 6.036306 2.0643431 6.448725 2.4396782l.524896-1.2761394c.112478-.3753351.262448-.7882037.787344-.7882037h1.16227c.524896 0 1.0123.5254691 1.0123 1.0134048v19.7050938l.14997.0750671c0 6.30563-4.124184 9.533512-9.523117 9.533512-3.33684 0-6.186277-1.689008-7.086099-2.5898123-.374925-.2627346-.374925-.9008043-.262448-1.1635389l1.0123-1.9142091c.262448-.5254692.899822-.6380697 1.424718-.2627346.787345.5254692 2.437019 1.9142091 4.761559 1.9142091 2.699466 0 5.136484-1.2761394 5.136484-5.5549598v-1.1635388c-.374925.2627346-2.586988 1.4262734-5.286454 1.4262734-5.548903 0-9.898043-4.766756-9.898043-10.6970509 0-5.7801609 3.974214-10.6970509 9.635595-10.6970509zm-27.369589.5630026c.524896 0 1.0123.5254692 1.0123 1.0134049v10.9597855c0 3.3404826 1.424718 4.8793566 3.974214 4.8793566 2.961914 0 4.649081-2.4396783 4.761559-3.3404826v-12.3485255c0-.9008043.374925-1.0134048 1.16227-1.0134048h2.17457c.524896 0 1.0123.5254692 1.0123 1.0134048v18.541555c0 .5254691-.524897 1.0134048-1.0123 1.0134048h-1.0123c-.524896 0-.787344-.3753351-.899822-.9008043l-.524896-1.4262735c-.374926.3753352-2.324541 2.8150135-6.448725 2.8150135-6.036307 0-7.573503-3.9785523-7.573503-9.4209116v-10.7721179h-.074985c0-.5254692.524896-1.0134049 1.0123-1.0134049zm-16.571724-10.997319c4.386633 0 7.723473 2.32707775 8.24837 2.58981233.374925.26273459.637374.90080429.262448 1.538874l-1.16227 1.68900804c-.374926.52546917-.899823.90080429-1.537197.37533512-1.687166-1.16353887-3.33684-2.1769437-5.923828-2.1769437-3.749259 0-5.024007 2.32707775-5.024007 3.97855228 0 2.58981233 1.912122 4.12868633 5.661381 5.55495983 5.136484 2.0643431 9.523117 4.5040214 9.523117 9.9088471 0 4.6541555-4.124185 8.3699732-9.898043 8.3699732-5.398933 0-8.735773-2.8150134-9.523117-3.4906166-.412419-.2252011-.824837-.6005362-.299941-1.2386059l1.16227-1.8016086c.374926-.5254691 1.0123-.7882037 1.537196-.3753351 2.062093 1.6890081 3.749259 3.077748 7.086099 3.077748 3.074392 0 5.024007-1.8016086 5.024007-4.1286863 0-2.7024129-2.324541-4.3914209-6.673681-6.1930295-4.49911-1.9142091-8.098398-4.2412869-8.098398-9.42091155 0-3.49061662 2.699466-8.25737265 9.635594-8.25737265zm-42.32913 10.6219839c6.186276 0 7.723473 4.3914209 7.723473 9.6461126v10.3217158c0 .5254692-.374926 1.0134049-1.0123 1.0134049h-2.437018c-.637374 0-1.0123-.3753352-1.0123-1.0134049v-10.4343163c0-3.2278821-1.274748-5.2922252-3.974215-5.2922252-3.074392 0-4.49911 2.0643431-4.874036 2.4396783.089982.3002681.107979 1.2010723.111578 2.0682466l.0009 11.1810831c0 .5254692-.374926 1.0134048-.899822 1.0134048h-2.586989c-.524896 0-1.0123-.3753351-1.0123-1.0134048v-10.3967828c0-3.3404826-1.16227-5.2922252-3.974214-5.2922252-3.074392 0-4.649081 2.3270777-4.761558 2.9651474v12.7613941c0 .5254692-.524897 1.0134049-1.0123 1.0134049h-2.549496c-.524896 0-1.0123-.3753352-1.0123-1.0134049v-18.5790884h.112478c0-.5254692.374926-1.0134049 1.0123-1.0134049h1.049792c.524896 0 .787344.2627346.899822.6380697l.524896 1.8016086c.374926-.5254691 2.586989-2.8150134 6.561203-2.8150134 2.961914 0 4.761559 1.1635389 6.186277 3.2278821.524896-.5254692 2.961914-3.2278821 6.936129-3.2278821zm110.86558 0c1.912122 0 4.386632.5254692 3.749258 1.9142091l-1.012299 2.1769437c-.262449.5254692-.787345.7882038-1.274748.5254692-.262449-.1126005-1.274748-.3753351-1.799645-.3753351-2.961914 0-4.64908 2.4396783-4.761558 2.7024128v13.0241287c0 .9008043-.524896 1.0134049-1.424718 1.0134049h-2.062093c-.524896 0-1.0123-.3753352-1.0123-1.0134049v-18.5790884h-.037492c0-.5254692.374926-1.0134049 1.0123-1.0134049h1.0123c.374925 0 .787344.2627346.899822.7882038l.524896 1.8016086c.374926-.5254692 2.437018-2.9651475 6.186277-2.9651475zm-23.770301 4.1286863c-3.48681 0-5.773858 2.9651475-5.773858 6.4557641-.14997 3.5656837 2.549496 6.5308311 5.886336 6.5308311 2.699466 0 4.761559-1.689008 4.761559-1.689008v-8.4825738c-.374926-.7882037-2.17457-2.8150134-4.874037-2.8150134z" fill="#9f9f9f" transform="translate(-389)"/></svg>