<?xml version="1.0" encoding="UTF-8"?>
<svg width="176px" height="24px" viewBox="0 0 176 24" version="1.1" xmlns="http://www.w3.org/2000/svg" xmlns:xlink="http://www.w3.org/1999/xlink">
  <g transform="translate(97.000000, 6.434900)">
      <path d="M6.3861,13.9875 C9.4601,13.9875 10.4131,11.8665 11.0581,9.3155 L9.6141,9.3155 C7.6151,9.3155 4.2971,9.6545 4.2971,12.3275 C4.2971,13.4345 5.3411,13.9875 6.3861,13.9875 M10.4131,14.2025 L10.3521,14.2025 C8.9381,15.9855 7.5241,17.0005 5.2491,17.0005 C2.3921,17.0005 0.3651,15.4015 0.3651,12.4825 C0.3651,7.2565 6.2021,6.8575 10.0741,6.8575 L11.5201,6.8575 C11.6421,6.4255 11.6421,5.9655 11.6421,5.5045 C11.6421,3.9065 9.9211,3.4455 8.4771,3.4455 C6.6631,3.4455 4.9111,3.9065 3.2821,4.6745 L3.8651,1.3865 C5.6181,0.7725 7.4011,0.4335 9.2451,0.4335 C12.4101,0.4335 15.3921,1.6015 15.3921,5.3205 C15.3921,7.4405 13.8241,13.6495 13.4551,16.6315 L9.9831,16.6315 L10.4131,14.2025" fill="#9F9F9F" ></path>
  </g>
  <g transform="translate(0.000000, 2.434900)">
      <path d="M0.6449,4.7878 L3.6269,4.7878 L4.3329,1.5308 L8.7589,0.0848 L7.7459,4.7878 L11.4339,4.7878 L10.7889,7.7998 L7.0989,7.7998 L5.5939,14.7158 C5.5009,15.0838 5.4099,15.6378 5.4099,16.2518 C5.4099,17.2048 6.0549,17.7888 6.9769,17.7888 C7.7149,17.7888 8.4529,17.6358 8.9749,17.4198 L8.2679,20.6168 C7.5609,20.7698 6.7619,20.9858 6.0549,20.9858 C3.2579,20.9858 1.2909,19.8788 1.2909,16.8358 C1.2909,15.6068 1.5369,14.4088 1.8139,13.1488 L2.9809,7.7998 L-0.0001,7.7998 L0.6449,4.7878 Z" fill="#9F9F9F" ></path>
  </g>
  <path d="M14.6312,0.3994 L18.7492,0.3994 L17.8892,4.3344 L13.7702,4.3344 L14.6312,0.3994 Z M13.1242,7.2224 L17.2432,7.2224 L13.8622,23.0514 L9.7432,23.0514 L13.1242,7.2224 Z" fill="#9F9F9F"></path>
  <path d="M29.681,10.8501 C28.881,10.3271 27.806,10.0511 26.668,10.0511 C23.379,10.0511 21.535,13.1241 21.535,16.1061 C21.535,18.1641 22.211,20.2241 25.039,20.2241 C26.054,20.2241 27.314,19.9471 28.389,19.4241 L27.929,22.6831 C26.668,23.2971 25.317,23.4201 23.964,23.4201 C19.876,23.4201 17.233,20.6851 17.233,16.5981 C17.233,11.0651 20.891,6.8551 26.577,6.8551 C28.114,6.8551 29.588,7.1311 30.696,7.4691 L29.681,10.8501 Z" fill="#9F9F9F"></path>
  <polygon fill="#9F9F9F" points="34.1976 -3.55271368e-15 38.3156 -3.55271368e-15 35.5806 12.971 35.6426 12.971 41.3896 7.223 46.7376 7.223 39.1456 14.446 43.9096 23.051 39.2686 23.051 35.1806 14.661 35.1196 14.661 33.3376 23.051 29.3106 23.051"></polygon>
  <path d="M61.5843,7.2227 L64.5653,7.2227 L65.2723,3.9657 L69.6973,2.5197 L68.6843,7.2227 L72.3723,7.2227 L71.7273,10.2347 L68.0383,10.2347 L66.5323,17.1507 C66.4393,17.5187 66.3483,18.0727 66.3483,18.6867 C66.3483,19.6397 66.9933,20.2237 67.9153,20.2237 C68.6533,20.2237 69.3913,20.0707 69.9133,19.8547 L69.2053,23.0517 C68.4993,23.2047 67.7003,23.4207 66.9933,23.4207 C64.1963,23.4207 62.2293,22.3137 62.2293,19.2707 C62.2293,18.0417 62.4753,16.8437 62.7523,15.5837 L63.9203,10.2347 L60.9383,10.2347 L61.5843,7.2227 Z" fill="#9F9F9F"></path>
  <path d="M60.2064,12.8784 C60.2064,8.8514 57.6244,6.8554 53.7224,6.8554 C48.5264,6.8554 44.7164,11.5884 44.7164,16.5054 C44.7164,21.2084 47.7894,23.4204 52.3384,23.4204 C54.0284,23.4204 55.7804,23.0214 57.3784,22.5294 L57.9014,19.2704 C56.3644,19.9784 54.7354,20.4084 53.0454,20.4084 C50.4104,20.4084 48.8714,19.4724 48.6734,16.9834 L48.6704,16.9834 C48.6624,16.8394 48.6494,16.6984 48.6494,16.5464 C48.6494,16.5174 48.6514,16.4874 48.6514,16.4594 C48.6514,16.4434 48.6504,16.4294 48.6504,16.4124 L48.6534,16.4124 C48.6714,15.3284 48.9094,14.2594 49.3224,13.2724 C50.1134,11.2584 51.2324,9.8664 53.6594,9.8664 C55.3814,9.8664 56.2724,10.8184 56.2724,12.5094 C56.2724,12.8784 56.2414,13.2164 56.1804,13.5854 L50.5454,13.5854 C50.1794,14.8284 50.1154,15.6624 50.1074,16.4124 L59.8074,16.4124 C60.0524,15.2444 60.2064,14.0774 60.2064,12.8784" fill="#9F9F9F"></path>
  <path d="M74.1488,8.9751 C74.2718,8.3601 74.3948,7.7151 74.4878,7.2231 L78.3298,7.2231 L77.9608,9.3441 L78.0218,9.3441 C79.1278,7.7151 80.9418,6.8551 82.8778,6.8551 C84.7528,6.8551 86.6888,7.9611 86.9038,9.8671 L86.9648,9.8671 C88.0098,7.8071 90.3158,6.8551 92.5288,6.8551 C94.8948,6.8551 96.9228,8.7901 96.9228,11.1881 C96.9228,12.6021 96.5548,14.2011 96.2168,15.4911 L94.5568,23.0511 L90.4388,23.0511 L92.0988,15.3361 C92.3128,14.3841 92.6208,12.9091 92.6208,11.9561 C92.6208,10.7881 91.7298,10.0511 90.6848,10.0511 C87.8258,10.0511 87.1188,13.3701 86.5968,15.5221 L84.9678,23.0511 L80.8498,23.0511 L82.5088,15.3361 C82.7238,14.3841 83.0318,12.9091 83.0318,11.9561 C83.0318,10.7881 82.1398,10.0511 81.0948,10.0511 C78.2978,10.0511 77.5298,13.4011 77.0068,15.5221 L75.3778,23.0511 L71.2598,23.0511 L74.1488,8.9751 Z" fill="#9F9F9F"></path>
  <path d="M124.6263,10.4458 C124.1843,10.2048 123.0463,9.8668 121.8783,9.8668 C120.6493,9.8668 119.1123,10.2048 119.1123,11.4638 C119.1123,13.4618 124.4603,14.2008 124.4603,18.0728 C124.4603,22.1918 120.8643,23.4208 117.3303,23.4208 C115.6703,23.4208 114.0103,23.1748 112.5043,22.4678 L113.3963,19.1788 C114.5633,19.8248 115.7313,20.4078 117.3303,20.4078 C118.7133,20.4078 120.1573,19.9468 120.1573,18.6568 C120.1573,16.1058 114.8103,15.8588 114.8103,11.8948 C114.8103,8.1758 118.4053,6.8548 121.6643,6.8548 C123.1703,6.8548 124.7063,7.1318 125.5183,7.3418 L124.6263,10.4458 Z" fill="#9F9F9F"></path>
  <path d="M127.2572,7.2227 L130.2382,7.2227 L130.9452,3.9657 L135.3712,2.5197 L134.3572,7.2227 L138.0452,7.2227 L137.4002,10.2347 L133.7112,10.2347 L132.2052,17.1507 C132.1132,17.5187 132.0222,18.0727 132.0222,18.6867 C132.0222,19.6397 132.6672,20.2237 133.5892,20.2237 C134.3262,20.2237 135.0642,20.0707 135.5862,19.8547 L134.8802,23.0517 C134.1732,23.2047 133.3732,23.4207 132.6672,23.4207 C129.8692,23.4207 127.9032,22.3137 127.9032,19.2707 C127.9032,18.0417 128.1492,16.8437 128.4242,15.5837 L129.5932,10.2347 L126.6122,10.2347 L127.2572,7.2227 Z" fill="#9F9F9F"></path>
  <path d="M155.18,9.3438 C155.303,8.6678 155.426,7.9608 155.549,7.2228 L159.484,7.2228 L158.93,10.2048 L158.992,10.2048 C159.73,8.4838 161.758,6.8548 163.663,6.8548 C164.186,6.8548 164.74,6.8848 165.231,7.0088 L164.37,11.0348 C163.909,10.8808 163.326,10.7888 162.803,10.7888 C159.883,10.7888 158.469,13.4008 157.947,15.9518 L156.471,23.0518 L152.353,23.0518 L155.18,9.3438 Z" fill="#9F9F9F"></path>
  <path d="M152.3226,12.8784 C152.3226,8.8514 149.7406,6.8554 145.8376,6.8554 C140.6426,6.8554 136.8316,11.5884 136.8316,16.5054 C136.8316,21.2084 139.9046,23.4204 144.4536,23.4204 C146.1436,23.4204 147.8956,23.0214 149.4946,22.5294 L150.0166,19.2704 C148.4796,19.9784 146.8506,20.4084 145.1616,20.4084 C142.5256,20.4084 140.9876,19.4724 140.7886,16.9834 L140.7856,16.9834 C140.7786,16.8394 140.7646,16.6984 140.7646,16.5464 C140.7646,16.5174 140.7656,16.4874 140.7666,16.4594 C140.7666,16.4434 140.7656,16.4294 140.7656,16.4124 L140.7686,16.4124 C140.7866,15.3284 141.0246,14.2594 141.4376,13.2724 C142.2286,11.2584 143.3476,9.8664 145.7746,9.8664 C147.4956,9.8664 148.3866,10.8184 148.3866,12.5094 C148.3866,12.8784 148.3566,13.2164 148.2966,13.5854 L142.6596,13.5854 C142.2956,14.8284 142.2296,15.6624 142.2226,16.4124 L151.9226,16.4124 C152.1686,15.2444 152.3226,14.0774 152.3226,12.8784" fill="#9F9F9F"></path>
  <g transform="translate(167.000000, 5.434900)">
    <path d="M3.3773,4.1071 L4.1843,4.1071 C4.7073,4.1071 5.0453,3.9981 5.0453,3.4571 C5.0453,2.9831 4.6203,2.8451 4.1843,2.8451 L3.3773,2.8451 L3.3773,4.1071 Z M2.6973,2.3121 L4.2933,2.3121 C5.2513,2.3121 5.7233,2.6981 5.7233,3.4871 C5.7233,4.1561 5.3003,4.6401 4.6473,4.6401 L5.8343,6.4841 L5.1113,6.4841 L3.9463,4.6401 L3.3773,4.6401 L3.3773,6.4841 L2.6973,6.4841 L2.6973,2.3121 Z M4.0683,7.4301 C5.7033,7.4301 6.9373,6.1081 6.9373,4.4041 C6.9373,2.6981 5.7033,1.3761 4.0683,1.3761 C2.4123,1.3761 1.1773,2.6981 1.1773,4.4041 C1.1773,6.1081 2.4123,7.4301 4.0683,7.4301 Z M4.0583,0.8431 C6.0173,0.8431 7.6173,2.4391 7.6173,4.4041 C7.6173,6.3641 6.0173,7.9601 4.0583,7.9601 C2.0963,7.9601 0.4963,6.3641 0.4963,4.4041 C0.4963,2.4391 2.0963,0.8431 4.0583,0.8431 Z" fill="#9F9F9F" ></path>
  </g>
</svg>
