<?xml version="1.0" encoding="UTF-8"?>
<svg width="93px" height="63px" viewBox="0 0 93 63" version="1.1" xmlns="http://www.w3.org/2000/svg" xmlns:xlink="http://www.w3.org/1999/xlink">
    <!-- Generator: Sketch 51.2 (57519) - http://www.bohemiancoding.com/sketch -->
    <title>Group 6</title>
    <desc>Created with Sketch.</desc>
    <defs>
        <polygon id="path-1" points="0 0.950290382 91.348 0.950290382 91.348 16.9999693 0 16.9999693"></polygon>
    </defs>
    <g id="ðŸ–Œï¸-Designs" stroke="none" stroke-width="1" fill="none" fill-rule="evenodd">
        <g id="AMER-and-Global-logos" transform="translate(-1077.000000, -460.000000)">
            <g id="Group-6" transform="translate(1077.758830, 460.030411)">
                <g id="Group-3" transform="translate(0.000000, 45.257800)">
                    <mask id="mask-2" fill="white">
                        <use xlink:href="#path-1"></use>
                    </mask>
                    <g id="Clip-2"></g>
                    <path d="M49.9987,16.781 L53.1107,16.781 L53.1107,8.474 L55.9517,8.474 L55.9517,5.609 L53.1107,5.609 L53.1107,5.168 C53.1117,3.496 55.0537,3.684 56.3437,3.936 L56.3437,1.247 C51.9957,0.304 50.0367,1.64 49.9987,4.81 L49.9987,16.781 Z M-0.0003,5.571 L3.3337,5.571 L6.1597,12.563 L8.9847,5.571 L12.3177,5.571 L7.8257,16.685 L7.8097,16.725 L7.8107,16.725 L4.5087,16.725 L4.4927,16.685 L-0.0003,5.571 Z M86.2797,8.015 C87.3107,8.015 88.1927,8.824 88.5637,9.973 L83.9967,9.973 C84.3677,8.824 85.2507,8.015 86.2797,8.015 Z M86.0567,5.399 C88.9777,5.399 91.3487,7.989 91.3487,11.182 C91.3487,11.588 91.3097,11.984 91.2367,12.366 L84.5227,12.366 L83.9887,12.366 C84.1717,12.761 84.3197,13.119 84.5227,13.426 C85.5017,14.369 86.2467,14.531 87.6687,14.531 C88.9027,14.531 89.8097,14.364 90.4867,14.073 L90.8497,14.003 L90.8597,16.058 C89.4017,17.134 87.3487,16.994 86.0567,16.994 C83.1337,16.994 80.7647,14.376 80.7647,11.182 C80.7647,7.989 83.1337,5.399 86.0567,5.399 Z M68.9047,16.772 L68.9047,16.842 L71.9057,16.842 L71.9057,16.772 L71.9767,16.772 L71.9767,8.645 C72.7207,8.446 73.4517,8.362 74.1817,8.351 C75.8087,8.42 76.5967,9.375 76.5467,11.085 L76.5467,16.842 L79.7257,16.842 L79.7257,10.977 C79.8427,7.488 78.0037,5.672 74.2107,5.532 C72.4557,5.555 70.6727,5.755 68.9047,6.308 L68.9047,6.336 L68.9047,16.772 Z M61.9637,8.027 C63.3287,8.027 64.4347,9.44 64.4347,11.182 C64.4347,12.925 63.3287,14.339 61.9637,14.339 C60.6007,14.339 59.4937,12.925 59.4937,11.182 C59.4937,9.44 60.6007,8.027 61.9637,8.027 Z M61.9637,5.399 C65.1577,5.399 67.7477,7.989 67.7477,11.182 C67.7477,14.376 65.1577,16.966 61.9637,16.966 C58.7707,16.966 56.1807,14.376 56.1807,11.182 C56.1807,7.989 58.7707,5.399 61.9637,5.399 Z M44.9987,8.39 L44.9987,13.219 C44.9927,13.56 44.2567,14.325 42.9207,14.312 C41.5837,14.3 40.5397,13.014 40.5397,11.271 C40.5397,9.044 42.6397,7.495 44.9987,8.39 Z M45.2167,16.843 L48.0567,16.843 L48.0567,6.165 C46.3017,5.757 45.0157,5.488 42.8987,5.488 C39.7057,5.488 37.1157,8.078 37.1157,11.271 C37.1157,14.465 39.6217,16.98 41.9747,16.98 C44.3267,16.98 44.5567,16.244 45.2067,15.99 L45.2167,16.843 Z M32.8867,13.98 L32.8867,8.385 C32.4437,8.156 31.9407,8.027 31.4067,8.027 C29.6437,8.027 28.2127,9.44 28.2127,11.182 C28.2127,12.925 29.6437,14.339 31.4067,14.339 C31.9407,14.339 32.4437,14.208 32.8867,13.98 Z M32.8867,1.198 L35.9447,1.198 L35.9447,16.519 C34.1897,16.841 32.4877,16.966 30.7867,16.966 C27.5937,16.966 25.0037,14.376 25.0037,11.182 C25.0037,7.989 27.5937,5.399 30.7867,5.399 C31.5267,5.399 32.2357,5.538 32.8867,5.792 L32.8867,1.198 Z M18.0287,8.027 C19.3927,8.027 20.4987,9.44 20.4987,11.182 C20.4987,12.925 19.3927,14.339 18.0287,14.339 C16.6647,14.339 15.5587,12.925 15.5587,11.182 C15.5587,9.44 16.6647,8.027 18.0287,8.027 Z M18.0287,5.399 C21.2227,5.399 23.8117,7.989 23.8117,11.182 C23.8117,14.376 21.2227,16.966 18.0287,16.966 C14.8357,16.966 12.2447,14.376 12.2447,11.182 C12.2447,7.989 14.8357,5.399 18.0287,5.399 Z" id="Fill-1" fill="#9F9F9F" mask="url(#mask-2)"></path>
                </g>
                <path d="M54.5368,1.9728 C50.8858,3.7938 48.4008,7.1358 48.2748,10.9898 C53.7038,11.9178 57.8538,16.5018 57.8538,22.0258 C57.8538,28.2668 52.6368,33.2798 46.2478,33.2798 C39.1818,33.2798 34.3658,27.0998 34.4898,20.1758 C34.4898,10.0528 42.9388,1.8588 53.3798,1.8588 C53.7078,1.8588 54.0318,1.8748 54.3558,1.8908 C51.6928,0.6798 48.7398,-0.0002 45.6298,-0.0002 C34.0338,-0.0002 24.6508,9.3828 24.6508,20.9788 C24.6508,32.6638 34.0338,42.0468 45.6298,42.0468 C57.2248,42.0468 66.6968,32.6638 66.6968,20.9788 C66.6968,12.5628 61.7058,5.3158 54.5368,1.9728" id="Fill-4" fill="#9F9F9F"></path>
            </g>
        </g>
    </g>
</svg>