<svg xmlns="http://www.w3.org/2000/svg" width="163" height="22" viewBox="0 0 163 22">
  <path fill="#9f9f9f" d="m16.1017363 26.4124655.3442337-5.878643h-.6024979c-.4302032 2.0160158-1.6360891 5.2071006-4.3052353 5.2071006h-5.76902938v-19.56411837h3.01320187v-.75711242h-8.78240929v.75711242h2.66896817v19.56411837h-2.66896817v.7555503zm8.7831213.0840079 16.7902037-.0838343.4312711-5.878643h-.8616522c-.8605843 4.7037475-2.238587 5.2071005-6.5436443 5.2071005h-3.874854v-9.740923c3.1853187 0 4.5633215.4196923 4.7354383 3.7786193h.6884674v-7.976931h-.6884674c-.4303811 3.3589271-1.4641502 3.3589271-4.7354383 3.3589271v-9.06781859h4.2190878c2.9270544 0 4.9937026.67136884 5.5109431 4.44998819h.6884674v-5.12326629h-16.3598226v.75711242h2.841085v19.56411837h-2.841085zm54.1609198 0v-.7555503h-2.6698581v-19.56411837h1.4641502c3.3583255 0 4.478242 2.3499645 4.8222977 5.37320707h.8607623l-.2582643-6.04648517h-16.7049463l-.3442337 6.04648517h.8616522c.6884675-3.10707689.9467317-5.37320707 4.046971-5.37320707h2.238587v19.56411837h-2.6698581v.7555503zm22.7322396.5035266c5.596913 0 9.29965-5.3732071 9.29965-11 0-5.6248836-3.702737-11-9.29965-11-5.5969122 0-9.2996494 5.4589507-9.2996494 11 0 5.5429586 3.7027372 11 9.2996494 11zm0-.7553767c-4.4780636 0-5.5969122-3.7786194-5.5969122-10.2444497 0-6.46426827 1.1188486-10.2446233 5.5969122-10.2446233 4.477174 0 5.596913 3.69461144 5.596913 10.2446233.000178 6.4658303-1.119561 10.2444497-5.596913 10.2444497zm30.826182.2518501v-.7555503h-2.669858v-19.56411837h1.46415c3.358326 0 4.477174 2.3499645 4.822476 5.37320707h.860584l-.258086-6.04648517h-16.618977l-.344234 6.04648517h.861653c.688467-3.10707689.946553-5.37320707 4.046793-5.37320707h2.238587v19.56411837h-2.669858v.7555503zm13.088357 0 16.876173-.0838343.431271-5.878643h-.861652c-.860762 4.7037475-2.238587 5.2071005-6.543822 5.2071005h-3.874855v-9.740923c3.185319 0 4.563322.4196923 4.735439 3.7786193h.603388v-7.976931h-.689536c-.430203 3.3589271-1.463972 3.3589271-4.73526 3.3589271v-9.06781859h4.219088c2.927054 0 4.994592.67136884 5.510943 4.44998819h.688467v-5.12326629h-16.359822v.75711242h2.841085v19.56411837h-2.841085v.7555503z" transform="translate(0 -5)"/>
</svg>
