<svg xmlns="http://www.w3.org/2000/svg" width="118" height="32" viewBox="0 0 118 32">
  <path fill="#9f9f9f" d="m376.225346 29.9373713c-1.775071.3127823-3.581369.4065591-5.449895.6563225l-5.699262-16.7498681v17.468747c-1.77507.1874381-3.394459.4374327-5.076189.6874273v-32h4.733828l6.477555 18.1565212v-18.1565212h5.013963zm9.810017-18.2186152c1.930983 0 4.88951-.0937769 6.66458-.0937769v4.9998916c-2.211232 0-4.795939 0-6.66458.0937769v7.4376278c2.92753-.1874381 5.854944-.4376639 8.813356-.5314408v4.8122222l-13.796321 1.0939865v-29.5310434h13.796321v5h-8.813356zm27.343274-6.71863324h-5.169645v22.99996384c-1.68173 0-3.363461 0-4.982619.0623252v-23.06228904h-5.169644v-5.00012286h15.322138zm8.097058 6.37497744h6.820377v4.9998916h-6.820377v11.3438798h-4.88974v-27.7188717h13.921234v5h-9.031494zm17.128553 11.968635c2.834074.0623252 5.699031.2814463 8.470879.4374327v4.9375664c-4.453348-.2814462-8.906811-.5623143-13.453613-.6563225v-28.0624119h4.982734zm12.67509 5.7187706c1.588275.0938925 3.270006.1876694 4.889394.3748762v-29.4373821h-4.889394zm26.720662-29.0625059-6.322104 15.2187958 6.322104 16.7812042c-1.868756-.2499946-3.737281-.593766-5.605922-.9063171l-3.581254-9.2497994-3.643365 8.5000469c-1.806645-.3127823-3.550602-.4065591-5.356555-.6565537l6.415328-14.6562502-5.792716-15.0311265h5.356324l3.270006 8.4062701 3.488144-8.4062701z" transform="translate(-360)"/>
</svg>
