<svg xmlns="http://www.w3.org/2000/svg" width="117" height="29" viewBox="0 0 117 29">
  <path fill="#9f9f9f" d="m221.379054 25.2001938c1.60431.0016048 2.90363 1.2998577 2.902289 2.8999031.001341 1.6000455-1.297979 2.8982983-2.902289 2.8999031-1.60272 0-2.901802-1.2985364-2.901802-2.8999031v-2.8999031zm-7.738624-7.7335594c.770463.0006422 1.509107.3065432 2.053405.8503945.544299.5438513.849656 1.2810935.848884 2.0495086v7.7335594c.001341 1.6000455-1.29798 2.8982983-2.902289 2.8999031-1.60272 0-2.901803-1.2985364-2.901803-2.9003876v-7.7330749c0-1.6013667 1.299083-2.8999031 2.901803-2.8999031zm33.232021-7.73307495c2.336794 0 4.674559.57561985 6.33412 1.89596005l-1.329689 3.3878233c-1.526932-.9792321-3.412885-1.6619328-5.207989-1.6619328-1.219408 0-2.032671.5751353-2.032671 1.3203402.034008 2.4032614 9.044995 1.0829212 9.146531 6.9394172 0 3.1818987-2.710389 5.4160596-6.572171 5.4160596-2.844961 0-5.453328-.6768863-7.452477-2.0989775l1.423452-3.3170821c1.558025 1.1507552 3.590209 1.7598075 5.622879 1.7598075 1.490496 0 2.438816-.5751353 2.438816-1.4550391-.034007-2.4371783-8.976493-.5417028-9.044508-6.6690503-.034008-3.1140647 2.74391-5.51732605 6.673707-5.51732605zm45.948843 0c3.245276 0 6.071776 1.78597205 7.553527 4.42713695l-3.956031 2.1900688c-.731313-1.2959353-2.106446-2.0978931-3.597496-2.0980084-2.282382 0-4.132384 1.8489608-4.132384 4.1296364 0 2.2806757 1.850002 4.1296365 4.132384 4.1296365 1.49105-.0001153 2.866183-.8020731 3.597496-2.0980084l3.956031 2.1900688c-1.481751 2.6411649-4.308251 4.4271369-7.553527 4.4271369-4.779982 0-8.654881-3.8723518-8.654881-8.6488338 0-4.7769665 3.874899-8.64883375 8.654881-8.64883375zm-21.200693 0c2.100199 0 4.098862.94773775 4.911639 2.30199495v-1.9637941h4.945646v16.6207813h-4.945646v-1.9633095c-.812777 1.3542572-2.81144 2.3019949-4.911639 2.3019949-4.335942 0-7.757086-3.8592695-7.757086-8.6657923 0-4.8065227 3.421144-8.63187525 7.757086-8.63187525zm-10.32513-7.19960904v24.15859119h-4.945646l.000486-24.15859119zm46.522596 0v14.20734479l5.589357-6.6705039h6.050401l-6.910302 8.0233075 7.452477 8.5984428h-6.321488l-5.860445-7.2378868v7.2378868h-4.945646v-24.15859119zm-78.700388 14.93268399c1.604309.0016048 2.90363 1.2998576 2.902289 2.8999031 0 1.6018512-1.29957 2.9003876-2.901804 2.9003876l-7.73911-.0004845c-.770379-.0007707-1.508898-.3067284-2.053092-.8505658-.544193-.5438374-.849483-1.2810061-.848711-2.0493373 0-1.6013667 1.299083-2.8999031 2.901803-2.8999031zm-20.313585 0v2.8999031c.001341 1.6000454-1.297979 2.8982982-2.902289 2.8999031-.770379-.0007707-1.508898-.3067284-2.053092-.8505658-.544193-.5438374-.849484-1.2810061-.848712-2.0493373 0-1.6013667 1.299084-2.8999031 2.901804-2.8999031zm63.866849-3.2138776c-2.282867 0-4.132869 1.8489608-4.132869 4.1296364 0 2.2806757 1.850002 4.1291519 4.132869 4.1291519 1.659561 0 3.150056-.8794192 3.861297-2.0640914v-4.0627715c-.711241-1.2181046-2.201736-2.1319254-3.861297-2.1319254zm-59.030513-4.51968188c1.602719 0 2.902287 1.29853638 2.902287 2.90038758 0 1.6013667-1.299568 2.8999031-2.901802 2.8999031h-7.73911c-1.60272 0-2.901802-1.2985364-2.901802-2.8999031 0-1.6018512 1.299082-2.90038758 2.901802-2.90038758zm15.477249 0c1.602719 0 2.902289 1.29853638 2.902289 2.90038758.001341 1.6000455-1.29798 2.8982983-2.902289 2.8999031h-2.901802v-2.8999031c0-1.6018512 1.299082-2.90038758 2.901802-2.90038758zm-7.738625-7.73307492c1.60431.00160484 2.90363 1.29985764 2.902289 2.89990309v7.73404401c.001341 1.6000454-1.297979 2.8982982-2.902289 2.8999031-1.60272 0-2.901802-1.2985364-2.901802-2.9008722v-7.73307491c0-1.6013667 1.299082-2.89990309 2.901802-2.89990309zm-7.738624 0c1.604309.00160484 2.90363 1.29985764 2.902288 2.89990309v2.8999031h-2.902288c-.770379-.00077064-1.508899-.30672831-2.053092-.85056572-.544194-.5438374-.849484-1.28100617-.848712-2.04933738 0-1.6013667 1.299084-2.89990309 2.901804-2.89990309z" transform="translate(-203 -2)"/>
</svg>
