<?xml version="1.0" encoding="UTF-8"?>
<svg width="107px" height="21px" viewBox="0 0 107 21" version="1.1" xmlns="http://www.w3.org/2000/svg" xmlns:xlink="http://www.w3.org/1999/xlink">
    <path d="M6.3165,13.341 C6.4275,14.449 6.9815,14.671 7.5355,14.781 C8.4215,15.003 14.7385,15.003 15.8465,14.781 C16.6225,14.671 17.1765,14.116 17.2875,13.452 C17.2875,13.119 17.3985,12.565 17.3985,12.343 L23.7145,12.343 C23.7145,12.787 23.7145,13.895 23.6035,14.892 C23.2715,17.219 21.9415,19.103 19.0605,19.768 C17.0655,20.212 7.4245,20.212 5.2085,19.768 C2.8805,19.214 0.8865,17.774 0.3325,15.336 C-0.1115,13.119 -0.1115,7.357 0.3325,4.919 C0.6655,3.146 2.3275,1.04 5.0975,0.486 C7.6465,0.043 16.6225,-0.068 19.0605,0.486 C22.2745,1.262 23.2715,4.143 23.3825,5.14 C23.4935,6.249 23.4935,7.024 23.4935,7.467 L17.1765,7.467 C17.1765,7.024 17.2875,5.805 16.1795,5.473 C15.5145,5.251 9.3085,5.251 7.7565,5.362 C6.9815,5.473 6.5385,5.805 6.4275,6.581 C6.0945,8.133 6.0945,11.9 6.3165,13.341 Z M41.1135,16.222 L42.4435,19.657 L48.9815,19.657 L40.7805,0.375 L31.9155,0.375 L23.8255,19.657 L30.3645,19.657 L31.6935,16.111 L41.1135,16.222 Z M39.7835,12.233 L33.0235,12.233 L35.9045,4.586 L36.9025,4.586 L39.7835,12.233 Z M63.8315,12.343 C64.8285,12.565 65.0495,13.341 65.0495,14.006 C65.0495,14.671 64.9385,15.446 63.8315,15.557 C62.6115,15.779 58.5115,15.779 56.9605,15.557 C56.2955,15.446 55.5195,15.446 55.2975,14.227 L55.2975,13.895 L49.2035,13.895 C49.2035,14.006 49.2035,14.338 49.3135,14.781 C49.5355,17.33 50.5325,19.103 53.4145,19.657 C55.7415,20.101 64.4955,20.212 67.1555,19.657 C70.2575,18.992 71.0345,16.222 71.0345,13.784 C71.0345,11.013 70.0365,9.13 67.5985,8.354 C66.9335,8.133 65.3815,8.022 64.7165,8.022 C64.1635,8.022 57.6255,7.8 56.1845,7.578 C55.2975,7.467 55.0765,6.913 55.0765,6.138 C55.0765,5.362 55.1865,4.808 56.2955,4.586 C57.6255,4.364 62.8335,4.364 63.3875,4.586 C64.0525,4.808 64.2735,5.251 64.2735,5.805 L64.2735,6.249 L70.3695,6.249 C70.3695,5.805 70.2575,5.473 70.2575,5.14 C69.9255,2.148 68.2635,0.486 65.2715,0.264 C62.2795,-0.068 55.4085,0.043 53.3025,0.375 C51.3085,0.819 49.3135,2.037 49.3135,6.138 C49.3135,9.462 50.8655,11.125 53.5245,11.678 C54.3005,11.789 56.5165,11.9 56.8495,11.9 C57.6255,12.011 63.3875,12.233 63.8315,12.343 Z M73.5835,19.657 L79.6785,19.657 L79.6785,0.486 L73.5835,0.486 L73.5835,19.657 Z M101.3975,0.375 C99.2925,-0.068 91.2025,-0.179 87.9895,0.375 C85.5505,0.819 83.6675,2.591 83.1135,4.808 C82.6705,7.357 82.6705,13.008 83.1135,15.336 C83.5565,17.441 85.3295,19.325 87.9895,19.768 C90.7595,20.322 98.9605,20.212 101.5085,19.657 C104.5015,18.992 105.7195,16.776 106.0515,15.336 C106.4955,13.119 106.4955,7.467 106.0515,4.808 C105.4985,2.481 103.5035,0.819 101.3975,0.375 Z M90.4265,14.781 C89.5405,14.56 89.3185,14.116 89.2085,13.23 C88.9865,11.789 88.9865,8.243 89.2085,6.692 C89.3185,5.916 89.7615,5.473 90.4265,5.251 C91.2025,5.029 98.2955,4.919 99.0705,5.251 C99.7355,5.473 99.9575,5.916 100.0685,6.581 C100.4005,8.022 100.4005,11.678 100.0685,13.119 C99.9575,13.784 99.7355,14.116 99.0705,14.449 C98.4055,15.003 91.4235,15.003 90.4265,14.781 Z" fill="#9F9F9F"></path>
</svg>
