<svg xmlns="http://www.w3.org/2000/svg" width="192" height="20" viewBox="0 0 192 20">
  <path fill="#9f9f9f" d="m47.7535135 12.0008459v12.0957577c0 2.3905596.691027 4.3031765 4.0838919 4.3031765 3.3357838 0 4.0553514-1.9126169 4.0553514-4.3031765v-12.0957577h4.2854054v11.7573912c0 4.5848666-1.6112433 8.2417629-8.3407568 8.2417629-6.7571892 0-8.3978378-3.6568963-8.3978378-8.2417629v-11.7573912zm136.1357835-.0008459c5.234162 0 8.082162 1.8567864 8.082162 6.0195407 0 3.2914604-1.75481 5.1482468-5.004973 5.7953728l5.033514 7.876327h-4.687568l-4.630486-7.623398h-3.39373v7.6225521h-4.313081v-19.6903946zm-108.5353511 0c4.9755676 0 7.5061622 1.688449 7.5061622 4.782811 0 2.7559954-2.0419459 4.1627543-3.3072432 4.387768 1.5524324.252929 4.3995675 1.6030115 4.3995675 5.2319926 0 3.2347841-2.2711351 5.287823-7.2761081 5.287823h-9.4322162v-19.6903946zm18.9716757 0v16.1180899h9.5195674v3.5723047h-13.8326485v-19.6903946zm29.2393514 0v3.5723047h-9.836108v4.5290361h8.051892v3.487713h-8.051892v4.5290361h10.008216v3.5723047h-14.321297v-19.6903946zm-115.4542703 0c4.9755676 0 7.5061622 1.688449 7.5061622 4.782811 0 2.7559954-2.041946 4.1627543-3.3072433 4.387768 1.5524325.252929 4.3995676 1.6030115 4.3995676 5.2319926 0 3.2347841-2.272 5.287823-7.27610812 5.287823h-9.43308108v-19.6903946zm130.0549193 0c4.975567 0 7.506162 1.688449 7.506162 4.782811 0 2.7559954-2.041946 4.1627543-3.307243 4.387768 1.552432.252929 4.399567 1.6030115 4.399567 5.2319926 0 3.2347841-2.272 5.287823-7.276108 5.287823h-9.432216v-19.6903946zm-106.8203247.1167365 8.6806486 19.5127521h-4.96l-1.7193513-4.1339931h-7.7483243l-1.6631352 4.1339931h-4.8467027l8.6227027-19.5127521zm130.3697297 0 8.679784 19.5127521h-4.96l-1.719352-4.1339931h-7.748324l-1.663135 4.1339931h-4.846703l8.623568-19.5127521zm-86.4761081 10.7685149h-3.6808648v5.541598h4.2568648c2.6447568 0 3.8823784-1.0404771 3.8823784-2.7289261-.0008649-1.9405321-1.5256216-2.8126719-4.4583784-2.8126719zm-67.24324322 0h-3.68172973v5.541598h4.256c2.64648645 0 3.88324325-1.0404771 3.88324325-2.7289261 0-1.9405321-1.5247568-2.8126719-4.45751352-2.8126719zm130.05491932 0h-3.680865v5.541598h4.256865c2.645621 0 3.882378-1.0404771 3.882378-2.7289261-.000865-1.9405321-1.524757-2.8126719-4.458378-2.8126719zm-108.6486491-5.0915704-2.4224864 6.0635283h4.8752432zm130.3688651 0-2.422487 6.0635283h4.874379zm23.916973-2.4743053h-4.399568v5.4282452h4.342487c2.301405 0 3.997405-.6192108 3.997405-2.7289261 0-2.1088695-1.696-2.6993191-3.940324-2.6993191zm-108.5932975-.0566764h-3.5372973v4.5848666h3.4508108c2.156973 0 3.5952438-.7317177 3.5952438-2.3626444.0008643-1.3779977-1.0637843-2.2222222-3.5087573-2.2222222zm-67.24324326 0h-3.53729729v4.5848666h3.45081081c2.15697297 0 3.59524374-.7317177 3.59524374-2.3626444.0008644-1.3779977-1.0637843-2.2222222-3.50875726-2.2222222zm130.05578376 0h-3.537297v4.5848666h3.450811c2.156973 0 3.595243-.7317177 3.595243-2.3626444 0-1.3779977-1.064649-2.2222222-3.508757-2.2222222z" transform="translate(0 -12)"/>
</svg>
