<?xml version="1.0" encoding="utf-8"?>
<!-- Generator: Adobe Illustrator 19.0.0, SVG Export Plug-In . SVG Version: 6.00 Build 0)  -->
<svg version="1.1" id="Layer_1" xmlns="http://www.w3.org/2000/svg" xmlns:xlink="http://www.w3.org/1999/xlink" x="0px" y="0px"
	 viewBox="0 0 486 552" enable-background="new 0 0 486 552" xml:space="preserve">
<rect x="28.1" y="26.3" width="425.2" height="15.3"/>
<rect x="28.1" y="188.6" width="425.2" height="15.3"/>
<rect x="28.1" y="351" width="425.2" height="15.3"/>
<rect x="28.1" y="513.4" width="425.2" height="15.3"/>
<g>
	<g>
		<path d="M29.5,440.8v-0.2c0-16.5,12.4-30,30.3-30c10.9,0,17.5,3.6,22.9,9l-8.1,9.4c-4.5-4.1-9-6.5-14.8-6.5
			c-9.8,0-16.8,8.1-16.8,18.1v0.2c0,9.9,6.9,18.2,16.8,18.2c6.6,0,10.7-2.7,15.3-6.8l8.1,8.2c-6,6.4-12.6,10.4-23.8,10.4
			C42.2,470.6,29.5,457.4,29.5,440.8z"/>
	</g>
	<g>
		<path stroke="#000000" stroke-width="1.1766" stroke-miterlimit="10" d="M90.8,440.9v-0.1c0-10,8-18.1,18.9-18.1
			c10.8,0,18.7,8,18.7,18v0.1c0,10-8,18.1-18.9,18.1C98.8,458.9,90.8,450.9,90.8,440.9z M118.7,440.9v-0.1c0-5.1-3.7-9.6-9.1-9.6
			c-5.6,0-9,4.3-9,9.5v0.1c0,5.1,3.7,9.6,9.1,9.6C115.3,450.4,118.7,446.1,118.7,440.9z"/>
	</g>
	<g>
		<path d="M140.3,411.6H154l15.3,24.5l15.3-24.5h13.8v58h-12.7v-37.9l-16.3,24.8h-0.3L152.8,432v37.6h-12.5V411.6z"/>
		<path d="M214.3,411.6H238c13.8,0,22.2,8.2,22.2,20.1v0.2c0,13.4-10.4,20.4-23.5,20.4h-9.7v17.4h-12.8V411.6z M237.2,440.9
			c6.4,0,10.1-3.8,10.1-8.8v-0.2c0-5.7-4-8.8-10.4-8.8h-9.9v17.7H237.2z"/>
		<path d="M285,411.2h11.8l24.9,58.4h-13.3l-5.3-13h-24.5l-5.3,13h-13L285,411.2z M298.4,445.3l-7.7-18.8l-7.7,18.8H298.4z"/>
		<path d="M334.3,411.6h11.8l27.2,35.7v-35.7h12.6v58H375l-28.1-36.9v36.9h-12.6V411.6z"/>
		<path d="M419.9,446.7l-22.3-35.1h14.9l13.8,23.3l14.1-23.3H455l-22.3,34.9v23.1h-12.8V446.7z"/>
	</g>
</g>
<g>
	<path d="M52,247.9h11.8l24.9,58.4H75.3l-5.3-13H45.5l-5.3,13h-13L52,247.9z M65.4,282l-7.7-18.8L50,282H65.4z"/>
	<path d="M101.3,248.3h11.8l27.2,35.7v-35.7h12.6v58H142l-28.1-36.9v36.9h-12.6V248.3z"/>
	<path d="M168.9,248.3h22.6c18.2,0,30.8,12.5,30.8,28.8v0.2c0,16.3-12.6,29-30.8,29h-22.6V248.3z M191.5,294.8
		c10.4,0,17.5-7,17.5-17.3v-0.2c0-10.3-7-17.5-17.5-17.5h-9.9v35H191.5z"/>
</g>
<g>
	<path d="M27.6,88.6h13.7l12,39.3l13-39.5h10.9l13,39.5l12-39.3h13.3L95.9,147H84.7l-13.1-38l-13.1,38H47.4L27.6,88.6z"/>
	<path d="M140.5,88.2h11.8l24.9,58.4h-13.3l-5.3-13h-24.5l-5.3,13h-13L140.5,88.2z M153.9,122.3l-7.7-18.8l-7.7,18.8H153.9z"/>
	<path d="M191.4,88.6h12.8V135h28.9v11.6h-41.7V88.6z"/>
	<path d="M248.2,88.6h12.8V114l23.5-25.4h15.4l-23.6,24.6l24.7,33.4h-15.3l-18-24.7l-6.7,7v17.7h-12.8V88.6z"/>
	<path d="M314.1,88.6h43.8V100h-31.1v11.8h27.4v11.4h-27.4v12.2h31.5v11.4h-44.2V88.6z"/>
	<path d="M373.3,88.6h26.5c7.4,0,13.1,2.1,16.9,5.9c3.2,3.2,5,7.8,5,13.3v0.2c0,9.4-5.1,15.3-12.4,18l14.2,20.7h-14.9l-12.4-18.6
		H396h-9.9v18.6h-12.8V88.6z M399,116.8c6.2,0,9.8-3.3,9.8-8.2v-0.2c0-5.5-3.8-8.3-10-8.3h-12.7v16.7H399z"/>
</g>
</svg>
