<?xml version="1.0" encoding="utf-8"?>
<!-- Generator: Adobe Illustrator 19.0.0, SVG Export Plug-In . SVG Version: 6.00 Build 0)  -->
<svg version="1.1" id="Layer_1" xmlns="http://www.w3.org/2000/svg" xmlns:xlink="http://www.w3.org/1999/xlink" x="0px" y="0px"
	 viewBox="0 0 85.25 30.5" enable-background="new 0 0 85.25 30.5" xml:space="preserve">
<rect x="13.334" y="3.229" fill="#007AC2" width="59.238" height="23.976"/>
<path fill="#FFFFFF" d="M19.126,5.543h6.441l3.954,13.383h0.055l2.71-13.383h4.866L33.06,24.842h-6.414l-4.037-13.353h-0.056
	l-2.682,13.353h-4.866L19.126,5.543z"/>
<path fill="#FFFFFF" d="M39.057,5.543h5.171l-1.521,7.383h6.111l1.521-7.383h5.17l-4.009,19.299h-5.171l1.715-8.267h-6.11
	l-1.715,8.267h-5.17L39.057,5.543z"/>
<path fill="#FFFFFF" d="M69.11,9.912c-0.996-0.471-2.351-0.885-4.258-0.885c-2.047,0-3.705,0.304-3.705,1.851
	c0,2.738,7.493,1.715,7.493,7.576c0,5.336-4.949,6.719-9.429,6.719c-1.99,0-4.286-0.47-5.973-0.995l1.217-3.927
	c1.023,0.664,3.069,1.106,4.756,1.106c1.604,0,4.119-0.304,4.119-2.295c0-3.097-7.492-1.935-7.492-7.382
	c0-4.977,4.368-6.471,8.599-6.471c2.378,0,4.617,0.25,5.917,0.857L69.11,9.912z"/>
</svg>
