<?xml version="1.0" encoding="UTF-8"?>
<svg width="424px" height="108px" viewBox="0 0 424 108" version="1.1" xmlns="http://www.w3.org/2000/svg" xmlns:xlink="http://www.w3.org/1999/xlink">
    <!-- Generator: Sketch 51.2 (57519) - http://www.bohemiancoding.com/sketch -->
    <title>ean-logo-color</title>
    <desc>Created with Sketch.</desc>
    <defs></defs>
    <g id="ðŸ–Œï¸-Designs" stroke="none" stroke-width="1" fill="none" fill-rule="evenodd">
        <g id="enterpriseSolution" transform="translate(-508.000000, -5284.000000)" fill="#0F2554" fill-rule="nonzero">
            <g id="ean-logo-color" transform="translate(508.000000, 5284.930397)">
                <path d="M182.606212,44.1887877 C179.629841,44.1887877 178.62751,41.9020549 178.62751,38.381569 C178.62751,34.2401213 180.866933,33.0002402 182.642957,33.0002402 C185.543797,33.0002402 186.551231,35.8272507 186.551231,38.381569 C186.551231,41.1268739 185.543797,44.1887877 182.606212,44.1887877 M184.152578,27.9692239 C181.83354,27.9692239 179.897265,28.9731802 178.62751,30.8758971 L178.546874,30.8758971 L178.543812,30.1139933 C178.543812,29.2693627 177.865044,28.5799725 177.030109,28.5564822 L172.767651,28.5523969 C172.500226,28.5523969 172.280775,28.7781083 172.280775,29.0456938 L172.280775,53.7861204 C172.280775,54.6511772 172.974854,55.3466954 173.84143,55.3466954 L178.354982,55.3466954 C178.630572,55.3466954 178.847981,55.1291547 178.847981,54.8544199 L178.857168,46.4734779 L178.931679,46.4734779 C180.286153,48.2883614 182.179558,49.2187828 184.657826,49.2187828 C190.342124,49.2187828 193.126604,44.2643653 193.126604,39.0362344 C193.126604,33.390384 190.455422,27.9692239 184.152578,27.9692239" id="Fill-1"></path>
                <path d="M207.7885,65.103456 C208.131456,65.103456 208.374384,65.3209973 208.429502,65.5610072 L211.267057,78.0690985 L211.345651,78.0690985 L214.445528,65.8316562 C214.561888,65.4609178 214.99977,65.103456 215.431528,65.103456 L220.7004,65.103456 C221.065811,65.103456 221.236269,65.3771694 221.127054,65.7203325 L215.282505,84.4594901 C215.172269,84.8332929 214.729284,85.1866689 214.297526,85.1866689 L208.938832,85.1866689 C208.594855,85.1866689 208.353969,84.9670857 208.298851,84.732182 L205.2347,71.833947 L205.155085,71.833947 L202.129719,84.732182 C202.075622,84.9670857 201.828612,85.1866689 201.490759,85.1866689 L196.127982,85.1866689 C195.696224,85.1866689 195.258343,84.8332929 195.146065,84.4594901 L189.297434,65.7203325 C189.189239,65.3771694 189.364801,65.103456 189.729192,65.103456 L194.957236,65.103456 C195.383889,65.103456 195.821771,65.4609178 195.940173,65.8316562 L199.119664,78.1048443 L199.199279,78.1048443 L201.959262,65.5610072 C202.017442,65.3209973 202.255266,65.103456 202.598222,65.103456 L207.7885,65.103456 Z" id="Fill-3"></path>
                <path d="M231.183331,80.7379065 C234.243401,80.7379065 235.211027,77.7178668 235.211027,75.1645697 C235.211027,72.612294 234.243401,69.5575294 231.183331,69.5575294 C228.130407,69.5575294 227.201566,72.612294 227.201566,75.1645697 C227.201566,77.7178668 228.130407,80.7379065 231.183331,80.7379065 M231.183331,64.5234493 C237.416768,64.5234493 241.781296,69.1265331 241.781296,75.1645697 C241.781296,81.2036276 237.416768,85.7699443 231.183331,85.7699443 C224.964184,85.7699443 220.631298,81.2036276 220.631298,75.1645697 C220.631298,69.1265331 224.964184,64.5234493 231.183331,64.5234493" id="Fill-5"></path>
                <path d="M130.692413,48.634282 C128.74389,48.634282 127.163841,47.0553231 127.163841,45.1066469 L127.163841,24.6179704 C127.163841,22.6703155 128.74389,21.089314 130.692413,21.089314 L148.803777,21.089314 C148.803777,21.089314 149.107947,21.089314 149.104885,21.3568996 C149.037518,23.2851494 148.510835,25.0898197 147.596285,26.6514162 C147.494214,26.824019 147.231893,26.8383175 147.231893,26.8383175 L134.336325,26.8383175 L134.336325,31.6589423 L146.119327,31.6589423 C146.391855,31.6589423 146.609264,31.8785258 146.609264,32.1491753 L146.609264,36.7287688 C146.609264,36.9963543 146.391855,37.2138952 146.119327,37.2138952 L134.336325,37.2138952 L134.336325,42.4634738 L148.803777,42.4634738 C149.076305,42.4634738 149.217162,42.6697802 149.126319,42.9210246 L147.156361,48.1787738 C147.064498,48.4300182 146.768494,48.634282 146.495966,48.634282 L130.692413,48.634282 Z" id="Fill-7"></path>
                <path d="M290.670444,38.3703345 L296.915108,38.3703345 L293.87035,28.7280637 L293.794818,28.7280637 L290.670444,38.3703345 Z M294.541973,21.0896204 L297.006972,21.0896204 C297.28052,21.0896204 297.572442,21.2918415 297.667367,21.5471712 L307.620247,48.1780589 C307.712111,48.4293033 307.571254,48.6345884 307.303829,48.6345884 L300.802969,48.6345884 C300.532482,48.6345884 300.23954,48.4293033 300.150739,48.1739736 L298.612539,43.6924267 L288.991387,43.6985547 L287.441959,48.1739736 C287.351116,48.4293033 287.060216,48.6345884 286.78973,48.6345884 L280.403187,48.6345884 C280.133722,48.6345884 279.991844,48.4293033 280.08779,48.1780589 L288.388151,25.9684603 C289.723232,22.3846527 290.729645,21.0896204 294.541973,21.0896204 Z" id="Fill-9"></path>
                <path d="M127.164351,61.1702555 C127.164351,59.2205577 128.7444,57.6395564 130.692923,57.6395564 L134.040831,57.6395564 C134.307235,57.6395564 134.637943,57.8315642 134.771655,58.0664674 L144.168251,74.7537954 L144.172335,58.1277467 C144.172335,57.85914 144.389744,57.6395564 144.662272,57.6395564 L150.430268,57.6395564 C150.697692,57.6395564 150.918164,57.85914 150.918164,58.1277467 L150.918164,81.6579102 C150.918164,83.6055652 149.338115,85.186567 147.391634,85.186567 L144.041684,85.186567 C143.771198,85.186567 143.444573,84.9945592 143.315964,84.7576131 L133.914264,67.9364922 L133.914264,84.6963338 C133.914264,84.9669833 133.693792,85.186567 133.426368,85.186567 L127.653269,85.186567 C127.381761,85.186567 127.164351,84.9669833 127.164351,84.6963338 L127.164351,61.1702555 Z" id="Fill-11"></path>
                <path d="M374.919519,45.1540361 C378.059203,45.1540361 379.098279,43.3748987 378.945174,39.2324297 C378.017354,39.8135601 376.315841,39.932033 374.882774,40.3170703 C373.413982,40.66534 372.176889,41.2832378 372.176889,42.8703672 C372.176889,44.4983494 373.452768,45.1540361 374.919519,45.1540361 M372.199344,34.7447549 L367.011108,34.7447549 C366.710001,34.7447549 366.405831,34.5384485 366.458908,34.1605605 C366.774305,31.8656572 367.903203,30.3285724 369.544494,29.3644474 C371.32358,28.3574271 373.645681,27.9693259 375.927974,27.9693259 C380.687515,27.9693259 385.289867,29.0151564 385.289867,34.7028808 L385.289867,43.4892864 C385.289867,44.9446657 385.292929,46.5144327 385.769598,47.9330445 C385.910455,48.3456573 385.708356,48.6387758 385.206169,48.6387758 L380.015892,48.6387758 C379.750509,48.6387758 379.375911,48.5019191 379.299358,48.1699905 C379.173811,47.7042691 379.120735,47.2375264 379.062555,46.7411655 C377.35798,48.5213242 374.843987,49.2188849 372.450437,49.2188849 C368.615654,49.2188849 365.603558,47.2845071 365.603558,43.1430594 C365.603558,36.6025338 372.717861,37.1040013 377.281427,36.1756225 C378.404201,35.9437831 379.024789,35.5567033 379.024789,34.3198863 C379.024789,32.8093557 377.201812,32.2282254 375.851421,32.2282254 C374.146847,32.2282254 373.02101,32.9421272 372.628039,34.43121 C372.574963,34.6140261 372.486162,34.7447549 372.199344,34.7447549" id="Fill-13"></path>
                <path d="M363.188471,26.0407697 L363.188471,22.5631792 C363.188471,21.7042501 362.488268,21.005668 361.624753,21.005668 L357.112223,21.005668 C356.843778,21.005668 356.624327,21.2242302 356.624327,21.4948797 L356.624327,26.0407697 L363.188471,26.0407697 Z M363.188471,28.5491287 L363.188471,48.1431298 C363.188471,48.4107153 362.964937,48.6343841 362.697513,48.6343841 L358.13803,48.6313202 C357.297991,48.6088512 356.624327,47.9204823 356.624327,47.0748304 L356.624327,28.5491287 L363.188471,28.5491287 Z" id="Fill-15"></path>
                <path d="M343.38621,26.0407697 L343.38621,22.5631792 C343.38621,21.7042501 342.69009,21.005668 341.822492,21.005668 L337.317106,21.005668 C337.041516,21.005668 336.824107,21.2242302 336.824107,21.4948797 L336.824107,26.0407697 L343.38621,26.0407697 Z M343.38621,28.5491287 L343.38621,48.1431298 C343.38621,48.4107153 343.166759,48.6343841 342.898314,48.6343841 L338.33781,48.6313202 C337.498792,48.6088512 336.824107,47.9204823 336.824107,47.0748304 L336.824107,28.5491287 L343.38621,28.5491287 Z" id="Fill-17"></path>
                <path d="M353.281523,22.5633834 C353.281523,21.7044543 352.590506,21.0048509 351.72597,21.0048509 L347.212419,21.0048509 C346.944995,21.0048509 346.722481,21.2274984 346.722481,21.495084 L346.722481,47.0740133 C346.722481,47.9206866 347.396146,48.6080341 348.241288,48.6315245 L352.796688,48.6345884 C353.067175,48.6345884 353.281523,48.4098983 353.281523,48.1392488 L353.281523,22.5633834 Z" id="Fill-19"></path>
                <path d="M416.88156,36.5237901 C416.767242,34.2779101 415.184131,32.4231951 412.97839,32.4231951 C410.65629,32.4231951 409.106862,34.0838595 408.722056,36.5237901 L416.88156,36.5237901 Z M417.282697,42.5618269 L422.423981,42.5618269 C422.858801,42.5618269 423.026196,42.8028581 422.936374,43.1572557 C421.531886,47.3763237 417.419471,49.2187828 413.135578,49.2187828 C406.591848,49.2187828 402.146684,45.2683216 402.146684,38.5398734 C402.146684,32.381321 407.05831,27.9692239 412.97839,27.9692239 C419.917133,27.9692239 423.514092,33.0227093 423.477347,39.4968491 C423.477347,39.8951634 423.151742,40.1995165 422.649556,40.1995165 L408.722056,40.1995165 C408.839437,42.9448214 410.422548,44.7688967 413.207028,44.7688967 C414.707462,44.7688967 416.15482,44.1050395 416.850939,42.7977515 C416.957093,42.5965517 417.115302,42.5618269 417.282697,42.5618269 Z" id="Fill-21"></path>
                <path d="M209.25229,36.5237901 C209.140013,34.2779101 207.554861,32.4231951 205.352183,32.4231951 C203.02804,32.4231951 201.477592,34.0838595 201.09789,36.5237901 L209.25229,36.5237901 Z M209.658531,42.5618269 L214.797773,42.5618269 C215.233613,42.5618269 215.405091,42.8028581 215.309146,43.1572557 C213.909761,47.3763237 209.792243,49.2187828 205.506308,49.2187828 C198.96564,49.2187828 194.517414,45.2683216 194.517414,38.5398734 C194.517414,32.381321 199.42904,27.9692239 205.352183,27.9692239 C212.293987,27.9692239 215.884822,33.0227093 215.850118,39.4968491 C215.850118,39.8951634 215.523493,40.1995165 215.022328,40.1995165 L201.09789,40.1995165 C201.215271,42.9448214 202.798382,44.7688967 205.581841,44.7688967 C207.083296,44.7688967 208.524529,44.1050395 209.223711,42.7977515 C209.327823,42.5965517 209.482969,42.5618269 209.658531,42.5618269 Z" id="Fill-23"></path>
                <path d="M259.695766,45.1540361 C262.831368,45.1540361 263.874527,43.3748987 263.716317,39.2324297 C262.790539,39.8135601 261.092089,39.932033 259.65698,40.3170703 C258.185125,40.66534 256.949053,41.2832378 256.949053,42.8703672 C256.949053,44.4983494 258.226974,45.1540361 259.695766,45.1540361 M256.971508,34.7447549 L251.781231,34.7447549 C251.481144,34.7447549 251.180037,34.5384485 251.230051,34.1605605 C251.54749,31.8656572 252.676388,30.3285724 254.320741,29.3644474 C256.101869,28.3574271 258.418866,27.9693259 260.701159,27.9693259 C265.457638,27.9693259 270.062031,29.0151564 270.062031,34.7028808 L270.062031,43.4892864 C270.062031,44.9446657 270.069176,46.5144327 270.545845,47.9330445 C270.682619,48.3456573 270.48052,48.6387758 269.977313,48.6387758 L264.789077,48.6387758 C264.526756,48.6387758 264.152158,48.5019191 264.075605,48.1699905 C263.950058,47.7042691 263.892899,47.2375264 263.834719,46.7411655 C262.130144,48.5213242 259.61513,49.2188849 257.22056,49.2188849 C253.392922,49.2188849 250.375722,47.2845071 250.375722,43.1430594 C250.375722,36.6025338 257.491047,37.1040013 262.056653,36.1756225 C263.175345,35.9437831 263.793891,35.5567033 263.793891,34.3198863 C263.793891,32.8093557 261.972956,32.2282254 260.626648,32.2282254 C258.921052,32.2282254 257.797257,32.9421272 257.404287,34.43121 C257.346107,34.6140261 257.257305,34.7447549 256.971508,34.7447549" id="Fill-25"></path>
                <path d="M247.958186,26.0407697 L247.958186,22.5631792 C247.958186,21.7042501 247.264107,21.005668 246.394468,21.005668 L241.889082,21.005668 C241.616555,21.005668 241.399145,21.2242302 241.399145,21.4948797 L241.399145,26.0407697 L247.958186,26.0407697 Z M247.958186,28.5491287 L247.958186,48.1431298 C247.958186,48.4107153 247.740776,48.6343841 247.473352,48.6343841 L242.909786,48.6313202 C242.07383,48.6088512 241.399145,47.9204823 241.399145,47.0748304 L241.399145,28.5491287 L247.958186,28.5491287 Z" id="Fill-27"></path>
                <path d="M227.978832,44.1887877 C224.963674,44.1887877 223.953177,41.1268739 223.953177,38.381569 C223.953177,35.8272507 224.963674,33.0002402 227.978832,33.0002402 C230.838843,33.0002402 231.885065,35.6709889 231.885065,38.5766409 C231.885065,41.1268739 231.182821,44.1887877 227.978832,44.1887877 M236.66502,21.0058723 L232.152489,21.0058723 C231.885065,21.0058723 231.666634,21.2244345 231.666634,21.495084 L231.648262,30.721678 L231.572729,30.721678 C230.219277,28.9006666 228.324851,27.9692239 225.849645,27.9692239 C220.165347,27.9692239 217.380868,32.9236413 217.380868,38.1497296 C217.380868,43.8017078 220.047966,49.2187828 226.351831,49.2187828 C228.675973,49.2187828 230.607144,48.2117624 231.885065,46.3141521 L231.961617,46.3141521 L231.961617,47.0750346 C231.961617,47.9206866 232.637323,48.6090554 233.475321,48.6315245 L237.733696,48.6345884 C238.004183,48.6345884 238.221593,48.4098983 238.221593,48.1433341 L238.221593,22.5633834 C238.221593,21.7044543 237.528535,21.0058723 236.66502,21.0058723" id="Fill-29"></path>
                <path d="M167.365985,73.072909 C167.248604,70.830093 165.665493,68.9733355 163.462815,68.9733355 C161.138673,68.9733355 159.591287,70.6380846 159.206481,73.072909 L167.365985,73.072909 Z M167.767122,79.111967 L172.912488,79.111967 C173.339143,79.111967 173.514703,79.3540197 173.417737,79.7053534 C172.018352,83.926464 167.905938,85.7699443 163.620003,85.7699443 C157.076273,85.7699443 152.631109,81.8184617 152.631109,75.0889923 C152.631109,68.931461 157.539673,64.5234493 163.462815,64.5234493 C170.40462,64.5234493 173.998517,69.5697857 173.961772,76.0500533 C173.961772,76.4473461 173.632084,76.7527205 173.133981,76.7527205 L159.206481,76.7527205 C159.3208,79.497004 160.912077,81.3190366 163.691453,81.3190366 C165.188825,81.3190366 166.638224,80.6541581 167.332302,79.348913 C167.441517,79.1477133 167.596664,79.111967 167.767122,79.111967 Z" id="Fill-31"></path>
                <path d="M257.315792,64.8214698 C256.880972,64.7438501 256.434925,64.7183171 256.017457,64.7183171 C253.195212,64.7183171 250.951705,66.0715642 249.982036,68.6269037 L249.906505,68.6269037 L249.909567,66.2380391 L249.909567,65.5946083 C249.909567,65.3270231 249.689095,65.1094818 249.415546,65.1094818 L244.012962,65.1094818 C243.7486,65.1094818 243.528128,65.3270231 243.528128,65.5946083 L243.528128,83.6239491 C243.528128,84.4726649 244.204854,85.1589911 245.043873,85.1855455 L249.613562,85.186567 C249.880987,85.186567 250.101459,84.9608552 250.101459,84.69327 L250.098397,75.2389219 C250.098397,72.7264778 251.798889,70.4846827 255.04983,70.4846827 C255.835771,70.4846827 256.538016,70.6041769 257.280067,70.7941423 C257.43011,70.8298887 257.558719,70.8472511 257.558719,70.5878359 L257.558719,65.0839488 C257.558719,64.9113464 257.43011,64.8439389 257.315792,64.8214698" id="Fill-33"></path>
                <path d="M280.393388,84.741885 L272.412508,72.6882805 L279.33594,65.5461981 C279.549267,65.3276354 279.461486,65.1029456 279.183855,65.1029456 L272.705449,65.1029456 C272.384948,65.1029456 272.045054,65.228568 271.743946,65.5492619 L266.140284,71.8293513 L266.140284,59.1139321 C266.140284,58.251939 265.441102,57.5564208 264.579628,57.5564208 L260.071181,57.5564208 C259.798653,57.5564208 259.578181,57.7770259 259.578181,58.0486964 L259.578181,83.6235405 C259.578181,84.4681711 260.249804,85.159604 261.091884,85.1820732 L265.651367,85.1871798 C265.917771,85.1871798 266.140284,84.9614681 266.140284,84.6908185 L266.140284,78.7651272 L267.854046,77.0983346 L272.496205,84.7439273 C272.689118,85.0513441 272.961646,85.1871798 273.471998,85.1871798 L280.201496,85.1871798 C280.530163,85.1749241 280.527101,84.9369566 280.393388,84.741885" id="Fill-35"></path>
                <path d="M333.94654,21.1020805 C333.0769,21.0550998 332.189908,21.0019912 331.332518,21.0019912 C325.722731,21.0019912 323.712966,22.7841925 323.712966,28.5556651 L316.666028,28.5556651 L316.666028,27.6630324 C316.666028,25.8430423 317.593848,25.6510344 319.099386,25.6510344 C319.579116,25.6510344 320.060889,25.67861 320.55695,25.7317186 C320.812126,25.7541876 320.880513,25.6020111 320.880513,25.4345149 L320.880513,21.629081 C320.880513,21.3175787 320.686579,21.1194429 320.328313,21.1020805 C319.45357,21.0550998 318.572703,21.0019912 317.711229,21.0019912 C312.102463,21.0019912 310.089635,22.7841925 310.089635,28.5556651 L307.413351,28.5495372 C307.139802,28.5495372 306.91831,28.7670781 306.91831,29.0407915 L306.91831,32.3202462 C306.91831,32.591917 307.139802,32.8094579 307.413351,32.8094579 L310.073304,32.8094579 L310.073304,47.0742175 C310.073304,47.9208908 310.747989,48.613345 311.587007,48.6347927 L316.176091,48.6347927 C316.443515,48.6347927 316.666028,48.4101025 316.666028,48.142517 L316.666028,32.8094579 L323.699696,32.8094579 L323.699696,47.0742175 C323.699696,47.9208908 324.374381,48.613345 325.210338,48.6347927 L329.799421,48.6347927 C330.070928,48.6347927 330.287317,48.4101025 330.287317,48.142517 L330.287317,32.8094579 L333.731171,32.8094579 C333.999616,32.8094579 334.22213,32.591917 334.22213,32.3202462 L334.22213,29.0407915 C334.22213,28.7670781 333.999616,28.5495372 333.731171,28.5495372 L330.287317,28.5556651 L330.287317,27.6630324 C330.287317,25.8430423 331.215136,25.6510344 332.725778,25.6510344 C333.202447,25.6510344 333.681157,25.67861 334.183342,25.7317186 C334.432394,25.7541876 334.500781,25.6020111 334.500781,25.4345149 L334.500781,21.629081 C334.500781,21.3175787 334.308889,21.1194429 333.94654,21.1020805" id="Fill-37"></path>
                <path d="M188.047481,80.352767 C188.298574,80.3272341 188.364919,80.4783894 188.364919,80.6458857 L188.364919,84.732182 C188.364919,85.0416417 188.173027,85.2428414 187.809657,85.2591824 C187.450369,85.2796092 185.731504,85.3827624 184.770001,85.3827624 C179.166339,85.3827624 177.73225,83.7537586 177.73225,78.2968527 L177.73225,69.360313 L174.897757,69.3633768 C174.62727,69.3633768 174.404757,69.1448146 174.404757,68.8741651 L174.404757,65.5947107 C174.404757,65.3209973 174.62727,65.103456 174.897757,65.103456 L177.73225,65.103456 L177.728168,60.5912696 C177.728168,59.7476605 178.404894,59.0531638 179.240851,59.0306946 L183.813602,59.0306946 C184.08613,59.0306946 184.30354,59.2543635 184.30354,59.5219487 L184.30354,65.103456 L187.877023,65.103456 C188.149551,65.103456 188.364919,65.3209973 188.364919,65.5947107 L188.364919,68.8741651 C188.364919,69.1448146 188.149551,69.3633768 187.877023,69.3633768 L184.30354,69.360313 L184.30354,78.4929457 C184.30354,80.0821175 185.239525,80.428345 186.664428,80.428345 C187.208462,80.428345 188.047481,80.352767 188.047481,80.352767" id="Fill-39"></path>
                <path d="M400.432004,43.8052825 C400.689221,43.7797495 400.755567,43.9288621 400.755567,44.0932944 L400.755567,48.1785696 C400.755567,48.4910931 400.563675,48.6922929 400.198263,48.708634 C399.835913,48.7259964 398.116028,48.8311923 397.154525,48.8311923 C391.552904,48.8311923 390.122898,47.2032101 390.122898,41.7463038 L390.122898,32.8128282 L387.283301,32.8128282 C387.012815,32.8128282 386.78928,32.5952873 386.78928,32.3236165 L386.78928,29.0441619 C386.78928,28.7735124 387.012815,28.5529075 387.283301,28.5529075 L390.122898,28.5529075 L390.115754,24.0407211 C390.115754,23.1971118 390.790438,22.499551 391.626395,22.4801459 L396.200167,22.4801459 C396.467592,22.4801459 396.688063,22.7038148 396.688063,22.9744643 L396.693167,28.5529075 L400.262567,28.5529075 C400.533054,28.5529075 400.755567,28.7735124 400.755567,29.0441619 L400.755567,32.3236165 C400.755567,32.5952873 400.533054,32.8128282 400.262567,32.8128282 L396.693167,32.8128282 L396.693167,41.942397 C396.693167,43.5285051 397.619966,43.8747322 399.049971,43.8747322 C399.595027,43.8747322 400.432004,43.8052825 400.432004,43.8052825" id="Fill-41"></path>
                <path d="M150.642779,28.5559715 C150.367189,28.5559715 150.274305,28.778619 150.492735,28.9992238 L156.57817,38.1114302 L149.893582,48.2153371 C149.764973,48.407345 149.923183,48.6340778 150.179379,48.6340778 L156.156619,48.6340778 C156.624101,48.6340778 156.917043,48.5135622 157.118122,48.1898041 L160.173088,42.8340083 L163.38218,48.1898041 C163.583258,48.5135622 163.8762,48.6340778 164.348786,48.6340778 L170.357667,48.6340778 C170.618967,48.6340778 170.774115,48.407345 170.647547,48.2153371 L163.808834,37.9929572 L169.770763,28.9992238 C169.991235,28.778619 169.894268,28.5559715 169.618678,28.5559715 L163.816999,28.5559715 C163.345434,28.5559715 163.056575,28.6724018 162.852434,28.9992238 L160.290469,33.3510632 L157.736668,28.9992238 C157.534569,28.6724018 157.241627,28.5559715 156.775165,28.5559715 L150.642779,28.5559715 Z" id="Fill-43"></path>
                <path d="M272.430268,23.7735441 C272.720147,23.7735441 272.887543,23.6959239 272.887543,23.3496968 C272.887543,23.0259387 272.513965,23.0014271 272.262872,23.0014271 L271.842343,23.0014271 L271.842343,23.7735441 L272.430268,23.7735441 Z M271.842343,25.7538812 L271.030883,25.7538812 L271.030883,22.4131474 L272.279204,22.4131474 C273.158029,22.4131474 273.697982,22.6357949 273.697982,23.430381 C273.697982,24.0554281 273.330528,24.2872674 272.744644,24.3117791 L273.597953,25.7538812 L272.815073,25.7538812 L272.050566,24.3597811 L271.842343,24.3597811 L271.842343,25.7538812 Z M274.449219,24.0891316 C274.449219,22.7358842 273.456075,21.7921856 272.28839,21.7921856 C271.09825,21.7921856 270.130622,22.7358842 270.130622,24.0891316 C270.130622,25.4352298 271.09825,26.380971 272.28839,26.380971 C273.456075,26.380971 274.449219,25.4352298 274.449219,24.0891316 Z M269.092567,24.0891316 C269.092567,22.1312634 270.632809,21.0057701 272.28839,21.0057701 C273.934784,21.0057701 275.486254,22.1312634 275.486254,24.0891316 C275.486254,26.0439358 273.934784,27.1673864 272.28839,27.1673864 C270.632809,27.1673864 269.092567,26.0439358 269.092567,24.0891316 Z" id="Fill-45"></path>
                <path d="M82.3567924,9.14836102 C86.1589132,10.3075578 88.73619,13.1968687 91.3655218,15.8431058 C120.364731,45.0272904 106.789374,94.4897598 66.895175,104.917425 C57.7690651,107.303226 48.537822,107.658644 39.4474362,104.409829 C31.7799111,101.410216 26.997915,95.8573056 25.0075431,87.9563834 C23.5612062,82.211465 25.4239901,76.9751637 27.8900099,71.8910386 C28.8658025,69.8810834 30.1835308,68.0784556 31.4747208,66.263572 C32.4290786,64.9225807 33.5396041,64.8286194 34.7807795,65.8703645 C35.9933754,66.8865766 37.1008387,68.0161554 38.1797224,69.165139 C39.4974506,70.5684311 40.1680529,70.4979599 40.6059347,68.4890256 C41.9879673,62.1507213 43.2709917,55.7919903 44.5632024,49.4353024 C45.4124277,45.2591298 46.4412969,41.1217673 47.1925347,36.9231258 C47.5222219,35.0837306 47.0751538,34.5465169 45.2409495,34.9009145 C34.6480881,36.9486587 24.0276677,38.8544396 13.4235785,40.841926 C11.8639435,41.1340231 11.6965482,41.8142214 12.8448396,42.7752825 C16.7929209,46.0812914 17.0858629,49.2647421 14.6892509,54.2028185 C8.72834223,66.4872409 12.4018543,83.2307415 22.2434779,93.3795864 C23.3172581,94.486696 24.7574708,95.3650301 24.9728392,97.1125067 C24.8472926,97.5761855 24.6605039,97.9530521 24.0654338,97.7365322 C13.2245414,90.9386344 6.02653993,81.2565321 2.40406306,69.172288 C-6.3699046,39.9084406 9.56225702,10.6885097 38.962602,2.12577295 C48.6613271,-0.69919485 58.5621515,-0.842179483 68.2976221,2.50570354 C80.2082117,7.18334365 85.5209735,19.2890353 80.9543459,31.2200816 C79.8152406,34.1941619 78.3474692,36.9639785 76.4305879,39.5019557 C74.5014579,42.0572954 73.9308849,42.1104039 71.6322603,39.9748263 C70.2706416,38.7104336 69.0641702,37.2877366 67.6249784,36.104028 C67.5606739,36.0509195 67.4545207,36.0478555 67.1728068,35.9600221 C66.0561567,40.5416582 65.2681738,45.1825309 64.2546153,49.7702949 C62.8327752,56.2025608 61.5915998,62.674658 60.2350846,69.1222436 C59.7022772,71.6551139 60.0227781,71.9717232 62.5796404,71.4865967 C73.1929163,69.4684705 83.8194609,67.5228584 94.4511089,65.6017578 C94.8063138,65.5374148 95.2013262,65.5037108 95.4258809,65.0318615 C94.5725726,63.6275485 93.2293265,62.5949953 92.1136979,61.3796258 C90.2100857,59.3043061 89.9181644,57.2820946 91.481882,54.8636118 C93.3732459,51.9375334 94.4000736,48.6427589 94.9032805,45.218277 C96.7242155,32.8439784 93.0221241,22.1803889 84.8013776,12.8863878 C83.8347713,11.7935767 82.055685,11.1052078 82.3567924,9.14836102" id="Fill-47"></path>
            </g>
        </g>
    </g>
</svg>