<?xml version="1.0" encoding="utf-8"?>
<!-- Generator: Adobe Illustrator 19.0.0, SVG Export Plug-In . SVG Version: 6.00 Build 0)  -->
<svg version="1.1" id="Layer_1" xmlns="http://www.w3.org/2000/svg" xmlns:xlink="http://www.w3.org/1999/xlink" x="0px" y="0px"
	 viewBox="0 0 28.094 9.438" enable-background="new 0 0 28.094 9.438" xml:space="preserve">
<g>
	<path d="M12.381,5.938l1.53-2.974c0.054-0.109,0.127-0.175,0.26-0.175c0.157,0,0.272,0.097,0.272,0.272v3.573
		c0,0.151-0.103,0.278-0.272,0.278c-0.175,0-0.278-0.127-0.278-0.278V4.135l-1.214,2.337c-0.097,0.157-0.224,0.176-0.297,0.18h0l0,0
		c-0.073-0.004-0.201-0.023-0.297-0.18l-1.214-2.337v2.499c0,0.151-0.103,0.278-0.278,0.278c-0.169,0-0.272-0.127-0.272-0.278V3.061
		c0-0.175,0.115-0.272,0.272-0.272c0.133,0,0.206,0.067,0.26,0.175L12.381,5.938z"/>
	<path d="M19.231,4.851c0-1.17-0.948-2.119-2.119-2.119s-2.119,0.948-2.119,2.119s0.948,2.119,2.119,2.119
		S19.231,6.021,19.231,4.851z M17.113,6.429c-0.872,0-1.578-0.707-1.578-1.578s0.707-1.578,1.578-1.578s1.578,0.707,1.578,1.578
		S17.984,6.429,17.113,6.429z"/>
	<path d="M23.968,4.851c0-1.17-0.948-2.119-2.119-2.119s-2.119,0.948-2.119,2.119s0.948,2.119,2.119,2.119
		S23.968,6.021,23.968,4.851z M21.85,6.429c-0.872,0-1.578-0.707-1.578-1.578s0.707-1.578,1.578-1.578
		c0.872,0,1.578,0.707,1.578,1.578S22.721,6.429,21.85,6.429z"/>
	<g>
		<path d="M6.289,7.963L6.289,7.963c-0.676,0-1.301-0.308-1.715-0.846C4.281,6.736,4.126,6.281,4.126,5.801
			c0-0.148,0.015-0.296,0.045-0.438c0.077-0.477,0.433-1.269,1.06-2.35C5.694,2.211,6.088,1.615,6.092,1.61
			C6.138,1.542,6.19,1.466,6.289,1.466c0.099,0,0.151,0.076,0.197,0.143c0.004,0.006,0.401,0.607,0.862,1.403
			c0.626,1.081,0.983,1.873,1.06,2.353c0.029,0.14,0.044,0.288,0.044,0.436c0,0.48-0.155,0.936-0.449,1.317
			C7.589,7.655,6.965,7.963,6.289,7.963z M6.289,7.395c0.51,0,0.981-0.233,1.294-0.639c0.221-0.288,0.339-0.631,0.339-0.993
			c0-0.112-0.011-0.223-0.034-0.331c-0.06-0.375-0.343-0.999-0.839-1.856C6.675,2.932,6.362,2.459,6.359,2.455L6.289,2.351
			L6.218,2.455c-0.003,0.004-0.316,0.477-0.688,1.12C5.033,4.433,4.751,5.056,4.691,5.429c-0.023,0.11-0.034,0.221-0.034,0.333
			c0,0.362,0.117,0.706,0.339,0.993C5.308,7.162,5.779,7.395,6.289,7.395"/>
	</g>
</g>
</svg>
