<?xml version="1.0" encoding="utf-8"?>
<!-- Generator: Adobe Illustrator 19.0.0, SVG Export Plug-In . SVG Version: 6.00 Build 0)  -->
<svg version="1.1" id="Layer_1" xmlns="http://www.w3.org/2000/svg" xmlns:xlink="http://www.w3.org/1999/xlink" x="0px" y="0px"
	 viewBox="0 0 580 91" enable-background="new 0 0 580 91" xml:space="preserve">
<path d="M10.9,70.7l-3,0.5l2.1,2.2l-0.6,3.4l3-1.6l3,1.6L15,73.3l2.1-2.2l-3-0.5l-1.6-3.1L10.9,70.7z M89.2,70.7l-3,0.5l-3-0.5
	l-1.6-3.1L80,70.7l-3,0.5l-3-0.5l-1.6-3.1l-1.6,3.1l-3,0.5l2.1,2.2l-0.6,3.4l3-1.6l3,1.6l-0.6-3.4l2.1-2.2l2.1,2.2l-0.6,3.4l3-1.6
	l3,1.6L84,73.3l2.1-2.2l2.1,2.2l-0.6,3.4l3-1.6l3,1.6l-0.6-3.4l2.1-2.2l-3-0.5l-1.6-3.1L89.2,70.7z M116.7,70.7l-3,0.5l2.1,2.2
	l-0.5,3.4l3-1.6l3,1.6l-0.6-3.4l2.1-2.2l-3-0.5l-1.6-3.1L116.7,70.7z M153.5,70.7l-3,0.5l2.1,2.2l-0.5,3.4l3-1.6l3,1.6l-0.5-3.4
	l2.1-2.2l-3-0.5l-1.6-3.1L153.5,70.7z M208.6,70.7l-3,0.5l-3-0.5l-1.6-3.1l-1.6,3.1l-3,0.5l-3-0.5l-1.6-3.1l-1.6,3.1l-3,0.5l-3-0.5
	l-1.6-3.1l-1.6,3.1l-3,0.5l-3-0.5l-1.6-3.1l-1.6,3.1l-3,0.5l2.1,2.2l-0.5,3.4l3-1.6l3,1.6l-0.6-3.4l2.1-2.2l2.1,2.2l-0.6,3.4l3-1.6
	l3,1.6l-0.6-3.4l2.1-2.2l2.1,2.2l-0.6,3.4l3-1.6l3,1.6l-0.6-3.4l2.1-2.2l2.1,2.2l-0.6,3.4l3-1.6l3,1.6l-0.6-3.4l2.1-2.2l2.1,2.2
	l-0.5,3.4l3-1.6l3,1.6l-0.6-3.4l2.1-2.2l-3-0.5l-1.6-3.1L208.6,70.7z M244.1,70.7l-3,0.5l2.1,2.2l-0.6,3.4l3-1.6l3,1.6l-0.6-3.4
	l2.1-2.2l-3-0.5l-1.6-3.1L244.1,70.7z M317.6,70.7l-3,0.5l-3-0.5l-1.6-3.1l-1.6,3.1l-3,0.5l-3-0.5l-1.6-3.1l-1.6,3.1l-3,0.5l-3-0.5
	l-1.6-3.1l-1.6,3.1l-3,0.5l-3-0.5l-1.6-3.1l-1.6,3.1l-3,0.5l2.1,2.2l-0.5,3.4l3-1.6l3,1.6l-0.5-3.4l2.1-2.2l2.1,2.2l-0.5,3.4l3-1.6
	l3,1.6l-0.5-3.4l2.1-2.2l2.1,2.2l-0.6,3.4l3-1.6l3,1.6l-0.6-3.4l2.1-2.2l2.1,2.2l-0.5,3.4l3-1.6l3,1.6l-0.5-3.4l2.1-2.2l2.1,2.2
	l-0.6,3.4l3-1.6l3,1.6l-0.6-3.4l2.1-2.2l-3-0.5l-1.6-3.1L317.6,70.7z M335.9,70.7l-3,0.5l2.1,2.2l-0.6,3.4l3-1.6l3,1.6l-0.6-3.4
	l2.1-2.2l-3-0.5l-1.6-3.1L335.9,70.7z M372.7,70.7l-3,0.5l2.1,2.2l-0.6,3.4l3-1.6l3,1.6l-0.5-3.4l2.1-2.2l-3-0.5l-1.6-3.1
	L372.7,70.7z M419.4,70.7l-3,0.5l2.1,2.2l-0.5,3.4l3-1.6l3,1.6l-0.5-3.4l2.1-2.2l-3-0.5l-1.6-3.1L419.4,70.7z M456.2,70.7l-3,0.5
	l2.1,2.2l-0.6,3.4l3-1.6l3,1.6l-0.6-3.4l2.1-2.2l-3-0.5l-1.6-3.1L456.2,70.7z M511.3,70.7l-3,0.5l-3-0.5l-1.6-3.1l-1.6,3.1l-3,0.5
	l-3-0.5l-1.6-3.1l-1.6,3.1l-3,0.5l-3-0.5l-1.6-3.1l-1.6,3.1l-3,0.5l-3-0.5l-1.6-3.1l-1.5,3.1l-3,0.5l2.1,2.2l-0.6,3.4l3-1.6l3,1.6
	l-0.6-3.4l2.1-2.2l2.1,2.2l-0.6,3.4l3-1.6l3,1.6l-0.5-3.4l2.1-2.2l2.1,2.2l-0.6,3.4l3-1.6l3,1.6l-0.5-3.4l2.1-2.2l2.1,2.2l-0.6,3.4
	l3-1.6l3,1.6l-0.5-3.4l2.1-2.2l2.1,2.2l-0.5,3.4l3-1.6l3,1.6l-0.5-3.4l2.1-2.2l-3-0.5l-1.6-3.1L511.3,70.7z M529.6,70.7l-3,0.5
	l2.1,2.2l-0.5,3.4l3-1.6l3,1.6l-0.5-3.4l2.1-2.2l-3-0.5l-1.6-3.1L529.6,70.7z M566.4,70.7l-3,0.5l2.1,2.2l-0.5,3.4l3-1.6l3,1.6
	l-0.6-3.4l2.1-2.2l-3-0.5l-1.6-3.1L566.4,70.7z M10.9,61.5l-3,0.5l2.1,2.2l-0.6,3.4l3-1.6l3,1.6L15,64.2l2.1-2.2l-3-0.5l-1.6-3.1
	L10.9,61.5z M61.6,61.5l-3,0.5l2.1,2.2l-0.6,3.4l3-1.6l3,1.6l-0.6-3.4l2.1-2.2l-3-0.5l-1.6-3.1L61.6,61.5z M98.4,61.5l-3,0.5
	l2.1,2.2l-0.5,3.4l3-1.6l3,1.6l-0.6-3.4l2.1-2.2l-3-0.5l-1.6-3.1L98.4,61.5z M116.7,61.5l-3,0.5l2.1,2.2l-0.5,3.4l3-1.6l3,1.6
	l-0.6-3.4l2.1-2.2l-3-0.5l-1.6-3.1L116.7,61.5z M153.5,61.5l-3,0.5l2.1,2.2l-0.5,3.4l3-1.6l3,1.6l-0.5-3.4l2.1-2.2l-3-0.5l-1.6-3.1
	L153.5,61.5z M171.8,61.5l-3,0.5l2.1,2.2l-0.5,3.4l3-1.6l3,1.6l-0.6-3.4L178,62l-3-0.5l-1.6-3.1L171.8,61.5z M234.9,61.5l-3,0.5
	l2.1,2.2l-0.6,3.4l3-1.6l3,1.6l-0.6-3.4L241,62l-3-0.5l-1.6-3.1L234.9,61.5z M253.3,61.5l-3,0.5l2.1,2.2l-0.6,3.4l3-1.6l3,1.6
	l-0.5-3.4l2.1-2.2l-3-0.5l-1.6-3.1L253.3,61.5z M280.8,61.5l-3,0.5l2.1,2.2l-0.5,3.4l3-1.6l3,1.6l-0.5-3.4L287,62l-3-0.5l-1.6-3.1
	L280.8,61.5z M335.9,61.5l-3,0.5l2.1,2.2l-0.6,3.4l3-1.6l3,1.6l-0.6-3.4l2.1-2.2l-3-0.5l-1.6-3.1L335.9,61.5z M372.7,61.5l-3,0.5
	l2.1,2.2l-0.6,3.4l3-1.6l3,1.6l-0.5-3.4l2.1-2.2l-3-0.5l-1.6-3.1L372.7,61.5z M419.4,61.5l-3,0.5l2.1,2.2l-0.5,3.4l3-1.6l3,1.6
	l-0.5-3.4l2.1-2.2l-3-0.5l-1.6-3.1L419.4,61.5z M456.2,61.5l-3,0.5l2.1,2.2l-0.6,3.4l3-1.6l3,1.6l-0.6-3.4l2.1-2.2l-3-0.5l-1.6-3.1
	L456.2,61.5z M474.5,61.5l-3,0.5l2.1,2.2l-0.6,3.4l3-1.6l3,1.6l-0.6-3.4l2.1-2.2l-3-0.5l-1.6-3.1L474.5,61.5z M538.8,61.5l-3,0.5
	l-3-0.5l-1.6-3.1l-1.5,3.1l-3,0.5l2.1,2.2l-0.5,3.4l3-1.6l3,1.6l-0.5-3.4l2.1-2.2l2.1,2.2l-0.5,3.4l3-1.6l3,1.6l-0.6-3.4L545,62
	l-3-0.5l-1.6-3.1L538.8,61.5z M566.4,61.5l-3,0.5l-3-0.5l-1.6-3.1l-1.6,3.1l-3,0.5l2.1,2.2l-0.5,3.4l3-1.6l3,1.6l-0.6-3.4l2.1-2.2
	l2.1,2.2l-0.5,3.4l3-1.6l3,1.6l-0.6-3.4l2.1-2.2l-3-0.5l-1.6-3.1L566.4,61.5z M10.9,52.3l-3,0.5L10,55l-0.6,3.4l3-1.6l3,1.6L15,55
	l2.1-2.2l-3-0.5l-1.6-3.1L10.9,52.3z M61.6,52.3l-3,0.5l2.1,2.2l-0.6,3.4l3-1.6l3,1.6L65.7,55l2.1-2.2l-3-0.5l-1.6-3.1L61.6,52.3z
	 M98.4,52.3l-3,0.5l2.1,2.2l-0.5,3.4l3-1.6l3,1.6l-0.6-3.4l2.1-2.2l-3-0.5l-1.6-3.1L98.4,52.3z M116.7,52.3l-3,0.5l2.1,2.2l-0.5,3.4
	l3-1.6l3,1.6l-0.6-3.4l2.1-2.2l-3-0.5l-1.6-3.1L116.7,52.3z M144.3,52.3l-3,0.5l2.1,2.2l-0.5,3.4l3-1.6l3,1.6l-0.5-3.4l2.1-2.2
	l-3-0.5l-1.6-3.1L144.3,52.3z M171.8,52.3l-3,0.5l2.1,2.2l-0.5,3.4l3-1.6l3,1.6l-0.6-3.4l2.1-2.2l-3-0.5l-1.6-3.1L171.8,52.3z
	 M225.7,52.3l-3,0.5l2.1,2.2l-0.6,3.4l3-1.6l3,1.6l-0.6-3.4l2.1-2.2l-3-0.5l-1.6-3.1L225.7,52.3z M262.5,52.3l-3,0.5l2.1,2.2
	l-0.5,3.4l3-1.6l3,1.6l-0.5-3.4l2.1-2.2l-3-0.5l-1.6-3.1L262.5,52.3z M280.8,52.3l-3,0.5l2.1,2.2l-0.5,3.4l3-1.6l3,1.6l-0.5-3.4
	l2.1-2.2l-3-0.5l-1.6-3.1L280.8,52.3z M335.9,52.3l-3,0.5L335,55l-0.6,3.4l3-1.6l3,1.6L340,55l2.1-2.2l-3-0.5l-1.6-3.1L335.9,52.3z
	 M363.5,52.3l-3,0.5l2.1,2.2l-0.5,3.4l3-1.6l3,1.6l-0.6-3.4l2.1-2.2l-3-0.5l-1.5-3.1L363.5,52.3z M419.4,52.3l-3,0.5l2.1,2.2
	l-0.5,3.4l3-1.6l3,1.6l-0.5-3.4l2.1-2.2l-3-0.5l-1.6-3.1L419.4,52.3z M456.2,52.3l-3,0.5l-3-0.5l-1.5-3.1l-1.6,3.1l-3,0.5L446,55
	l-0.6,3.4l3-1.6l3,1.6L451,55l2.1-2.2l2.1,2.2l-0.6,3.4l3-1.6l3,1.6l-0.6-3.4l2.1-2.2l-3-0.5l-1.6-3.1L456.2,52.3z M474.5,52.3
	l-3,0.5l2.1,2.2l-0.6,3.4l3-1.6l3,1.6l-0.6-3.4l2.1-2.2l-3-0.5l-1.6-3.1L474.5,52.3z M529.6,52.3l-3,0.5l2.1,2.2l-0.5,3.4l3-1.6
	l3,1.6l-0.5-3.4l2.1-2.2l-3-0.5l-1.6-3.1L529.6,52.3z M548,52.3l-3,0.5l2.1,2.2l-0.6,3.4l3-1.6l3,1.6L552,55l2.1-2.2l-3-0.5
	l-1.6-3.1L548,52.3z M566.4,52.3l-3,0.5l2.1,2.2l-0.5,3.4l3-1.6l3,1.6l-0.6-3.4l2.1-2.2l-3-0.5l-1.6-3.1L566.4,52.3z M10.9,43.1
	l-3,0.5l2.1,2.2l-0.6,3.4l3-1.6l3,1.6L15,45.8l2.1-2.2l-3-0.5L12.5,40L10.9,43.1z M20.1,43.1l-3,0.5l2.1,2.2l-0.5,3.4l3-1.6l3,1.6
	l-0.5-3.4l2.1-2.2l-3-0.5L21.7,40L20.1,43.1z M29.3,43.1l-3,0.5l2.1,2.2l-0.5,3.4l3-1.6l3,1.6l-0.6-3.4l2.1-2.2l-3-0.5L30.9,40
	L29.3,43.1z M38.5,43.1l-3,0.5l2.1,2.2L37,49.2l3-1.6l3,1.6l-0.6-3.4l2.1-2.2l-3-0.5L40,40L38.5,43.1z M61.6,43.1l-3,0.5l2.1,2.2
	l-0.6,3.4l3-1.6l3,1.6l-0.6-3.4l2.1-2.2l-3-0.5L63.2,40L61.6,43.1z M98.4,43.1l-3,0.5l2.1,2.2l-0.5,3.4l3-1.6l3,1.6l-0.6-3.4
	l2.1-2.2l-3-0.5L99.9,40L98.4,43.1z M125.9,43.1l-3,0.5l-3-0.5l-1.6-3.1l-1.6,3.1l-3,0.5l2.1,2.2l-0.5,3.4l3-1.6l3,1.6l-0.6-3.4
	l2.1-2.2l2.1,2.2l-0.6,3.4l3-1.6l3,1.6l-0.5-3.4l2.1-2.2l-3-0.5l-1.6-3.1L125.9,43.1z M135.1,43.1l-3,0.5l2.1,2.2l-0.5,3.4l3-1.6
	l3,1.6l-0.6-3.4l2.1-2.2l-3-0.5l-1.6-3.1L135.1,43.1z M144.3,43.1l-3,0.5l2.1,2.2l-0.5,3.4l3-1.6l3,1.6l-0.5-3.4l2.1-2.2l-3-0.5
	l-1.6-3.1L144.3,43.1z M181,43.1l-3,0.5l-3-0.5l-1.6-3.1l-1.6,3.1l-3,0.5l2.1,2.2l-0.5,3.4l3-1.6l3,1.6l-0.6-3.4l2.1-2.2l2.1,2.2
	l-0.6,3.4l3-1.6l3,1.6l-0.6-3.4l2.1-2.2l-3-0.5l-1.6-3.1L181,43.1z M190.2,43.1l-3,0.5l2.1,2.2l-0.6,3.4l3-1.6l3,1.6l-0.6-3.4
	l2.1-2.2l-3-0.5l-1.6-3.1L190.2,43.1z M199.4,43.1l-3,0.5l2.1,2.2l-0.6,3.4l3-1.6l3,1.6l-0.6-3.4l2.1-2.2l-3-0.5L201,40L199.4,43.1z
	 M225.7,43.1l-3,0.5l2.1,2.2l-0.6,3.4l3-1.6l3,1.6l-0.6-3.4l2.1-2.2l-3-0.5l-1.6-3.1L225.7,43.1z M262.5,43.1l-3,0.5l2.1,2.2
	l-0.5,3.4l3-1.6l3,1.6l-0.5-3.4l2.1-2.2l-3-0.5L264,40L262.5,43.1z M290,43.1l-3,0.5l-3-0.5l-1.6-3.1l-1.6,3.1l-3,0.5l2.1,2.2
	l-0.5,3.4l3-1.6l3,1.6l-0.5-3.4l2.1-2.2l2.1,2.2l-0.5,3.4l3-1.6l3,1.6l-0.5-3.4l2.1-2.2l-3-0.5l-1.6-3.1L290,43.1z M299.2,43.1
	l-3,0.5l2.1,2.2l-0.6,3.4l3-1.6l3,1.6l-0.6-3.4l2.1-2.2l-3-0.5l-1.6-3.1L299.2,43.1z M308.4,43.1l-3,0.5l2.1,2.2l-0.5,3.4l3-1.6
	l3,1.6l-0.5-3.4l2.1-2.2l-3-0.5l-1.6-3.1L308.4,43.1z M345.1,43.1l-3,0.5l-3-0.5l-1.6-3.1l-1.6,3.1l-3,0.5l2.1,2.2l-0.6,3.4l3-1.6
	l3,1.6l-0.6-3.4l2.1-2.2l2.1,2.2l-0.5,3.4l3-1.6l3,1.6l-0.6-3.4l2.1-2.2l-3-0.5l-1.6-3.1L345.1,43.1z M354.3,43.1l-3,0.5l2.1,2.2
	l-0.5,3.4l3-1.6l3,1.6l-0.6-3.4l2.1-2.2l-3-0.5l-1.6-3.1L354.3,43.1z M363.5,43.1l-3,0.5l2.1,2.2l-0.5,3.4l3-1.6l3,1.6l-0.6-3.4
	l2.1-2.2l-3-0.5l-1.5-3.1L363.5,43.1z M419.4,43.1l-3,0.5l2.1,2.2l-0.5,3.4l3-1.6l3,1.6l-0.5-3.4l2.1-2.2l-3-0.5L421,40L419.4,43.1z
	 M437.8,43.1l-3,0.5l2.1,2.2l-0.6,3.4l3-1.6l3,1.6l-0.6-3.4l2.1-2.2l-3-0.5l-1.6-3.1L437.8,43.1z M456.2,43.1l-3,0.5l2.1,2.2
	l-0.6,3.4l3-1.6l3,1.6l-0.6-3.4l2.1-2.2l-3-0.5l-1.6-3.1L456.2,43.1z M483.7,43.1l-3,0.5l-3-0.5l-1.6-3.1l-1.5,3.1l-3,0.5l2.1,2.2
	l-0.6,3.4l3-1.6l3,1.6l-0.6-3.4l2.1-2.2l2.1,2.2l-0.6,3.4l3-1.6l3,1.6l-0.5-3.4l2.1-2.2l-3-0.5l-1.6-3.1L483.7,43.1z M492.9,43.1
	l-3,0.5l2.1,2.2l-0.6,3.4l3-1.6l3,1.6l-0.5-3.4l2.1-2.2l-3-0.5l-1.6-3.1L492.9,43.1z M502.1,43.1l-3,0.5l2.1,2.2l-0.6,3.4l3-1.6
	l3,1.6l-0.5-3.4l2.1-2.2l-3-0.5l-1.6-3.1L502.1,43.1z M529.6,43.1l-3,0.5l2.1,2.2l-0.5,3.4l3-1.6l3,1.6l-0.5-3.4l2.1-2.2l-3-0.5
	l-1.6-3.1L529.6,43.1z M548,43.1l-3,0.5l2.1,2.2l-0.6,3.4l3-1.6l3,1.6l-0.5-3.4l2.1-2.2l-3-0.5l-1.6-3.1L548,43.1z M566.4,43.1
	l-3,0.5l2.1,2.2l-0.5,3.4l3-1.6l3,1.6l-0.6-3.4l2.1-2.2l-3-0.5l-1.6-3.1L566.4,43.1z M10.9,33.9l-3,0.5l2.1,2.2L9.5,40l3-1.6l3,1.6
	L15,36.6l2.1-2.2l-3-0.5l-1.6-3.1L10.9,33.9z M61.6,33.9l-3,0.5l2.1,2.2L60.2,40l3-1.6l3,1.6l-0.6-3.4l2.1-2.2l-3-0.5l-1.6-3.1
	L61.6,33.9z M98.4,33.9l-3,0.5l2.1,2.2L96.9,40l3-1.6l3,1.6l-0.6-3.4l2.1-2.2l-3-0.5l-1.6-3.1L98.4,33.9z M116.7,33.9l-3,0.5
	l2.1,2.2l-0.5,3.4l3-1.6l3,1.6l-0.6-3.4l2.1-2.2l-3-0.5l-1.6-3.1L116.7,33.9z M153.5,33.9l-3,0.5l2.1,2.2L152,40l3-1.6l3,1.6
	l-0.5-3.4l2.1-2.2l-3-0.5l-1.6-3.1L153.5,33.9z M171.8,33.9l-3,0.5l2.1,2.2l-0.5,3.4l3-1.6l3,1.6l-0.6-3.4l2.1-2.2l-3-0.5l-1.6-3.1
	L171.8,33.9z M225.7,33.9l-3,0.5l2.1,2.2l-0.6,3.4l3-1.6l3,1.6l-0.6-3.4l2.1-2.2l-3-0.5l-1.6-3.1L225.7,33.9z M262.5,33.9l-3,0.5
	l2.1,2.2L261,40l3-1.6l3,1.6l-0.5-3.4l2.1-2.2l-3-0.5l-1.6-3.1L262.5,33.9z M280.8,33.9l-3,0.5l2.1,2.2l-0.5,3.4l3-1.6l3,1.6
	l-0.5-3.4l2.1-2.2l-3-0.5l-1.6-3.1L280.8,33.9z M335.9,33.9l-3,0.5l2.1,2.2l-0.6,3.4l3-1.6l3,1.6l-0.6-3.4l2.1-2.2l-3-0.5l-1.6-3.1
	L335.9,33.9z M372.7,33.9l-3,0.5l2.1,2.2l-0.6,3.4l3-1.6l3,1.6l-0.5-3.4l2.1-2.2l-3-0.5l-1.6-3.1L372.7,33.9z M428.6,33.9l-3,0.5
	l-3-0.5l-1.6-3.1l-1.6,3.1l-3,0.5l2.1,2.2l-0.5,3.4l3-1.6l3,1.6l-0.5-3.4l2.1-2.2l2.1,2.2l-0.6,3.4l3-1.6l3,1.6l-0.6-3.4l2.1-2.2
	l-3-0.5l-1.6-3.1L428.6,33.9z M456.2,33.9l-3,0.5l2.1,2.2l-0.6,3.4l3-1.6l3,1.6l-0.6-3.4l2.1-2.2l-3-0.5l-1.6-3.1L456.2,33.9z
	 M474.5,33.9l-3,0.5l2.1,2.2L473,40l3-1.6l3,1.6l-0.6-3.4l2.1-2.2l-3-0.5l-1.6-3.1L474.5,33.9z M529.6,33.9l-3,0.5l2.1,2.2l-0.5,3.4
	l3-1.6l3,1.6l-0.5-3.4l2.1-2.2l-3-0.5l-1.6-3.1L529.6,33.9z M566.4,33.9l-3,0.5l2.1,2.2l-0.5,3.4l3-1.6l3,1.6l-0.6-3.4l2.1-2.2
	l-3-0.5l-1.6-3.1L566.4,33.9z M10.9,24.8l-3,0.5l2.1,2.2l-0.6,3.4l3-1.6l3,1.6L15,27.4l2.1-2.2l-3-0.5l-1.6-3.1L10.9,24.8z
	 M61.6,24.8l-3,0.5l2.1,2.2l-0.6,3.4l3-1.6l3,1.6l-0.6-3.4l2.1-2.2l-3-0.5l-1.6-3.1L61.6,24.8z M98.4,24.8l-3,0.5l2.1,2.2l-0.5,3.4
	l3-1.6l3,1.6l-0.6-3.4l2.1-2.2l-3-0.5l-1.6-3.1L98.4,24.8z M116.7,24.8l-3,0.5l2.1,2.2l-0.5,3.4l3-1.6l3,1.6l-0.6-3.4l2.1-2.2
	l-3-0.5l-1.6-3.1L116.7,24.8z M153.5,24.8l-3,0.5l2.1,2.2l-0.5,3.4l3-1.6l3,1.6l-0.5-3.4l2.1-2.2l-3-0.5l-1.6-3.1L153.5,24.8z
	 M171.8,24.8l-3,0.5l2.1,2.2l-0.5,3.4l3-1.6l3,1.6l-0.6-3.4l2.1-2.2l-3-0.5l-1.6-3.1L171.8,24.8z M225.7,24.8l-3,0.5l2.1,2.2
	l-0.6,3.4l3-1.6l3,1.6l-0.6-3.4l2.1-2.2l-3-0.5l-1.6-3.1L225.7,24.8z M262.5,24.8l-3,0.5l2.1,2.2l-0.5,3.4l3-1.6l3,1.6l-0.5-3.4
	l2.1-2.2l-3-0.5l-1.6-3.1L262.5,24.8z M280.8,24.8l-3,0.5l2.1,2.2l-0.5,3.4l3-1.6l3,1.6l-0.5-3.4l2.1-2.2l-3-0.5l-1.6-3.1
	L280.8,24.8z M335.9,24.8l-3,0.5l2.1,2.2l-0.6,3.4l3-1.6l3,1.6l-0.6-3.4l2.1-2.2l-3-0.5l-1.6-3.1L335.9,24.8z M372.7,24.8l-3,0.5
	l2.1,2.2l-0.6,3.4l3-1.6l3,1.6l-0.5-3.4l2.1-2.2l-3-0.5l-1.6-3.1L372.7,24.8z M419.4,24.8l-3,0.5l2.1,2.2l-0.5,3.4l3-1.6l3,1.6
	l-0.5-3.4l2.1-2.2l-3-0.5l-1.6-3.1L419.4,24.8z M456.2,24.8l-3,0.5l2.1,2.2l-0.6,3.4l3-1.6l3,1.6l-0.6-3.4l2.1-2.2l-3-0.5l-1.6-3.1
	L456.2,24.8z M474.5,24.8l-3,0.5l2.1,2.2l-0.6,3.4l3-1.6l3,1.6l-0.6-3.4l2.1-2.2l-3-0.5l-1.6-3.1L474.5,24.8z M529.6,24.8l-3,0.5
	l2.1,2.2l-0.5,3.4l3-1.6l3,1.6l-0.5-3.4l2.1-2.2l-3-0.5l-1.6-3.1L529.6,24.8z M566.4,24.8l-3,0.5l2.1,2.2l-0.5,3.4l3-1.6l3,1.6
	l-0.6-3.4l2.1-2.2l-3-0.5l-1.6-3.1L566.4,24.8z M21.7,12.4l-1.6,3.1l-3,0.5l-3-0.5l-1.6-3.1l-1.6,3.1l-3,0.5l2.1,2.2l-0.6,3.4l3-1.6
	l3,1.6L15,18.2l2.1-2.2l2.1,2.2l-0.5,3.4l3-1.6l3,1.6l-0.5-3.4l2.1-2.2l-3-0.5L21.7,12.4z M30.9,12.4l-1.6,3.1l-3,0.5l2.1,2.2
	l-0.5,3.4l3-1.6l3,1.6l-0.6-3.4l2.1-2.2l-3-0.5L30.9,12.4z M40,12.4l-1.6,3.1l-3,0.5l2.1,2.2L37,21.6l3-1.6l3,1.6l-0.6-3.4l2.1-2.2
	l-3-0.5L40,12.4z M49.2,12.4l-1.6,3.1l-3,0.5l2.1,2.2l-0.5,3.4l3-1.6l3,1.6l-0.6-3.4l2.1-2.2l-3-0.5L49.2,12.4z M81.6,12.4L80,15.6
	L77,16l-3-0.5l-1.6-3.1l-1.6,3.1l-3,0.5l2.1,2.2l-0.6,3.4l3-1.6l3,1.6l-0.6-3.4L77,16l2.1,2.2l-0.6,3.4l3-1.6l3,1.6L84,18.2l2.1-2.2
	l-3-0.5L81.6,12.4z M90.8,12.4l-1.6,3.1l-3,0.5l2.1,2.2l-0.6,3.4l3-1.6l3,1.6l-0.6-3.4l2.1-2.2l-3-0.5L90.8,12.4z M127.5,12.4
	l-1.6,3.1l-3,0.5l-3-0.5l-1.6-3.1l-1.6,3.1l-3,0.5l2.1,2.2l-0.5,3.4l3-1.6l3,1.6l-0.6-3.4l2.1-2.2l2.1,2.2l-0.6,3.4l3-1.6l3,1.6
	l-0.5-3.4l2.1-2.2l-3-0.5L127.5,12.4z M136.7,12.4l-1.6,3.1l-3,0.5l2.1,2.2l-0.5,3.4l3-1.6l3,1.6l-0.6-3.4l2.1-2.2l-3-0.5
	L136.7,12.4z M145.9,12.4l-1.6,3.1l-3,0.5l2.1,2.2l-0.5,3.4l3-1.6l3,1.6l-0.5-3.4l2.1-2.2l-3-0.5L145.9,12.4z M182.6,12.4l-1.6,3.1
	l-3,0.5l-3-0.5l-1.6-3.1l-1.6,3.1l-3,0.5l2.1,2.2l-0.5,3.4l3-1.6l3,1.6l-0.6-3.4L178,16l2.1,2.2l-0.6,3.4l3-1.6l3,1.6l-0.6-3.4
	l2.1-2.2l-3-0.5L182.6,12.4z M191.8,12.4l-1.6,3.1l-3,0.5l2.1,2.2l-0.6,3.4l3-1.6l3,1.6l-0.6-3.4l2.1-2.2l-3-0.5L191.8,12.4z
	 M201,12.4l-1.6,3.1l-3,0.5l2.1,2.2l-0.6,3.4l3-1.6l3,1.6l-0.6-3.4l2.1-2.2l-3-0.5L201,12.4z M210.2,12.4l-1.6,3.1l-3,0.5l2.1,2.2
	l-0.5,3.4l3-1.6l3,1.6l-0.6-3.4l2.1-2.2l-3-0.5L210.2,12.4z M227.3,12.4l-1.6,3.1l-3,0.5l2.1,2.2l-0.6,3.4l3-1.6l3,1.6l-0.6-3.4
	l2.1-2.2l-3-0.5L227.3,12.4z M264,12.4l-1.6,3.1l-3,0.5l2.1,2.2l-0.5,3.4l3-1.6l3,1.6l-0.5-3.4l2.1-2.2l-3-0.5L264,12.4z
	 M291.6,12.4l-1.6,3.1l-3,0.5l-3-0.5l-1.6-3.1l-1.6,3.1l-3,0.5l2.1,2.2l-0.5,3.4l3-1.6l3,1.6l-0.5-3.4L287,16l2.1,2.2l-0.5,3.4
	l3-1.6l3,1.6l-0.5-3.4l2.1-2.2l-3-0.5L291.6,12.4z M300.7,12.4l-1.6,3.1l-3,0.5l2.1,2.2l-0.6,3.4l3-1.6l3,1.6l-0.6-3.4l2.1-2.2
	l-3-0.5L300.7,12.4z M309.9,12.4l-1.6,3.1l-3,0.5l2.1,2.2l-0.5,3.4l3-1.6l3,1.6l-0.5-3.4l2.1-2.2l-3-0.5L309.9,12.4z M319.1,12.4
	l-1.6,3.1l-3,0.5l2.1,2.2l-0.6,3.4l3-1.6l3,1.6l-0.6-3.4l2.1-2.2l-3-0.5L319.1,12.4z M346.7,12.4l-1.6,3.1l-3,0.5l-3-0.5l-1.6-3.1
	l-1.6,3.1l-3,0.5l2.1,2.2l-0.6,3.4l3-1.6l3,1.6l-0.6-3.4l2.1-2.2l2.1,2.2l-0.5,3.4l3-1.6l3,1.6l-0.6-3.4l2.1-2.2l-3-0.5L346.7,12.4z
	 M355.9,12.4l-1.6,3.1l-3,0.5l2.1,2.2l-0.5,3.4l3-1.6l3,1.6l-0.6-3.4l2.1-2.2l-3-0.5L355.9,12.4z M365.1,12.4l-1.6,3.1l-3,0.5
	l2.1,2.2l-0.5,3.4l3-1.6l3,1.6l-0.6-3.4l2.1-2.2l-3-0.5L365.1,12.4z M421,12.4l-1.6,3.1l-3,0.5l2.1,2.2l-0.5,3.4l3-1.6l3,1.6
	l-0.5-3.4l2.1-2.2l-3-0.5L421,12.4z M457.7,12.4l-1.5,3.1l-3,0.5l2.1,2.2l-0.6,3.4l3-1.6l3,1.6l-0.6-3.4l2.1-2.2l-3-0.5L457.7,12.4z
	 M485.3,12.4l-1.6,3.1l-3,0.5l-3-0.5l-1.6-3.1l-1.5,3.1l-3,0.5l2.1,2.2l-0.6,3.4l3-1.6l3,1.6l-0.6-3.4l2.1-2.2l2.1,2.2l-0.6,3.4
	l3-1.6l3,1.6l-0.5-3.4l2.1-2.2l-3-0.5L485.3,12.4z M494.4,12.4l-1.6,3.1l-3,0.5l2.1,2.2l-0.6,3.4l3-1.6l3,1.6l-0.5-3.4L499,16
	l-3-0.5L494.4,12.4z M503.6,12.4l-1.6,3.1l-3,0.5l2.1,2.2l-0.6,3.4l3-1.6l3,1.6l-0.5-3.4l2.1-2.2l-3-0.5L503.6,12.4z M512.8,12.4
	l-1.6,3.1l-3,0.5l2.1,2.2l-0.5,3.4l3-1.6l3,1.6l-0.5-3.4l2.1-2.2l-3-0.5L512.8,12.4z M531.2,12.4l-1.5,3.1l-3,0.5l2.1,2.2l-0.5,3.4
	l3-1.6l3,1.6l-0.5-3.4l2.1-2.2l-3-0.5L531.2,12.4z M567.9,12.4l-1.6,3.1l-3,0.5l2.1,2.2l-0.5,3.4l3-1.6l3,1.6l-0.6-3.4l2.1-2.2
	l-3-0.5L567.9,12.4z"/>
</svg>
