<?xml version="1.0" encoding="UTF-8" standalone="no"?>
<!-- Generator: Adobe Illustrator 15.1.0, SVG Export Plug-In . SVG Version: 6.00 Build 0)  -->

<svg
   xmlns:dc="http://purl.org/dc/elements/1.1/"
   xmlns:cc="http://creativecommons.org/ns#"
   xmlns:rdf="http://www.w3.org/1999/02/22-rdf-syntax-ns#"
   xmlns:svg="http://www.w3.org/2000/svg"
   xmlns="http://www.w3.org/2000/svg"
   xmlns:xlink="http://www.w3.org/1999/xlink"
   xmlns:sodipodi="http://sodipodi.sourceforge.net/DTD/sodipodi-0.dtd"
   xmlns:inkscape="http://www.inkscape.org/namespaces/inkscape"
   version="1.1"
   id="scribd"
   x="0px"
   y="0px"
   width="269.62601"
   height="74.750999"
   viewBox="0 0 269.62601 74.750999"
   xml:space="preserve"
   inkscape:version="0.48.3.1 r9886"
   sodipodi:docname="Scribd-Logo-Negative-black-Vector.svg"><metadata
   id="metadata38"><rdf:RDF><cc:Work
       rdf:about=""><dc:format>image/svg+xml</dc:format><dc:type
         rdf:resource="http://purl.org/dc/dcmitype/StillImage" /></cc:Work></rdf:RDF></metadata><defs
   id="defs36">
	
	
	
	
	
	
	
	
<linearGradient
   inkscape:collect="always"
   xlink:href="#SVGID_1_"
   id="linearGradient3798"
   gradientUnits="userSpaceOnUse"
   x1="269.83401"
   y1="75.696297"
   x2="269.83401"
   y2="91.821297" /></defs><sodipodi:namedview
   pagecolor="#ffffff"
   bordercolor="#666666"
   borderopacity="1"
   objecttolerance="10"
   gridtolerance="10"
   guidetolerance="10"
   inkscape:pageopacity="0"
   inkscape:pageshadow="2"
   inkscape:window-width="1280"
   inkscape:window-height="960"
   id="namedview34"
   showgrid="false"
   fit-margin-top="4"
   fit-margin-left="4"
   fit-margin-right="4"
   fit-margin-bottom="4"
   inkscape:zoom="1.0633333"
   inkscape:cx="-23.086047"
   inkscape:cy="38.322005"
   inkscape:window-x="0"
   inkscape:window-y="0"
   inkscape:window-maximized="1"
   inkscape:current-layer="scribd" />
<path
   inkscape:connector-curvature="0"
   id="path7"
   d="m 34.125,16.499999 c 0,10.375 6.875,9.75 8.75,9.75 1.875,0 7,-1.5 7,-7.5 0,-6 -5.875,-14.7499996 -21.5,-14.7499996 -15.625,0 -21.875,9.4999996 -21.875,18.8749996 0,9.375 4.125,13.125 15,18.25 10.875,5.125 15.625,7.125 15.625,11.25 0,4.125 -4.25,6.875 -9.875,6.875 -5.625,0 -8,-2.25 -8,-2.25 0,0 0.875,-1.75 0.875,-3 0,-1.25 -1,-7.25 -8,-7.25 -7,0 -8.125,6.25 -8.125,8.125 0,1.875 3.125,15.875 22.938,15.875 19.813,0 22.938,-11.5 22.938,-18.625 0,-7.125 0.089,-15.012 -17.875,-21 -11.25,-3.75 -12.25,-6.875 -12.25,-9.375 0,-2.5 2.375,-6.625 7.75,-6.625 5.375,0 6.624,1.375 6.624,1.375 z"
   style="fill:#32201e;fill-opacity:1" /><path
   inkscape:connector-curvature="0"
   id="path9"
   d="m 66.625,47.937999 c 0,-4.938 3.375,-12.438 10.25,-12.438 3.625,0 4.625,1.875 4.625,1.875 -4.5,5.875 0.25,11.125 6.375,11.125 6.125,0 8.375,-5.25 8.375,-8.625 0,-3.375 -3.75,-14.75 -19.375,-14.75 -15.625,0 -22.625,13 -22.625,23.375 0,10.375 9.625,22.25 21.75,22.25 12.125,0 18.25,0 18.25,0 v -11.375 c 0,0 -9.563,0 -17.188,0 -6.187,0 -10.437,-5.812 -10.437,-11.437 z"
   style="fill:#32201e;fill-opacity:1" /><g
   id="g11"
   style="fill:#32201e;fill-opacity:1"
   transform="translate(-12.271,-21.071001)">
		<g
   id="g13"
   style="fill:#32201e;fill-opacity:1">
			<polygon
   id="polygon15"
   points="157.729,80.446 153.229,80.446 153.229,91.821 170.896,91.821 170.896,85.55 170.896,80.446 170.896,46.196 157.729,46.196 "
   style="fill:#32201e;fill-opacity:1" />
			<rect
   id="rect17"
   height="11.375"
   width="13.168"
   style="fill:#32201e;fill-opacity:1"
   y="29.195999"
   x="157.729" />
		</g>
	</g><path
   inkscape:connector-curvature="0"
   id="path19"
   d="m 131.625,25.124999 c -2.125,0 -4.625,-1.063 -13.417,8.375 v -8.375 h -17.667 v 11.375 h 6.333 v 22.875 h -6.333 v 11.375 h 25.833 v -11.375 h -6.333 v -16.417 l 6.021,-6.021 c 0.875,1.75 2.813,3.688 6.313,3.688 4.625,0 7.125,-2.25 7.125,-7.75 0,-4.688 -3.563,-7.75 -7.875,-7.75 z"
   style="fill:#32201e;fill-opacity:1" /><path
   inkscape:connector-curvature="0"
   id="path21"
   d="m 184.708,25.110999 v 0.014 h -6.582 V 8.1249994 H 164.958 V 70.749999 h 2.084 11.084 6.582 v -0.063 c 12.16,0 21.334,-10.02 21.334,-22.789 0,-12.768 -9.174,-22.787 -21.334,-22.787 z m 0,34.293 v -0.028 h -6.582 v -22.876 h 6.582 v 0.003 c 4.607,0 8.084,5.034 8.084,11.45 0,6.416 -3.477,11.451 -8.084,11.451 z"
   style="fill:#32201e;fill-opacity:1" /><g
   id="g23"
   transform="translate(-12.271,-21.071001)">
		<linearGradient
   y2="91.821297"
   x2="269.83401"
   y1="75.696297"
   x1="269.83401"
   gradientUnits="userSpaceOnUse"
   id="SVGID_1_">
			<stop
   id="stop26"
   style="stop-color:#27F6FF"
   offset="0" />
			<stop
   id="stop28"
   style="stop-color:#00ACEE"
   offset="0.5" />
		</linearGradient>
		<circle
   sodipodi:ry="8.0629997"
   sodipodi:rx="8.0629997"
   sodipodi:cy="83.759003"
   sodipodi:cx="269.83401"
   id="circle30"
   r="8.0629997"
   cy="83.759003"
   cx="269.83401"
   style="fill:url(#linearGradient3798)"
   d="m 277.89701,83.759003 c 0,4.453071 -3.60992,8.062999 -8.063,8.062999 -4.45307,0 -8.06299,-3.609928 -8.06299,-8.062999 0,-4.453072 3.60992,-8.063 8.06299,-8.063 4.45308,0 8.063,3.609928 8.063,8.063 z" />
	</g><path
   inkscape:connector-curvature="0"
   id="path32"
   d="m 246,62.687999 c 0,-4.1 2.148,-7.697 5.375,-9.752 V 8.1239994 h -13.168 v 0 h -6.125 V 19.498999 h 6.125 v 5.625 h -6.582 v -0.014 c -12.16,0 -21.334,10.019 -21.334,22.788 0,12.769 9.174,22.788 21.334,22.788 v 0.063 h 6.582 11.082 c -2.031,-2.085 -3.289,-4.927 -3.289,-8.061 z m -7.792,-3.314 h -6.582 v 0.028 c -4.607,0 -8.084,-5.033 -8.084,-11.45 0,-6.416 3.477,-11.45 8.084,-11.45 v -0.003 h 6.582 v 22.875 z"
   style="fill:#32201e;fill-opacity:1" />
</svg>