<?xml version="1.0" encoding="utf-8"?>
<!-- Generator: Adobe Illustrator 19.0.0, SVG Export Plug-In . SVG Version: 6.00 Build 0)  -->
<svg version="1.1" id="Layer_1" xmlns="http://www.w3.org/2000/svg" xmlns:xlink="http://www.w3.org/1999/xlink" x="0px" y="0px"
	 viewBox="-320 216.7 435 126" enable-background="new -320 216.7 435 126" xml:space="preserve">
<g>
	<path fill="#384B5D" d="M-86.1,321.9c-22.7,0-41.1-18.4-41.1-41.1c0-22.7,18.4-41.1,41.1-41.1S-45,258.1-45,280.8
		C-45,303.5-63.5,321.9-86.1,321.9z M-86.1,257.9c-12.6,0-22.9,10.3-22.9,22.9c0,12.6,10.2,22.9,22.9,22.9
		c12.6,0,22.9-10.3,22.9-22.9S-73.5,257.9-86.1,257.9z"/>
</g>
<path fill="#384B5D" d="M-203.1,239.8h12.4c1.7,0,3,1.3,3,3v43.6c0,10,2.6,17.2,12.7,17.2c14.8,0,22.2-8.3,22.2-28.1v-32.7
	c0-1.7,1.3-3,3-3h12.3c1.7,0,3,1.3,3,3v76.1c0,1.7-1.3,3-3,3h-12.3c-1.7,0-3-1.3-3-3v-7.7c-4,8.5-13.7,10.6-27.7,10.6
	c-17.6,0-25.7-8.9-25.7-31.2v-47.8C-206.1,241.2-204.8,239.8-203.1,239.8z"/>
<g>
	<path fill="#384B5D" d="M-35.6,239.8h12.3c1.7,0,3,1.3,3,3v7.7c0,0,2.5-10.4,25.1-10.7c0.1,0,0.3,0,0.4,0c1.8,0,3.3,1.5,3,3.3
		L6.6,256c0,1.7-1.4,3-3,2.9c-0.6,0-1.2,0-1.8,0c-8.7,0-16.5,5.8-20.4,18c-1.3,4-1.8,8.5-1.8,13.4V319c0,1.7-1.3,3-3,3h-12.3
		c-1.7,0-3-1.3-3-3v-76.2C-38.6,241.2-37.3,239.8-35.6,239.8z"/>
</g>
<path fill="#384B5D" d="M88.2,279.4c-0.4-10.2-4.2-19.1-11.3-26.6c-13.5-14.4-34.8-16.7-50.8-7.4c-14.6,8.5-23.3,25.5-19.8,43.7
	c3,15.4,14.8,28.3,30.7,32.2l0,0c25.6,4,33.2-10.2,32.7-10c0.2-0.1,0.1,7.6,0.1,7.6c0,1.7,1.7,3,3.4,3h11.9c1.7,0,3-1.4,3-3
	L88.2,279.4C88.3,279.4,88.2,279.4,88.2,279.4z M24.1,281c0.1-12.6,10.5-22.7,23.2-22.7c12.3,0.1,22.5,10.4,22.4,22.9
	c0.1,12.9-10.9,22.4-23.1,22.2C34.2,303.2,24,293.5,24.1,281z"/>
<path fill="#384B5D" d="M-204.3,319.9L-204.3,319.9L-204.3,319.9c-4.2-3.2-5.7-8.8-7.7-15.5c-0.1-0.5-0.6-0.8-1.1-0.8l-42.2,0.1
	c-1,0-1.5-1.1-0.9-1.9l42.8-50.1c0.2-0.2,0.3-0.5,0.4-0.8v-8.2c0-0.2,0-0.4,0-0.6c0-0.2,0-0.4-0.1-0.5c-0.4-1.1-1.5-1.8-4.1-1.8
	h-68.2c-2.1,0-3.8,1.7-3.8,3.8v10.9c0,2.1,1.7,3.8,3.8,3.8h18.9l0,0h20.6c1,0,1.5,1.1,0.9,1.9l-38.6,45.2c-3.5,4-7.1,7.9-6.2,12.2
	c0.2,1.3,0.8,2.5,1.6,3.5c0.5,0.6,1.2,0.9,1.9,0.9h81.3C-204,321.9-203.5,320.6-204.3,319.9z"/>
</svg>
