<?xml version="1.0" encoding="utf-8"?>
<!-- Generator: Adobe Illustrator 14.0.0, SVG Export Plug-In . SVG Version: 6.00 Build 43363)  -->
<!DOCTYPE svg PUBLIC "-//W3C//DTD SVG 1.1//EN" "http://www.w3.org/Graphics/SVG/1.1/DTD/svg11.dtd">
<svg version="1.1" id="Layer_1" xmlns="http://www.w3.org/2000/svg" xmlns:xlink="http://www.w3.org/1999/xlink" x="0px" y="0px"
	 width="84px" height="76px" viewBox="0 0 84 76" enable-background="new 0 0 84 76" xml:space="preserve">
<g>
	<path fill="#E31837" d="M81.61,50.958c0-1.959-1.587-3.539-3.541-3.539c-1.96,0-3.533,1.58-3.533,3.539
		c0,1.954,1.573,3.534,3.533,3.534C80.023,54.493,81.61,52.913,81.61,50.958"/>
	<path fill="#FDB913" d="M49.436,11.492c2.261-1.592,4.714-2.931,7.322-3.965C51.459,4.375,45.273,2.558,38.66,2.558
		c-11.099,0-21,5.104-27.501,13.092c6.1-4.959,13.872-7.935,22.344-7.935C39.235,7.715,44.647,9.076,49.436,11.492"/>
	<path fill="#F4A219" d="M65.507,27.926c3.237,2.085,6.108,4.686,8.503,7.681c-0.793-11.951-7.516-22.282-17.253-28.08
		c-2.606,1.034-5.062,2.372-7.321,3.965C56.448,15.03,62.124,20.825,65.507,27.926"/>
</g>
<g>
	<defs>
		<path id="SVGID_1_" d="M11.159,15.65c-4.96,6.095-7.933,13.873-7.933,22.341c0,8.366,2.901,16.055,7.746,22.119
			c-0.051-0.796-0.081-1.588-0.081-2.388c0-17.046,12.038-31.278,28.075-34.664c2.59-4.59,6.181-8.541,10.471-11.566
			c-4.789-2.416-10.202-3.777-15.934-3.777C25.031,7.714,17.259,10.69,11.159,15.65"/>
	</defs>
	<clipPath id="SVGID_2_">
		<use xlink:href="#SVGID_1_"  overflow="visible"/>
	</clipPath>
	
		<linearGradient id="SVGID_3_" gradientUnits="userSpaceOnUse" x1="-259.1919" y1="458.2944" x2="-258.1919" y2="458.2944" gradientTransform="matrix(-60.1189 60.1189 60.1189 60.1189 -43065.125 -11978.8184)">
		<stop  offset="0" style="stop-color:#FFFFFF"/>
		<stop  offset="0.1573" style="stop-color:#FFF6E0"/>
		<stop  offset="0.503" style="stop-color:#FEDE90"/>
		<stop  offset="1" style="stop-color:#FDB913"/>
	</linearGradient>
	<polygon clip-path="url(#SVGID_2_)" fill="url(#SVGID_3_)" points="75.633,33.913 26.331,83.214 -22.972,33.913 26.331,-15.39 	"/>
</g>
<g>
	<path fill="#FDB913" d="M49.436,11.492c-4.29,3.024-7.881,6.976-10.471,11.565c2.375-0.503,4.836-0.766,7.361-0.766
		c7.066,0,13.65,2.07,19.182,5.634C62.124,20.826,56.449,15.03,49.436,11.492"/>
	<path fill="#EA8C1C" d="M65.507,27.926c2.201,4.613,3.429,9.772,3.429,15.224c0,8.47-2.974,16.245-7.931,22.345
		c7.985-6.502,13.088-16.402,13.088-27.503c0-0.802-0.028-1.594-0.083-2.385C71.616,32.612,68.745,30.011,65.507,27.926"/>
	<path fill="#FDB913" d="M34.393,40.471c0-6.329,1.664-12.271,4.572-17.413c-16.037,3.386-28.074,17.618-28.074,34.664
		c0,0.8,0.029,1.592,0.081,2.388c6.496,8.115,16.483,13.315,27.687,13.315c4.616,0,9.024-0.885,13.065-2.488
		C41.346,64.756,34.393,53.426,34.393,40.471"/>
	<path fill="#F4A219" d="M68.936,43.15c0-5.451-1.228-10.609-3.428-15.224c-5.531-3.565-12.115-5.635-19.182-5.635
		c-2.525,0-4.987,0.263-7.361,0.766c-2.908,5.145-4.572,11.084-4.572,17.414c0,12.954,6.953,24.285,17.332,30.466
		c3.377-1.343,6.502-3.186,9.28-5.442C65.962,59.395,68.936,51.621,68.936,43.15"/>
	<path fill="#FFFFFF" d="M16.471,45.1c2.621,0.452,5.328,1.879,5.328,4.884c0,3.573-3.39,4.853-5.894,4.853
		c-1.964,0-4.107-0.774-5.744-2.945l2.232-2.319c0.952,1.102,2.261,1.636,3.572,1.69c0.805,0.032,1.815-0.472,1.815-1.278
		c0-1.099-1.156-1.248-1.932-1.396c-2.475-0.447-5.037-1.968-5.064-4.883c0-3.093,2.772-4.763,5.655-4.763
		c1.549,0,3.337,0.533,5.091,2.35l-2.171,2.204c-1.07-0.802-2.115-1.01-2.948-1.01c-0.683,0-1.786,0.412-1.786,1.365
		c0,0.507,0.506,0.928,1.012,1.073C15.933,45.015,16.202,45.046,16.471,45.1"/>
	<path fill="#FFFFFF" d="M38.324,53.619c-2.384,0.837-4.315,1.132-6.255,1.132c-4.255,0-7.739-2.444-7.739-6.996v-8.396h4.052v8.425
		c-0.122,3.13,3.273,3.988,5.832,3.097V39.358h4.11V53.619z"/>
	<path fill="#FFFFFF" d="M45.705,39.208l0.328,1.577c1.787-2.262,4.94-2.201,6.933-0.475l-1.728,3.066
		c-1.902-1.248-4.818-0.803-4.818,1.67v9.409h-4.019V39.208H45.705z"/>
	<path fill="#FFFFFF" d="M67.286,51.921c-1.813,1.994-3.812,2.829-6.013,2.829c-5.151,0-7.743-3.993-7.712-7.89
		c0-3.899,2.684-7.802,7.68-7.83c4.408-0.032,7.475,3.273,7.475,7.505c0,0.474-0.03,1.247-0.178,2.021H57.64
		c0.685,2.976,4.88,3.541,7.354,1.343L67.286,51.921z M64.725,45.432c-0.325-2.085-1.903-2.89-3.452-2.89
		c-1.579,0-3.304,0.867-3.633,2.89H64.725z"/>
</g>
</svg>
