<?xml version="1.0" encoding="utf-8"?>
<!-- Generator: Adobe Illustrator 19.0.0, SVG Export Plug-In . SVG Version: 6.00 Build 0)  -->
<svg version="1.1" id="Master_Logo" xmlns="http://www.w3.org/2000/svg" xmlns:xlink="http://www.w3.org/1999/xlink" x="0px"
	 y="0px" viewBox="0 0 800 478" enable-background="new 0 0 800 478" xml:space="preserve">
<g id="Heads">
	<path id="pink" fill-rule="evenodd" clip-rule="evenodd" fill="#FBE7EA" d="M458.5,42c1.5,8.4,4.6,15.5,9.5,21.3
		c4.6,5.5,10.1,8.8,16.5,9.9c1.7,0.3,3.4,0.4,5.2,0.4c7.8,0,15-3.2,21.7-9.5c0.1,3.5,0.5,5.5,1.4,9.6c0.8,3.6,1.1,8.1,1,13.6
		c-0.1,3.5-0.2,6.7-0.6,9.6l0,0.6l0.1,0.1c1.4,1.2,2.7,2.6,3.9,4.2c2.3,3.2,3.6,6.5,3.9,10.1l0,1c0.2,3.5,0,7.9-0.7,13.2l0.8,0.4
		c0.5,0.4,0.9,1,1.2,1.6c0.4,0.9,0.4,1.9,0.3,3l1.4,1.1c0.2-0.8,0.6-1.9,1-3.2c0.9-2.6,1.9-4.9,3.1-7.1c1-2,2.1-3.7,3.1-5.2
		c0.5-0.7,1-1.3,1.5-1.9c2.2-2.5,4.5-3.9,6.9-4.2l1,0c1.1,0,2.1,0.2,3.1,0.5c1.3,0.5,2.3,1.3,3.1,2.4c0.3,0.4,0.6,0.8,0.8,1.3
		c0.1,0.2,0.2,0.4,0.3,0.6c0.8,1.9,1.2,4.3,1.2,7.2c0,0.3,0,0.5,0,0.8c0,1-0.1,2-0.3,3c-0.4,2.4-1.1,5-2.2,7.8
		c-0.8,2.2-1.8,4.2-2.8,6.1c-1.3,2.3-2.7,4.3-4.3,6c-0.5,0.6-1.1,1.2-1.8,1.8c-0.7,0.7-1.4,1.2-1.9,1.5c-2.5,1.7-5,2.6-7.7,2.6
		c-3.8,0-5.6-1.4-5.6-4.1l0.1-1.5c-0.4,0.2-0.7,0.4-1.1,0.8c-0.7,0.8-1.1,1.8-1.1,3c0,1.2,0.3,2.2,0.8,3c0.2,0.4,0.5,0.7,0.7,0.8
		l-1,3.5c-1.9,6.8-3,11.8-3.4,14.9c-0.4,3.2-0.7,6.5-1,10c-0.1,0.7-0.1,1.4-0.2,2.1c-0.2,2.6-0.3,4.6-0.4,6.2
		c-0.1,2-0.2,3.9-0.2,5.7l0,0.5c-2.5,1.2-5.5,3.7-8.9,7.5c-4.4,4.8-7.4,8.2-9.2,10.1l-2.2,2.2c-2.4,2.4-4.5,4.3-6.4,5.6
		c-1.8,1.3-3.4,2.1-4.7,2.4c-0.4,0.1-0.8,0.1-1.1,0.1l-16.4-0.1c-2.1,0-3.8-0.2-5-0.5c-1-0.2-1.8-0.6-2.4-1.1l-0.6-0.4
		c-0.1-0.1-0.7-0.6-1.7-1.5c-1-0.9-2.1-2.1-3.5-3.8c-1.4-1.6-2.5-3.8-3.4-6.6c-0.5-1.5-0.4-2.8,0.4-4c0.3-0.7,0.7-1.2,1.2-1.7
		l0.1-0.1l0.3,2.9c0.2,0.6,0.4,1.2,0.6,1.8c0.5,1,1.4,2,2.7,2.9c2.7,1.8,4.7,2.7,5.8,2.9c1.2,0.2,2.3,0.2,3.3,0.2
		c-1-1.2-1.6-2.4-1.8-3.6c-0.2-0.9-0.4-1.8-0.5-2.5c0-0.3,0-0.5,0-0.7c1.3,0,2.9-0.7,4.7-2.2c2.1-1.7,3.8-2.8,5-3.2l0.6-0.2
		c4.3-1.2,8.7-2.9,13.2-5.3c4.5-2.3,8.5-4.8,11.9-7.5l1.5-1.2c1.8-1.5,3.6-3.1,5.4-4.8c1.3-1.3,2.6-2.6,4-4.1
		c1.6-1.7,2.9-3.2,3.8-4.4c-0.1-0.4-0.3-0.6-0.7-0.7l-2.5,2.3c-2.8,2.6-5.4,4.9-7.8,6.9c-2.4,2-4.7,3.8-6.7,5.2
		c-2.8,1.9-5.6,3.7-8.5,5.4c-4.5,2.5-8.8,4.5-12.8,6.1c-2,0.8-4.5,1.2-7.5,1.4c-3.1,0-5.1,0-6.1,0c-0.7,0-1.3,0-1.7-0.1
		c-1.9-0.2-3.8-0.8-5.8-1.8c-2-1-3.7-2.1-5.2-3.5c-0.9-0.8-1.9-2.1-3-3.8c-0.7-1-1.6-1.7-2.7-2l0-0.2c0.4-2.7-0.1-4.8-1.5-6.3
		c-1.2-1.2-1.6-2.5-1.5-3.8c0.2-1.3,0.8-2.1,2-2.3c0.8-0.1,3.1-0.2,6.8-0.1c3.5,0.1,8.3,0.3,14.2,0.7c0.4,0,0.7-0.1,0.7-0.3
		c-0.1-0.1-0.2-0.2-0.4-0.3c-1.7-1-4.6-1.7-8.8-2.1c-2.9-0.3-5.9-0.4-9.2-0.4l-0.1,0c-0.3-0.1-0.6-0.3-0.8-0.5
		c-0.3-0.2-0.5-0.4-0.8-0.7c-0.2-0.2-0.4-0.5-0.6-0.7l-0.1-0.3c-0.3-0.6-0.5-1.3-0.5-2v0c0-1.6,0.6-2.8,1.9-3.5
		c0.9-0.5,2.4-0.9,4.3-1.1c2.4-0.3,10.1-0.1,23.3,0.6l6,0.3c0.2-0.4,0-0.8-0.6-1.1c-0.5,0-3.6-0.2-9.3-0.7
		c-5.3-0.5-10.1-0.7-14.1-0.7c-2.2-0.7-5.5-1.1-9.8-1.1c-1.4,0-2.9,0.2-4.3,0.6l-1.6,0.5l0.8,1.3c0.7,1,1.5,1.7,2.4,2.3l-0.4,0.8
		c-0.3,0.7-0.4,1.3-0.4,2c0,0.8,0.2,1.6,0.5,2.2c0.2,0.5,0.5,0.8,0.7,1c-0.5,0.9-1.3,1.3-2.4,1.3c-0.3,0-0.6-0.1-0.9-0.2
		c-0.8-0.4-1.1-1.7-1.1-3.8l0.1-1.2l0.2-1.1c0-0.2,0-0.4,0-0.5c-0.1-0.2-0.3-0.4-0.5-0.3l-0.3,0.1c-0.2,0.1-0.4,0.2-0.7,0.2v0.2
		c-0.4,0.2-0.8,0.3-1.3,0.4l-0.8,0.1c0.2-0.3,0.4-0.7,0.7-1c0.5-0.8,1-1.7,1.4-2.7c0.6-1.2,1.1-2.4,1.6-3.8c0.9,0.1,2,0.2,3.2,0.2
		c3.6,0,6.7-0.7,9.3-2.1c1.6-0.9,2.9-2,3.7-3.2c0.3,1,0.8,1.8,1.6,2.5c1.3,1,3,1.6,5.3,1.7c3.4,0.2,6.1,0.4,8,0.7
		c3.4,0.6,6.3,1.5,8.6,2.7c3.5,1.9,5.8,3.1,7,3.6c0.4,0.2,0.9,0.3,1.3,0.5c1.7,0.6,3.4,0.9,4.9,0.9c3.5,0,5.3-1.3,5.3-3.8
		c0-1.8-0.6-4.2-1.8-7c-1.3-3.2-3-6.3-5.3-9.2c-1-1.3-2-2.5-3.2-3.5c-1.5-1.4-3.2-2.6-5-3.5c-2.9-1.6-5.8-2.4-8.7-2.4
		c-1.5,0-2.9,0.3-4.3,0.9l-1.7,0.9c-0.1-0.4-0.4-0.7-0.6-1.1c-0.6-0.7-1.4-1.1-2.4-1.1c-0.4,0-0.6,0-0.8,0c-0.4,0.1-0.8,0.1-1.1,0.3
		l-0.1,0c-0.2,0.1-0.3,0.1-0.5,0.2L459,142l0.4,0.5c0.2,0.2,0.3,0.5,0.3,0.7l0,0.2c0,0.1,0,0.2,0,0.3c0,0.6-0.5,1.1-1.6,1.5
		c-1.2,0.5-2.7,0.8-4.5,0.8c-1.3,0-2.7-0.2-4.1-0.6c-1.2-0.3-2.2-0.7-3.1-1.3c-1.7-1-2.6-2.2-2.9-3.8l-0.1-0.5
		c0-0.6,0.1-1.3,0.3-2.1c0.2-0.6,0.3-1,0.4-1.2c-0.6,0.9-1.4,1.5-2.5,1.9l-1.4,0.3l1.7-2.9c3.9-6.7,6.5-12.8,7.8-18.3
		c1.8-7.7,2.7-13.3,2.7-16.8c0-0.4-0.3-1-1-1.7c-0.7-0.8-1.9-1.8-3.6-3c-0.3-0.2-1.5-1.1-3.7-2.6c-1.7-1.2-3.2-2-4.5-2.7
		c-2.2-1.1-4.6-1.7-7-2c-0.8-0.1-1.6-0.1-2.4-0.1c-1.2,0-2.4,0.1-3.5,0.3c0-3.9,0.3-8.1,0.9-12.5c1-6.5,2.6-11,4.9-17.4
		c0.8,0.2,1.6,0.4,2.4,0.4c3.2,0,6.9-1.2,11.1-3.6c4.6-2.7,8.1-6,10.7-10C457.4,44.5,458,43.2,458.5,42z M465.7,93.8l-0.2-1.4
		c-0.2,0.1-0.4,0.3-0.6,0.6c-0.5,0.6-0.7,1.2-0.7,2c-0.6,0.2-1.4-0.1-2.2-0.8l0.4,1.2c0.4,0.8,1,1.2,1.7,1.2c0.6,0,1.1-0.3,1.5-0.8
		l0.4,0.3c0.3,0.2,0.6,0.3,0.8,0.3C466.3,95.8,466,94.9,465.7,93.8z M440,97.2l1.9,2.6l4.3,4.9l-1,1.1c-2.7-2.7-5.5-4-8.5-3.6
		c-3,0.3-5.4,1-7.2,1.9c-1.8,0.9-4,2-6.5,3.3l-1.1-1.4l-0.2-3.6c0.3-0.4,0.6-0.7,0.9-1.1c0.4-0.5,0.8-1.1,1.2-1.6
		c0.4-0.5,0.8-1,1.3-1.5c1.9-1.8,4.3-2.6,7.2-2.4c1.7,0.2,3.4,0.4,5,0.8c0.9,0.1,1.5,0.3,1.9,0.4C439.5,97.1,439.7,97.1,440,97.2z
		 M445.2,108.8l-1.7,0.5c0.8,1,1,2.2,0.8,3.4c-0.1,0.6-0.3,1.1-0.7,1.7l0,0c-0.5,1.1-1.1,2.1-1.8,2.9c-0.9,1.1-1.7,2-2.4,2.9
		c-1.9,2.3-3.2,3.9-3.8,4.7c-1,1.4-1.9,2.7-2.6,3.9c-0.4,0.6-0.7,1.3-1,1.9c-0.2,0.4-0.3,0.7-0.5,1.1c-0.2,0.5-0.4,0.9-0.6,1.4
		c-0.1,0.3-0.2,0.6-0.3,1c-0.5,1.7-0.8,3.4-0.8,5.2l0.5,0.5c0.5,0.4,1.1,0.8,1.9,1.1c0.7,0.3,1.5,0.6,2.5,0.9
		c0.5,0.1,1.1,0.3,1.8,0.4c-0.5,0.2-1.1,0.5-1.8,0.8c-0.4,0.2-0.7,0.4-1.1,0.7c-2.1,1.4-3.9,3.1-5.3,5c0,0,0,0,0,0
		c-0.1,0.1-0.1,0.2-0.2,0.3c-0.4,0.7-0.8,1.3-1.1,2c-0.3,0.7-0.6,1.4-0.8,2c-0.7-2.1-1.5-4.6-2.3-7.6c-0.9-3.5-1.5-6.8-1.8-9.9
		l-0.2-1.3c0-0.1,0-0.1,0-0.2c-0.1-0.8-0.1-1.6-0.1-2.4l0-0.5c0-0.2,0-0.4,0-0.5h0c-0.1-2.3,0-4.7,0.1-7c0,0,0,0,0.1,0.1
		c0-0.1,0-0.3,0-0.4c0-0.6,0.1-1.2,0.1-1.8c0-0.1,0.1-0.3,0.1-0.4c0.2-0.8,0.8-1.6,1.6-2.5c0,0,0.1-0.1,0.1-0.1
		c0.8-0.9,1.9-1.4,3.2-1.3c0,0,0.1,0,0.1,0c0.4,0.1,0.8,0.2,1.3,0.3c0.3,0.1,0.6,0.1,0.9,0.1l3.9,0.4l0.2-1.1
		c-0.6,0.1-1.4,0-2.6-0.2c-0.1,0-0.2-0.1-0.4-0.1c-1.3-0.4-2.2-0.9-2.8-1.7c-0.4-0.6-0.6-1.3-0.7-2c0-0.1,0-0.1,0-0.2
		c0.3-0.5,0.5-1,0.8-1.4c1-1.7,2-2.7,2.9-3.1l0.1,0l0,0c0.1-0.1,0.3-0.1,0.4-0.2l0,0l0,0c-0.6,0.8-0.9,1.7-0.9,2.8
		c0,0.7,0.1,1.3,0.3,1.9c0,0,0,0.1,0,0.1c0.2,0.5,0.5,1,0.9,1.4c0.8,0.8,1.9,1.1,3.4,1.2c1.5,0.1,2.7-0.4,3.6-1.2
		c0.4-0.3,0.7-0.7,0.9-1.1c0.3-0.5,0.5-1.1,0.5-1.7c0-0.7-0.1-1.3-0.2-1.9c-0.1-0.2-0.2-0.5-0.3-0.7l-0.7-0.9
		c1.1,0.1,2.3,0.3,3.7,0.6c-0.3-0.2-0.7-0.3-1-0.5c-1-0.5-2.1-0.9-3.2-1.2c-2-0.5-4-0.6-6.2-0.3c-1.4,0.2-2.7,0.6-4.1,1
		c-0.5,0.2-1.1,0.4-1.6,0.6c0,0,0,0-0.1,0c-0.1,0-0.2,0.1-0.3,0.1c-0.2,0.1-0.4,0.2-0.6,0.3c-0.2,0.1-0.3,0.1-0.5,0.1
		c0.2-0.1,0.4-0.3,0.6-0.4c0.4-0.3,0.8-0.5,1.1-0.7c1.4-0.8,2.8-1.5,4.4-2.1c3.5-1.3,7.1-1.4,10.7-0.1c1.2,0.4,2.1,1.2,2.8,2.2v0
		C444.6,107.9,444.9,108.3,445.2,108.8z M315.4,109.8c0.2-0.3,0.2-0.5,0.2-0.8c0-0.3-0.1-0.5-0.2-0.9c-0.5-1-1.6-1.9-3.5-2.8
		c-2.1-1-4.2-1.5-6.4-1.5c-0.5,0-1.1,0.2-1.7,0.7c-0.5,0.4-0.8,0.7-0.9,0.9c-0.7,0.1-1.5,0.3-2.3,0.5c-2.8,0.6-5.2,1.5-7.4,2.5
		c-2.5,1.2-4.5,2.6-6.1,4.1c-0.8,0.8-1.4,1.5-1.8,2.2l0,0.1l0,0.1c0.2,0.9,0.7,1.4,1.4,1.4h0.1l0,0c0.1,0,0.4-0.2,1-0.6
		c1.7-1,3.3-2.3,4.9-3.9c0.1-0.1,0.5-0.5,1.2-1.1c1.1-0.8,2.4-1.5,3.9-2.1l-0.4,0.8l-0.4,1.7v0c0,1.4,0.4,2.6,1,3.4
		c0.8,0.9,1.9,1.3,3.5,1.3l1-0.1c1.6-0.2,2.7-0.6,3.4-1.3c0.3-0.3,0.5-0.6,0.7-0.9c0,0,0,0,0,0c0,0,0,0,0,0c0,0,0,0,0,0
		c0.3-0.6,0.5-1.4,0.5-2.4v0c0-0.3,0-0.7-0.1-1.1c-0.3-1.3-1-2.2-2.1-2.9c0.5,0,0.9,0,1.3,0.1c0.7,0.2,1.3,0.4,1.9,0.6
		c0.3,0.1,0.6,0.3,1,0.5l0.9,0.5c0,1.7-0.3,3.5-1,5.4l0.2,0l0.1,0.3c0,0,0.4-0.3,1-0.9c0.7-0.9,1.1-2.2,1.3-3.7
		c0.6,0.4,1.1,0.6,1.6,0.6C314.4,110.7,315.1,110.4,315.4,109.8z M318.2,100.3c0-0.5-0.5-1-1.4-1.4c-0.7-0.3-2-0.6-3.7-1l-4.7-1.1
		c-3.4-0.9-5.8-1.4-7.2-1.4c-1.5,0-4.1,0.8-7.8,2.3l-10.5,4.4l0.1,0.2c0.3,0.5,1,0.8,2.3,0.8c0.5,0,1.2-0.1,1.9-0.3l5.6-1.3
		c3.5-0.9,6.2-1.3,8.1-1.3c3.1,0,5.9,0.3,8.6,1c1.3,0.4,2.4,0.7,3.1,1l0.1,0h0.1c0,0,0.2-0.1,0.6-0.2c0.4-0.3,0.7-0.6,0.9-0.9
		l0.4,0.2c0.7,0.4,1.3,0.9,1.6,1.5l0,0.2h0.1l0.1,0C317.7,102.8,318.2,101.9,318.2,100.3z M325.2,100.4c-0.5-0.2-1-0.3-1.6-0.3
		c-0.7,0-1.3,0.2-1.7,0.6c-0.8,0.7-1,1.6-0.7,2.5c0.1,0.5,0.3,0.8,0.6,1.1l0.3,0.3l0.1-0.4c0-0.1,0.1-0.3,0.2-0.6
		c0.2-0.4,0.5-0.9,0.8-1.3c0.6-0.7,1.3-1.2,1.9-1.5l0.6-0.2L325.2,100.4z M319.1,36.5c-0.8-2.5-1.8-4.8-3-6.8
		c-0.9-1.6-1.9-3.1-3.1-4.3c-3.3-3.6-7.6-6.8-12.9-9.7c0.3-0.1,0.7-0.2,1-0.2c0.2,0.1,1.8,0.9,4.7,2.3c3.2,1.7,5.7,3.3,7.6,4.8
		l0.8,0.8c3.2,2.9,5.5,6.9,7,11.9c0.3,1.1,0.6,2.1,0.7,2.9l0,0.3l0.3-0.2c0,0,0.4-0.2,1.1-0.5c0.9-0.4,1.9-0.7,3.1-0.9
		c2.1-0.4,4.3-0.6,6.6-0.6c5.4,0,10.3,1.6,14.5,4.7c2.4,1.7,4.3,3.7,5.7,5.9l-5.5,1.4l0,0.1c0,0-0.1,0.5-0.3,1.3
		c-0.2,1.1-0.3,2.3-0.4,3.5c-0.1,2,0.1,4.3,0.5,6.8l0.8,5.1c0.4,3.3,0.8,6.2,1,8.8l0,0.2l0.2,0.1c0.5,0.1,1,0.4,1.5,0.8
		c1,0.8,1.8,1.8,2.6,3.1c0.9,1.7,1.5,1.8,1.7,4.2l0,0.1l0.1,0c0,0,0.8,0.7,2.4,1.9c1.7,1.6,2.8,3.2,3.5,4.8
		c-1.2-0.5-2.7-0.8-4.5-0.8c-2,0-3.6,0.6-4.8,1.9c-0.4,0.4-0.6,0.7-0.7,0.8c-1.2,0.1-2.5,0.5-3.8,1.3c-1.4,0.9-3.1,2.3-5.1,4.2
		c-1.8,1.7-3.8,4.2-6.1,7.4c-1.9,2.9-2.9,4.3-2.9,4.4l-0.1,0.1l0.1,0.1c0.8,1.3,1.5,2.8,2.2,4.6c0.4,1,0.9,2.6,1.7,5
		c0.9,3,1.7,5.3,2.3,6.7c0.6,1.5,1.5,3.3,2.7,5.2l0.9,1.4c0.8,1.2,1.3,2.1,1.6,2.7c0.5,0.9,0.7,1.8,0.8,2.6l0,1c0,2.2-1,4.2-2.9,6.1
		c-0.8,0.8-2.4,1.6-4.7,2.5c-2.2,0.6-3.2,1-3.3,1l-0.8,0.2l0.7,0.3c0.1,0,0.4,0.2,1,0.5c0.7,0.4,1.3,0.8,1.7,1.2l0.4,0.5l-0.5,0.1
		c-0.7,0.2-1.2,0.4-1.4,0.7c-0.6,0.8-0.9,2.7-0.9,5.6c0,1,0.1,1.8,0.2,2.2c0.2,0.8,0.4,1.3,0.8,1.7c0.2,0.2,0.5,0.4,1,0.6
		c0.4,0.2,1.1,0.2,2.1,0c0.5,0,1.4-0.1,2.7-0.2c2.1,0,4,0.3,5.6,1c1.5,0.6,2.8,1.4,3.7,2.4c1.1,1.2,1.7,2.4,1.7,3.7
		c0,0.8-0.1,1.7-0.2,2.6c-0.4,2.2-1,3.5-1.7,3.9c-0.3-0.6-0.7-1.2-1.2-1.7c-0.7-0.8-1.3-1.2-1.8-1.2c-0.6,0-1.1,0.2-1.7,0.5
		l-0.3,0.3c-1.6,2-3.9,3.5-6.9,4.6c-2.7,1-5.6,1.5-8.9,1.6c-0.4,0-0.9,0-1.3,0h-0.1l-2.7,2.9l0.6,0.5c0.8,0.5,2,0.8,3.5,0.8
		c0,0,0.1,0,0.1,0c1,0,1.7-0.3,2.2-0.9c0.3-0.4,0.5-0.8,0.6-1.3c1.4,0.1,3.1,0,5-0.4c3.2-0.6,6.1-1.7,8.9-3.3c0.7,0.4,1,1,1,2
		c0,0.4-0.2,0.7-0.5,1.1l-0.6,0.6c-0.5,0.4-0.8,0.7-1,1.1c-0.4,0.5-0.5,1.1-0.5,1.7c0,0.9,0.3,1.7,0.8,2.4l0.2,0.3
		c0.2,0.3,0.3,0.7,0.3,1.3c0,0.4-0.1,0.8-0.3,1.1c-0.1,0.2-0.4,0.5-0.8,0.9c-0.9,0.9-1.6,1.9-2,2.9l-0.2,0.7
		c-0.9,2.4-1.8,4.3-2.8,5.5c-1.7,2.4-3.9,3.8-6.6,4.5c-0.9,0.2-1.9,0.3-3,0.3c0.2-1.3,0.2-2.2-0.3-2.7c-0.1-0.2-0.3-0.3-0.5-0.3
		c0,0-0.1,0-0.1,0c-0.2,0-0.8,0.3-1.7,0.9c-1.5,1-2.7,1.7-3.6,2.1c-1.8,0.8-3.8,1.2-5.8,1.2c-1.9,0-4.3-0.4-7-1.3l-0.6-0.2
		c-4.7-1.5-11-4.2-18.9-8.3c-3.6-1.8-7.3-4.2-11.2-7.2c-3.1-2.6-4.7-3.9-4.7-4l-0.1-0.1h-0.1l-0.3,0.2c-0.1,0.1-0.2,0.2-0.3,0.3
		c4.8,4.6,13.2,10.3,25.3,17.1c6.1,3,10.8,4.8,14.1,5.3c2.3,0.4,3.8,0.6,4.6,0.8c0,0,0,0.5,0,1.4c0,0.9-1.5,2-4.6,3.2
		c-0.7,0.3-1.3,0.5-1.8,0.7l0,0c0,0,0.5,0.5,1.4,1.3c0,0,0,0,0,0c0.1,0,0.3,0,0.5,0.1c0.2,0.1,1.7,0,4.6-0.2
		c2.9-0.2,4.8-0.7,5.8-1.6c0.2-0.1,0.3-0.3,0.5-0.4c0.9-0.7,1.5-1,1.8-1c0.3,0,0.5,0.1,0.6,0.3c0.1,0.1,0.1,0.2,0.2,0.4
		c-0.2,1.8-0.7,3.2-1.7,4.2c-1,1-1.8,1.8-2.3,2.3c-0.9-0.9-2.4-1.3-4.7-1.3c-1.4,0-2.7,0.2-3.8,0.5c-0.7,0.2-1.3,0.5-1.6,0.7
		c-1.3-0.1-2.9-0.5-4.7-1c-3.3-0.9-6.7-2.3-10.2-4.3c-1.9-1.1-4.8-3.1-8.6-6.1c-1.5-1.2-3.8-3.1-7-5.7c-0.4-0.2-0.7-0.4-1.1-0.6
		c-1.2-0.7-2.3-1.5-3.4-2.4c-0.7-0.6-1.5-1.3-2.4-2.2c-0.5-0.5-0.9-1-1.4-1.5l-5.2-4.2c-5.7-4.6-10.2-7.9-13.5-10.1l3.6-3.7V176
		c0-0.7,0-1.4,0-2.2c0-1.3,0-2.7-0.1-4.1c0,0,0,0,0,0c0-0.2,0-0.4,0-0.6c0-0.4,0-0.9,0-1.3c-0.1-3.4-0.2-6.9-0.4-10.3
		c-0.2-3.3-0.5-6.5-1-9.7c0-0.3-0.1-0.6-0.1-0.8c-0.2-1.2-0.3-2.2-0.5-3.2l-0.1-0.4l-0.3,0.2c-0.8,0.6-2.1,0.9-3.9,0.9
		c-0.8,0-1.4-0.1-2-0.2l-0.1,0c-0.1,0-0.2,0-0.3-0.1c-0.2-0.1-0.4-0.2-0.7-0.3c-1.1-0.5-2.3-1.4-3.6-2.8c-0.6-0.7-1.2-1.4-1.8-2.2
		c-0.8-1-1.6-2.2-2.6-3.7c-1.7-2.7-3.1-5-4.2-6.8l-0.1,0l0-0.1c-2-3.3-3.3-5.9-4.1-7.6l-0.8-1.8c-2.3-5.8-3.4-10-3.4-12.4
		c0-1.6,0.5-2.9,1.5-3.9c0.9-0.9,2.1-1.4,3.3-1.4c1.8,0,3.7,0.6,5.9,1.7c2.2,1.2,4.2,2.7,6,4.6c1.9,1.9,3.3,4.8,4.3,8.8
		c0.6,2.5,1.1,5.3,1.4,8.3c0.3,2.4,1.2,4.1,2.9,5.3c0.8,0.6,1.6,0.9,2.5,1.1c0.9,0.2,1.8,0.1,2.6-0.1c1-0.3,1.4-1.6,1.4-3.9
		c0-1.2-0.1-3-0.4-5.4c-0.1-0.5-0.2-1.3-0.3-2.5c-0.3-3.7-0.6-8.1-0.8-13.2c1.2-1.2,2.3-2.4,3.5-3.8c2-2.3,3.2-4,3.5-5.1
		c0.2-0.7,0.5-1.5,0.9-2.2c0.5-0.9,0.8-1.8,0.9-2.7c0.2-2,0.5-5.7,0.8-11c0.4-6.5,0.6-9.2,0.4-11.6l-0.1-0.3l-1.1,0.4
		c-2,0.6-4.5,1.1-7.3,1.4c-4.4,0.5-9.1,0.6-14,0.3l0-0.3l0-0.2l0.1-0.1v0l0.2,0c1.1,0.1,2.4,0,3.9,0c2.2-0.1,4.3-0.4,6.4-0.8
		l0.5-0.1c0.5-0.1,1-0.2,1.6-0.3c8.7-1.9,15.5-5.7,20.3-11.2c0.4-0.5,0.9-1,1.3-1.4c2.9-3.3,5.2-5.8,7.1-7.6
		c2.5-2.5,4.8-4.5,6.9-5.8c2-1.3,4-2.3,6.1-2.9c2.1-0.6,4.4-0.9,7-0.9c1.3,0,3,0.2,5,0.6c1.7,0.4,2.9,0.5,3.6,0.4
		c0.4-0.1,0.7-0.2,1-0.3l0.1,0l0-0.2C319.7,38.9,319.4,37.8,319.1,36.5z M542.4,113.7c-0.6-0.2-1.2-0.2-2-0.2
		c-0.6,0-1.1,0.1-1.6,0.2c-0.8,0.2-1.6,0.7-2.3,1.3c-0.1,0.1-0.2,0.2-0.3,0.3c-0.2,0.2-0.4,0.4-0.6,0.7c-0.4,0.5-0.7,1-1.1,1.5
		c1.3-0.9,2.6-1.3,4.2-1.3c2.7,0,4.6,1.3,5.6,3.9c0.8,2.1,1.1,4.3,1,6.6c0,0.5-0.1,1.1-0.2,1.6c-0.4,1.9-1,3.6-2,5.2l0.8,0.4
		c1-1.3,1.9-3.4,2.5-6.3c0.7-2.9,0.6-5.5-0.2-7.7c-0.9-2.5-2.6-4.2-5-4.9c-0.2-0.1-0.4-0.1-0.6-0.1c0.6-0.3,1.3-0.5,2.1-0.6l0.9-0.1
		C543.2,114,542.8,113.8,542.4,113.7z M475.6,105.2l-1,0.6c-1.1,0.8-1.6,1.4-1.6,1.9c0,0.2,0.1,0.4,0.2,0.7c0.2,0.4,0.5,0.7,1,1
		c0.3,0.1,0.6,0.2,0.9,0.3c-0.2,0.6-0.2,1.3-0.2,1.9c0,0.6,0.1,1.1,0.1,1.5l0.1,0.1c0.1,0.1,0.3,0.1,0.5,0.1c0.4,0,0.6-0.1,0.7-0.3
		c-0.2-1.2-0.3-2.4-0.2-3.5l0.3-1.2l0.7-0.6c0.5-0.4,1.2-0.6,1.8-0.7l1.2-0.1c-1.1,0.8-1.7,2-1.7,3.4c0,1.5,0.4,2.6,1.3,3.4
		c0.8,0.8,2,1.2,3.5,1.2c0.4,0,0.8,0,1.1-0.1c1.2-0.2,2.2-0.7,3-1.6c0.9-0.9,1.4-1.9,1.4-2.9c0-0.7-0.2-1.4-0.6-2l0.1,0.1
		c0.8,0.3,1.5,0.6,2.2,1c1.4,0.7,2.7,1.5,3.8,2.4c1,0.8,1.7,1.6,2.3,2.4l0.1,0.1c-1,0.3-2.4,0.7-4,1.1l-2.1,0.4
		c0.1,0.4,0.3,0.6,0.7,0.8c3.8-0.3,6.4-1.1,7.7-2.3l0.3-0.4l0.1-0.2c0-0.4-0.4-1-1.3-1.9c-1.1-1-2.4-2-4-3c-2.5-1.5-5-2.4-7.6-2.9
		c-0.6-0.1-1.3-0.2-1.9-0.3c-0.1,0-0.1,0-0.2,0c-0.6-0.1-1.1-0.1-1.7-0.1c-0.1,0-0.2,0-0.4,0v0c0-1.2-0.7-1.7-2.1-1.7
		c-1.2,0-2.3,0.3-3.4,0.8L475.6,105.2z M484.4,96.6c2.3,0.3,4.8,0.8,7.6,1.6c4.7,1.3,9.6,2.4,14.8,3.5l-0.2-0.1l-8.5-5
		c-2.6-1.5-5.9-2.9-10-4.1c-1.3-0.4-2.5-0.7-3.7-1c-2.8-0.6-5.4-1-7.8-1.1c-2.5-0.2-4.6-0.1-6.3,0.2l-1.8,0.4l-0.2,0.5
		c-0.2,0.5-0.2,1.2-0.2,2c0,1.3,0.2,2.2,0.7,2.9l0,0l0.3,0c1-0.2,1.8-0.5,2.4-1.1l1.2,0.5c1.1,0.3,2.5,0.5,4.2,0.5
		c2.4,0,4.5,0.1,6.4,0.3C483.7,96.5,484.1,96.5,484.4,96.6z M343.3,106.5l4.1-0.8c-0.3,0.3-0.5,0.5-0.7,0.8l-0.2,0.4l-0.1,0.3
		c-0.1,0.4-0.2,0.8-0.2,1.1c0,1,0.3,1.9,0.9,2.7c0.6,0.7,1.4,1.2,2.3,1.4c0.2,0,0.5,0.1,0.9,0.1h0.3l0.7-0.1h0.1l0.2-0.1l0.3-0.1h0
		l0.8-0.3l0.2,0l0.2-0.1l0.2,0l1-0.7l0.5-0.5l0-0.1l0.2-0.2l0-0.1l0.1,0l0.1-0.2l0.1-0.1l0.1-0.3l0.1-0.6v-0.1l0-0.4
		c0-1.3-0.5-2.3-1.4-3.1l0,0l0.6,0c0,0,0.1,0,0.1,0c0.4,0.1,0.8,0.1,1.3,0.2c1.3,0.2,2.3,0.6,3,1.3c0.9,0.8,1.5,1.9,1.6,3.3
		c-0.3,0.2-0.6,0.3-0.9,0.5c-0.3,0.2-0.5,0.3-0.8,0.5c-1.2,0.8-2.4,1.6-3.6,2.4l0.6,0.5l1.3,0.7c0.5,0,1,0,1.4-0.1
		c0.4-0.1,1.1,0,1.9,0.1c0.5,0.1,1.1,0.4,1.7,0.9c0.1,0.1,0.2,0.2,0.2,0.3c0.6,0.8,1,2.1,1,3.9c0,3.2-0.4,6-1.1,8.4
		c-0.4,1.5-0.9,2.6-1.5,3.5l-2.2-1.8c-2.1-1.7-3.9-3.3-5.3-4.8c-1.4-1.4-2.6-2.7-3.7-3.9l-3.9-5c-0.8-1.1-1.3-2.4-1.7-3.8l-0.2-0.7
		l-0.1-0.2L344,111l-0.4-1l-0.1-0.2l-1.2-2.6c-0.1-0.2-0.2-0.4-0.3-0.6l-0.5-1l1.3-1c5.9-4.6,10.3-7,13.1-7.3l0.5,0
		c0.6,0,1.1,0.1,1.5,0.3c1,0.5,1.8,1.5,2.2,3l0.2,0.7c-0.6-0.1-1.2-0.2-1.8-0.2h-0.2l-0.1,0h-1.3c-1.9,0-3.6,0.3-5.2,0.8
		c-2,0.6-4,1.6-6,3c-0.5,0.4-1,0.7-1.4,1L343.3,106.5z M356.4,144.6l-0.8,2.4c-0.9,3.1-1.6,6.5-2.1,10.3l-1.2-1.1
		c-0.5-0.5-1.2-1-1.9-1.5l-0.3-0.2l0,0c-0.9-0.6-1.8-1.1-2.6-1.4l-0.5-0.3l-3.5-1.2c-0.8-0.3-1.4-0.6-1.6-0.8
		c-0.3-0.3-0.4-0.9-0.4-1.7v-0.6c0-0.7,0.1-1.2,0.3-1.5c1.1-1.4,3.7-2,7.8-2c2.4,0,4.4-0.1,5.9-0.2h0.1L356.4,144.6z M341.8,165
		l-0.8-0.6c-0.6,0.8-1.5,1.5-2.7,2.2c-2.4,1.5-4.9,2.2-7.5,2.2c-0.2,0-0.4,0-0.6,0c-1.4,0-2.7-0.1-3.9-0.2l-1.6-0.2
		c-0.5,0.4-1.2,0.8-2.1,1.2c-1.7,0.8-3.5,1.2-5.3,1.2c-1.3,0-2.4-0.2-3.5-0.5l-1.1-0.5l-2.9,2.5c2.3,0,3.8-0.2,4.6-0.7
		c2.9,0.3,5.5,0,7.7-0.7c1.1-0.3,2-0.6,2.5-1l0.3,0c1.5,0.1,3.2,0.1,5.3,0c1.3-0.1,2.8-0.2,4.4-0.3c2.9-0.2,5.5-0.7,7.7-1.4
		c2-0.7,3-1,3-1c0.8,0,1.2,0.5,1.2,1.6v0.1c2-1.3,3.3-2.4,3.9-3.4l-1.7-1.2v0.1l0,0.1v0l-0.1,0.1l-0.1,0.2c-0.2,0.3-0.6,0.6-1.1,0.7
		l-0.1,0.1c-0.4,0.1-1,0.2-1.7,0.2l-1.1,0C343.5,165.7,342.6,165.4,341.8,165z M329.3,150.7l-1.2,0.1c-1.2,0.2-3,1-5.5,2.2
		c-3.1,1.4-5.3,2.4-6.4,2.8c-5.7,2.1-10,4.2-13,6.4c-1.9,1.4-4.1,2.8-6.7,4.1c-3.2,1.6-6,2.6-8.2,2.8l-1,0.1l-0.9-0.1
		c-1.9-0.2-2.9-1.3-2.9-3.3c0-0.8,0.3-1.5,0.8-2.1c0.6-0.7,1.4-1.1,2.3-1.1c1,0,1.8,0.3,2.4,0.9c0.3,0.3,0.5,0.6,0.6,0.8
		c0.9-0.2,1.4-0.8,1.4-1.6c0-0.7-0.3-1.3-1-1.8c-0.8-0.6-1.9-0.9-3.3-0.9c-1.6,0-3,0.6-4.1,1.7c-1.2,1.2-1.8,2.6-1.8,4.2
		c0,1.7,0.6,3,1.8,4c1.2,1,2.9,1.5,5,1.5c5.2,0,11.8-1.3,19.7-3.9c6.3-2.1,12.1-3.4,17.3-3.9c0.9-0.1,2.3-0.3,4.1-0.5
		c0.5-0.1,1-0.2,1.4-0.3c0.7-0.2,1.2-0.4,1.4-0.7c0.7-0.7,1.2-1.3,1.4-1.9c0.2-0.7,0.4-1.9,0.4-3.6v-0.1c0-1.8,0-3-0.1-3.6
		c-0.1-0.7-0.2-1.1-0.4-1.4c-0.4-0.5-1.3-0.8-2.7-0.9C329.9,150.7,329.6,150.7,329.3,150.7z M323.1,147c0.1-0.5,0.6-1,1.5-1.3
		c1.1-0.5,2.1-0.7,2.8-0.7h0.6l-0.4-0.4c-0.5-0.5-1.2-0.7-2.2-0.7c-1.3,0-2.3,0.2-3,0.7c-0.6,0.4-0.9,0.9-0.9,1.5
		c0,0.4,0.1,0.7,0.3,0.9c0.2,0.3,0.6,0.5,1,0.7l0.4,0.1l-0.1-0.4v-0.1C323,147.2,323,147.1,323.1,147z M341.6,210.1
		c0.2,0.4,0.3,0.8,0.2,1.2c-0.1,1.2-1.2,2.5-3.1,3.9l-1.7,1.1c-0.8,0.5-1.6,0.9-2.3,1.2l-2.9,1.3l0-0.1l0.1-0.1l0.1-0.2l0,0l0.1-0.2
		l0.1-0.2v0l0.3-0.6c0.4-0.8,0.8-1.6,1.2-2.3c2.9-1.5,5.2-3.6,7-6.3L341.6,210.1z M244.3,117.8c-0.4,0.3-0.7,0.5-1,0.8
		c-0.3,0.2-0.5,0.4-0.6,0.6c-0.2,0.2-0.3,0.5-0.4,0.8c-0.2,0.5-0.3,1-0.3,1.6c0,0,0,0,0,0.1c0,3.3,0.9,5.8,2.7,7.3
		c1.2,1,2.6,1.5,4.3,1.6l0.4,0l1.3-0.1l-3.9-2.7c1.6-0.2,2.8-1,3.5-2.5c0.4-0.8,0.6-1.7,0.6-2.6c0-0.5,0-1.1-0.1-1.9
		c-0.3-1.8-0.9-3.6-1.9-5.4c-1-1.6-1.5-2.4-1.5-2.4l-0.5-0.5l0,1.6c-0.1,1.3-0.5,2.2-1.1,2.9l-0.4,0.4L244.3,117.8z M232.9,104.8
		c-0.4,1-0.3,2.4,0.2,4.3c0.3,0.9,0.6,1.8,0.9,2.6l0.4,0.9l0.2-7.9l5.7,1.1l-0.4-0.5c-0.3-0.4-0.7-0.7-1.2-1.1c-0.9-0.7-1.9-1-2.9-1
		c-0.5,0-1,0.1-1.6,0.3C233.6,103.7,233.1,104.1,232.9,104.8z M530,127l1.4,0.7c0.9,0.6,1.5,1.3,1.7,2.2c0.3,1.2,0.3,3,0,5.3
		l0.2,0.2c0.2,0.1,0.4,0.2,0.7,0.2c0.4,0,0.8-0.3,0.9-0.8c0.1-0.6,0.2-1.3,0.2-2.1c0-1.6-0.4-2.9-1.1-3.9c-0.9-1.4-2.1-2-3.6-1.7
		L530,127z M275.4,184.7c0-0.1,0-0.1-0.1-0.2L275.4,184.7L275.4,184.7z"/>
	<path id="white" fill-rule="evenodd" clip-rule="evenodd" fill="#FFFFFF" d="M314.5,219.7l0.1,0.1l-0.8,0.4c-0.4,0.2-0.7,0.5-1,0.8
		c-3.1,0.2-7.4-0.4-12.9-1.6c-6-1.3-11.7-3.1-17-5.3l-0.3-0.1l0,0.3c0,0-0.1,0.7-0.2,2.1c-0.2,1.7-0.5,3.2-0.7,4.5
		c-0.1,0.7-0.3,1.3-0.5,1.8c-0.2,0.8-0.5,1.5-0.7,2l-0.1,0.2l0.3,0.1c0,0,0.9,0.2,2.6,0.6c2.2,0.5,4.3,0.9,6.5,1.2l3.9,0.5
		c-3.5,1-6.8,2.2-10.1,3.7c-1,0.5-2,1-3,1.5c-0.5-0.5-0.9-1-1.4-1.5c-1.2-1.3-2.3-2.7-3.5-4.2c-1-1.4-2-2.8-2.8-4.2
		c-2.3-3.7-3.9-7.4-4.9-11l0.9-0.2c2-0.3,4-0.2,5.9,0.2l0.6,0.1l-0.3-0.5c-0.3-0.5-1.2-0.9-2.5-1.3c-2.6-0.7-6.5-0.8-11.5-0.4
		c-5.7,0.6-10.1,0.5-13.1-0.3c-0.8-3.3-1.3-6.9-1.4-10.7l0-1.7c-0.1-3,0.2-5.7,0.8-8.1c0.7-2.6,1.3-4.9,2-6.9c0.5-1.4,1-2.6,1.4-3.5
		c0.3-0.6,0.5-1,0.6-1l1-1.1c2-1.9,3.8-3.2,5.6-4v0.1c0.1,0.8,0.1,1.5,0,2.2l-0.6,0.4c-0.7,0.4-1.2,0.8-1.5,1.1
		c-0.5,0.4-1,0.8-1.5,1.2c-0.1,0.1-0.2,0.2-0.3,0.2c-0.3,0.2-0.6,0.5-0.8,0.7c-0.1,0.1-0.1,0.2-0.2,0.2c-0.2,0.2-0.3,0.4-0.3,0.6
		c0,0.2,0.1,0.3,0.2,0.5l0.4,0.3c2,1,4.1,2.2,6.4,3.7c3.4,2.2,6.5,4.5,9.2,6.9l1.2,1.2c5.2,4.9,10.8,9.8,16.8,14.6
		c8.7,6.9,14.8,10.8,18.4,11.7C310.3,219.6,313.4,220,314.5,219.7z M345.2,204c0.7-1.3,1.4-2.7,2.1-4.1c1.8-3.6,3.5-7.4,5.3-11.4
		c0.4,0.3,2.7,2.5,7.1,6.5c4.4,4,8.1,10.4,11.2,19.1c-1.5,1.8-3.7,3.4-6.5,4.7c-2.9,1.2-6.5,2.1-10.7,2.8c-7.1-0.9-14.1-1-21-0.4
		l0-0.3l0.1,0.2c2.4-0.9,4.6-2.1,6.7-3.4c2.3-1.5,4-2.9,5-4.3l0,0v-0.1c-0.1-1.8-0.1-4.3,0.1-7.5C345,204.6,345.2,204,345.2,204z
		 M432.9,108.9c0.6,0,0.9,0.4,0.9,1.1c0,0.8-0.3,1.1-0.9,1.1c-0.6,0-0.9-0.4-0.9-1.1C432,109.3,432.3,108.9,432.9,108.9z
		 M348.5,106.7c0.8,0,1.2,0.4,1.2,1.1c0,0.7-0.4,1.1-1.2,1.1c-0.8,0-1.2-0.4-1.2-1.1C347.3,107.1,347.7,106.7,348.5,106.7z
		 M480.3,110c0-0.8,0.4-1.2,1.1-1.2c0.7,0,1.1,0.4,1.1,1.2c0,0.8-0.4,1.2-1.1,1.2C480.7,111.2,480.3,110.8,480.3,110z M328.3,227.2
		c0.6,0,1.2,0,1.8,0c5.2,0,10.2,0.3,15,0.9c0.1,2.3,0.2,4.5,0.1,6.7c-0.6-0.1-1.4-0.3-2.5-0.6c-4.3-1.1-8.5-2.6-12.6-4.5
		c-0.7-0.3-1.4-0.6-2.1-1C328.2,228.2,328.3,227.7,328.3,227.2z M344.5,244.7c-0.3,5.2-0.7,11.9-1.2,20.2c-0.1,1.6-0.2,3.2-0.3,4.8
		c-0.4,5.1-0.8,10.2-1.3,15.3c-0.6,5.4-1.2,12.2-1.9,20.4l-0.4,3.1c-2.8,0.2-6.9,0.6-12.4,1.4c-5.5,0.8-9.6,1.3-12.4,1.4l-0.2-1.7
		c-0.6-3.9-1.3-8.1-2.2-12.8c-1.1-5.5-2-9.9-2.9-13.3c-0.4-1.8-1-3.8-1.8-6.1c-0.8-2.6-1.7-5.1-2.7-7.6c-1.5-3.8-3.1-7.5-4.8-11.1
		c-3.3-6.7-6.7-11.9-10.1-15.6c7.5-5.4,15-9.1,22.5-11.1c1.4,1.5,3.6,2.3,6.6,2.4l0.5,0l0.7,0c1.4-0.1,2.8-0.4,4.1-1l2.5,2
		c2.6,2,5.3,3.7,7.9,5.2C338.1,242.4,341.4,243.9,344.5,244.7z M433,198.5c0.7-0.6,1.9-1.5,3.6-2.6c0.6-0.4,1.3-0.9,2.1-1.4
		c-0.3,3.3-0.5,5-0.5,5.1c0,0,0.1,0.1,0.1,0.1c0.1,1,0.2,2.1,0.4,3.1c0.9,5.9,3,10.5,6.2,13.9c1.6,1.7,3.6,3.3,5.8,4.7
		c1,0.6,1.8,1.1,2.6,1.6c0.9,0.6,1.7,1.1,2.3,1.5c1.3,0.9,3.1,1.6,5.5,2l3.7,0.3c1.3,0.1,2.7,0.1,4.3,0.1c0.8,0,1.8,0,2.9,0l0.3,0
		c0.9,0,2.4,0.1,4.4,0.2c3.1,0.2,5.3,0.3,6.6,0.3c2.8,0,6.1-1.4,9.8-4.3c2.2-1.7,4.3-3.7,6.3-6.1c2-2.3,5.1-5.9,9.3-10.5
		c3.2-3.5,5.9-6,8.1-7.4l1.1-0.9l2.3-1.4c-0.2-0.2-0.7-0.3-1.3-0.3l-0.9,0.1c0.1-1.5,0.2-3,0.4-4.3l0.3-1.5l2.5,3.1
		c1.7,2.8,2.9,5.9,3.3,9.4c0.8,6,1.6,10.4,2.2,13.3c0.5,2.5,1.1,4.6,1.7,6.5c0.7,2,1.4,3.7,2.2,5.1c-0.5,0.2-1.5,0.5-3.1,0.7
		c-3.2,0.5-7.6,0.7-13.1,0.7c-2.5,0-6.1-0.1-10.8-0.1c-4.7-0.1-7.8-0.2-9.5-0.2c-2.1,0-4.3,0.3-6.4,0.9c-5.9-0.4-11.4-0.3-16.3,0.4
		c-1.2-1.7-3.4-2.6-6.8-2.7H464c-1.1,0-2,0.1-2.8,0.2c-1.4,0.3-2.5,1-3.1,1.9c-4.8-1.6-11.6-2.2-20.3-1.7l-11.6,1.2
		c0.9,1.2,1.5,2.7,1.8,4.6c-1.5,0.8-2.9,1.5-4.2,2.3l-1.6,1c-1.6-1.2-3.1-2.4-4.5-3.7l-0.2-0.1l-0.2-0.2c-2-2-3.4-4-4.3-5.9
		l-0.1-0.2h0c0.4-1.2,1-2.6,1.8-4.2c0.3-0.5,0.5-1.1,0.8-1.6c2.2-4.3,4.6-8.3,7.4-11.9C426.5,204.8,429.8,201.2,433,198.5z
		 M460.3,241.4c1.2,0.7,2.6,1,4.2,1c1.6,0,3-0.4,4.2-1.3l0.1,0l1-1c5.9,1.2,11.6,3.8,17.1,7.6c-1.3,5.3-2.4,11-3.3,17
		c-0.2,1.7-0.5,3.4-0.7,5.1c-0.7,5.8-1,11.3-1,16.6l0.2,9c-6.8,0.6-18.4,1.7-34.8,3.3l-0.2-1.5c-0.9-5.3-1.6-9.8-2-13.3
		c-0.7-5-1.3-9.7-1.8-14.2c-0.8-7.8-1.3-15-1.5-21.4l1.4-1.1c4.5-3.5,9.4-6.2,14.7-8.2C458.5,240.1,459.3,240.8,460.3,241.4z
		 M300.3,110.3c0.9,0,1.3,0.4,1.3,1.1c0,0.4-0.1,0.7-0.3,0.8c-0.2,0.2-0.6,0.3-1,0.3c-0.9,0-1.3-0.4-1.3-1.1
		C299,110.7,299.4,110.3,300.3,110.3z"/>
	<path id="slate" fill-rule="evenodd" clip-rule="evenodd" fill="#223143" d="M574.6,60.4l0,3.2c-0.2,3.1-0.8,5.3-1.8,10.1
		c-1,4.8-3.2,11.2-6.6,18.9c-1.7,3.9-3.3,7.3-4.8,10.2l5.4,1.7c4,1.5,7.1,2.9,9.2,4.3c0.7,0.5,1.1,1.1,1.3,1.7
		c0.2,0.7-0.1,1.4-0.7,2c-0.3,0.4-0.7,0.8-1,1.2c-0.3,0.4-0.7,0.8-1,1.3c-0.2,0.2-0.3,0.4-0.5,0.6c-1.6,2.2-3.2,4.9-4.8,8
		c-0.5,1-0.9,2-1.4,3c-0.3,0.7-0.6,1.4-0.9,2.1c-0.8,2.1-2.2,3.8-4.1,5.1c-2.8,1.8-5.2,3.5-7.3,5c-0.7,0.5-1.3,1-1.8,1.6
		c-1.6,1.6-2.8,3.5-3.6,5.7c-0.7,2.8-1.3,4.6-1.8,5.2c-0.7,0.8-2.3,1.7-5,2.7c-2.9,1-4.9,1.9-5.8,2.6c-1.1,0.9-1.9,2.4-2.4,4.3
		c-0.6,2.2-1.1,3.5-1.5,4c-0.4,0.6-1.4,1.1-2.9,1.5l-2.1,0.4c-0.4,0.6-1.2,1.8-2.3,3.6c-0.7,1.1-1.9,2.6-3.8,4.6l-2.7,2.5l-1.2,8.6
		c0,0,0,0.1,0,0.1l4.2,4.3c2.9,3.3,4.9,6.1,5.7,8.2l4.1,2.9c3.1,2.4,5.6,4.8,7.4,7.3l13.6,4.4c8.1,2.9,16,6,23.8,9.4
		c2.8,1.2,5.6,2.5,8.4,3.8c3.4,1.5,5,3.7,5.1,6.6c0,2.6-1.3,5.5-3.9,8.8c-6.3,7.9-12.3,17.2-17.9,27.7c-4,7.4-7.8,15.5-11.4,24.2
		c-10.6-0.4-21.4-0.6-32.5-0.6c-12.2,0-26.5,0.7-42.9,2l-0.2-9c0-5.3,0.3-10.8,1-16.6c0.2-1.7,0.4-3.4,0.7-5.1c0.9-6,2-11.7,3.3-17
		c-5.5-3.8-11.2-6.4-17.1-7.6l-1,1l-0.1,0c-1.2,0.9-2.6,1.3-4.2,1.3c-1.6,0-3-0.3-4.2-1c-1-0.6-1.8-1.3-2.4-2.3
		c-5.3,2-10.2,4.7-14.7,8.2l-1.4,1.1c0.2,6.4,0.7,13.5,1.5,21.4c0.5,4.5,1.1,9.2,1.8,14.2c0.5,3.5,1.1,8,2,13.3l0.2,1.5
		c-22.5,2.2-40.6,3.8-54.3,4.6c-4.9,0.3-13.4,1.1-25.6,2.5c-11.9,1.4-21.2,2.2-28,2.6l0.4-3.1c0.7-8.2,1.4-15,1.9-20.4
		c0.5-5,1-10.1,1.3-15.3c0.1-1.6,0.2-3.2,0.3-4.8c0.5-8.3,0.9-15,1.2-20.2c-3.1-0.8-6.4-2.3-9.9-4.2c-2.6-1.5-5.2-3.2-7.9-5.2
		l-2.5-2c-1.3,0.6-2.6,0.9-4.1,1l-0.7,0l-0.5,0c-3-0.1-5.2-0.9-6.6-2.4c-7.5,2-15,5.7-22.5,11.1c3.4,3.7,6.8,8.9,10.1,15.6
		c1.8,3.6,3.4,7.3,4.8,11.1c1,2.5,1.8,5,2.7,7.6c0.8,2.3,1.3,4.4,1.8,6.1c0.9,3.4,1.8,7.9,2.9,13.3c0.9,4.6,1.6,8.9,2.2,12.8
		l0.2,1.7c-22.1,2-34.4,3-37,3.1c-13.3,0.7-26.1,0.5-38.5-0.8c-2.5-15.9-6.4-30.6-11.6-43.9c-1.5-3.8-3.1-7.6-4.9-11.2
		c-4.7-9.8-10.3-18.9-16.7-27.4c-2.2-2.9-4.5-5.7-6.9-8.4c-0.4-0.5-0.8-0.9-1.3-1.4c-1.9-2.1-3.9-4.2-6-6.2c-2.2-2-3.6-3.3-4.3-4
		c-1-1-1.4-1.9-1.4-2.7c0-1.2,0.3-2.1,1-2.9c0.8-0.9,2.2-1.8,4.3-2.9c1.5-0.7,3.7-1.7,6.4-2.8c0.4-0.2,0.8-0.3,1.2-0.5
		c5.4-2.1,8.5-3.4,9.3-3.8c8.3-3.5,15.2-6.8,20.7-9.8c3.9-2.4,5.9-3.5,5.9-3.6c4-3.8,8.7-7.2,14-10.2c2.9-1.6,5.8-2.9,8.6-4
		c0-0.1,0-0.1,0-0.2c0.3-3.7,0.2-7.3-0.3-11c-0.1-0.5-0.1-0.9-0.2-1.4v0.2l-0.3-7.8c0-0.3,0-0.6,0-0.8c0,0,0-0.1,0-0.1
		c-0.2,0.1-0.4,0.1-0.6,0.1c-0.7,0.2-1.4,0.2-2.1,0.2c-0.5,0-1.1-0.1-1.7-0.2c-2.8-0.8-6-3.6-9.6-8.3c-3.5-4.7-6.5-9.9-9-15.7
		l-2.2-4.8c-0.5-1.1-0.9-2-1.3-2.9c-0.6-1.4-1.1-2.6-1.4-3.5c-0.7-2-1-4-1-6c0-1.7,0.7-3.2,2-4.6h0c0.8-0.8,1.7-1.4,2.6-1.9
		c-0.5-5.1-1.2-9.7-2.1-13.8c-0.2-0.9-0.4-1.8-0.6-2.6c-0.1-0.6-0.3-1.1-0.4-1.6c-1.4-5.9-2.2-7.3-2.3-7.9c-1.8-0.3-3.3-0.8-4.7-1.6
		c-1-0.8-1.6-1.2-1.6-1.2l-0.2-0.2l0.2-0.2c3.1-2.5,5.6-5.5,7.5-9.1c0.2-0.3,0.3-0.6,0.5-0.9c1.1-2.1,2.4-5.2,3.9-9.2
		c1.9-5.3,3.7-9.3,5.3-12c1-1.7,2.1-3.3,3.4-4.9c1.5-1.8,3.1-3.5,5-5.1c2.2-1.9,4.5-3.6,7-5c7-4,12.2-6.6,15.6-7.9
		c5.3-2.1,10.9-3.1,16.6-3.1c5.2,0,9.6,0.5,13.3,1.4c1.7-0.6,3.5-1.2,5.6-1.6c4-1,7.9-1.4,11.6-1.4c9.4,0,17.3,2.4,23.5,7.1
		c3.3,2.5,5.7,5.2,7,7.9c0.9,0.5,2.3,1.5,4,2.9c3,2.4,6.1,5.3,9.3,8.8c3.8,4,6.9,8.3,9.6,12.9c1.3,2.3,2.3,4.2,2.8,5.7l0.2,0.5
		l-0.5-0.2c-2.1-0.7-4.4-0.8-6.9-0.4c1,3.8,1.8,7.7,2.5,11.8c1.4,7.8,2.1,12.7,2.1,18.4c0,5.3-0.6,10.6-1.8,15.9
		c0.2,1.3,0.4,4.5,0.4,9.6c0,1.5,0,3.2,0,5c0,0.3,0,0.5,0,0.8c0,4.6-0.5,9.2-1.4,13.5c-0.5,2.5-1.3,5.5-2.5,9.2l-0.9,3.1
		c-0.8,2.8-1.3,5.3-1.7,7.6c-0.5,3.3-0.8,6.8-0.8,10.5c0,3.4-0.5,6.7-1.4,9.8c-0.6,2.1-2,5.7-4.2,10.8l-1.1,2.6l17.8,7.5
		c4.8,2,7.4,3.4,8,4.1c1.4,0.5,4.6,2.1,9.6,4.9c6.5,3.7,11.4,7,14.5,9.8c4.2-2.6,8.9-5.1,14-7.7c2.6-1.3,4.8-2.3,6.5-3
		c3.4-3.2,5.9-5.4,7.6-6.5c1.7-1.1,3.5-2.3,5.3-3.7h0c-0.9-1.6-1.8-3.2-2.5-4.8c-0.3-0.6-0.6-1.4-1-2.4h-0.1c-0.4-1-1.1-2.3-1.8-4.1
		c-1.2-2.6-2.5-5.3-4-8.1c-0.4-0.8-0.9-1.6-1.4-2.5c-2.2-3.6-3.7-6.1-4.5-7.5c-1-1.7-1.6-4.6-1.9-8.9c-0.2-5-0.5-8.9-0.7-11.5l0-0.3
		c-0.2-1.6-0.5-3.6-1-5.8c0-0.1,0-0.1,0-0.2c-0.2-0.8-0.4-1.6-0.6-2.4c-0.1-0.4-0.2-0.7-0.3-1.1c-0.6-2.4-1.1-4.7-1.6-7.1
		c-0.4-1.8-1.3-3.3-2.7-4.5c-0.8-0.6-1.6-1.3-2.5-1.8l0.5-4.8c-0.5-0.2-1.1-0.5-1.7-1.1c-0.9-0.8-1.6-1.7-2.3-2.9
		c-0.1-0.1-0.1-0.3-0.2-0.4c-0.3-0.5-0.6-1.1-0.9-1.7l1.1-1.5c0.9-1.1,1.9-2,3-2.7c-1.9-0.6-3.8-2-5.7-4.1c-4-4.3-6.3-10.4-7-18.1
		l1.3-0.2c1.1-0.3,2.1-0.8,3.1-1.5c3.1-2.4,5-4.7,5.7-10.7c0.4-3.7-0.3-6.8-2.1-9.4c-0.6-0.8-1.2-1.5-1.9-2.1l-0.9-0.6
		c0-0.4,0.1-0.8,0.2-1.4c0.3-1.1,0.7-2.1,1.3-3.1c1.9-3,5-4.5,9.4-4.5c0.2-0.8,0.6-1.9,1.1-3c1.1-2.4,2.4-4.5,4-6.3l-0.1-2.7
		c0-5.4,0.5-10.2,1.5-14.4l1.5-4.7l3.2,5.8c2.8,3.9,5.8,5.8,9,5.8c2.7,0,5.8-1.4,9.4-4.3c3.7-2.9,6.5-4.3,8.4-4.3
		c3.4,0,5.7,1.8,6.8,5.5c0.8-3.1,2-5.3,3.7-6.7c1.5-1.2,3.4-1.8,5.9-1.8c2.9,0,5.5,1,7.6,3c1.4,1.4,3,3.7,4.9,6.9
		c5.8,2.8,11.7,4.3,17.6,4.3c6.3,0,11.4-1.9,15.4-5.7c2-1.9,3.3-3.8,4.1-5.8l1,3.8c0.4,3.2,0,6.3-1.1,9.5c3.8-2.8,7.5-6.1,11.2-10.1
		c1.8-2,3.2-3.7,4.3-5.1c0,3.1-0.8,7.5-2.4,13c7.2,1.2,13.5,4.9,19,11c3.4,3.7,6.2,8,8.5,13.1c1.5,3.3,2.8,6.8,3.9,10.6
		C567.1,63.4,571.2,62.2,574.6,60.4z M458.5,42c-0.5,1.3-1.1,2.5-2,3.8c-2.5,4-6.1,7.3-10.7,10c-4.1,2.4-7.8,3.6-11.1,3.6
		c-0.8,0-1.6-0.1-2.4-0.4c-2.3,6.4-3.9,11-4.9,17.4c-0.6,4.4-0.9,8.6-0.9,12.5c1.1-0.2,2.3-0.3,3.5-0.3c0.9,0,1.7,0,2.4,0.1
		c2.4,0.3,4.7,0.9,7,2c1.3,0.6,2.8,1.5,4.5,2.7c2.2,1.5,3.4,2.4,3.7,2.6c1.7,1.2,2.9,2.2,3.6,3c0.7,0.7,1,1.3,1,1.7
		c0,3.5-0.9,9.1-2.7,16.8c-1.3,5.5-3.9,11.6-7.8,18.3l-1.7,2.9l1.4-0.3c1.1-0.4,1.9-1,2.5-1.9c-0.1,0.1-0.2,0.5-0.4,1.2
		c-0.2,0.8-0.3,1.5-0.3,2.1l0.1,0.5c0.3,1.6,1.3,2.8,2.9,3.8c0.9,0.5,2,0.9,3.1,1.3c1.4,0.4,2.8,0.6,4.1,0.6c1.9,0,3.4-0.2,4.5-0.8
		c1.1-0.4,1.6-0.9,1.6-1.5c0-0.1,0-0.2,0-0.3l0-0.2c-0.1-0.2-0.2-0.5-0.3-0.7l-0.4-0.5l0.4-0.3c0.1-0.1,0.3-0.2,0.5-0.2l0.1,0
		c0.3-0.1,0.7-0.2,1.1-0.3c0.2,0,0.4,0,0.8,0c0.9,0,1.7,0.4,2.4,1.1c0.3,0.3,0.5,0.7,0.6,1.1l1.7-0.9c1.4-0.6,2.8-0.9,4.3-0.9
		c2.9,0,5.8,0.8,8.7,2.4c1.8,1,3.4,2.1,5,3.5c1.1,1,2.2,2.2,3.2,3.5c2.2,3,4,6,5.3,9.2c1.2,2.8,1.8,5.2,1.8,7c0,2.5-1.8,3.8-5.3,3.8
		c-1.5,0-3.2-0.3-4.9-0.9c-0.4-0.1-0.9-0.3-1.3-0.5c-1.2-0.5-3.5-1.7-7-3.6c-2.3-1.3-5.2-2.2-8.6-2.7c-1.9-0.3-4.6-0.5-8-0.7
		c-2.3-0.1-4.1-0.7-5.3-1.7c-0.8-0.7-1.4-1.5-1.6-2.5c-0.9,1.2-2.1,2.3-3.7,3.2c-2.5,1.4-5.6,2.1-9.3,2.1c-1.2,0-2.3-0.1-3.2-0.2
		c-0.5,1.4-1.1,2.7-1.6,3.8c-0.5,1-1,1.8-1.4,2.7c-0.2,0.4-0.4,0.7-0.7,1l0.8-0.1c0.4-0.1,0.9-0.2,1.3-0.4v-0.2
		c0.3,0,0.5-0.1,0.7-0.2l0.3-0.1c0.3-0.1,0.4,0.1,0.5,0.3c0,0.1,0,0.3,0,0.5L436,172l-0.1,1.2c0,2.1,0.4,3.3,1.1,3.8
		c0.3,0.2,0.6,0.2,0.9,0.2c1.1,0,1.9-0.4,2.4-1.3c-0.2-0.2-0.5-0.6-0.7-1c-0.3-0.7-0.5-1.4-0.5-2.2c0-0.6,0.1-1.3,0.4-2l0.4-0.8
		c-0.9-0.6-1.7-1.3-2.4-2.3l-0.8-1.3l1.6-0.5c1.4-0.4,2.8-0.6,4.3-0.6c4.3,0,7.5,0.4,9.8,1.1c4.1,0,8.8,0.2,14.1,0.7
		c5.7,0.5,8.8,0.7,9.3,0.7c0.6,0.3,0.8,0.6,0.6,1.1l-6-0.3c-13.2-0.7-20.9-0.9-23.3-0.6c-1.9,0.3-3.4,0.6-4.3,1.1
		c-1.3,0.7-1.9,1.8-1.9,3.5v0c0,0.7,0.2,1.4,0.5,2l0.1,0.3c0.2,0.3,0.3,0.5,0.6,0.8c0.2,0.3,0.5,0.5,0.8,0.7
		c0.3,0.2,0.6,0.4,0.8,0.5l0.1,0c3.2,0,6.3,0.1,9.2,0.4c4.2,0.4,7.2,1.1,8.8,2.1c0.2,0.1,0.3,0.2,0.4,0.3c0,0.2-0.2,0.3-0.7,0.3
		c-6-0.4-10.7-0.6-14.2-0.7c-3.7-0.1-6,0-6.8,0.1c-1.2,0.3-1.8,1-2,2.3c-0.2,1.4,0.3,2.6,1.5,3.8c1.4,1.5,1.9,3.6,1.5,6.3l0,0.2
		c1.1,0.3,2,1,2.7,2c1.1,1.7,2.2,3,3,3.8c1.5,1.4,3.2,2.5,5.2,3.5c2,1,3.9,1.6,5.8,1.8c0.4,0.1,0.9,0.1,1.7,0.1c1,0,3,0,6.1,0
		c2.9-0.1,5.4-0.6,7.5-1.4c4-1.5,8.3-3.6,12.8-6.1c2.9-1.6,5.8-3.4,8.5-5.4c2-1.5,4.3-3.2,6.7-5.2c2.4-2,5-4.3,7.8-6.9l2.5-2.3
		c0.4,0.1,0.6,0.3,0.7,0.7c-1,1.2-2.2,2.7-3.8,4.4c-1.3,1.4-2.7,2.8-4,4.1c-1.8,1.8-3.6,3.4-5.4,4.8l-1.5,1.2
		c-3.4,2.7-7.3,5.2-11.9,7.5c-4.5,2.3-8.9,4.1-13.2,5.3l-0.6,0.2c-1.2,0.4-2.9,1.5-5,3.2c-1.8,1.5-3.4,2.2-4.7,2.2
		c0,0.2,0,0.5,0,0.7c0.1,0.8,0.2,1.6,0.5,2.5c0.2,1.2,0.8,2.3,1.8,3.6c-1.1,0-2.2,0-3.3-0.2c-1.2-0.2-3.1-1.1-5.8-2.9
		c-1.4-0.9-2.3-1.9-2.7-2.9c-0.3-0.6-0.5-1.2-0.6-1.8l-0.3-2.9l-0.1,0.1c-0.4,0.4-0.8,1-1.2,1.7c-0.8,1.2-0.9,2.5-0.4,4
		c0.9,2.8,2,5,3.4,6.6c1.4,1.6,2.5,2.9,3.5,3.8c1,0.9,1.5,1.4,1.7,1.5l0.6,0.4c0.5,0.5,1.3,0.8,2.4,1.1c1.2,0.3,2.8,0.4,5,0.5
		l16.4,0.1c0.4,0,0.7,0,1.1-0.1c1.3-0.3,2.9-1.1,4.7-2.4c1.9-1.3,4-3.2,6.4-5.6l2.2-2.2c1.8-1.9,4.8-5.3,9.2-10.1
		c3.4-3.8,6.4-6.3,8.9-7.5l0-0.5c0.1-1.8,0.1-3.7,0.2-5.7c0.1-1.6,0.2-3.6,0.4-6.2c0.1-0.7,0.1-1.4,0.2-2.1c0.3-3.5,0.6-6.9,1-10
		c0.4-3.2,1.5-8.1,3.4-14.9l1-3.5c-0.3-0.1-0.5-0.4-0.7-0.8c-0.5-0.8-0.8-1.7-0.8-3c0-1.2,0.4-2.2,1.1-3c0.4-0.4,0.7-0.6,1.1-0.8
		l-0.1,1.5c0,2.7,1.9,4.1,5.6,4.1c2.7,0,5.2-0.9,7.7-2.6c0.5-0.4,1.2-0.9,1.9-1.5c0.7-0.6,1.3-1.2,1.8-1.8c1.6-1.7,3-3.8,4.3-6
		c1-1.9,2-3.9,2.8-6.1c1.1-2.8,1.8-5.5,2.2-7.8c0.2-1,0.3-2,0.3-3c0-0.3,0-0.5,0-0.8c0-2.9-0.4-5.4-1.2-7.2
		c-0.1-0.2-0.2-0.4-0.3-0.6c-0.2-0.5-0.5-0.9-0.8-1.3c-0.8-1.1-1.9-1.9-3.1-2.4c-0.9-0.4-2-0.5-3.1-0.5l-1,0
		c-2.4,0.3-4.7,1.7-6.9,4.2c-0.5,0.6-1,1.2-1.5,1.9c-1.1,1.5-2.1,3.2-3.1,5.2c-1.1,2.2-2.1,4.5-3.1,7.1c-0.5,1.3-0.8,2.3-1,3.2
		l-1.4-1.1c0.2-1.1,0.1-2.1-0.3-3c-0.3-0.6-0.7-1.1-1.2-1.6l-0.8-0.4c0.7-5.3,0.9-9.7,0.7-13.2l0-1c-0.4-3.5-1.7-6.9-3.9-10.1
		c-1.2-1.6-2.5-3-3.9-4.2l-0.1-0.1l0-0.6c0.3-2.8,0.5-6,0.6-9.6c0.1-5.5-0.2-10.1-1-13.6c-0.9-4.1-1.3-6.1-1.4-9.6
		c-6.7,6.3-13.9,9.5-21.7,9.5c-1.8,0-3.5-0.1-5.2-0.4c-6.4-1.1-11.9-4.5-16.5-9.9C463.1,57.5,460,50.4,458.5,42z M465.7,93.8
		c0.3,1,0.6,1.9,1.1,2.7c-0.2,0-0.5-0.1-0.8-0.3l-0.4-0.3c-0.4,0.6-0.9,0.8-1.5,0.8c-0.7,0-1.3-0.4-1.7-1.2l-0.4-1.2
		c0.9,0.7,1.6,1,2.2,0.8c0-0.8,0.2-1.4,0.7-2c0.2-0.3,0.4-0.5,0.6-0.6L465.7,93.8z M445.2,108.8c-0.3-0.4-0.6-0.9-0.9-1.3v0
		c-0.7-1-1.6-1.8-2.8-2.2c-3.6-1.3-7.2-1.2-10.7,0.1c-1.5,0.6-3,1.3-4.4,2.1c-0.4,0.2-0.8,0.5-1.1,0.7c-0.2,0.1-0.4,0.3-0.6,0.4
		c0.2,0,0.3-0.1,0.5-0.1c0.2-0.1,0.4-0.2,0.6-0.3c0.1,0,0.2-0.1,0.3-0.1c0,0,0,0,0.1,0c0.5-0.2,1.1-0.4,1.6-0.6
		c1.3-0.4,2.7-0.8,4.1-1c2.1-0.3,4.2-0.2,6.2,0.3c1.1,0.3,2.1,0.7,3.2,1.2c0.3,0.2,0.7,0.3,1,0.5c-1.4-0.3-2.6-0.4-3.7-0.6l0.7,0.9
		c0.1,0.2,0.2,0.5,0.3,0.7c0.2,0.6,0.3,1.2,0.2,1.9c0,0.6-0.2,1.1-0.5,1.7c-0.2,0.4-0.5,0.7-0.9,1.1c-0.9,0.9-2.1,1.3-3.6,1.2
		c-1.5-0.1-2.6-0.4-3.4-1.2c-0.4-0.4-0.7-0.8-0.9-1.4c0,0,0-0.1,0-0.1c-0.2-0.5-0.3-1.2-0.3-1.9c0-1.1,0.3-2.1,0.9-2.8l0,0l0,0
		c-0.1,0.1-0.2,0.1-0.4,0.2l0,0l-0.1,0c-1,0.4-1.9,1.5-2.9,3.1c-0.3,0.4-0.5,0.9-0.8,1.4c0,0.1,0,0.1,0,0.2c0.1,0.7,0.4,1.4,0.7,2
		c0.5,0.8,1.4,1.4,2.8,1.7c0.1,0,0.2,0.1,0.4,0.1c1.1,0.3,2,0.4,2.6,0.2l-0.2,1.1l-3.9-0.4c-0.3,0-0.6-0.1-0.9-0.1
		c-0.4-0.1-0.9-0.2-1.3-0.3c0,0-0.1,0-0.1,0c-1.3,0-2.3,0.4-3.2,1.3c0,0-0.1,0.1-0.1,0.1c-0.8,0.9-1.3,1.7-1.6,2.5
		c0,0.1-0.1,0.2-0.1,0.4c0,0.6-0.1,1.2-0.1,1.8c0,0.1,0,0.3,0,0.4c0,0,0,0-0.1-0.1c-0.1,2.3-0.2,4.7-0.1,7h0c0,0.2,0,0.4,0,0.5
		l0,0.5c0,0.8,0.1,1.6,0.1,2.4c0,0.1,0,0.1,0,0.2l0.2,1.3c0.4,3.1,1,6.4,1.8,9.9c0.8,3,1.5,5.6,2.3,7.6c0.2-0.7,0.5-1.4,0.8-2
		c0.3-0.7,0.7-1.3,1.1-2c0.1-0.1,0.1-0.2,0.2-0.3c0,0,0,0,0,0c1.4-1.9,3.1-3.6,5.3-5c0.4-0.3,0.7-0.5,1.1-0.7
		c0.6-0.4,1.2-0.6,1.8-0.8c-0.6-0.1-1.2-0.2-1.8-0.4c-1-0.2-1.9-0.5-2.5-0.9c-0.8-0.3-1.4-0.7-1.9-1.1l-0.5-0.5
		c0-1.7,0.3-3.5,0.8-5.2c0.1-0.3,0.2-0.6,0.3-1c0.2-0.5,0.3-0.9,0.6-1.4c0.2-0.4,0.3-0.7,0.5-1.1c0.3-0.6,0.6-1.3,1-1.9
		c0.7-1.3,1.6-2.6,2.6-3.9c0.6-0.8,1.8-2.3,3.8-4.7c0.7-0.9,1.5-1.8,2.4-2.9c0.7-0.8,1.3-1.8,1.8-2.9l0,0c0.3-0.6,0.6-1.2,0.7-1.7
		c0.3-1.2,0-2.4-0.8-3.4L445.2,108.8z M440,97.2c-0.3-0.1-0.5-0.2-0.8-0.2c-0.3-0.2-1-0.3-1.9-0.4c-1.6-0.4-3.3-0.6-5-0.8
		c-2.9-0.2-5.3,0.6-7.2,2.4c-0.5,0.4-0.9,0.9-1.3,1.5c-0.4,0.5-0.8,1.1-1.2,1.6c-0.3,0.4-0.6,0.8-0.9,1.1l0.2,3.6l1.1,1.4
		c2.5-1.3,4.7-2.4,6.5-3.3c1.8-0.9,4.2-1.6,7.2-1.9c3-0.3,5.8,0.9,8.5,3.6l1-1.1l-4.3-4.9L440,97.2z M488.1,92.4
		c4.1,1.2,7.4,2.6,10,4.1l8.5,5l0.2,0.1c-5.2-1.1-10.1-2.2-14.8-3.5c-2.8-0.7-5.3-1.2-7.6-1.6c-0.4-0.1-0.7-0.1-1.1-0.1
		c-1.9-0.2-4-0.3-6.4-0.3c-1.7,0-3.1-0.2-4.2-0.5l-1.2-0.5c-0.6,0.6-1.4,1-2.4,1.1l-0.3,0l0,0c-0.5-0.7-0.7-1.6-0.7-2.9
		c0-0.9,0.1-1.5,0.2-2l0.2-0.5l1.8-0.4c1.7-0.3,3.8-0.3,6.3-0.2c2.4,0.1,5,0.5,7.8,1.1C485.6,91.7,486.9,92,488.1,92.4z
		 M475.6,105.2l1-0.5c1.1-0.5,2.2-0.8,3.4-0.8c1.4,0,2.1,0.6,2.1,1.7v0c0.1,0,0.2,0,0.4,0c0.6,0,1.1,0.1,1.7,0.1c0.1,0,0.2,0,0.2,0
		c0.7,0.1,1.3,0.2,1.9,0.3c2.6,0.5,5.1,1.4,7.6,2.9c1.6,0.9,3,1.9,4,3c0.9,0.8,1.3,1.5,1.3,1.9l-0.1,0.2l-0.3,0.4
		c-1.3,1.2-3.8,2-7.7,2.3c-0.4-0.2-0.6-0.5-0.7-0.8l2.1-0.4c1.6-0.4,2.9-0.8,4-1.1l-0.1-0.1c-0.6-0.8-1.3-1.6-2.3-2.4
		c-1.1-0.9-2.4-1.7-3.8-2.4c-0.7-0.4-1.5-0.7-2.2-1l-0.1-0.1c0.4,0.7,0.6,1.4,0.6,2c0,1-0.5,2-1.4,2.9c-0.9,0.9-1.9,1.4-3,1.6
		c-0.4,0.1-0.7,0.1-1.1,0.1c-1.5,0-2.7-0.4-3.5-1.2c-0.8-0.8-1.3-1.9-1.3-3.4c0-1.4,0.6-2.5,1.7-3.4l-1.2,0.1
		c-0.7,0.1-1.3,0.3-1.8,0.7l-0.7,0.6l-0.3,1.2c-0.1,1.1-0.1,2.2,0.2,3.5c-0.1,0.2-0.3,0.3-0.7,0.3c-0.2,0-0.4,0-0.5-0.1l-0.1-0.1
		c-0.1-0.4-0.1-0.9-0.1-1.5c0-0.7,0.1-1.3,0.2-1.9c-0.3-0.1-0.6-0.1-0.9-0.3c-0.5-0.3-0.8-0.6-1-1c-0.1-0.3-0.2-0.5-0.2-0.7
		c0-0.5,0.5-1.2,1.6-1.9L475.6,105.2z M481.4,111.2c0.7,0,1.1-0.4,1.1-1.2c0-0.8-0.4-1.2-1.1-1.2c-0.7,0-1.1,0.4-1.1,1.2
		C480.3,110.8,480.7,111.2,481.4,111.2z M542.4,113.7c0.5,0.1,0.8,0.3,1.1,0.5l-0.9,0.1c-0.8,0.1-1.5,0.3-2.1,0.6
		c0.2,0,0.3,0.1,0.6,0.1c2.4,0.7,4.1,2.4,5,4.9c0.8,2.2,0.9,4.8,0.2,7.7c-0.7,2.9-1.5,5-2.5,6.3l-0.8-0.4c1-1.6,1.7-3.3,2-5.2
		c0.1-0.5,0.2-1.1,0.2-1.6c0.1-2.3-0.2-4.5-1-6.6c-1-2.6-2.9-3.9-5.6-3.9c-1.5,0-2.9,0.4-4.2,1.3c0.3-0.5,0.7-1,1.1-1.5
		c0.2-0.2,0.4-0.5,0.6-0.7c0.1-0.1,0.2-0.2,0.3-0.3c0.7-0.6,1.5-1,2.3-1.3c0.5-0.2,1.1-0.2,1.6-0.2
		C541.1,113.5,541.8,113.6,542.4,113.7z M319.1,36.5c0.4,1.3,0.6,2.3,0.8,3.2l0,0.2l-0.1,0c-0.3,0.1-0.6,0.2-1,0.3
		c-0.7,0.1-1.9-0.1-3.6-0.4c-2.1-0.4-3.7-0.6-5-0.6c-2.6,0-4.9,0.3-7,0.9c-2.1,0.6-4.1,1.6-6.1,2.9c-2.1,1.4-4.4,3.3-6.9,5.8
		c-1.8,1.8-4.2,4.4-7.1,7.6c-0.4,0.5-0.8,0.9-1.3,1.4c-4.8,5.6-11.6,9.3-20.3,11.2c-0.5,0.1-1.1,0.2-1.6,0.3l-0.5,0.1
		c-2.1,0.4-4.3,0.6-6.4,0.8c-1.5,0.1-2.8,0.1-3.9,0l-0.2,0v0l-0.1,0.1l0,0.2l0,0.3c5,0.3,9.6,0.2,14-0.3c2.8-0.3,5.2-0.8,7.3-1.4
		l1.1-0.4l0.1,0.3c0.2,2.4,0.1,5.1-0.4,11.6c-0.3,5.3-0.6,9-0.8,11c-0.1,0.9-0.4,1.8-0.9,2.7c-0.4,0.7-0.7,1.4-0.9,2.2
		c-0.3,1-1.5,2.7-3.5,5.1c-1.2,1.4-2.4,2.6-3.5,3.8c0.2,5.2,0.5,9.6,0.8,13.2c0.1,1.2,0.2,2,0.3,2.5c0.3,2.4,0.4,4.2,0.4,5.4
		c0,2.3-0.5,3.7-1.4,3.9c-0.8,0.3-1.7,0.3-2.6,0.1c-0.9-0.2-1.8-0.5-2.5-1.1c-1.7-1.1-2.6-2.9-2.9-5.3c-0.3-3.1-0.8-5.8-1.4-8.3
		c-1-4-2.5-6.9-4.3-8.8c-1.8-1.9-3.9-3.4-6-4.6c-2.2-1.1-4.2-1.7-5.9-1.7c-1.3,0-2.4,0.5-3.3,1.4c-1,1-1.5,2.3-1.5,3.9
		c0,2.5,1.1,6.6,3.4,12.4l0.8,1.8c0.7,1.8,2.1,4.3,4.1,7.6l0,0.1l0.1,0c1.1,1.9,2.5,4.2,4.2,6.8c1,1.5,1.8,2.7,2.6,3.7
		c0.6,0.8,1.2,1.6,1.8,2.2c1.2,1.4,2.4,2.3,3.6,2.8c0.2,0.1,0.4,0.2,0.7,0.3c0.1,0,0.2,0.1,0.3,0.1l0.1,0c0.5,0.1,1.2,0.2,2,0.2
		c1.8,0,3.1-0.3,3.9-0.9l0.3-0.2l0.1,0.4c0.2,1,0.3,2.1,0.5,3.2c0,0.3,0.1,0.5,0.1,0.8c0.5,3.2,0.8,6.4,1,9.7
		c0.2,3.4,0.3,6.9,0.4,10.3c0,0.4,0,0.9,0,1.3c0,0.2,0,0.4,0,0.6c0,0,0,0,0,0c0,1.4,0.1,2.8,0.1,4.1c0,0.7,0,1.5,0,2.2v0.1l-3.6,3.7
		c3.3,2.1,7.9,5.5,13.5,10.1l5.2,4.2c0.5,0.5,0.9,1,1.4,1.5c0.9,0.9,1.7,1.6,2.4,2.2c1.1,0.9,2.2,1.7,3.4,2.4
		c0.4,0.2,0.7,0.4,1.1,0.6c3.2,2.6,5.5,4.5,7,5.7c3.8,3,6.7,5,8.6,6.1c3.5,2,6.9,3.4,10.2,4.3c1.8,0.5,3.3,0.9,4.7,1
		c0.4-0.2,0.9-0.5,1.6-0.7c1.1-0.3,2.4-0.5,3.8-0.5c2.2,0,3.8,0.4,4.7,1.3c0.6-0.5,1.3-1.2,2.3-2.3c1-1,1.6-2.4,1.7-4.2
		c0-0.1-0.1-0.3-0.2-0.4c-0.1-0.2-0.3-0.3-0.6-0.3c-0.3,0-0.9,0.3-1.8,1c-0.1,0.1-0.3,0.2-0.5,0.4c-0.9,0.8-2.9,1.4-5.8,1.6
		c-2.9,0.2-4.4,0.3-4.6,0.2c-0.2-0.1-0.3-0.1-0.5-0.1c0,0,0,0,0,0c-0.9-0.8-1.4-1.3-1.4-1.3l0,0c0.5-0.2,1.1-0.4,1.8-0.7
		c3.1-1.2,4.6-2.3,4.6-3.2c0-0.9,0-1.4,0-1.4c-0.8-0.2-2.3-0.5-4.6-0.8c-3.3-0.5-8-2.3-14.1-5.3c-12.1-6.7-20.6-12.4-25.3-17.1
		c0.1-0.1,0.2-0.2,0.3-0.3l0.3-0.2h0.1l0.1,0.1c0,0,1.6,1.3,4.7,4c3.8,3,7.6,5.4,11.2,7.2c7.9,4.1,14.2,6.8,18.9,8.3l0.6,0.2
		c2.8,0.8,5.1,1.3,7,1.3c2,0,4-0.4,5.8-1.2c1-0.4,2.2-1.1,3.6-2.1c0.9-0.6,1.5-0.9,1.7-0.9c0,0,0.1,0,0.1,0c0.2,0,0.3,0.1,0.5,0.3
		c0.4,0.5,0.5,1.4,0.3,2.7c1,0,2-0.1,3-0.3c2.7-0.6,4.9-2.1,6.6-4.5c1-1.3,1.9-3.1,2.8-5.5l0.2-0.7c0.4-1.1,1.1-2,2-2.9
		c0.4-0.4,0.6-0.7,0.8-0.9c0.2-0.3,0.3-0.7,0.3-1.1c0-0.6-0.1-1-0.3-1.3l-0.2-0.3c-0.5-0.7-0.8-1.5-0.8-2.4c0-0.6,0.2-1.2,0.5-1.7
		c0.2-0.3,0.6-0.7,1-1.1l0.6-0.6c0.3-0.3,0.5-0.7,0.5-1.1c0-1-0.3-1.7-1-2c-2.7,1.6-5.7,2.8-8.9,3.3c-1.9,0.3-3.6,0.5-5,0.4
		c-0.1,0.5-0.2,0.9-0.6,1.3c-0.5,0.6-1.2,0.9-2.2,0.9c0,0-0.1,0-0.1,0c-1.5,0-2.6-0.3-3.5-0.8l-0.6-0.5l2.7-2.9h0.1
		c0.4,0,0.9,0,1.3,0c3.3-0.1,6.2-0.7,8.9-1.6c3-1.1,5.3-2.7,6.9-4.6l0.3-0.3c0.5-0.3,1.1-0.5,1.7-0.5c0.5,0,1.1,0.4,1.8,1.2
		c0.5,0.5,0.9,1.1,1.2,1.7c0.7-0.5,1.2-1.8,1.7-3.9c0.1-0.9,0.2-1.7,0.2-2.6c0-1.3-0.6-2.6-1.7-3.7c-1-1-2.2-1.8-3.7-2.4
		c-1.7-0.6-3.5-1-5.6-1c-1.3,0.1-2.3,0.1-2.7,0.2c-1,0.2-1.7,0.1-2.1,0c-0.4-0.2-0.7-0.4-1-0.6c-0.4-0.4-0.6-1-0.8-1.7
		c-0.1-0.5-0.2-1.2-0.2-2.2c0-2.9,0.3-4.7,0.9-5.6c0.2-0.3,0.6-0.5,1.4-0.7l0.5-0.1l-0.4-0.5c-0.4-0.5-1-0.9-1.7-1.2
		c-0.6-0.3-0.9-0.5-1-0.5l-0.7-0.3l0.8-0.2c0,0,1.1-0.3,3.3-1c2.3-0.8,3.9-1.7,4.7-2.5c1.9-1.9,2.8-3.9,2.9-6.1l0-1
		c-0.1-0.8-0.4-1.6-0.8-2.6c-0.3-0.6-0.8-1.5-1.6-2.7l-0.9-1.4c-1.2-1.9-2.1-3.6-2.7-5.2c-0.6-1.4-1.4-3.7-2.3-6.7
		c-0.7-2.4-1.3-4-1.7-5c-0.7-1.8-1.4-3.3-2.2-4.6l-0.1-0.1l0.1-0.1c0,0,1-1.5,2.9-4.4c2.3-3.2,4.3-5.7,6.1-7.4
		c2-1.9,3.7-3.4,5.1-4.2c1.3-0.8,2.6-1.3,3.8-1.3c0.1-0.1,0.3-0.3,0.7-0.8c1.3-1.3,2.9-1.9,4.8-1.9c1.9,0,3.4,0.3,4.5,0.8
		c-0.6-1.6-1.8-3.2-3.5-4.8c-1.6-1.2-2.3-1.9-2.4-1.9l-0.1,0l0-0.1c-0.3-2.3-0.9-2.5-1.7-4.2c-0.7-1.3-1.6-2.4-2.6-3.1
		c-0.5-0.4-1-0.7-1.5-0.8l-0.2-0.1l0-0.2c-0.2-2.6-0.5-5.6-1-8.8l-0.8-5.1c-0.4-2.5-0.6-4.8-0.5-6.8c0.1-1.2,0.2-2.4,0.4-3.5
		c0.2-0.8,0.3-1.3,0.3-1.3l0-0.1l5.5-1.4c-1.4-2.2-3.3-4.2-5.7-5.9c-4.2-3.1-9.1-4.7-14.5-4.7c-2.3,0-4.5,0.2-6.6,0.6
		c-1.2,0.2-2.2,0.6-3.1,0.9c-0.7,0.3-1.1,0.5-1.1,0.5l-0.3,0.2l0-0.3c-0.1-0.8-0.4-1.7-0.7-2.9c-1.5-5-3.8-9-7-11.9l-0.8-0.8
		c-1.9-1.5-4.4-3.1-7.6-4.8c-2.9-1.4-4.5-2.2-4.7-2.3c-0.4,0-0.7,0.1-1,0.2c5.3,2.9,9.6,6.1,12.9,9.7c1.2,1.2,2.2,2.7,3.1,4.3
		C317.3,31.8,318.3,34.1,319.1,36.5z M318.2,100.3c0,1.5-0.6,2.4-1.7,2.7l-0.1,0h-0.1l0-0.2c-0.3-0.6-0.9-1.1-1.6-1.5l-0.4-0.2
		c-0.2,0.4-0.5,0.7-0.9,0.9c-0.4,0.2-0.5,0.2-0.6,0.2h-0.1l-0.1,0c-0.7-0.3-1.8-0.7-3.1-1c-2.6-0.7-5.5-1-8.6-1
		c-1.9,0-4.5,0.4-8.1,1.3l-5.6,1.3c-0.7,0.2-1.4,0.3-1.9,0.3c-1.3,0-2.1-0.3-2.3-0.8l-0.1-0.2l10.5-4.4c3.7-1.5,6.3-2.3,7.8-2.3
		c1.4,0,3.8,0.5,7.2,1.4l4.7,1.1c1.8,0.4,3,0.7,3.7,1C317.7,99.4,318.2,99.8,318.2,100.3z M325.2,100.4l0.6,0.2l-0.6,0.2
		c-0.7,0.3-1.3,0.8-1.9,1.5c-0.3,0.4-0.6,0.9-0.8,1.3c-0.2,0.3-0.2,0.5-0.2,0.6l-0.1,0.4l-0.3-0.3c-0.3-0.3-0.5-0.7-0.6-1.1
		c-0.3-0.9,0-1.7,0.7-2.5c0.4-0.4,1-0.6,1.7-0.6C324.2,100.1,324.7,100.2,325.2,100.4z M315.7,109c0,0.3-0.1,0.5-0.2,0.8
		c-0.3,0.6-1,0.9-1.9,0.9c-0.5,0-1-0.2-1.6-0.6c-0.2,1.5-0.6,2.8-1.3,3.7c-0.7,0.6-1,0.9-1,0.9l-0.1-0.3l-0.2,0c0.7-1.9,1-3.6,1-5.4
		l-0.9-0.5c-0.4-0.2-0.7-0.4-1-0.5c-0.5-0.3-1.2-0.5-1.9-0.6c-0.4-0.1-0.8-0.1-1.3-0.1c1.1,0.6,1.8,1.6,2.1,2.9
		c0.1,0.4,0.1,0.8,0.1,1.1v0c0,1-0.2,1.8-0.5,2.4c0,0,0,0,0,0c0,0,0,0,0,0c0,0,0,0,0,0c-0.1,0.3-0.4,0.6-0.7,0.9
		c-0.7,0.7-1.9,1.1-3.4,1.3l-1,0.1c-1.6,0-2.7-0.4-3.5-1.3c-0.7-0.8-1-1.9-1-3.4v0l0.4-1.7l0.4-0.8c-1.5,0.6-2.8,1.3-3.9,2.1
		c-0.7,0.6-1.1,0.9-1.2,1.1c-1.6,1.6-3.3,2.9-4.9,3.9c-0.6,0.4-0.9,0.6-1,0.6l0,0h-0.1c-0.7,0-1.2-0.5-1.4-1.4l0-0.1l0-0.1
		c0.4-0.7,1-1.4,1.8-2.2c1.6-1.6,3.7-3,6.1-4.1c2.2-1.1,4.6-1.9,7.4-2.5c0.8-0.2,1.6-0.4,2.3-0.5c0.2-0.2,0.5-0.5,0.9-0.9
		c0.6-0.4,1.2-0.7,1.7-0.7c2.2,0,4.3,0.5,6.4,1.5c1.8,0.9,3,1.8,3.5,2.8C315.6,108.4,315.7,108.7,315.7,109z M343.3,106.5l0.9-0.7
		c0.4-0.3,0.9-0.7,1.4-1c2-1.4,4-2.4,6-3c1.6-0.5,3.3-0.7,5.2-0.8h1.3l0.1,0h0.2c0.6,0,1.2,0.1,1.8,0.2l-0.2-0.7
		c-0.4-1.5-1.1-2.5-2.2-3c-0.4-0.2-0.9-0.3-1.5-0.3l-0.5,0c-2.8,0.3-7.1,2.7-13.1,7.3l-1.3,1l0.5,1c0.1,0.2,0.2,0.4,0.3,0.6l1.2,2.6
		l0.1,0.2l0.4,1l0.1,0.4l0.1,0.2l0.2,0.7c0.4,1.4,1,2.7,1.7,3.8l3.9,5c1.1,1.3,2.3,2.6,3.7,3.9c1.4,1.5,3.2,3.1,5.3,4.8l2.2,1.8
		c0.6-0.9,1.1-2,1.5-3.5c0.7-2.4,1.1-5.2,1.1-8.4c0-1.8-0.3-3.1-1-3.9c-0.1-0.1-0.2-0.2-0.2-0.3c-0.6-0.5-1.2-0.8-1.7-0.9
		c-0.9-0.1-1.5-0.2-1.9-0.1c-0.4,0.1-0.9,0.1-1.4,0.1l-1.3-0.7l-0.6-0.5c1.2-0.8,2.4-1.6,3.6-2.4c0.2-0.2,0.5-0.3,0.8-0.5
		c0.3-0.2,0.6-0.3,0.9-0.5c-0.2-1.4-0.7-2.6-1.6-3.3c-0.8-0.7-1.8-1.1-3-1.3c-0.5-0.1-0.9-0.1-1.3-0.2c0,0,0,0-0.1,0l-0.6,0l0,0
		c0.9,0.7,1.4,1.8,1.4,3.1l0,0.4v0.1l-0.1,0.6l-0.1,0.3l-0.1,0.1l-0.1,0.2l-0.1,0l0,0.1l-0.2,0.2l0,0.1l-0.5,0.5l-1,0.7l-0.2,0
		l-0.2,0.1l-0.2,0l-0.8,0.3h0l-0.3,0.1l-0.2,0.1h-0.1l-0.7,0.1h-0.3c-0.4,0-0.7,0-0.9-0.1c-1-0.2-1.7-0.7-2.3-1.4
		c-0.6-0.7-0.9-1.6-0.9-2.7c0-0.3,0.1-0.7,0.2-1.1l0.1-0.3l0.2-0.4c0.2-0.3,0.4-0.6,0.7-0.8L343.3,106.5z M348.5,109
		c0.8,0,1.2-0.4,1.2-1.1c0-0.8-0.4-1.1-1.2-1.1c-0.8,0-1.2,0.4-1.2,1.1C347.3,108.6,347.7,109,348.5,109z M433.8,110
		c0-0.7-0.3-1.1-0.9-1.1c-0.6,0-0.9,0.4-0.9,1.1c0,0.8,0.3,1.1,0.9,1.1C433.5,111.1,433.8,110.8,433.8,110z M356.4,144.6l-0.8,0.1
		h-0.1c-1.6,0.1-3.5,0.2-5.9,0.2c-4,0-6.6,0.7-7.8,2c-0.2,0.2-0.3,0.7-0.3,1.5v0.6c0,0.8,0.1,1.4,0.4,1.7c0.2,0.3,0.8,0.5,1.6,0.8
		l3.5,1.2l0.5,0.3c0.9,0.4,1.8,0.8,2.6,1.4l0,0l0.3,0.2c0.8,0.6,1.4,1.1,1.9,1.5l1.2,1.1c0.5-3.8,1.2-7.2,2.1-10.3L356.4,144.6z
		 M323.1,147c0,0.1,0,0.2,0,0.4v0.1l0.1,0.4l-0.4-0.1c-0.5-0.2-0.8-0.4-1-0.7c-0.2-0.3-0.3-0.6-0.3-0.9c0-0.6,0.3-1.1,0.9-1.5
		c0.7-0.5,1.7-0.7,3-0.7c1,0,1.7,0.3,2.2,0.7l0.4,0.4h-0.6c-0.7,0-1.6,0.2-2.8,0.7C323.7,146,323.2,146.5,323.1,147z M328.1,150.8
		l1.2-0.1c0.3,0,0.6,0,0.8,0c1.4,0.1,2.3,0.4,2.7,0.9c0.2,0.2,0.3,0.7,0.4,1.4c0.1,0.6,0.1,1.8,0.1,3.6v0.1c0,1.7-0.1,2.9-0.4,3.6
		c-0.2,0.6-0.6,1.2-1.4,1.9c-0.3,0.3-0.8,0.5-1.4,0.7c-0.4,0.1-0.9,0.2-1.4,0.3c-1.8,0.2-3.1,0.4-4.1,0.5c-5.2,0.6-11,1.9-17.3,3.9
		c-7.9,2.6-14.5,3.9-19.7,3.9c-2.1,0-3.8-0.5-5-1.5c-1.2-1-1.8-2.3-1.8-4c0-1.7,0.6-3.1,1.8-4.2c1.2-1.1,2.5-1.7,4.1-1.7
		c1.4,0,2.5,0.3,3.3,0.9c0.6,0.5,1,1.1,1,1.8c0,0.8-0.5,1.3-1.4,1.6c-0.1-0.3-0.3-0.6-0.6-0.8c-0.6-0.6-1.4-0.9-2.4-0.9
		c-0.9,0-1.6,0.3-2.3,1.1c-0.6,0.6-0.8,1.4-0.8,2.1c0,1.9,1,3,2.9,3.3l0.9,0.1l1-0.1c2.2-0.2,4.9-1.2,8.2-2.8
		c2.6-1.3,4.8-2.7,6.7-4.1c3-2.2,7.4-4.4,13-6.4c1.1-0.4,3.3-1.4,6.4-2.8C325.1,151.8,326.9,151.1,328.1,150.8z M341.8,165
		c0.8,0.4,1.7,0.7,2.7,0.8l1.1,0c0.7,0,1.3,0,1.7-0.2l0.1-0.1c0.5-0.1,0.8-0.4,1.1-0.7l0.1-0.2l0.1-0.1v0l0-0.1v-0.1l1.7,1.2
		c-0.6,1-1.9,2.1-3.9,3.4v-0.1c0-1.1-0.4-1.6-1.2-1.6c-0.1,0-1.1,0.3-3,1c-2.2,0.7-4.7,1.2-7.7,1.4c-1.6,0.1-3.1,0.2-4.4,0.3
		c-2.1,0.1-3.9,0.1-5.3,0l-0.3,0c-0.6,0.4-1.4,0.7-2.5,1c-2.3,0.7-4.8,0.9-7.7,0.7c-0.8,0.5-2.3,0.7-4.6,0.7l2.9-2.5l1.1,0.5
		c1,0.3,2.2,0.5,3.5,0.5c1.8,0,3.6-0.4,5.3-1.2c0.9-0.4,1.6-0.8,2.1-1.2l1.6,0.2c1.2,0.1,2.5,0.2,3.9,0.2c0.2,0,0.4,0,0.6,0
		c2.7,0,5.2-0.7,7.5-2.2c1.2-0.7,2-1.5,2.7-2.2L341.8,165z M345.2,204c0,0-0.2,0.6-0.6,1.7c-0.2,3.2-0.2,5.7-0.1,7.5v0.1l0,0
		c-1.1,1.4-2.7,2.9-5,4.3c-2.1,1.3-4.4,2.5-6.7,3.4l-0.1-0.2l0,0.3c6.9-0.6,13.9-0.5,21,0.4c4.2-0.6,7.8-1.5,10.7-2.8
		c2.9-1.3,5-2.8,6.5-4.7c-3.1-8.8-6.8-15.2-11.2-19.1c-4.4-4-6.7-6.1-7.1-6.5c-1.8,4.1-3.6,7.9-5.3,11.4
		C346.6,201.3,345.9,202.7,345.2,204z M341.6,210.1l-0.8-1.4c-1.8,2.7-4.1,4.8-7,6.3c-0.4,0.7-0.8,1.5-1.2,2.3l-0.3,0.6v0l-0.1,0.2
		l-0.1,0.2l-0.2,0.4l0,0.1l2.9-1.3c0.7-0.3,1.5-0.7,2.3-1.2l1.7-1.1c1.9-1.4,3-2.7,3.1-3.9C342,210.8,341.9,210.5,341.6,210.1z
		 M314.5,219.7c-1.1,0.3-4.2-0.1-9.5-1.3c-3.6-0.8-9.7-4.7-18.4-11.7c-6-4.8-11.6-9.7-16.8-14.6l-1.2-1.2c-2.7-2.4-5.8-4.8-9.2-6.9
		c-2.3-1.5-4.4-2.7-6.4-3.7l-0.4-0.3c-0.1-0.1-0.2-0.3-0.2-0.5c0-0.2,0.1-0.4,0.3-0.6c0.1-0.1,0.1-0.1,0.2-0.2
		c0.3-0.3,0.6-0.5,0.8-0.8c0.1-0.1,0.2-0.2,0.3-0.2c0.5-0.5,1-0.9,1.5-1.2c0.4-0.3,0.9-0.6,1.5-1.1l0.6-0.4c0.1-0.7,0.1-1.4,0-2.2
		v-0.1c-1.8,0.8-3.7,2.1-5.6,4l-1,1.1c-0.1,0-0.2,0.3-0.6,1c-0.4,0.9-0.9,2.1-1.4,3.5c-0.7,2-1.3,4.3-2,6.9
		c-0.6,2.4-0.8,5.1-0.8,8.1l0,1.7c0.1,3.8,0.6,7.3,1.4,10.7c3,0.8,7.3,0.8,13.1,0.3c5.1-0.4,8.9-0.3,11.5,0.4
		c1.3,0.3,2.1,0.8,2.5,1.3l0.3,0.5l-0.6-0.1c-1.9-0.5-3.9-0.6-5.9-0.2l-0.9,0.2c1,3.7,2.6,7.4,4.9,11c0.9,1.4,1.8,2.8,2.8,4.2
		c1.2,1.5,2.3,2.9,3.5,4.2c0.5,0.5,0.9,1,1.4,1.5c1-0.5,2-1,3-1.5c3.3-1.5,6.6-2.8,10.1-3.7l-3.9-0.5c-2.2-0.3-4.3-0.7-6.5-1.2
		c-1.7-0.4-2.6-0.6-2.6-0.6l-0.3-0.1l0.1-0.2c0.3-0.5,0.5-1.2,0.7-2c0.2-0.5,0.3-1.1,0.5-1.8c0.3-1.3,0.5-2.8,0.7-4.5
		c0.1-1.4,0.2-2.1,0.2-2.1l0-0.3l0.3,0.1c5.3,2.2,10.9,4,17,5.3c5.5,1.2,9.8,1.7,12.9,1.6c0.3-0.3,0.7-0.6,1-0.8l0.8-0.4
		L314.5,219.7z M433,198.5c-3.2,2.7-6.5,6.3-9.9,10.7c-2.8,3.6-5.3,7.6-7.4,11.9c-0.3,0.6-0.6,1.1-0.8,1.6c-0.8,1.6-1.4,3-1.8,4.2h0
		l0.1,0.2c0.8,1.9,2.2,3.8,4.3,5.9l0.2,0.2l0.2,0.1c1.4,1.3,2.9,2.6,4.5,3.7l1.6-1c1.3-0.8,2.8-1.6,4.2-2.3
		c-0.3-1.9-0.9-3.4-1.8-4.6l11.6-1.2c8.7-0.5,15.5,0,20.3,1.7c0.6-1,1.6-1.6,3.1-1.9c0.8-0.2,1.7-0.2,2.8-0.2h0.6
		c3.3,0.1,5.6,1.1,6.8,2.7c5-0.7,10.4-0.8,16.3-0.4c2.1-0.6,4.2-0.9,6.4-0.9c1.6,0,4.8,0.1,9.5,0.2c4.7,0.1,8.3,0.1,10.8,0.1
		c5.5,0,9.9-0.2,13.1-0.7c1.6-0.2,2.6-0.5,3.1-0.7c-0.8-1.3-1.5-3-2.2-5.1c-0.6-1.9-1.2-4-1.7-6.5c-0.6-2.9-1.4-7.4-2.2-13.3
		c-0.5-3.5-1.6-6.6-3.3-9.4l-2.5-3.1l-0.3,1.5c-0.2,1.3-0.3,2.7-0.4,4.3l0.9-0.1c0.6,0,1.1,0.1,1.3,0.3l-2.3,1.4l-1.1,0.9
		c-2.2,1.4-4.9,3.9-8.1,7.4c-4.2,4.7-7.3,8.2-9.3,10.5c-2,2.3-4.1,4.4-6.3,6.1c-3.7,2.9-7,4.3-9.8,4.3c-1.3,0-3.5-0.1-6.6-0.3
		c-2-0.1-3.5-0.2-4.4-0.2l-0.3,0c-1.1,0-2.1,0-2.9,0c-1.5,0-2.9,0-4.3-0.1l-3.7-0.3c-2.4-0.4-4.2-1.1-5.5-2
		c-0.6-0.4-1.4-0.9-2.3-1.5c-0.8-0.5-1.6-1-2.6-1.6c-2.2-1.4-4.2-2.9-5.8-4.7c-3.2-3.4-5.3-8-6.2-13.9c-0.2-1-0.3-2-0.4-3.1
		c0,0-0.1-0.1-0.1-0.1c0-0.1,0.2-1.8,0.5-5.1c-0.8,0.5-1.5,1-2.1,1.4C435,197,433.8,197.9,433,198.5z M328.3,227.2
		c0,0.5-0.1,1-0.2,1.5c0.7,0.3,1.4,0.6,2.1,1c4.1,1.8,8.3,3.3,12.6,4.5c1.1,0.3,1.9,0.5,2.5,0.6c0-2.2,0-4.5-0.1-6.7
		c-4.7-0.6-9.7-0.9-15-0.9C329.5,227.2,328.9,227.2,328.3,227.2z M530,127l0.4-0.1c1.5-0.3,2.7,0.3,3.6,1.7c0.7,1,1.1,2.3,1.1,3.9
		c0,0.8-0.1,1.5-0.2,2.1c-0.2,0.6-0.5,0.8-0.9,0.8c-0.3,0-0.5-0.1-0.7-0.2l-0.2-0.2c0.3-2.3,0.3-4,0-5.3c-0.2-0.8-0.7-1.5-1.7-2.2
		L530,127z M232.9,104.8c0.3-0.7,0.7-1.1,1.3-1.3c0.6-0.2,1.1-0.3,1.6-0.3c1,0,2,0.3,2.9,1c0.5,0.4,0.9,0.7,1.2,1.1l0.4,0.5
		l-5.7-1.1l-0.2,7.9l-0.4-0.9c-0.3-0.8-0.7-1.7-0.9-2.6C232.6,107.2,232.5,105.8,232.9,104.8z M244.3,117.8l0.8-0.6l0.4-0.4
		c0.6-0.7,1-1.6,1.1-2.9l0-1.6l0.5,0.5c0.1,0,0.6,0.9,1.5,2.4c1,1.9,1.6,3.7,1.9,5.4c0.1,0.8,0.1,1.4,0.1,1.9c0,0.9-0.2,1.8-0.6,2.6
		c-0.7,1.5-1.8,2.3-3.5,2.5l3.9,2.7l-1.3,0.1l-0.4,0c-1.7-0.1-3.1-0.6-4.3-1.6c-1.8-1.5-2.7-3.9-2.7-7.3c0,0,0,0,0-0.1
		c0-0.6,0.1-1.1,0.3-1.6c0.1-0.3,0.3-0.6,0.4-0.8c0.2-0.2,0.4-0.4,0.6-0.6C243.6,118.3,243.9,118,244.3,117.8z M300.3,110.3
		c-0.9,0-1.3,0.4-1.3,1.1c0,0.7,0.4,1.1,1.3,1.1c0.5,0,0.8-0.1,1-0.3c0.2-0.2,0.3-0.4,0.3-0.8C301.6,110.7,301.2,110.3,300.3,110.3z
		"/>
</g>
<path id="Logotype" fill="#223243" d="M150.3,339.2c21.5,0.1,43,0.9,64.5,0.2v11.5c-2.3,0-4.5,0-6.8,0c-6.6-0.1-10.4,3.7-10.4,10
	V431c0,26.6-18.6,38.4-40.1,37.4c-16.7-0.7-30.8-10.9-30.8-26.7c0-11.4,7-19.3,16.5-19c8,0.2,12.6,5.5,12.6,12.1
	c0,8.3-6.6,14.3-6.6,14.3c0,0,1.4,3,6.9,3.2c7.1,0.3,11.9-3.5,11.9-15.5v-74.6c0-6.2-4.3-10.1-10.9-10.4c-2.3-0.1-4.5-0.2-6.8-0.3
	V339.2z M222.1,339.2v11.9c2,0.1,4,0.2,6,0.2c5.8,0.2,9.1,3.7,9.1,9.2v59.1c0,5.5-3.3,8.9-9.1,8.7c-2-0.1-4-0.2-6-0.2V440
	c18.6,0.9,37.3,0.7,55.9-0.4v-11.9c-2,0.1-4,0.2-6,0.3c-5.8,0.3-9.1-3.1-9.1-8.6v-59.1c0-5.5,3.3-9,9.1-9.3c2-0.1,4-0.2,6-0.3v-11.9
	C259.4,339.8,240.8,340.1,222.1,339.2 M352.8,382.3c13.1,1,24.5,6.6,24.5,22.7c0,16.9-15.9,26.3-34.1,28.6
	c-18.8,2.3-37.7,4.4-56.5,5.6v-11.9c1.1-0.1,2.1-0.1,3.2-0.2c5.8-0.4,9.1-4.2,9.1-9.6v-59.1c0-5.5-3.3-8.6-9.1-8.2
	c-1.1,0.1-2.1,0.1-3.2,0.2v-11.9c16.8-1.1,33.6-2.8,50.3-4.9v0c22.6-2.5,36.6,5.3,36.6,23.1C373.6,368.6,364.3,377.3,352.8,382.3
	 M323.8,379.6c1.9-0.2,3.8-0.4,5.8-0.6c10.8-1.2,17.4-6.9,17.4-18.2c0-11.1-3.6-17-17.4-15.4c-1.9,0.2-3.8,0.4-5.8,0.7V379.6z
	 M334.6,423.6c9.1-1.1,14.2-8.9,14.2-18.2c0-9.3-4.6-15.6-14.2-14.4c-3.6,0.4-7.2,0.8-10.8,1.2v32.6
	C327.4,424.4,331,424,334.6,423.6 M626.1,368.8c12.9,3.4,24.1,11.4,24.1,27.2c0,16.7-15.6,22.5-33.6,21.5c-18.6-1.1-37.1-2.1-55.7-3
	v-11.8c1,0.1,2.1,0.1,3.1,0.2c5.7,0.3,9-3,9-8.3v-58.2c0-5.4-3.2-8.9-9-9.2c-1,0-2.1-0.1-3.1-0.2v-11.7c16.5,0.8,33,1.7,49.6,2.6
	c22.3,1.6,36.1,12.3,36.1,29.7C646.5,359.4,637.4,366.1,626.1,368.8 M597.5,362.8c1.9,0.1,3.8,0.2,5.7,0.3
	c10.7,0.6,17.2-5.5,17.2-16.6c0-10.9-3.5-17.5-17.2-18.2c-1.9-0.1-3.8-0.2-5.7-0.3V362.8z M608.1,406.1c8.9,0.5,14-6.2,14-15.3
	c0-9.1-4.6-16.2-14-16.8c-3.5-0.2-7.1-0.4-10.6-0.6v32.1C601,405.7,604.5,405.9,608.1,406.1 M552.7,402.6c-6.9,0.3-8.7-5-10.5-10.7
	c-8.6-25.1-17.1-50-25.7-74.9c-7.8,0.5-15.6,1.1-23.3,1.7c-8.6,26-17.2,53.5-25.9,79.6c-2.3,6.1-5.9,12.3-14,13.1
	c-0.8,0.1-1.5,0.1-2.3,0.2v11.7c15-1.5,30-4.3,45-5.5v-11.7c-1.9,0.2-3.8,0.3-5.6,0.5c-5.6,0.5-6.6-6.1-5-10.6c1-3.1,2-6.2,3-9.3
	c8.6-0.7,17.2-1.4,25.9-2c1,2.9,1.9,5.9,2.9,8.8c1.6,4.3,0.6,10.9-5,11.3c-1.4,0.1-2.9,0.2-4.3,0.3v11.7c15.9-1.2,31.8-2.1,47.7-2.7
	v-11.7C554.5,402.5,553.6,402.5,552.7,402.6 M511.3,373.3c-6.7,0.5-13.4,1-20.1,1.5c2.6-9.4,5.2-18.7,7.8-28
	c1.2-4.2,2.4-11.2,2.4-11.2s1.1,6.8,2.3,10.8C506.2,355.5,508.7,364.4,511.3,373.3 M396.9,329.5v12.2c3.1-0.3,6.2-0.7,9.3-1
	c5.9-0.6,9.3,2.6,9.3,8.1v75.4c0,9.1-4,14.3-13.6,14.3c-2.8,0-4.1-0.9-4.1-0.9c3.6-3.2,7-7.3,7-13.9c0-6.1-4.2-11.7-12.3-11.7
	c-9.7,0-15.5,8.6-15.5,18.7c0,12.1,13.1,21.1,26.8,21.1c25.1,0,40.1-15.1,40.1-38.8v-67.1c0-5.6,3.4-9.5,9.3-10
	c2-0.2,4.1-0.4,6.1-0.6v-12.2C438.4,325.1,417.6,327.3,396.9,329.5 M643.6,425c0,4.3,3.2,6,6.6,6c3.4,0,6.6-1.8,6.6-6
	c0-4.1-3.2-5.9-6.6-5.9C646.8,419.1,643.6,420.9,643.6,425z M644.5,425c0-3.6,2.8-5.1,5.7-5.1c2.8,0,5.6,1.4,5.6,5.1
	c0,3.7-2.8,5.1-5.6,5.1C647.4,430.1,644.5,428.8,644.5,425z M650,425.9c0.7,0,0.9,0.2,1.1,0.7l0.3,0.8c0.2,0.3,0.2,0.7,0.4,0.9h1.7
	c-0.2-0.2-0.4-0.5-0.6-0.9l-0.3-0.8c-0.2-0.4-0.4-0.8-0.9-0.9c0.9-0.3,1.4-0.9,1.4-1.8c0-1.3-0.8-2-2.7-2h-3.2v6.5h1.5v-2.4H650z
	 M650.3,422.9c1,0,1.5,0.3,1.5,1c0,0.7-0.5,1.1-1.5,1.1h-1.5v-2.1H650.3z"/>
</svg>
