<?xml version="1.0" encoding="utf-8"?>
<!-- Generator: Adobe Illustrator 19.0.0, SVG Export Plug-In . SVG Version: 6.00 Build 0)  -->
<svg version="1.1" id="Layer_1" xmlns="http://www.w3.org/2000/svg" xmlns:xlink="http://www.w3.org/1999/xlink" x="0px" y="0px"
	 viewBox="0 0 277.5 37.5" enable-background="new 0 0 277.5 37.5" xml:space="preserve">
<g>
	<path fill="#C41230" d="M12.8,8.7c4.4,0,7.2,3.1,7.2,7.9c0,5.2-3.1,8.6-7.6,8.6c-4.3,0-7.2-3.1-7.2-7.8C5.3,12.2,8.3,8.7,12.8,8.7z
		 M12.7,24.1c3,0,4.9-2.8,4.9-7.1c0-4.5-1.9-7.2-5-7.2c-3,0-4.8,2.6-4.8,7.1C7.8,21.3,9.6,24.1,12.7,24.1z"/>
	<path fill="#C41230" d="M21.1,24.3l2-0.8V10.1L21,9.5V9l4.3-1v6.4l0.3-0.1c1.8-0.8,2.8-1.1,3.7-1.1c2,0,3.3,1.5,3.3,3.7v6.5l2,0.9
		v0.6h-6v-0.6l1.9-0.8v-6c0-1.9-0.9-2.7-2.9-2.7c-0.7,0-1.7,0.1-2.2,0.2v8.4l1.8,0.9v0.6h-6V24.3z"/>
	<path fill="#C41230" d="M35.9,24.3l2-0.8v-8.2l-2-0.6V14l4.2-0.9v10.3l2,0.9v0.6h-6.2V24.3z M39,8.1c1,0,1.4,0.4,1.4,1.2
		c0,0.9-0.5,1.3-1.4,1.3c-1,0-1.4-0.4-1.4-1.3C37.6,8.5,38,8.1,39,8.1z"/>
	<path fill="#C41230" d="M48.5,13.2c3.3,0,5.5,2.3,5.5,5.8c0,3.6-2.4,6.2-5.8,6.2c-3.2,0-5.4-2.3-5.4-5.8
		C42.8,15.7,45.1,13.2,48.5,13.2z M48.5,24.1c2,0,3.1-1.7,3.1-4.6c0-3.3-1.2-5.3-3.3-5.3c-2,0-3.1,1.7-3.1,4.8
		C45.1,22.2,46.4,24.1,48.5,24.1z"/>
</g>
<path fill="#C41230" d="M67.7,25h-1l-4.9-14.7l-1.8-0.8V8.9h6v0.6l-1.8,0.8l2.8,9c0.1,0.3,0.2,0.6,0.3,1c0.1,0.5,0.2,0.8,0.2,0.8
	c0,0.1,0.1,0.2,0.1,0.5l4.4-12.6h1.1l3.4,10.5c0.4,1.1,0.5,1.5,0.6,2.3L81,10.3l-1.8-0.8V8.9h5.4v0.6l-1.9,0.8L77.2,25h-1l-4.1-12.4
	L67.7,25z"/>
<path fill="#C41230" d="M84.6,18.8c0,1.9,0.4,3,1.4,3.9c0.8,0.6,1.8,1,3.1,1c0.6,0,1.7-0.1,2.7-0.3l0.1,0.7
	c-1.5,0.6-3.4,0.9-4.5,0.9c-3.1,0-5.3-2.2-5.3-5.6c0-3.5,2.3-6.2,5.5-6.2c2.1,0,3.7,1.1,4.2,2.9c0.2,0.7,0.2,1.1,0.3,2.6H84.6z
	 M87.5,14.3c-1.7,0-2.6,1.2-2.8,3.8l5.1-0.5C89.7,15.3,89,14.3,87.5,14.3z"/>
<path fill="#C41230" d="M93.8,21.7h1l1.1,2.2c0.5,0.1,0.6,0.1,1,0.1c1.5,0,2.3-0.6,2.3-1.7c0-0.8-0.3-1.1-1.2-1.7L96,19.4
	c-1.4-0.8-2-1.7-2-3c0-2,1.4-3.2,3.6-3.2c0.9,0,1.6,0.1,3.1,0.5l0.2,0v2.4h-1l-1-1.9c-0.4-0.1-0.5-0.1-1-0.1c-1.3,0-2.1,0.5-2.1,1.5
	c0,0.7,0.4,1.2,1.5,1.7l1.9,1c1.5,0.9,2.2,1.7,2.2,3.2c0,2-1.6,3.5-3.8,3.5c-0.8,0-2.2-0.2-3.6-0.7V21.7z"/>
<path fill="#C41230" d="M102.6,24.2l2-0.8V10.1l-2.1-0.6V9l4.3-1v15.4l2,0.9v0.6h-6.2V24.2z"/>
<path fill="#C41230" d="M112,18.8c0,1.9,0.4,3,1.4,3.9c0.8,0.6,1.8,1,3.1,1c0.6,0,1.7-0.1,2.7-0.3l0.1,0.7c-1.5,0.6-3.4,0.9-4.5,0.9
	c-3.1,0-5.3-2.2-5.3-5.6c0-3.5,2.3-6.2,5.5-6.2c2.1,0,3.7,1.1,4.2,2.9c0.2,0.7,0.2,1.1,0.3,2.6H112z M114.8,14.3
	c-1.7,0-2.6,1.2-2.8,3.8l5.1-0.5C117.1,15.3,116.4,14.3,114.8,14.3z"/>
<path fill="#C41230" d="M121.3,14.6l-1.4-0.6v-0.6h5.4V14l-1.7,0.6l2.2,5.6l0.3,0.8c0.1,0.3,0.2,0.5,0.4,1.4l2.7-7.6l-1.6-0.8v-0.6
	h4.5V14l-1.4,0.8l-5,12.2c-0.9,2.2-2,3-4.2,3c-0.5,0-1.1,0-1.5-0.1v-2.2h1.4l0.7,1.4c1-0.1,1.6-0.8,2.2-2.3l0.8-2L121.3,14.6z"/>
<path fill="#C41230" d="M133.6,14.1c1.8-0.6,3-0.8,4.1-0.8c2.3,0,3.5,0.9,3.5,2.8v6.3c0,0.6,0.1,0.7,0.7,0.9l1.3,0.4v0.5l-1.7,0.6
	c-0.6,0.2-1.1,0.1-1.1,0.1c-0.7,0-1.1-0.4-1.3-1.1l-0.3,0.2c0,0-1.3,0.7-1.9,0.8c-0.3,0.1-0.7,0.1-1.2,0.1c-1.9,0-3.2-1.1-3.2-2.9
	c0-1.4,0.9-2.3,2.5-2.7c1-0.2,2.4-0.4,4-0.6v-2.6c0-1.5-0.6-2-2.4-2c-0.3,0-0.4,0-0.6,0l-1,2h-1.4V14.1z M136.6,19.9
	c-1.1,0.3-1.7,0.8-1.7,1.8c0,1.2,0.9,1.9,2.3,1.9c0.9,0,1.8-0.3,1.9-0.3v-3.9C138.2,19.6,137.4,19.7,136.6,19.9z"/>
<path fill="#C41230" d="M144.3,24.2l2-0.8v-8.2l-2-0.6V14l4.2-0.9v1.3c0.1,0,0.3,0,0.3-0.1c0.1,0,0.5-0.2,1.2-0.5
	c1.1-0.4,1.8-0.6,2.5-0.6c1,0,1.7,0.3,2.4,1c0.7,0.7,0.9,1.4,0.9,2.7v6.4l2,0.9v0.6h-6v-0.6l1.9-0.8v-6c0-1.8-0.9-2.6-3-2.6
	c-0.7,0-1.5,0-2.1,0.1v8.4l1.8,0.9v0.6h-6V24.2z"/>
<path fill="#C41230" d="M165.5,8.9h6.3v0.6l-2,0.8v9.6c0,2.9,1.2,4.2,4,4.2c2.9,0,4.2-1.2,4.2-4v-9.7l-2-0.8V8.9h5.6v0.6l-2,0.8v9.1
	c0,2.5-0.6,3.8-2.2,4.8c-1.1,0.6-2.2,0.9-4,0.9c-4,0-5.9-1.6-5.9-5.1v-9.8l-2-0.8V8.9z"/>
<path fill="#C41230" d="M181.4,24.2l2-0.8v-8.2l-2-0.6V14l4.2-0.9v1.3c0.1,0,0.3,0,0.3-0.1c0.1,0,0.5-0.2,1.2-0.5
	c1.1-0.4,1.8-0.6,2.5-0.6c1,0,1.7,0.3,2.4,1c0.7,0.7,0.9,1.4,0.9,2.7v6.4l2,0.9v0.6h-6v-0.6l1.9-0.8v-6c0-1.8-0.9-2.6-3-2.6
	c-0.7,0-1.5,0-2.1,0.1v8.4l1.8,0.9v0.6h-6V24.2z"/>
<path fill="#C41230" d="M196.1,24.2l2-0.8v-8.2l-2-0.6V14l4.2-0.9v10.3l2,0.9v0.6h-6.2V24.2z M199.1,8c1,0,1.4,0.4,1.4,1.2
	c0,0.9-0.5,1.3-1.4,1.3c-1,0-1.4-0.4-1.4-1.3C197.7,8.5,198.2,8,199.1,8z"/>
<path fill="#C41230" d="M203.4,14.6L202,14v-0.6h5.4V14l-1.6,0.7l1.9,5.4c0.3,0.8,0.5,1.5,0.7,2.4l2.9-7.7l-1.6-0.8v-0.6h4.6V14
	l-1.4,0.8L208.4,25h-1L203.4,14.6z"/>
<path fill="#C41230" d="M216.6,18.8c0,1.9,0.4,3,1.4,3.9c0.8,0.6,1.8,1,3.1,1c0.6,0,1.7-0.1,2.7-0.3l0.1,0.7
	c-1.5,0.5-3.4,0.9-4.5,0.9c-3.1,0-5.3-2.2-5.3-5.6c0-3.5,2.3-6.2,5.5-6.2c2.1,0,3.7,1.1,4.2,2.9c0.2,0.7,0.2,1.1,0.3,2.6H216.6z
	 M219.4,14.2c-1.7,0-2.6,1.2-2.8,3.8l5.1-0.5C221.6,15.2,221,14.2,219.4,14.2z"/>
<path fill="#C41230" d="M224.9,24.2l2-0.8v-8.2l-2-0.6V14l4.2-0.9v1.5l0.2-0.1c1.6-0.8,2.7-1.2,3.3-1.2c0.5,0,0.8,0.1,1.2,0.4v2.6
	h-1.6l-0.7-1.4c-0.3,0-0.5,0-0.6,0c-0.5,0-1.2,0.1-1.8,0.3v8.2l2.5,0.9v0.6h-6.7V24.2z"/>
<path fill="#C41230" d="M235.3,21.7h1l1.1,2.2c0.5,0.1,0.6,0.1,1,0.1c1.5,0,2.3-0.6,2.3-1.7c0-0.8-0.3-1.1-1.2-1.6l-2.2-1.2
	c-1.4-0.8-2-1.7-2-3c0-2,1.4-3.2,3.6-3.2c0.9,0,1.6,0.1,3.1,0.5l0.2,0v2.4h-1l-1-1.9c-0.4-0.1-0.5-0.1-1-0.1c-1.3,0-2.1,0.5-2.1,1.5
	c0,0.7,0.4,1.2,1.5,1.7l1.9,1c1.5,0.9,2.2,1.7,2.2,3.2c0,2-1.6,3.5-3.8,3.5c-0.8,0-2.2-0.2-3.6-0.7V21.7z"/>
<path fill="#C41230" d="M244.2,24.2l2-0.8v-8.2l-2-0.6V14l4.2-0.9v10.3l2,0.9v0.6h-6.2V24.2z M247.3,8c1,0,1.4,0.4,1.4,1.2
	c0,0.9-0.5,1.3-1.4,1.3c-1,0-1.4-0.4-1.4-1.3C245.9,8.5,246.4,8,247.3,8z"/>
<path fill="#C41230" d="M250.6,14.5v-0.7c0.9-0.4,2-0.8,3.2-3.3h0.7v3h3.8v1.1h-3.8v7.2c0,1.6,0.5,2.1,2,2.1c0.7,0,1.2-0.1,1.9-0.2
	l0.2,0.8c-1.4,0.4-3.1,0.7-3.8,0.7c-1.6,0-2.4-0.9-2.4-2.7v-7.9H250.6z"/>
<path fill="#C41230" d="M260.5,14.6L259,14v-0.6h5.4V14l-1.7,0.6l2.2,5.6l0.3,0.8c0.1,0.3,0.2,0.5,0.4,1.4l2.7-7.6l-1.6-0.8v-0.6
	h4.5V14l-1.4,0.8L265,27c-0.9,2.2-2,3-4.2,3c-0.5,0-1.1,0-1.5-0.1v-2.2h1.4l0.7,1.4c1-0.1,1.6-0.8,2.2-2.3l0.8-2L260.5,14.6z"/>
</svg>
