<?xml version="1.0" encoding="utf-8"?>
<!-- Generator: Adobe Illustrator 19.0.0, SVG Export Plug-In . SVG Version: 6.00 Build 0)  -->
<svg version="1.1" id="Layer_1" xmlns="http://www.w3.org/2000/svg" xmlns:xlink="http://www.w3.org/1999/xlink" x="0px" y="0px"
	 viewBox="0 0 850 178" enable-background="new 0 0 850 178" xml:space="preserve">
<g>
	<path fill="#5091CD" d="M233.215,126.388h-10.388l-21.493-66.806h-0.358l-21.493,66.806h-10.21L132.2,27.162h19.88l22.031,64.479
		h0.358l20.597-64.479h12.18l20.597,64.479h0.359l21.851-64.479h19.881L233.215,126.388z"/>
	<path fill="#5091CD" d="M289.855,84.835c4.657,19.164,20.06,27.044,32.598,27.044c13.791,0,23.821-8.061,28.299-16.657h18.626
		c-9.492,25.612-32.239,33.673-47.642,33.673c-28.119,0-50.508-24.182-50.508-52.299c0-29.733,22.926-52.122,50.866-52.122
		c26.866,0,50.329,21.852,50.508,50.867c0,3.224-0.358,8.239-0.537,9.494H289.855z M353.976,70.505
		c-0.897-14.508-14.15-29.015-32.061-29.015c-17.91,0-31.164,14.507-32.06,29.015H353.976z"/>
	<path fill="#54B948" d="M386.753,27.162h17.015v15.226h0.358c8.955-12.896,22.567-17.912,35.286-17.912
		c33.67,0,51.402,27.046,51.402,53.553c0,25.076-18.807,50.867-50.15,50.867c-20.776,0-31.165-10.568-34.925-16.837h-0.358v47.464
		h-18.628V27.162z M438.156,41.49c-19.523,0-33.133,16.836-33.133,35.107c0,20.06,14.865,35.283,33.671,35.283
		c17.553,0,33.494-13.971,33.494-34.925C472.187,59.224,458.395,41.49,438.156,41.49z"/>
	<path fill="#54B948" d="M586.635,126.388v-15.402h-0.359c-7.162,12.178-20.238,17.91-33.67,17.91
		c-33.494,0-52.658-25.613-52.658-51.762c0-24.18,17.016-52.658,52.658-52.658c13.791,0,26.508,5.731,33.67,16.657h0.359V27.162
		h18.627v99.226H586.635z M552.605,41.49c-22.926,0-34.031,19.881-34.031,35.464c0,17.91,14.15,34.925,33.852,34.925
		c19.523,0,34.568-15.941,34.568-34.925C586.994,55.819,571.768,41.49,552.605,41.49z"/>
	<path fill="#54B948" d="M658.994,159.523H639.65l14.508-35.106l-39.582-97.255h20.06l29.193,77.016l29.91-77.016h20.061
		L658.994,159.523z"/>
</g>
</svg>
