<?xml version="1.0" encoding="utf-8"?>
<!-- Generator: Adobe Illustrator 19.0.0, SVG Export Plug-In . SVG Version: 6.00 Build 0)  -->
<svg version="1.1" id="Layer_1" xmlns="http://www.w3.org/2000/svg" xmlns:xlink="http://www.w3.org/1999/xlink" x="0px" y="0px"
	 viewBox="0 0 361.9 93.2" enable-background="new 0 0 361.9 93.2" xml:space="preserve">
<g>
	<g>
		<path d="M265.7,85.4L265.7,85.4c0-2.1,1.5-4,3.9-4c2.3,0,3.8,1.9,3.8,4v0c0,2.1-1.6,4-3.9,4C267.2,89.4,265.7,87.5,265.7,85.4z
			 M272.8,85.4L272.8,85.4c0-1.9-1.4-3.5-3.3-3.5c-1.9,0-3.3,1.6-3.3,3.5v0c0,1.9,1.4,3.5,3.3,3.5C271.4,88.8,272.8,87.3,272.8,85.4
			z"/>
		<path d="M225.6,85.4L225.6,85.4c0-2.1,1.5-4,3.9-4c2.3,0,3.8,1.9,3.8,4v0c0,2.1-1.5,4-3.9,4C227.2,89.4,225.6,87.5,225.6,85.4z
			 M232.7,85.4L232.7,85.4c0-1.9-1.4-3.5-3.3-3.5c-1.9,0-3.3,1.6-3.3,3.5v0c0,1.9,1.4,3.5,3.3,3.5C231.4,88.8,232.7,87.3,232.7,85.4
			z"/>
		<path d="M63.2,88.9l3.4-7.3c0.1-0.2,0.2-0.3,0.4-0.3h0c0.2,0,0.3,0.1,0.4,0.3l3.4,7.3c0,0.1,0,0.1,0,0.2c0,0.1-0.1,0.3-0.3,0.3
			c-0.1,0-0.2-0.1-0.3-0.2l-0.9-2l-4.7,0l-0.9,2c-0.1,0.1-0.1,0.2-0.3,0.2c-0.2,0-0.3-0.1-0.3-0.2C63.1,89.1,63.2,89,63.2,88.9z
			 M69,86.6L67,82l-2.1,4.6H69z"/>
		<path d="M77.3,85.4L77.3,85.4c0-2.2,1.6-4,3.9-4c1.3,0,2.1,0.4,2.8,1.1c0.1,0.1,0.1,0.1,0.1,0.2c0,0.2-0.1,0.3-0.3,0.3
			c-0.1,0-0.2,0-0.2-0.1c-0.6-0.6-1.4-1-2.5-1c-1.9,0-3.3,1.5-3.3,3.5v0c0,2,1.4,3.5,3.3,3.5c1.1,0,1.8-0.4,2.5-1.1
			c0,0,0.1-0.1,0.2-0.1c0.1,0,0.3,0.1,0.3,0.3c0,0.1,0,0.2-0.1,0.2c-0.8,0.7-1.6,1.2-2.9,1.2C79,89.4,77.3,87.6,77.3,85.4z"/>
		<path d="M86.3,85.4L86.3,85.4c0-2.1,1.6-4,4-4c2.4,0,3.9,1.9,3.9,4l0,0c0,2.1-1.6,4-4,4C87.8,89.4,86.3,87.5,86.3,85.4z
			 M93.6,85.4L93.6,85.4c0-1.9-1.4-3.5-3.3-3.5c-1.9,0-3.3,1.5-3.3,3.4l0,0c0,1.9,1.4,3.5,3.3,3.5C92.2,88.9,93.6,87.3,93.6,85.4z"
			/>
		<path d="M97.1,81.7c0-0.2,0.1-0.3,0.3-0.3c0.2,0,0.3,0.1,0.3,0.3l0,7.1l4.4,0c0.1,0,0.3,0.1,0.3,0.3c0,0.1-0.1,0.3-0.3,0.3l-4.7,0
			c-0.2,0-0.3-0.1-0.3-0.3L97.1,81.7z"/>
		<path d="M104.9,81.6c0-0.2,0.1-0.3,0.3-0.3c0.2,0,0.3,0.1,0.3,0.3l0,7.1l4.4,0c0.1,0,0.3,0.1,0.3,0.3c0,0.1-0.1,0.3-0.3,0.3
			l-4.7,0c-0.2,0-0.3-0.1-0.3-0.3L104.9,81.6z"/>
		<path d="M112.8,89l0-7.3c0-0.2,0.1-0.3,0.3-0.3l5.1,0c0.1,0,0.3,0.1,0.3,0.3c0,0.1-0.1,0.3-0.3,0.3l-4.8,0l0,3.1l4.3,0
			c0.1,0,0.3,0.1,0.3,0.3c0,0.1-0.1,0.3-0.3,0.3l-4.3,0l0,3.2l4.9,0c0.2,0,0.3,0.1,0.3,0.3c0,0.1-0.1,0.3-0.3,0.3l-5.2,0
			C112.9,89.3,112.8,89.2,112.8,89z"/>
		<path d="M120.9,85.4L120.9,85.4c0-2.2,1.6-4,3.9-4c1.3,0,2.1,0.4,2.8,1.1c0.1,0.1,0.1,0.1,0.1,0.2c0,0.2-0.1,0.3-0.3,0.3
			c-0.1,0-0.2,0-0.2-0.1c-0.6-0.6-1.4-1-2.5-1c-1.9,0-3.3,1.5-3.3,3.5v0c0,2,1.4,3.5,3.3,3.5c1,0,1.8-0.4,2.5-1.1
			c0,0,0.1-0.1,0.2-0.1c0.1,0,0.3,0.1,0.3,0.3c0,0.1,0,0.2-0.1,0.2c-0.8,0.7-1.6,1.2-2.9,1.2C122.5,89.4,120.8,87.6,120.9,85.4z"/>
		<path d="M132.6,82l-2.5,0c-0.1,0-0.3-0.1-0.3-0.3c0-0.1,0.1-0.3,0.3-0.3l5.6,0c0.1,0,0.3,0.1,0.3,0.3c0,0.1-0.1,0.3-0.3,0.3
			l-2.5,0l0,7.1c0,0.2-0.1,0.3-0.3,0.3c-0.2,0-0.3-0.1-0.3-0.3L132.6,82z"/>
		<path d="M138.6,81.6c0-0.2,0.1-0.3,0.3-0.3c0.2,0,0.3,0.1,0.3,0.3l0,7.5c0,0.2-0.1,0.3-0.3,0.3c-0.2,0-0.3-0.1-0.3-0.3L138.6,81.6
			z"/>
		<path d="M145.2,89.1l-3.2-7.4c0,0,0-0.1,0-0.1c0-0.1,0.1-0.3,0.3-0.3c0.1,0,0.2,0.1,0.3,0.2l3,7.1l3-7.1c0.1-0.1,0.2-0.2,0.3-0.2
			c0.2,0,0.3,0.1,0.3,0.3c0,0,0,0.1,0,0.1l-3.2,7.4c-0.1,0.2-0.2,0.3-0.3,0.3h0C145.4,89.4,145.3,89.3,145.2,89.1z"/>
		<path d="M151.8,89l0-7.3c0-0.2,0.1-0.3,0.3-0.3l5.1,0c0.1,0,0.3,0.1,0.3,0.3c0,0.1-0.1,0.3-0.3,0.3l-4.8,0l0,3.1l4.3,0
			c0.1,0,0.3,0.1,0.3,0.3c0,0.1-0.1,0.3-0.3,0.3l-4.3,0l0,3.2l4.9,0c0.1,0,0.3,0.1,0.3,0.3c0,0.1-0.1,0.3-0.3,0.3l-5.2,0
			C152,89.3,151.8,89.2,151.8,89z"/>
		<path d="M164.1,85.4L164.1,85.4c0-2.1,1.5-4,3.9-4c2.3,0,3.8,1.9,3.8,4v0c0,2.1-1.5,4-3.9,4C165.7,89.4,164.1,87.5,164.1,85.4z
			 M171.2,85.4L171.2,85.4c0-1.9-1.4-3.5-3.3-3.5c-1.9,0-3.3,1.6-3.3,3.5v0c0,1.9,1.4,3.5,3.3,3.5C169.9,88.8,171.2,87.3,171.2,85.4
			z"/>
		<path d="M174.9,81.7c0-0.2,0.1-0.3,0.3-0.3l5.1,0c0.1,0,0.3,0.1,0.3,0.3c0,0.1-0.1,0.3-0.3,0.3l-4.8,0l0,3.2h4.2
			c0.1,0,0.3,0.1,0.3,0.3c0,0.1-0.1,0.3-0.3,0.3l-4.2,0l0,3.3c0,0.2-0.1,0.3-0.3,0.3c-0.2,0-0.3-0.1-0.3-0.3L174.9,81.7z"/>
		<path d="M187.4,81.7c0-0.2,0.1-0.3,0.3-0.3l5,0c0.1,0,0.3,0.1,0.3,0.3c0,0.1-0.1,0.3-0.3,0.3l-4.8,0l0,3.2l4.2,0
			c0.1,0,0.3,0.1,0.3,0.3c0,0.1-0.1,0.3-0.3,0.3l-4.2,0l0,3.3c0,0.2-0.1,0.3-0.3,0.3c-0.2,0-0.3-0.1-0.3-0.3L187.4,81.7z"/>
		<path d="M204.1,88.3c0,0-0.1-0.1-0.1-0.2c0-0.2,0.1-0.3,0.3-0.3c0.1,0,0.1,0,0.2,0.1c0.8,0.7,1.6,1,2.6,1c1.2,0,2-0.7,2-1.5v0
			c0-0.8-0.4-1.3-2.2-1.7c-1.9-0.4-2.6-1-2.6-2.2v0c0-1.2,1.1-2,2.5-2c1.1,0,1.8,0.3,2.5,0.8c0.1,0,0.1,0.1,0.1,0.2
			c0,0.2-0.1,0.3-0.3,0.3c-0.1,0-0.1,0-0.2-0.1c-0.7-0.5-1.4-0.7-2.2-0.7c-1.1,0-1.9,0.7-1.9,1.5v0c0,0.8,0.4,1.3,2.3,1.7
			c1.8,0.4,2.6,1,2.6,2.1v0c0,1.3-1.1,2.1-2.6,2.1C205.9,89.4,204.9,89,204.1,88.3z"/>
		<path d="M212.5,81.6c0-0.2,0.1-0.3,0.3-0.3c0.2,0,0.3,0.1,0.3,0.3l0,3.4l5.1,0l0-3.4c0-0.2,0.1-0.3,0.3-0.3c0.2,0,0.3,0.1,0.3,0.3
			l0,7.4c0,0.2-0.1,0.3-0.3,0.3c-0.2,0-0.3-0.1-0.3-0.3l0-3.5l-5.1,0v3.5c0,0.2-0.1,0.3-0.3,0.3c-0.2,0-0.3-0.1-0.3-0.3L212.5,81.6z
			"/>
		<path d="M222,81.7c0-0.2,0.1-0.3,0.3-0.3c0.2,0,0.3,0.1,0.3,0.3l0,7.4c0,0.2-0.1,0.3-0.3,0.3c-0.2,0-0.3-0.1-0.3-0.3L222,81.7z"/>
		<path d="M236.3,81.7c0-0.2,0.1-0.3,0.3-0.3h0.1c0.1,0,0.2,0.1,0.3,0.2l5.3,6.8l0-6.7c0-0.2,0.1-0.3,0.3-0.3c0.2,0,0.3,0.1,0.3,0.3
			l0,7.5c0,0.1-0.1,0.2-0.2,0.2h0c-0.1,0-0.2-0.1-0.3-0.2l-5.4-6.9l0,6.8c0,0.2-0.1,0.3-0.3,0.3c-0.2,0-0.3-0.1-0.3-0.3L236.3,81.7z
			"/>
		<path d="M250.2,88.3c-0.1,0-0.1-0.1-0.1-0.2c0-0.2,0.1-0.3,0.3-0.3c0.1,0,0.2,0,0.2,0.1c0.8,0.7,1.6,1,2.7,1c1.2,0,2-0.6,2-1.5v0
			c0-0.8-0.4-1.3-2.2-1.7c-1.9-0.4-2.7-1-2.7-2.2v0c0-1.2,1.1-2,2.5-2c1.1,0,1.8,0.3,2.5,0.8c0.1,0,0.1,0.1,0.1,0.2
			c0,0.2-0.1,0.3-0.3,0.3c-0.1,0-0.1,0-0.2-0.1c-0.7-0.5-1.4-0.7-2.2-0.7c-1.2,0-1.9,0.6-1.9,1.5v0c0,0.8,0.4,1.3,2.3,1.7
			c1.8,0.4,2.6,1,2.6,2.2v0c0,1.3-1.1,2.1-2.6,2.1C252,89.4,251,89,250.2,88.3z"/>
		<path d="M260.6,81.9h-2.5c-0.1,0-0.3-0.1-0.3-0.3c0-0.1,0.1-0.3,0.3-0.3l5.7,0c0.1,0,0.3,0.1,0.3,0.3c0,0.1-0.1,0.3-0.3,0.3h-2.5
			l0,7.1c0,0.2-0.1,0.3-0.3,0.3c-0.2,0-0.3-0.1-0.3-0.3L260.6,81.9z"/>
		<path d="M276.4,81.7c0-0.2,0.1-0.3,0.3-0.3l3,0c1,0,1.7,0.3,2.2,0.8c0.4,0.4,0.6,0.9,0.6,1.5v0c0,1.3-1,2.1-2.3,2.3l2.2,2.9
			c0.1,0.1,0.1,0.1,0.1,0.2c0,0.2-0.1,0.3-0.3,0.3c-0.1,0-0.2-0.1-0.3-0.2l-2.4-3.2H277l0,3c0,0.2-0.1,0.3-0.3,0.3
			c-0.2,0-0.3-0.1-0.3-0.3L276.4,81.7z M279.7,85.5c1.3,0,2.3-0.7,2.3-1.8v0c0-1.1-0.8-1.7-2.3-1.7l-2.7,0l0,3.6L279.7,85.5z"/>
		<path d="M285.4,89l0-7.3c0-0.2,0.1-0.3,0.3-0.3l5.1,0c0.1,0,0.3,0.1,0.3,0.3c0,0.1-0.1,0.3-0.3,0.3l-4.8,0l0,3.1l4.3,0
			c0.1,0,0.3,0.1,0.3,0.3c0,0.2-0.1,0.3-0.3,0.3l-4.3,0v3.2l4.9,0c0.1,0,0.3,0.1,0.3,0.3c0,0.1-0.1,0.3-0.3,0.3l-5.2,0
			C285.6,89.3,285.4,89.2,285.4,89z"/>
		<path d="M293.5,88.3c-0.1,0-0.1-0.1-0.1-0.2c0-0.2,0.1-0.3,0.3-0.3c0.1,0,0.2,0,0.2,0.1c0.8,0.7,1.6,1,2.7,1c1.2,0,2-0.6,2-1.5v0
			c0-0.8-0.4-1.3-2.3-1.7c-1.9-0.4-2.7-1-2.7-2.2v0c0-1.2,1.1-2,2.6-2c1.1,0,1.8,0.3,2.6,0.8c0.1,0,0.1,0.1,0.1,0.2
			c0,0.2-0.1,0.3-0.3,0.3c-0.1,0-0.1,0-0.2-0.1c-0.7-0.5-1.4-0.8-2.2-0.8c-1.2,0-2,0.6-2,1.5v0c0,0.8,0.4,1.3,2.3,1.7
			c1.9,0.4,2.6,1,2.6,2.2v0c0,1.3-1.1,2.1-2.7,2.1C295.3,89.4,294.4,89,293.5,88.3z"/>
		<path d="M198.3,81.6l3.2,7.4c0,0,0,0.1,0,0.1c0,0.1-0.1,0.3-0.3,0.3c-0.1,0-0.2-0.1-0.3-0.2l-3-7.1l-3,7.1
			c-0.1,0.1-0.2,0.2-0.3,0.2c-0.2,0-0.3-0.1-0.3-0.3c0,0,0-0.1,0-0.1l3.2-7.4c0.1-0.2,0.2-0.3,0.4-0.3h0
			C198.1,81.4,198.2,81.5,198.3,81.6z"/>
	</g>
	<path d="M219.1,55.9c0,2.2-1.9,4-4,4c-2.2,0-4-1.8-4-4c0-2.2,1.8-4,4-4C217.2,51.8,219.1,53.7,219.1,55.9z"/>
	<path d="M86.8,9.7c0,3.1-2.6,5.6-5.6,5.6c-3.1,0-5.6-2.5-5.6-5.6c0-3.1,2.5-5.6,5.6-5.6C84.1,4.1,86.8,6.6,86.8,9.7z"/>
	<path d="M105.6,9.7c0,3.1-2.6,5.6-5.6,5.6c-3.1,0-5.6-2.5-5.6-5.6c0-3.1,2.5-5.6,5.6-5.6C103,4.1,105.6,6.6,105.6,9.7z"/>
	<path d="M8,57.7h6.3v-30H8v-1.3h6.3c3.8,0,5.2,0,6.7-1.7v7.8h0.2c2.1-3.9,5.5-7.8,11.4-7.8c5.1,0,10.2,1.4,10.9,8.5h0.2
		c1.6-4.5,5.6-8.6,11.5-8.5c8.1,0.1,10.8,4.7,10.8,9.7v23.3h6.3V59H52.9v-1.3h6.3V32.9c0-5.7-2.5-7-5.6-7c-4.6,0-8.7,5-10.2,10.6
		v21.2h6V59h-19v-1.3h6.3V31.4c0-4-2-5.5-5.2-5.5c-4.8,0-8.3,3.7-10.6,9.4v22.4h6V59H8V57.7z"/>
	<path d="M77.8,27.7h-6.4v-1.3h6.4c2.5,0,5.1-0.2,6.7-1.7v33.1h6.4V59H71.5v-1.3h6.4V27.7z"/>
	<path d="M96.7,27.7h-6.4v-1.3h6.4c2.5,0,5.1-0.2,6.7-1.7v33.1h6.4V59H90.3v-1.3h6.4V27.7z"/>
	<path d="M115.1,27.7h-6.3v-1.3h6.3c3.8,0,5.2,0,6.7-1.7v8.1h0.2c2.1-3.8,6-8.1,11.8-8.1c8.5,0,10.9,4.3,10.9,9v24.1h6.3V59h-19.2
		v-1.3h6.3v-26c0-4.4-2.1-5.8-4.7-5.8c-6.7,0-10.1,6.7-11.5,9.4v22.4h6V59h-19v-1.3h6.3V27.7z"/>
	<path d="M188.6,24.7c10.3,0,16.9,8.5,16.9,17.7c0,9.2-6.6,17.7-16.9,17.7c-10.3,0-16.9-8.5-16.9-17.7
		C171.7,33.2,178.3,24.7,188.6,24.7z M197.8,39.2c0-6.9-0.3-13.3-9.2-13.3c-8.9,0-9.2,6.4-9.2,13.3v6.2c0,6.9,0.3,13.3,9.2,13.3
		c8.9,0,9.2-6.4,9.2-13.3V39.2z"/>
	<path d="M166.6,58.7c-2.5,0-4.6-1.4-4.7-5v-26h11v-1.3h-11V15.3h-1c-1.4,7.8-4.4,11.3-12.6,11.1v1.3h6.9v5.7h0V51
		c0,4.7,2.4,9,10.9,9c5.5,0,9.3-3.8,11.5-7.5v-2.2C176,53.3,172.6,58.7,166.6,58.7z"/>
	<g>
		<path d="M258,42.3c-0.2,6-4.6,17.6-16.5,17.6c-10.2,0-16.8-7.3-16.8-16.3c0-10.4,7.9-19,17.3-19c5.6,0,11.4,2.5,11.4,7.4
			c0,2.4-1.8,4-3.8,4c-2.5,0-3.8-1.7-3.8-3.4c0-3.2,2-3,2-4.2c0-1.7-3.7-2.5-6-2.5c-7.7,0-9.5,5-9.5,12.5v6.9
			c0,6.9,0.3,13.3,9.2,13.3c11.8,0,14.7-11.5,15.2-16.4H258z"/>
		<path d="M273.6,24.6c10.2,0,16.8,8.5,16.8,17.6c0,9.1-6.6,17.6-16.8,17.6c-10.2,0-16.8-8.5-16.8-17.6
			C256.8,33.1,263.4,24.6,273.6,24.6z M282.8,39.2c0-6.9-0.3-13.3-9.2-13.3c-8.9,0-9.2,6.4-9.2,13.3v6.2c0,6.9,0.3,13.3,9.2,13.3
			c8.9,0,9.2-6.3,9.2-13.3V39.2z"/>
		<path d="M290,57.7h6.3v-30H290v-1.3h6.3c3.8,0,5.2,0,6.7-1.7v7.8h0.2c2.1-3.9,5.5-7.8,11.4-7.8c5.1,0,10.2,1.4,10.9,8.5h0.2
			c1.6-4.5,5.6-8.6,11.5-8.5c8.1,0.1,10.8,4.7,10.8,9.7v23.3h6.3v1.3H335v-1.3h6.3V32.9c0-5.7-2.5-7-5.6-7c-4.6,0-8.7,5-10.2,10.6
			v21.2h6v1.3h-19v-1.3h6.3V31.4c0-4-2-5.5-5.2-5.5c-4.8,0-8.3,3.7-10.6,9.4v22.4h6v1.3h-19V57.7z"/>
	</g>
</g>
</svg>
