<?xml version="1.0" encoding="utf-8"?>
<!-- Generator: Adobe Illustrator 21.0.1, SVG Export Plug-In . SVG Version: 6.00 Build 0)  -->
<!DOCTYPE svg PUBLIC "-//W3C//DTD SVG 1.1//EN" "http://www.w3.org/Graphics/SVG/1.1/DTD/svg11.dtd">
<svg version="1.1" id="Layer_1" xmlns="http://www.w3.org/2000/svg" xmlns:xlink="http://www.w3.org/1999/xlink" x="0px" y="0px"
	 viewBox="0 0 141 102" style="enable-background:new 0 0 141 102;" xml:space="preserve">
<g>
	<path d="M93.7,85.2c-17.7,0-32.1-14.4-32.1-32.1C61.6,35.4,76,21,93.7,21c10.6,0,20.1,5.2,25.9,13.1l13.8,0
		c-7.1-14.8-22.2-25-39.7-25c-22.4,0-40.8,16.7-43.6,38.2c-2.7,0-26.4,0-27.4,0c-1.1,0-0.9-0.4-0.9-0.4s0-19.2,0-21.4
		c0-2.2,2.4-3,2.4-3s27.2,0,28.5,0c1.3,0,0.4-0.7,0.4-0.7V7.4l-0.4-0.7c0,0-26.6,0-33.7,0c-3.2,0-6.6,2.5-8.7,5.4
		c-2.6,3.6-3.5,7.6-3.5,7.6s0,73.6,0,75.1c0,1.5,2.2,2.2,2.2,2.2s10.5,0,12.4,0c2,0,0.7-0.2,0.7-0.2s0-36.1,0-37.2
		c0-1.1,0.6-0.7,0.6-0.7h27.4C53,80.5,71.4,97.1,93.7,97.1c17.4,0,32.4-10,39.6-24.6l-14.1,0.1C113.4,80.3,104.1,85.2,93.7,85.2"/>
	<path d="M93.7,37.8c5.3,0,10,2.3,12.7,6.4l12.6,0c-3.7-10.4-13.6-17.9-25.4-17.9c-14.8,0-26.9,12-26.9,26.9
		c0,14.8,12,26.9,26.9,26.9c11.6,0,21.4-7.3,25.2-17.5l-13.2,0.1c-2.8,3.6-7.2,5.9-12.1,5.9c-8.5,0-15.3-6.9-15.3-15.3
		C78.4,44.6,85.3,37.8,93.7,37.8"/>
</g>
</svg>
