<svg xmlns="http://www.w3.org/2000/svg" width="211" height="47" viewBox="0 0 211 47">
  <path fill="#D52B1E" d="M204.004343 37.5935657L204.464441 35.50543C203.912646 36.2872743 203.299718 36.8728532 202.622442 37.2653841 201.940339 37.6563062 201.193887 37.8493542 200.378259 37.8493542 199.038184 37.8493542 198.111554 37.3474295 197.596759 36.3419712 197.080356 35.336513 197.006354 34.0093081 197.36671 32.3603566 197.751198 30.6197073 198.478345 29.1702387 199.554587 28.0087333 200.632439 26.8488367 201.908164 26.268084 203.380155 26.268084 203.777512 26.268084 204.133042 26.3099111 204.445136 26.3952383 204.755622 26.4804368 205.05002 26.6091998 205.315461 26.7861605 205.582511 26.9615124 205.872083 27.2494756 206.190612 27.645224L207.504947 21.6655627 210.479495 21.6655627 206.9805 37.59363 204.004343 37.59363 204.004343 37.5935657zM205.79969 29.4228098C205.497248 28.9498422 205.181936 28.6345305 204.858581 28.4656136 204.533617 28.2966966 204.184522 28.2114337 203.809687 28.2114337 203.024625 28.2114337 202.347348 28.6023559 201.787509 29.3777653 201.224453 30.1515659 200.830313 31.0637176 200.600264 32.1126117 200.371824 33.1454184 200.37665 33.9706985 200.602838 34.5852346 200.834496 35.1981619 201.291376 35.50543 201.98474 35.50543 202.420707 35.50543 202.890457 35.3493829 203.389164 35.0372886 203.887871 34.7235856 204.370491 34.3133587 204.837024 33.8033903L205.799046 29.4228098 205.79969 29.4228098zM184.8054 37.5935657L187.236196 26.5254813 190.209135 26.5254813 189.753863 28.6023559C190.477793 27.7529447 191.208158 27.1480611 191.936914 26.7973572 192.667279 26.4450447 193.367078 26.268084 194.039528 26.268084 194.914679 26.268084 195.601608 26.5512211 196.109968 27.1110602 196.616719 27.6725081 196.734156 28.5589201 196.467107 29.76547L194.747371 37.5935657 191.774432 37.5935657 193.331686 30.4990523C193.468428 29.8957774 193.500603 29.4855504 193.437862 29.2699801 193.37184 29.0560186 193.256075 28.8903191 193.088767 28.7809253 192.921459 28.6698583 192.718758 28.6120083 192.483883 28.6120083 192.073656 28.6120083 191.61195 28.7503593 191.108417 29.0222352 190.603274 29.2957199 190.003217 29.8282106 189.309853 30.6197073L187.778339 37.5935657 184.8054 37.5935657 184.8054 37.5935657zM179.782613 36.4204774C179.262992 36.8339218 178.823808 37.1299287 178.469887 37.3101069 178.114357 37.490285 177.754001 37.6254186 177.392036 37.7155076 177.031679 37.8055967 176.658453 37.8490968 176.277184 37.8490968 175.289421 37.8490968 174.565491 37.5433732 174.107002 36.9304458 173.648513 36.3126923 173.514989 35.5565877 173.712863 34.6653495 173.950955 33.5762371 174.596057 32.6673029 175.643343 31.936938 176.689019 31.2081819 178.210881 30.8429995 180.202492 30.8429995L180.995598 30.8429995 181.219212 29.8407587C181.363998 29.1666995 181.277126 28.7130367 180.952162 28.4781617 180.627198 28.2432866 180.178361 28.1274578 179.600826 28.1274578 178.460234 28.1274578 177.226336 28.4556394 175.895914 29.1087851L176.349576 27.0399542C177.807089 26.5251596 179.208295 26.2677623 180.543544 26.2677623 181.362389 26.2677623 182.065406 26.3803736 182.665463 26.60077 183.257477 26.824384 183.695052 27.1702616 183.981407 27.6384029 184.264544 28.1033268 184.303153 28.801517 184.09878 29.7297561L183.020929 34.6315661C182.890621 35.2300149 182.9051 35.5984148 183.062756 35.7351571 183.22202 35.8686819 183.394155 35.9330313 183.579159 35.9330313 183.690097 35.9330313 183.826904 35.9227354 183.99743 35.9025297L183.690162 37.570786C183.017711 37.7557903 182.436959 37.8490968 181.947904 37.8490968 181.392891 37.8490968 180.940837 37.7605522 180.583698 37.5740035 180.221733 37.3922166 179.998119 37.0077294 179.912856 36.4205418L179.782549 36.4205418 179.782613 36.4204774zM180.122056 34.8230054L180.620763 32.5595178 179.916138 32.5595178C178.946072 32.5595178 178.183532 32.7348697 177.631737 33.0823561 177.079941 33.4330599 176.746934 33.8658091 176.629496 34.3870387 176.534516 34.813353 176.605301 35.1640568 176.830588 35.4391502 177.059028 35.7110261 177.369513 35.8493771 177.755609 35.8493771 178.104704 35.8493771 178.477931 35.7625055 178.875288 35.5887624 179.271036 35.4182366 179.687698 35.1608393 180.122056 34.8230054M161.420533 37.5935657L164.700739 22.6661304 170.279826 22.6661304C171.418809 22.6661304 172.256959 22.8109164 172.792667 23.0956622 173.326767 23.3804079 173.704819 23.8147659 173.920389 24.3955186 174.139177 24.9762713 174.168134 25.6358519 174.007261 26.3694342 173.815822 27.2445851 173.379855 28.0714739 172.705796 28.8468833 172.031737 29.6271189 171.18876 30.2191327 170.180085 30.6293597L173.53912 37.5935657 169.75377 37.5935657 167.380889 31.5029018 165.677241 31.5029018 164.335557 37.5935657 161.420533 37.5935657zM166.127686 29.4405059L166.845181 29.4405059C168.120906 29.4405059 169.070059 29.1654125 169.686204 28.6087908 170.30074 28.0521691 170.685227 27.419937 170.839665 26.7169206 170.97319 26.1072107 170.879819 25.622982 170.562963 25.2626258 170.239608 24.9038783 169.469025 24.7237002 168.247996 24.7237002L167.16371 24.7237002 166.127686 29.4405059 166.127686 29.4405059zM151.040497 37.5935657L154.537883 21.6654984 157.514039 21.6654984 154.013436 37.5935657 151.040497 37.5935657zM145.65478 37.5935657L149.152166 21.6654984 152.129931 21.6654984 148.627719 37.5935657 145.65478 37.5935657zM138.583921 37.849676C137.388633 37.849676 136.412132 37.6164097 135.660853 37.149877 134.904749 36.6817357 134.404433 35.9948066 134.15347 35.0858724 133.902508 34.1769381 133.900899 33.1698711 134.144461 32.0582365 134.38738 30.957863 134.828173 29.950796 135.471666 29.0482967 136.110333 28.1457974 136.916309 27.4556509 137.87994 26.9810746 138.841962 26.508107 139.926248 26.2684058 141.127972 26.2684058 142.334522 26.2684058 143.317458 26.508107 144.070345 26.9810746 144.820015 27.4556509 145.320331 28.1457974 145.568076 29.0482967 145.814212 29.950796 145.817429 30.957863 145.574511 32.0582365 145.333201 33.1698711 144.887582 34.1769381 144.237653 35.0858724 143.587725 35.9948066 142.78175 36.6817357 141.824554 37.149877 140.86414 37.6164097 139.786289 37.849676 138.584565 37.849676M138.991574 35.9931979C139.836159 35.9931979 140.552046 35.6199718 141.140842 34.8751283 141.72803 34.1302848 142.147909 33.1923934 142.397263 32.0582365 142.645007 30.933732 142.636964 29.9974493 142.376413 29.2477796 142.115799 28.5013274 141.562394 28.1281013 140.719418 28.1281013 139.881268 28.1281013 139.171817 28.5013274 138.578194 29.2477796 137.986181 29.9974493 137.572736 30.933732 137.321774 32.0582365 137.077246 33.1923934 137.078855 34.1302848 137.342623 34.8751283 137.604846 35.6199718 138.155033 35.9931979 138.991574 35.9931979M123.688168 37.2517034L124.170788 35.0493477C125.512471 35.6767536 126.706151 35.9920653 127.755045 35.9920653 128.314885 35.9920653 128.786247 35.8745635 129.169126 35.6365353 129.55683 35.4016603 129.786879 35.1024359 129.867316 34.7388622 129.9381 34.4235505 129.868603 34.1565008 129.672659 33.9425393 129.465133 33.7334039 129.133734 33.5274861 128.667197 33.3263944L127.748611 32.9226024C126.802675 32.5059405 126.131834 32.0458428 125.745738 31.5407006 125.359642 31.0419933 125.253465 30.3904564 125.430426 29.590916 125.642779 28.6272848 126.189748 27.8341793 127.07616 27.2083821 127.959355 26.5809762 129.169126 26.2672732 130.705466 26.2672732 131.604748 26.2672732 132.643989 26.4040155 133.829626 26.6678478L133.369528 28.7575922C132.267546 28.3377128 131.326437 28.1269688 130.542984 28.1269688 129.926839 28.1269688 129.44261 28.2348183 129.08708 28.445498 128.73155 28.6594595 128.517585 28.9329441 128.445192 29.2691693 128.387278 29.5313929 128.43747 29.7630504 128.594804 29.9641421 128.741203 30.1668425 129.054906 30.3647166 129.526265 30.5609821L130.317761 30.8939899C131.624053 31.4393504 132.444507 31.9686236 132.772688 32.4785921 133.094435 32.9982129 133.17648 33.6175751 133.017216 34.3382876 132.811298 35.2729616 132.230545 36.0918068 131.273349 36.7948232 130.317761 37.4978396 129.074211 37.8501522 127.544301 37.8501522 126.241228 37.8501522 124.954241 37.6490605 123.688168 37.2517034M116.216078 37.5935657L118.648483 26.5254813 121.621422 26.5254813 121.164542 28.6120083C121.676119 27.8993395 122.289046 27.3282392 122.998498 26.9067511 123.711166 26.4820455 124.444749 26.268084 125.20568 26.268084 125.385858 26.268084 125.572471 26.2796669 125.752649 26.2970412L125.163852 28.9852344C124.779365 28.8324047 124.40453 28.7567943 124.03613 28.7567943 123.440899 28.7567943 122.873016 28.9064064 122.326047 29.2040221 121.774252 29.5048552 121.244978 29.9569092 120.736619 30.5569667L119.190626 37.5935657 116.216078 37.5935657 116.216078 37.5935657zM114.605582 37.2216265C113.104634 37.6398972 111.721124 37.8490325 110.461485 37.8490325 109.266197 37.8490325 108.267173 37.6254186 107.467633 37.1797995 106.668093 36.7325717 106.132384 36.0327727 105.855682 35.0820114 105.580589 34.1296414 105.567719 33.0952259 105.809093 31.9787651 106.039142 30.9427409 106.454195 29.9855447 107.05747 29.1087851 107.660745 28.2336342 108.412024 27.5386615 109.306479 27.0303018 110.204152 26.5235508 111.224089 26.2677623 112.374334 26.2677623 113.781975 26.2677623 114.808347 26.721425 115.450231 27.6255331 116.092116 28.5296411 116.141987 30.212376 115.603061 32.6737378L108.807772 32.6737378C108.711248 33.42019 108.748313 34.0138126 108.923601 34.4433443 109.097344 34.8744848 109.385307 35.217145 109.790708 35.4697161 110.192891 35.7222872 110.780079 35.8493771 111.552271 35.8493771 112.541642 35.8493771 113.7128 35.6096759 115.064135 35.1350996L114.605646 37.2216265 114.605582 37.2216265zM109.119802 30.9877854L113.027415 30.9877854C113.252638 29.9646311 113.247811 29.2310488 113.00811 28.7902559 112.773235 28.3462455 112.388748 28.1274578 111.862692 28.1274578 111.286766 28.1274578 110.759101 28.3687678 110.284525 28.8546052 109.806731 29.3404427 109.420635 30.0515027 109.119802 30.9877854M92.6235301 40.9961908L93.3345902 38.8227922C94.4285287 39.3938925 95.5256848 39.680247 96.6228408 39.680247 97.658865 39.680247 98.4825364 39.4614593 99.1002899 39.0287101 99.714826 38.5927434 100.145966 37.8157253 100.388885 36.6976557L100.721893 35.1902727C100.245708 35.9013328 99.6520854 36.4772593 98.9426341 36.9228784 98.231574 37.3701062 97.4577733 37.5937201 96.6180146 37.5937201 95.7621685 37.5937201 95.0591521 37.3781498 94.5041392 36.9470094 93.9523437 36.5174776 93.5952049 35.8707668 93.4375491 35.0068771 93.2831107 34.1413787 93.3185028 33.180965 93.5501604 32.1175923 93.9185603 30.4557709 94.6392728 29.0674342 95.7203415 27.9477559 96.8014102 26.8280776 98.0835705 26.2682385 99.5652138 26.2682385 99.9577447 26.2682385 100.313275 26.3100655 100.622152 26.3888291 100.931028 26.4675927 101.218992 26.5899207 101.479606 26.7588377 101.745047 26.9293634 102.04588 27.2141092 102.383714 27.6162925L102.93551 26.5255714 105.599572 26.5255714 103.746311 34.9601595C103.257256 37.188255 102.711896 38.6908118 102.111838 39.461395 101.514998 40.2319782 100.729937 40.8143396 99.7598705 41.2068705 98.7946306 41.5994014 97.7328667 41.7972756 96.5858399 41.7972756 95.3068971 41.7972756 93.9845184 41.5302259 92.6235301 40.9961264M101.103163 33.4511678L102.005662 29.3537244C101.687133 28.8662782 101.362169 28.5413141 101.037205 28.3756146 100.712241 28.2115238 100.379233 28.1278697 100.03979 28.1278697 99.304599 28.1278697 98.6369748 28.4705298 98.0433522 29.1606764 97.4497297 29.8476054 97.0250241 30.779062 96.7676268 31.9534372 96.5456216 32.9588954 96.5504478 33.7487834 96.7792097 34.3263186 97.0076498 34.9022451 97.4548776 35.1902084 98.1192844 35.1902084 98.5970782 35.1902084 99.0845243 35.0470311 99.5816229 34.7558504 100.075504 34.4646697 100.587081 34.0303117 101.103484 33.4511678M80.93544 37.5935013L83.3678446 26.525417 86.344001 26.525417 85.8871208 28.6022915C86.609442 27.7528804 87.3398068 27.1479967 88.068563 26.7972929 88.7973191 26.4449803 89.4987268 26.2680197 90.172786 26.2680197 91.0463281 26.2680197 91.7332572 26.5511567 92.2400081 27.1109959 92.7451503 27.6724437 92.867414 28.5588557 92.6003643 29.7654056L90.8790198 37.5935013 87.9044722 37.5935013 89.4633346 30.4989879C89.5984682 29.895713 89.6322516 29.485486 89.5662936 29.2699158 89.5036173 29.0559543 89.3877242 28.8902548 89.2220246 28.7808609 89.0514989 28.669794 88.8504073 28.6119439 88.6155322 28.6119439 88.2036965 28.6119439 87.7452076 28.750295 87.2400654 29.0221709 86.7365319 29.2956555 86.1364744 29.8281462 85.4431104 30.6196429L83.9115964 37.5935013 80.93544 37.5935013 80.93544 37.5935013zM75.5112679 37.5935013L78.7882574 22.6660661 81.8802426 22.6660661 78.6000356 37.5935013 75.5112679 37.5935013 75.5112679 37.5935013zM74.1481947 12.7185616C71.8219665 1.26116377 53.3955366-3.29476858 32.9823212 2.54171542 28.7593965 3.74987405 24.7858256 5.31356271 21.1549148 7.12660501L23.6532774 7.12660501C26.5683019 5.59669975 29.7535937 4.3000608 33.1415857 3.33160342 50.0879811-1.51550967 65.6347787 3.49086801 67.8741353 14.5139072 69.1579043 20.8314024 65.7795646 27.7537813 59.4733306 33.4277832L58.879708 36.25111C69.4619549 29.4719083 75.7279707 20.5064383 74.1481947 12.7185616M50.7308309 39.4487825C47.8174151 40.9786878 44.6337321 42.273718 41.2425226 43.2421754 24.3009534 48.0892885 8.75093802 43.0845195 6.51479889 32.0646972 5.2310298 25.7327234 8.61902189 18.7990833 14.9461699 13.1218639L15.5381837 10.3065815C4.9398491 17.0906087-1.33903653 26.0673399.242348215 33.8584347 2.56696764 45.3158324 20.9982242 49.8701561 41.4050046 44.0336721 45.6279292 42.8255135 49.5998915 41.2618248 53.2340198 39.4487825L50.7308309 39.4487825M42.8041263 20.3396062L44.1104177 14.1347223C47.4646264 14.1685701 50.131906 14.030219 49.5254136 16.9017434 48.745178 20.6146996 47.4404954 20.2704307 42.8041263 20.3396062M27.4905951 37.5997046L39.1716068 37.5997046 41.4930088 26.5605774C45.917025 26.4174002 47.4179731 26.919325 46.9466143 29.1602903L45.1705728 37.5997046 56.8017138 37.5997046 58.7498897 28.330184C59.0105044 27.0978943 59.6475628 24.0702585 54.5527048 22.6996178 59.7312169 21.2903675 60.8541127 18.327081 61.2868619 16.27112 62.2955376 11.4690521 58.3637937 8.97712436 52.3069133 8.97712436L33.5120834 8.97712436 27.4905951 37.5997046 27.4905951 37.5997046zM17.612806 8.97648087L30.009704 8.97648087 23.9882157 37.5990611 11.5913173 37.5990611 17.612806 8.97648087z" transform="translate(.096 -.024)"/>
</svg>
