<?xml version="1.0" encoding="utf-8"?>
<!-- Generator: Adobe Illustrator 19.0.0, SVG Export Plug-In . SVG Version: 6.00 Build 0)  -->
<svg version="1.1" id="Layer_1" xmlns="http://www.w3.org/2000/svg" xmlns:xlink="http://www.w3.org/1999/xlink" x="0px" y="0px"
	 viewBox="0 0 533.684 243.158" enable-background="new 0 0 533.684 243.158" xml:space="preserve">
<g>
	<g>
		<path fill-rule="evenodd" clip-rule="evenodd" fill="#129FF1" d="M295.753,44.844h-65.214c-2.682,5.732-5.365,11.467-8.047,17.201
			l19.346,39.091l21.309-23.188L233.02,47.363h60.253l-30.126,30.584l21.026,23.704L303.8,62.045
			C301.118,56.312,298.435,50.577,295.753,44.844z"/>
	</g>
</g>
<path fill-rule="evenodd" clip-rule="evenodd" fill="none" stroke="#129FF1" stroke-width="5" stroke-miterlimit="10" d="
	M263.158,7.632c36.451,0,66,29.549,66,66s-29.549,66-66,66s-66-29.549-66-66S226.707,7.632,263.158,7.632z"/>
<g>
	<g>
		<path fill="#5F6578" d="M187.311,213.805l-7.702-24.684h-9.891l-7.627,24.608l-6.493-24.458H143.97l12.459,40.639h10.268
			l7.929-24.76l7.777,24.76h10.345l12.609-40.639h-11.401L187.311,213.805z M224.546,188.82c-6.871,0-11.251,1.279-15.706,3.236
			l2.87,8.729c3.7-1.354,6.796-2.182,11.175-2.182c5.738,0,8.684,2.633,8.684,7.375v0.677c-2.869-0.977-5.814-1.655-9.892-1.655
			c-9.589,0-16.31,4.064-16.31,12.869v0.15c0,7.977,6.268,12.342,13.893,12.342c5.587,0,9.439-2.031,12.232-5.117v4.365h11.1
			v-23.405C242.591,195.292,237.08,188.82,224.546,188.82z M231.718,215.385c0,4.14-3.624,7.074-8.984,7.074
			c-3.701,0-6.268-1.806-6.268-4.891v-0.15c0-3.613,3.02-5.57,7.928-5.57c2.794,0,5.361,0.603,7.324,1.506V215.385z
			 M266.912,205.226c-4.38-1.505-8.23-2.559-8.23-4.816v-0.15c0-1.581,1.434-2.784,4.229-2.784c2.944,0,6.946,1.43,10.948,3.762
			l4.379-7.901c-4.379-2.935-9.967-4.666-15.101-4.666c-8.155,0-14.8,4.591-14.8,12.794v0.15c0,7.826,6.418,10.461,12.081,12.116
			c4.455,1.355,8.381,2.183,8.381,4.666v0.151c0,1.806-1.51,3.01-4.832,3.01c-3.775,0-8.381-1.656-12.761-4.816l-4.908,7.525
			c5.361,4.215,11.704,6.096,17.366,6.096c8.76,0,15.479-4.063,15.479-13.02v-0.15C279.143,209.817,272.574,207.108,266.912,205.226
			z M307.69,188.519c-5.813,0-9.212,3.085-11.855,6.472v-20.319h-11.476v54.938h11.476v-22.502c0-5.419,2.794-8.203,7.173-8.203
			c4.38,0,6.947,2.784,6.947,8.203v22.502h11.477v-26.115C321.432,194.239,316.374,188.519,307.69,188.519z M328.914,229.61h11.477
			v-40.338h-11.477V229.61z M328.611,184.832h12.081v-10.16h-12.081V184.832z M368.179,188.519c-12.61,0-21.973,9.407-21.973,20.997
			v0.15c0,11.59,9.287,20.846,21.821,20.846c12.609,0,21.973-9.406,21.973-20.996v-0.15
			C390.001,197.776,380.714,188.519,368.179,188.519z M378.674,209.667c0,5.945-3.927,10.987-10.495,10.987
			c-6.343,0-10.646-5.192-10.646-11.138v-0.15c0-5.945,3.926-10.988,10.495-10.988c6.343,0,10.647,5.193,10.647,11.139V209.667z"/>
	</g>
</g>
</svg>
