<?xml version="1.0" encoding="utf-8"?>
<!-- Generator: Adobe Illustrator 19.0.0, SVG Export Plug-In . SVG Version: 6.00 Build 0)  -->
<svg version="1.1" id="Layer_1" xmlns="http://www.w3.org/2000/svg" xmlns:xlink="http://www.w3.org/1999/xlink" x="0px" y="0px"
	 viewBox="0 0 365 132" enable-background="new 0 0 365 132" xml:space="preserve">
<g id="XMLID_31_">
	<polygon id="XMLID_46_" fill-rule="evenodd" clip-rule="evenodd" fill="#EC1C2E" points="101.021,99.637 95.962,114.326 
		90.786,99.637 84.401,99.637 92.293,121.115 99.303,121.115 107.24,99.637 101.021,99.637 	"/>
	<path id="XMLID_43_" fill-rule="evenodd" clip-rule="evenodd" fill="#EC1C2E" d="M139.651,110.402c0-3.203,2.6-5.803,5.804-5.803
		c3.205,0,5.804,2.6,5.804,5.803c0,3.205-2.599,5.805-5.804,5.805C142.251,116.207,139.651,113.607,139.651,110.402L139.651,110.402
		z M151.016,90.879v10.545c-0.012-0.006-0.02-0.014-0.028-0.021c-1.765-1.303-3.922-2.115-6.257-2.115
		c-5.937,0-10.749,4.961-10.749,11.078c0,6.117,4.812,11.076,10.749,11.076c2.349,0,4.52-0.773,6.285-2.09v1.793h5.52V90.879
		H151.016L151.016,90.879z"/>
	<path id="XMLID_29_" fill-rule="evenodd" clip-rule="evenodd" fill="#EC1C2E" d="M165.907,110.402c0-3.203,2.6-5.803,5.802-5.803
		c3.207,0,5.806,2.6,5.806,5.803c0,3.205-2.599,5.805-5.806,5.805C168.507,116.207,165.907,113.607,165.907,110.402L165.907,110.402
		z M177.269,99.662v1.762c-0.008-0.006-0.017-0.014-0.028-0.021c-1.76-1.303-3.922-2.115-6.257-2.115
		c-5.937,0-10.749,4.961-10.749,11.078c0,6.117,4.812,11.076,10.749,11.076c2.349,0,4.518-0.773,6.285-2.09v1.793h5.522V99.662
		H177.269L177.269,99.662z"/>
	<path id="XMLID_39_" fill-rule="evenodd" clip-rule="evenodd" fill="#EC1C2E" d="M197.836,99.662h-3.307
		c0,0-0.012-0.689-0.012-1.307c0-1.361,0-3.09,2.168-3.09c0.557,0,1.092,0.094,1.092,0.094v-4.996c0,0-0.906-0.023-1.523,0
		c-5.076,0.197-7.311,1.93-7.311,7.004v2.295h-2.471v4.949h2.471v16.5h5.586v-16.5h3.307V99.662L197.836,99.662z"/>
	<path id="XMLID_38_" fill-rule="evenodd" clip-rule="evenodd" fill="#EC1C2E" d="M231.25,101.531
		c1.568-1.428,3.857-2.318,6.314-2.318c5.061,0,7.959,3.223,7.973,7.479l0.002,2.406v12.017h-5.697v-11.486v-1.051
		c0-3.156-2.199-4.117-3.938-4.117c-1.604,0-4.664,0.883-4.492,4.736v1.422v10.496h-5.707V99.66h5.545V101.531L231.25,101.531z"/>
	<path id="XMLID_35_" fill-rule="evenodd" clip-rule="evenodd" fill="#EC1C2E" d="M255.17,112.068
		c0.271,2.697,2.527,4.664,5.291,4.664c2.18,0,3.625-0.861,4.483-2.426h5.965c-0.955,3.344-4.715,7.125-10.256,7.125
		c-6.668,0-11.367-4.965-11.367-11.09s5.037-11.092,11.367-11.092c6.332,0,10.836,5.398,10.836,11.092
		c0,1.186-0.133,1.719-0.133,1.719L255.17,112.068L255.17,112.068z M265.469,107.918c-0.484-2.436-2.525-3.838-5.008-3.838
		c-2.562,0-4.568,1.492-5.142,3.822L265.469,107.918L265.469,107.918z"/>
	<path id="XMLID_34_" fill-rule="evenodd" clip-rule="evenodd" fill="#EC1C2E" d="M123.538,99.965
		c-2.039,0.445-3.577,2.262-3.577,4.434c0,0.047,0.012,0.104,0.013,0.15c3.226,0.686,4.853,2.861,4.853,5.727
		c0,3.223-2.635,5.836-5.856,5.836c-3.222,0-6.232-2.688-6.232-6.672c0-4.867,4.172-9.434,10.116-9.576
		c0.107-0.002,0.275,0.002,0.448,0.01c-1.305-0.498-2.729-0.771-4.217-0.771c-6.378,0-11.548,5.004-11.548,11.174
		c0,6.172,5.17,11.174,11.548,11.174c6.379,0,11.549-5.002,11.549-11.174C130.634,105.633,127.706,101.652,123.538,99.965
		L123.538,99.965z"/>
	<path id="XMLID_28_" fill-rule="evenodd" clip-rule="evenodd" fill="#EC1C2E" d="M210.629,99.195
		c-6.379,0-11.551,5.002-11.551,11.174c0,4.643,2.93,8.625,7.1,10.311c2.039-0.447,3.574-2.26,3.574-4.434
		c0-0.047-0.012-0.102-0.014-0.148c-3.225-0.686-4.852-2.861-4.852-5.729c0-3.223,2.635-5.834,5.857-5.834
		c3.223,0,6.232,2.686,6.232,6.672c0,4.867-4.172,9.43-10.117,9.576c-0.105,0.002-0.275-0.004-0.447-0.012
		c1.305,0.498,2.727,0.771,4.217,0.771c6.377,0,11.547-5.004,11.547-11.174C222.176,104.197,217.006,99.195,210.629,99.195
		L210.629,99.195z"/>
	<path id="XMLID_27_" fill-rule="evenodd" clip-rule="evenodd" fill="#EC1C2E" d="M191.896,10.498
		c-6.492,1.429-11.383,7.25-11.383,14.219c0,0.15,0.035,0.326,0.041,0.476c10.266,2.2,15.443,9.168,15.443,18.365
		c0,10.328-8.385,18.705-18.637,18.705c-10.251,0-19.828-8.618-19.828-21.396c0-15.601,13.271-30.233,32.182-30.697
		c0.342-0.008,0.881,0.005,1.434,0.03c-4.156-1.591-8.684-2.464-13.416-2.464c-20.295,0-36.749,16.038-36.749,35.822
		s16.454,35.822,36.749,35.822c20.289,0,36.742-16.038,36.742-35.822C214.475,28.67,205.156,15.903,191.896,10.498L191.896,10.498z"
		/>
</g>
</svg>
