<?xml version="1.0" encoding="utf-8"?>
<!-- Generator: Adobe Illustrator 19.0.0, SVG Export Plug-In . SVG Version: 6.00 Build 0)  -->
<svg version="1.1" id="Layer_1" xmlns="http://www.w3.org/2000/svg" xmlns:xlink="http://www.w3.org/1999/xlink" x="0px" y="0px"
	 viewBox="0 0 487 126" enable-background="new 0 0 487 126" xml:space="preserve">
<g>
	<g>
		<linearGradient id="SVGID_1_" gradientUnits="userSpaceOnUse" x1="134.3672" y1="65.5807" x2="91.4658" y2="22.6794">
			<stop  offset="0" style="stop-color:#6FBC85"/>
			<stop  offset="0.209" style="stop-color:#68B597"/>
			<stop  offset="0.6552" style="stop-color:#58A3BB"/>
			<stop  offset="1" style="stop-color:#4E91CE"/>
		</linearGradient>
		<path fill="url(#SVGID_1_)" d="M144.1,71.2c0,0.2,0.1,0.5,0.4,0.5c0,0,0.1,0,0.1,0c0.3,0,0.4-0.2,0.5-0.6l0,0
			C159.2,4,55.1,18.9,55.1,18.9c-0.2,0-0.4,0.2-0.4,0.5c0,0.2,0.2,0.4,0.4,0.4c0,0,91-3.1,89,51.4"/>
		<linearGradient id="SVGID_2_" gradientUnits="userSpaceOnUse" x1="90.2209" y1="109.727" x2="47.3195" y2="66.8256">
			<stop  offset="0" style="stop-color:#6FBC85"/>
			<stop  offset="0.209" style="stop-color:#68B597"/>
			<stop  offset="0.6552" style="stop-color:#58A3BB"/>
			<stop  offset="1" style="stop-color:#4E91CE"/>
		</linearGradient>
		<path fill="url(#SVGID_2_)" d="M96.8,66.1C66.6,87.8,24.3,94.2,24.3,94.2c-0.2,0.1-0.4,0.3-0.3,0.5c0,0.2,0.2,0.4,0.5,0.4
			c0,0,50-1.6,80.2-22.4C101.4,69.4,98.5,67.2,96.8,66.1z"/>
		<linearGradient id="SVGID_3_" gradientUnits="userSpaceOnUse" x1="92.3507" y1="107.5972" x2="49.4494" y2="64.6958">
			<stop  offset="0" style="stop-color:#6FBC85"/>
			<stop  offset="0.209" style="stop-color:#68B597"/>
			<stop  offset="0.6552" style="stop-color:#58A3BB"/>
			<stop  offset="1" style="stop-color:#4E91CE"/>
		</linearGradient>
		<path fill="url(#SVGID_3_)" d="M38.2,98.6c-0.2,0-0.4,0.2-0.4,0.5c0,0.2,0,0.4,0.6,0.4c0,0,46.1,2,75.6-13.8
			c-1.5-2.9-3.2-5.4-4.8-7.6C80.5,96.2,38.2,98.6,38.2,98.6z"/>
		<linearGradient id="SVGID_4_" gradientUnits="userSpaceOnUse" x1="93.8712" y1="106.0768" x2="50.9698" y2="63.1754">
			<stop  offset="0" style="stop-color:#6FBC85"/>
			<stop  offset="0.209" style="stop-color:#68B597"/>
			<stop  offset="0.6552" style="stop-color:#58A3BB"/>
			<stop  offset="1" style="stop-color:#4E91CE"/>
		</linearGradient>
		<path fill="url(#SVGID_4_)" d="M55.2,103.4c-0.2,0-0.4,0.2-0.4,0.4c0,0.2,0.1,0.4,0.4,0.5c0,0,37.6,5.3,64.5-4.9
			c-0.8-2.6-1.6-5-2.5-7.2C90.9,104.6,55.2,103.4,55.2,103.4z"/>
		<linearGradient id="SVGID_5_" gradientUnits="userSpaceOnUse" x1="112.7312" y1="87.2168" x2="69.8298" y2="44.3154">
			<stop  offset="0" style="stop-color:#6FBC85"/>
			<stop  offset="0.209" style="stop-color:#68B597"/>
			<stop  offset="0.6552" style="stop-color:#58A3BB"/>
			<stop  offset="1" style="stop-color:#4E91CE"/>
		</linearGradient>
		<path fill="url(#SVGID_5_)" d="M125.4,96.6c0,0.2,0,0.2,0.1,0.3c0.1,0.1,0.2,0.2,0.4,0.2c0,0,0.1,0,0.1,0c0.2,0,0.3-0.2,0.3-0.4
			c2.9-21.5-7.2-36.3-22-46.4C74.2,29.6,24.4,28,24.4,28c-0.2,0-0.4,0.2-0.5,0.4c0,0.2,0.1,0.4,0.3,0.5c0,0,46.3,7,76.6,31.2
			C112.7,69.5,122.1,81.5,125.4,96.6z"/>
		<linearGradient id="SVGID_6_" gradientUnits="userSpaceOnUse" x1="123.4474" y1="76.5005" x2="80.546" y2="33.5992">
			<stop  offset="0" style="stop-color:#6FBC85"/>
			<stop  offset="0.209" style="stop-color:#68B597"/>
			<stop  offset="0.6552" style="stop-color:#58A3BB"/>
			<stop  offset="1" style="stop-color:#4E91CE"/>
		</linearGradient>
		<path fill="url(#SVGID_6_)" d="M135.2,86c0.1,1.2,0.1,1.4,0.4,1.6c0.1,0,0.1,0,0.2,0c0.1,0,0.1,0,0.2,0c0.1-0.1,0.2-0.2,0.2-0.3
			c7-26.6-6-42.2-24.6-51.3C82,21.7,38.4,23.6,38.4,23.6c-0.6,0.1-0.6,0.2-0.6,0.4c0,0.2,0.2,0.4,0.4,0.5c0,0,40.7,2.3,69.3,19.4
			C122.9,53.1,134.8,66.5,135.2,86z"/>
	</g>
	<path fill="#575756" d="M460.9,82c2.5,0,4.5,2,4.5,4.6c0,2.6-2,4.6-4.5,4.6c-2.4,0-4.4-2-4.4-4.6C456.5,84,458.4,82,460.9,82z
		 M460.9,90.4c2.1,0,3.8-1.7,3.8-3.9c0-2.2-1.6-3.9-3.8-3.9c-2.1,0-3.7,1.7-3.7,3.9C457.2,88.7,458.8,90.4,460.9,90.4z M459.4,84.1
		h1.7c0.9,0,1.5,0.6,1.5,1.5c0,0.7-0.5,1.2-0.9,1.3v0c0,0,0.1,0.1,0.2,0.3l0.9,1.8H462l-1-2h-0.9v2h-0.7V84.1z M461,86.5
		c0.5,0,0.9-0.3,0.9-0.9c0-0.6-0.3-0.9-0.9-0.9h-0.9v1.8H461z"/>
	<path fill="#575756" d="M200.3,49.8h5.8l10.1,32.7h0.2L226.7,50h5.4l10.2,32.6l0.2,0.5l9-33.3h5.8l-11.7,40.8h-6l-10.2-31.9h-0.2
		l-10.2,31.9h-6L200.3,49.8z"/>
	<path fill="#575756" d="M266.4,49.8h5.5v40.8h-5.5V49.8z"/>
	<path fill="#575756" d="M266.4,32.4h5.5V40h-5.5V32.4z"/>
	<path fill="#575756" d="M301.8,37.3c-3.2,0-9.2,0.7-9.2,9.7v2.7h10.5v4.6h-10.5v36.2h-5.5V54.5H282v-4.6h5.1v-2.7
		c0-13.5,9.5-14.7,14.1-14.7h1.9v5L301.8,37.3z"/>
	<path fill="#575756" d="M331.6,85.7h-1.1c-3.1,0-9.2-1.2-9.2-10.8V54.5h10.2v-4.6h-10.2V32.4h-5.4v17.4h-5.4v4.6h5.4v21
		c0,13.6,9.5,15.2,14.2,15.2h1.6V85.7z"/>
	<path fill="#575756" d="M400.3,48.8c11.3,0,17,8.7,17,18.8c0,1-0.2,2.8-0.2,2.8h-31.3c0.2,10.5,7.4,16.2,15.8,16.2
		c7.5,0,12.4-5,12.4-5l2.5,4.2c0,0-5.9,5.7-15.1,5.7c-12.2,0-21.3-8.8-21.3-21.3C380.2,56.9,389.3,48.8,400.3,48.8z M411.8,66
		c-0.3-8.5-5.5-12.5-11.6-12.5c-6.8,0-12.7,4.3-14,12.5H411.8z"/>
	<path fill="#575756" d="M425.2,107.7v-5h3.4c3.6,0,6.1-2.9,7.7-6.7l2.5-5.8l-17-40.5h6.1l12,29.8c0.8,2,1.5,4.3,1.5,4.3h0.2
		c0,0,0.6-2.3,1.4-4.3l11.8-29.8h6l-20.1,49.4c-2.1,5.2-6.3,8.5-11.8,8.5H425.2z"/>
	<path fill="#575756" d="M165.9,79.8c0,0,5.9,6.3,14.9,6.3c6.3,0,11.4-3.7,11.4-9.9c0-14.4-28.5-10.7-28.5-28.4
		c0-8.2,7.2-15.3,17.8-15.3c9.9,0,15.3,5.5,15.3,5.5l-2.8,4.7c0,0-5-4.9-12.5-4.9c-7.3,0-12,4.8-12,9.8c0,13.6,28.5,9.7,28.5,28.4
		c0,8.5-6.6,15.4-17.3,15.4c-11.7,0-18.1-7.3-18.1-7.3L165.9,79.8z"/>
	<path fill="#575756" d="M340.6,32.4l5.5,0.1v26.6l4.2,0L369.7,34h6.5l-21.1,27.4l0,0l23.6,29.3h-6.7l-21.7-27h-4.2v27h-5.5V32.4z"
		/>
</g>
</svg>
