<svg xmlns="http://www.w3.org/2000/svg" width="166" height="43" viewBox="0 0 166 43">
  <g fill="none" transform="translate(.084 .454)">
    <g fill="#010101" transform="translate(52.678 .265)">
      <path d="M.406938166 32.9208404L2.46449069 28.1198845C4.65921338 29.7659265 7.67695708 30.7261177 10.5575306 30.7261177 12.7522533 30.7261177 14.123955 29.9030967 14.123955 28.6685652 14.123955 25.1021408 1.09278901 27.8455442.955618839 19.0666534.955618839 14.5400378 4.93355372 11.1107836 10.5575306 11.1107836 13.9867848 11.1107836 17.2788689 11.9338046 19.7479319 13.854187L17.8275495 18.7923131C15.6328268 17.4206114 12.8894235 16.32325 10.2831903 16.32325 8.49997809 16.32325 7.40261675 17.146271 7.40261675 18.2436324 7.40261675 21.6728866 20.5709529 19.7525042 20.7081231 28.2570547 20.7081231 32.9208404 16.7301882 36.0757543 11.2433815 36.0757543 7.12827641 35.9385841 3.2875117 34.9783929.406938166 32.9208404M79.9656358 26.3366723C78.8682744 28.1198845 76.9478921 29.354416 74.7531694 29.354416 71.4610853 29.354416 68.717682 26.6110126 68.717682 23.3189286 68.717682 20.0268446 71.4610853 17.2834412 74.7531694 17.2834412 76.9478921 17.2834412 78.8682744 18.5179727 79.9656358 20.3011849L85.7267828 17.146271C83.5320601 13.3055063 79.4169551 10.6992731 74.7531694 10.6992731 67.894661 10.6992731 62.2706841 16.32325 62.2706841 23.1817584 62.2706841 30.0402669 67.894661 35.6642438 74.7531694 35.6642438 79.4169551 35.6642438 83.5320601 33.0580106 85.7267828 29.2172458L79.9656358 26.3366723z"/>
      <rect width="7.133" height="34.978" x="23.589" y=".412"/>
      <polygon points="88.47 .412 88.47 35.527 95.603 35.527 95.603 24.965 104.108 35.527 113.298 35.527 102.462 23.045 112.475 11.385 103.696 11.385 95.603 20.987 95.603 .412"/>
      <path d="M51.9829214,26.4738425 C50.8855601,28.1198845 48.8280076,29.4915862 46.3589445,29.4915862 C43.0668605,29.4915862 40.3234571,26.7481828 40.3234571,23.4560988 C40.3234571,20.1640147 43.0668605,17.4206114 46.3589445,17.4206114 C48.8280076,17.4206114 50.8855601,18.7923131 51.9829214,20.4383551 L51.9829214,26.4738425 Z M51.9829214,11.385124 L51.9829214,14.2656975 C50.7483899,12.3453151 47.8678164,10.9736135 44.8500727,10.9736135 C38.5402449,10.9736135 33.6021189,16.4604202 33.6021189,23.4560988 C33.6021189,30.4517774 38.5402449,36.0757543 44.8500727,36.0757543 C47.8678164,36.0757543 50.7483899,34.7040526 51.9829214,32.7836702 L51.9829214,35.6642438 L59.1157702,35.6642438 L59.1157702,11.385124 C59.1157702,11.385124 51.9829214,11.385124 51.9829214,11.385124 Z"/>
    </g>
    <path fill="#E01E5A" d="M8.91606094 4.38944538C8.91606094 6.85850841 6.99567858 8.77889077 4.52661555 8.77889077 2.05755252 8.77889077 0 6.85850841 0 4.38944538 0 1.92038236 2.05755252 0 4.38944538 0L8.77889077 0 8.77889077 4.38944538 8.91606094 4.38944538zM11.1107836 4.38944538C11.1107836 1.92038236 13.031166 0 15.500229 0 17.969292 0 19.8896744 1.92038236 19.8896744 4.38944538L19.8896744 15.3630588C19.8896744 17.8321219 17.969292 19.7525042 15.500229 19.7525042 13.031166 19.7525042 11.1107836 17.8321219 11.1107836 15.3630588L11.1107836 4.38944538 11.1107836 4.38944538z" transform="translate(0 22.212)"/>
    <path fill="#36C5F0" d="M15.500229 8.90691626C13.031166 8.90691626 11.1107836 6.9865339 11.1107836 4.51747088 11.1107836 2.04840785 13.031166.12802549 15.500229.12802549 17.969292.12802549 19.8896744 2.04840785 19.8896744 4.51747088L19.8896744 8.90691626 15.500229 8.90691626zM15.500229 11.101639C17.969292 11.101639 19.8896744 13.0220213 19.8896744 15.4910843 19.8896744 17.9601474 17.969292 19.8805297 15.500229 19.8805297L4.38944538 19.8805297C1.92038236 19.8805297 0 17.9601474 0 15.4910843 0 13.0220213 1.92038236 11.101639 4.38944538 11.101639L15.500229 11.101639 15.500229 11.101639z"/>
    <path fill="#2EB67D" d="M11.2479538 15.6282545C11.2479538 13.1591915 13.1683362 11.2388091 15.6373992 11.2388091 18.1064622 11.2388091 20.0268446 13.1591915 20.0268446 15.6282545 20.0268446 18.0973175 18.1064622 20.0176999 15.6373992 20.0176999L11.2479538 20.0176999 11.2479538 15.6282545zM9.05323111 15.6282545C9.05323111 18.0973175 7.13284875 20.0176999 4.66378572 20.0176999 2.19472269 20.0176999.274340337 18.0973175.274340337 15.6282545L.274340337 4.51747088C.274340337 2.04840785 2.19472269.12802549 4.66378572.12802549 7.13284875.12802549 9.05323111 2.04840785 9.05323111 4.51747088L9.05323111 15.6282545z" transform="translate(21.947)"/>
    <path fill="#ECB22E" d="M4.66378572 11.1107836C7.13284875 11.1107836 9.05323111 13.031166 9.05323111 15.500229 9.05323111 17.969292 7.13284875 19.8896744 4.66378572 19.8896744 2.19472269 19.8896744.274340337 17.969292.274340337 15.500229L.274340337 11.1107836 4.66378572 11.1107836zM4.66378572 8.77889077C2.19472269 8.77889077.274340337 6.85850841.274340337 4.38944538.274340337 1.92038236 2.19472269 0 4.66378572 0L15.7745694 0C18.2436324 0 20.1640147 1.92038236 20.1640147 4.38944538 20.1640147 6.85850841 18.2436324 8.77889077 15.7745694 8.77889077L4.66378572 8.77889077z" transform="translate(21.947 22.212)"/>
  </g>
</svg>
