<?xml version="1.0" encoding="utf-8"?>
<!-- Generator: Adobe Illustrator 19.0.0, SVG Export Plug-In . SVG Version: 6.00 Build 0)  -->
<svg version="1.1" id="Layer_1" xmlns="http://www.w3.org/2000/svg" xmlns:xlink="http://www.w3.org/1999/xlink" x="0px" y="0px"
	 viewBox="0 0 720 190" enable-background="new 0 0 720 190" xml:space="preserve">
<g>
	<path fill="#0732A2" d="M233.3,63.8c0,0-13.3,0-14.2,0c-1,0-1.8,0.7-1.8,1.7c0,0.9,0,36.4,0,36.4c0,5.9-2.4,9-7.9,9
		c-5.5,0-7.9-3.1-7.9-9V65.5c0-1-0.6-1.7-1.8-1.7c0,0-13.3,0-14.2,0c-1,0-1.8,0.7-1.8,1.7c0,1,0,40,0,40c0,12.4,9,22.3,25.5,22.3
		c16.7,0,25.9-9.9,25.9-22.3v-40C235.1,64.6,234.3,63.8,233.3,63.8z"/>
	<path fill="#0732A2" d="M336.4,89.3l-10.3-3.6c-3-1.1-3.4-2.8-3.4-3.8c0-1.6,1.5-3.2,4.6-3.2c3.3,0,8.1,0.9,12.7,4.5
		c0.7,0.5,1.6,0.4,2.1-0.2l8-10.1c0.5-0.7,0.4-1.6-0.2-2.2C343.1,65,334.8,63,327,63c-14.9,0-23.7,9.2-23.7,19.2
		c0,7.9,4.6,15.1,14.3,18.4l9.1,3.1c4.5,1.5,5.2,2.7,5.2,4.6c0,1.7-1.8,3.7-5.4,3.7c-5.1,0-11-3-15-6.3c-0.6-0.5-1.5-0.5-2,0.2
		l-8.2,10.8c-0.5,0.7-0.4,1.7,0.2,2.2c5.9,5.1,14.7,8.9,25.8,8.9c14,0,24.1-8.1,24.1-20.2C351.5,99.2,346.3,92.7,336.4,89.3z"/>
	<path fill="#0732A2" d="M285.3,103.1c7.6-3.8,11.5-9.7,11.5-18.4c0-11.1-8.9-20.9-24-20.9h-27.3c-0.9,0-1.6,0.9-1.6,1.8v59.3
		c0,0.9,0.7,1.6,1.6,1.6h14.7c0.9,0,1.6-0.7,1.6-1.6v-19.2h5.8l10.4,19.4c0.4,0.8,1.5,1.4,2.4,1.4h16.9c0.9,0,1.3-0.6,0.8-1.4
		L285.3,103.1z M271.2,90.5h-9.3V79.6h9.3c5.2,0,7.2,2.3,7.2,5.5C278.4,88.2,276.4,90.5,271.2,90.5z"/>
	<path fill="#0732A2" d="M107.4,63.8c0,0-41.5,0-42.8,0c-1.3,0-2,1-2,1.9c0,0.9,0,59.1,0,59.1c0,1,0.7,1.8,1.8,1.8
		c1.1,0,14.4,0,14.4,0c0.9,0,1.6-1,1.6-1.8v-19.1h18.3c0.9,0,1.8-0.7,1.9-1.6l2.8-13.1c0.2-0.8-0.2-1.6-1.3-1.6H80.4v-9.5h24
		c0.9,0,1.8-0.7,1.9-1.6l2.6-12.4C109.3,64.8,108.7,63.8,107.4,63.8z"/>
	<path fill="#0732A2" d="M652.9,79.8c0.9,0,1.8-0.7,1.9-1.6l2.6-12.4c0.2-1.1-0.1-2.1-1.5-2.1c0,0-41.8,0-43,0c-1.2,0-1.9,1-1.9,1.9
		c0,0.9,0,59.1,0,59.1c0,1,0.7,1.8,1.8,1.8c0.3,0,39.1,0,39.1,0c0.9,0,1.8-0.7,1.9-1.6l2.6-12.4c0.2-1.1-0.1-2.1-1.5-2.1
		c0,0-15.2,0-26,0v-7.2h18.1c0.9,0,1.8-0.7,1.9-1.6l2.8-13.1c0.2-0.8-0.2-1.6-1.3-1.6h-21.5v-7.2H652.9z"/>
	<path fill="#0732A2" d="M524.9,65.2c-0.2-0.8-1.1-1.4-1.9-1.4h-19.6c-0.8,0-1.7,0.6-1.9,1.4l-18,59.8c-0.2,0.8,0.2,1.5,1.1,1.5
		h16.1c0.8,0,1.7-0.7,1.9-1.5l2.5-9h16.1l2.8,9c0.2,0.8,1.1,1.5,1.9,1.5h16c0.8,0,1.3-0.7,1.1-1.5L524.9,65.2z M513.1,99.4h-5.8
		l5.8-19.2l5.8,19.2H513.1z"/>
	<path fill="#0732A2" d="M478.4,63.8c0,0-13.3,0-14.2,0c-1,0-1.8,0.7-1.8,1.7c0,0.9,0,36.4,0,36.4c0,5.9-2.4,9-7.9,9
		c-5.5,0-7.9-3.1-7.9-9V65.5c0-1-0.6-1.7-1.8-1.7c0,0-13.3,0-14.3,0c-1,0-1.8,0.7-1.8,1.7c0,1,0,40,0,40c0,12.4,9,22.3,25.5,22.3
		c16.7,0,25.9-9.9,25.9-22.3v-40C480.2,64.6,479.4,63.8,478.4,63.8z"/>
	<path fill="#0732A2" d="M590.7,103.1c7.6-3.8,11.5-9.7,11.5-18.4c0-11.1-8.9-20.9-24-20.9h-27.3c-0.9,0-1.6,0.9-1.6,1.8v59.3
		c0,0.9,0.7,1.6,1.6,1.6h14.7c0.9,0,1.6-0.7,1.6-1.6v-19.2h5.8l10.4,19.4c0.4,0.8,1.5,1.4,2.4,1.4h16.9c0.9,0,1.3-0.6,0.8-1.4
		L590.7,103.1z M576.6,90.5h-9.3V79.6h9.3c5.2,0,7.2,2.3,7.2,5.5C583.8,88.2,581.8,90.5,576.6,90.5z"/>
	<path fill="#0732A2" d="M421.4,118.8c-2,0.8-5.7,1.7-10.1,0.8c0,0,0,0,0,0c0.6-0.6,1.3-1.1,1.8-1.7c8.4-9,10.8-22.4,6.7-33.8
		c-4.3-11.9-15.6-19.9-28.3-20.9c-12.7-1-25.6,5.2-31.8,16.3c-6.4,11.6-5.2,27,3.5,37.1c7.6,8.8,19.4,12.5,30.6,10.9
		c0.2,0.1,0.3,0.3,0.5,0.5c6.2,5.8,16.2,9,24.7,9l3.5-17.2C422.6,119.1,422.2,118.5,421.4,118.8z M388.7,111.2
		c-8.2,0-13.8-7.1-13.8-15.9c0-8.8,5.6-15.9,13.8-15.9c8.2,0,13.7,7.1,13.7,15.9C402.5,104.1,396.9,111.2,388.7,111.2z"/>
	<path fill="#0732A2" d="M146.4,63c-12.7-1-25.6,5.2-31.8,16.3c-6.4,11.6-5.2,27,3.5,37.1c12.5,14.5,36.6,15.1,49.9,1.3
		c8.5-9,10.8-22.4,6.7-33.8C170.4,72.1,159.1,64.1,146.4,63z M143.6,111.2c-8.2,0-13.7-7.1-13.7-15.9c0-8.8,5.6-15.9,13.7-15.9
		c8.2,0,13.7,7.1,13.7,15.9C157.4,104.1,151.8,111.2,143.6,111.2z"/>
</g>
</svg>
