<?xml version="1.0" encoding="utf-8"?>
<!-- Generator: Adobe Illustrator 19.0.0, SVG Export Plug-In . SVG Version: 6.00 Build 0)  -->
<svg version="1.1" id="Layer_1" xmlns="http://www.w3.org/2000/svg" xmlns:xlink="http://www.w3.org/1999/xlink" x="0px" y="0px"
	 viewBox="0 0 297 65" enable-background="new 0 0 297 65" xml:space="preserve">
<g>
	<path fill="#A8B5D8" d="M252.1,14.2l1-1.4l11.2,0.4c0,0,1.7-1.9,3.2-3.5c1.5-1.6,2.7-2.2,3.1-1.9c0.4,0.3-0.4,1.8-1.3,3.2
		c-0.9,1.3-2.9,3.5-2.9,3.5l3,9.8l-1,1.4c0,0-1.3-2.4-2-3.6c-0.8-1.2-2.9-4-2.9-4s-1.9,2-3.7,3.5l0,2.9l-1.1,1.2l-1.2-2.5l-2.7-0.6
		l1.1-1.3l2.6-0.5c0,0,1-1.6,3-4.2l-5.4-1.7C256.1,15,254.5,14.5,252.1,14.2z"/>
	<path fill="#A8B5D8" d="M260.1,35.7l1-1.4l11.2,0.4c0,0,1.7-1.9,3.3-3.5c1.5-1.6,2.7-2.2,3.1-1.9c0.4,0.3-0.4,1.8-1.3,3.2
		c-0.9,1.3-2.9,3.5-2.9,3.5l3,9.8l-1,1.4c0,0-1.3-2.4-2-3.6c-0.8-1.2-2.9-4-2.9-4s-1.9,2-3.7,3.5l0,2.9l-1.1,1.2l-1.2-2.5l-2.7-0.6
		l1.1-1.3l2.6-0.5c0,0,1-1.6,3-4.2l-5.4-1.7C264.1,36.5,262.5,36,260.1,35.7z"/>
	<path fill="#A8B5D8" d="M235.2,34l0.9-1.4l11.2,0.4c0,0,1.7-1.9,3.2-3.5c1.5-1.6,2.7-2.2,3.1-1.9c0.4,0.3-0.4,1.8-1.3,3.2
		c-0.9,1.3-2.9,3.5-2.9,3.5l3,9.8l-1,1.4c0,0-1.3-2.4-2-3.6c-0.8-1.2-2.9-4-2.9-4s-1.9,2-3.7,3.5l0,2.9l-1.1,1.2l-1.2-2.5l-2.7-0.6
		l1.1-1.3l2.6-0.5c0,0,1-1.6,3-4.2l-5.4-1.7C239.2,34.8,237.6,34.3,235.2,34z"/>
</g>
<g>
	<path fill="#00539B" d="M19.1,33.8h3.7v5.5h2.2v3.2h-2.2v11.7h-3.7V42.5h-1.9v-3.2h1.9V33.8z"/>
	<path fill="#00539B" d="M29.6,40.9c1.5-1.3,3.2-2,5.2-2c1.4,0,2.7,0.4,4,1.1c1.2,0.7,2.2,1.7,2.9,2.9c0.7,1.2,1,2.5,1,3.9
		c0,1.4-0.3,2.7-1,3.9c-0.7,1.2-1.6,2.2-2.9,2.9c-1.2,0.7-2.5,1-4,1c-2.1,0-4-0.8-5.5-2.3c-1.5-1.5-2.3-3.4-2.3-5.5
		C27.1,44.4,27.9,42.5,29.6,40.9L29.6,40.9z M34.8,42.4c-1.2,0-2.1,0.4-2.9,1.2c-0.8,0.8-1.2,1.8-1.2,3.1c0,1.3,0.4,2.3,1.1,3.1
		c0.8,0.8,1.7,1.2,2.9,1.2c1.2,0,2.1-0.4,2.9-1.2c0.8-0.8,1.2-1.9,1.2-3.1c0-1.3-0.4-2.3-1.1-3.1C37,42.8,36,42.4,34.8,42.4z"/>
	<path fill="#00539B" d="M46.4,39.3h3.8v7.2c0,1.4,0.1,2.4,0.3,2.9c0.2,0.5,0.5,1,0.9,1.3c0.4,0.3,0.9,0.5,1.6,0.5
		c0.6,0,1.2-0.1,1.6-0.4c0.4-0.3,0.8-0.7,1-1.3c0.2-0.4,0.2-1.3,0.2-2.8v-7.3h3.7v6.3c0,2.6-0.2,4.4-0.6,5.3
		c-0.5,1.2-1.2,2.1-2.2,2.7c-1,0.6-2.2,0.9-3.7,0.9c-1.6,0-3-0.4-4-1.1c-1-0.7-1.7-1.7-2.1-3.1c-0.3-0.9-0.4-2.5-0.4-4.9V39.3z"/>
	<path fill="#00539B" d="M63.1,39.3h3.2v1.9c0.3-0.7,0.8-1.3,1.4-1.7c0.6-0.4,1.2-0.6,1.9-0.6c0.5,0,1,0.1,1.5,0.4L70,42.5
		c-0.4-0.2-0.8-0.3-1.1-0.3c-0.6,0-1.1,0.4-1.5,1.1c-0.4,0.7-0.6,2.1-0.6,4.2l0,0.7v6h-3.7V39.3z"/>
	<path fill="#00539B" d="M75.1,33.2c0.7,0,1.2,0.2,1.7,0.7c0.5,0.5,0.7,1,0.7,1.7c0,0.7-0.2,1.2-0.7,1.7c-0.5,0.5-1,0.7-1.7,0.7
		c-0.7,0-1.2-0.2-1.7-0.7c-0.5-0.5-0.7-1.1-0.7-1.7c0-0.7,0.2-1.2,0.7-1.7C73.9,33.4,74.5,33.2,75.1,33.2z M73.3,39.3H77v14.9h-3.7
		V39.3z"/>
	<path fill="#00539B" d="M95.7,42.3L92.6,44c-0.6-0.6-1.2-1-1.7-1.3c-0.6-0.2-1.2-0.4-2-0.4c-1.4,0-2.5,0.4-3.4,1.2
		c-0.9,0.8-1.3,1.9-1.3,3.2c0,1.3,0.4,2.3,1.2,3.1c0.8,0.8,1.9,1.2,3.3,1.2c1.7,0,3-0.6,3.9-1.7l2.9,2c-1.6,2.1-3.8,3.1-6.8,3.1
		c-2.6,0-4.7-0.8-6.1-2.3c-1.5-1.5-2.2-3.4-2.2-5.4c0-1.4,0.4-2.8,1.1-4c0.7-1.2,1.7-2.2,3-2.9c1.3-0.7,2.7-1,4.3-1
		c1.5,0,2.8,0.3,4,0.9C93.9,40.4,94.9,41.2,95.7,42.3z"/>
	<path fill="#00539B" d="M101.6,40.9c1.5-1.3,3.2-2,5.2-2c1.4,0,2.7,0.4,4,1.1c1.2,0.7,2.2,1.7,2.9,2.9c0.7,1.2,1,2.5,1,3.9
		c0,1.4-0.3,2.7-1,3.9c-0.7,1.2-1.6,2.2-2.9,2.9c-1.2,0.7-2.5,1-4,1c-2.1,0-4-0.8-5.5-2.3c-1.5-1.5-2.3-3.4-2.3-5.5
		C99,44.4,99.9,42.5,101.6,40.9L101.6,40.9z M106.8,42.4c-1.2,0-2.1,0.4-2.9,1.2c-0.8,0.8-1.2,1.8-1.2,3.1c0,1.3,0.4,2.3,1.1,3.1
		c0.8,0.8,1.7,1.2,2.9,1.2c1.2,0,2.1-0.4,2.9-1.2c0.8-0.8,1.2-1.9,1.2-3.1c0-1.3-0.4-2.3-1.1-3.1C108.9,42.8,108,42.4,106.8,42.4z"
		/>
	<path fill="#00539B" d="M118.6,33.5h1.9V42c0.8-1,1.6-1.8,2.6-2.3c0.9-0.5,1.9-0.8,3-0.8c1.1,0,2.1,0.3,3,0.8
		c0.9,0.6,1.5,1.3,1.9,2.3c0.4,1,0.6,2.4,0.6,4.5v7.7h-1.9v-7.1c0-1.7-0.1-2.9-0.2-3.4c-0.2-1-0.7-1.7-1.3-2.2
		c-0.6-0.5-1.4-0.7-2.5-0.7c-1.2,0-2.2,0.4-3.1,1.2c-0.9,0.8-1.5,1.7-1.8,2.8c-0.2,0.7-0.3,2.1-0.3,4v5.5h-1.9V33.5z"/>
	<path fill="#00539B" d="M137.8,41.4c1.5-1.7,3.4-2.5,5.7-2.5c2.3,0,4.2,0.8,5.7,2.5c1.4,1.5,2.1,3.3,2.1,5.4c0,2.1-0.7,3.9-2.2,5.4
		c-1.4,1.6-3.3,2.3-5.6,2.3c-2.3,0-4.2-0.8-5.6-2.3c-1.4-1.6-2.2-3.4-2.2-5.4C135.7,44.7,136.4,42.9,137.8,41.4L137.8,41.4z
		 M143.5,40.8c-1.6,0-3,0.6-4.1,1.8c-1.1,1.2-1.7,2.6-1.7,4.3c0,1.1,0.3,2.1,0.8,3c0.5,0.9,1.2,1.6,2.1,2.1c0.9,0.5,1.9,0.8,2.9,0.8
		c1.1,0,2-0.3,2.9-0.8c0.9-0.5,1.6-1.2,2.1-2.1c0.5-0.9,0.8-1.9,0.8-3c0-1.7-0.6-3.1-1.7-4.3C146.4,41.4,145.1,40.8,143.5,40.8z"/>
	<path fill="#00539B" d="M155.2,33.5h1.9v20.6h-1.9V33.5z"/>
	<path fill="#00539B" d="M162.5,33.2c0.4,0,0.8,0.2,1.1,0.5c0.3,0.3,0.5,0.7,0.5,1.1c0,0.4-0.2,0.8-0.5,1.1
		c-0.3,0.3-0.7,0.5-1.1,0.5c-0.4,0-0.8-0.2-1.1-0.5c-0.3-0.3-0.5-0.7-0.5-1.1c0-0.4,0.2-0.8,0.5-1.1
		C161.7,33.3,162.1,33.2,162.5,33.2z M161.5,39.3h1.9v14.9h-1.9V39.3z"/>
	<path fill="#00539B" d="M183,33.5v20.6h-1.9v-2.6c-0.8,1-1.7,1.7-2.7,2.2c-1,0.5-2.1,0.7-3.3,0.7c-2.1,0-3.9-0.8-5.4-2.3
		c-1.5-1.5-2.2-3.4-2.2-5.6c0-2.1,0.8-4,2.3-5.5c1.5-1.5,3.3-2.3,5.4-2.3c1.2,0,2.3,0.3,3.3,0.8c1,0.5,1.9,1.3,2.6,2.3v-8.5H183z
		 M175.3,40.8c-1.1,0-2.1,0.3-3,0.8c-0.9,0.5-1.6,1.3-2.2,2.2c-0.5,0.9-0.8,1.9-0.8,3c0,1,0.3,2,0.8,3c0.5,1,1.3,1.7,2.2,2.2
		c0.9,0.5,1.9,0.8,2.9,0.8c1,0,2-0.3,3-0.8c0.9-0.5,1.7-1.2,2.2-2.1c0.5-0.9,0.8-1.9,0.8-3c0-1.7-0.6-3.2-1.7-4.3
		C178.4,41.3,177,40.8,175.3,40.8z"/>
	<path fill="#00539B" d="M202.9,39.3v14.9H201v-2.6c-0.8,1-1.7,1.7-2.7,2.2c-1,0.5-2.1,0.7-3.3,0.7c-2.1,0-3.9-0.8-5.4-2.3
		c-1.5-1.5-2.2-3.4-2.2-5.6c0-2.1,0.8-4,2.3-5.5c1.5-1.5,3.3-2.3,5.4-2.3c1.2,0,2.3,0.3,3.3,0.8c1,0.5,1.9,1.3,2.6,2.3v-2.7H202.9z
		 M195.2,40.8c-1.1,0-2.1,0.3-3,0.8c-0.9,0.5-1.6,1.3-2.2,2.2c-0.5,0.9-0.8,1.9-0.8,3c0,1,0.3,2,0.8,3c0.5,1,1.3,1.7,2.2,2.2
		c0.9,0.5,1.9,0.8,2.9,0.8c1,0,2-0.3,3-0.8c0.9-0.5,1.7-1.2,2.2-2.1c0.5-0.9,0.8-1.9,0.8-3c0-1.7-0.6-3.2-1.7-4.3
		C198.3,41.3,196.9,40.8,195.2,40.8z"/>
	<path fill="#00539B" d="M206.3,39.3h2l5.1,11.5l5-11.5h2l-8.9,20.3h-2l2.9-6.6L206.3,39.3z"/>
	<path fill="#00539B" d="M227,38.9c1.4,0,2.8,0.7,4.1,2l-1.2,1.3c-1-1-2-1.5-3-1.5c-0.6,0-1.2,0.2-1.6,0.6c-0.4,0.4-0.7,0.9-0.7,1.4
		c0,0.5,0.2,0.9,0.5,1.4c0.4,0.4,1.1,1,2.3,1.6c1.4,0.7,2.4,1.5,2.9,2.1c0.5,0.7,0.8,1.5,0.8,2.3c0,1.2-0.4,2.3-1.3,3.1
		c-0.9,0.8-1.9,1.3-3.2,1.3c-0.9,0-1.7-0.2-2.5-0.6c-0.8-0.4-1.4-0.9-1.9-1.6l1.2-1.4c1,1.1,2,1.7,3.1,1.7c0.8,0,1.4-0.2,2-0.7
		c0.5-0.5,0.8-1.1,0.8-1.7c0-0.5-0.2-1-0.5-1.5c-0.4-0.4-1.2-0.9-2.4-1.6c-1.3-0.7-2.3-1.4-2.7-2c-0.5-0.7-0.7-1.4-0.7-2.3
		c0-1.1,0.4-2.1,1.2-2.8C224.9,39.3,225.8,38.9,227,38.9L227,38.9z"/>
	<path fill="#00539B" d="M234.4,53.2c0.1,0,0.3,0,0.4,0.2c0.1,0.1,0.2,0.2,0.2,0.4c0,0.1-0.1,0.3-0.2,0.4c-0.1,0.1-0.2,0.2-0.4,0.2
		c-0.1,0-0.3-0.1-0.4-0.2c-0.1-0.1-0.2-0.2-0.2-0.4c0-0.1,0.1-0.3,0.2-0.4C234.2,53.3,234.3,53.2,234.4,53.2z"/>
	<path fill="#00539B" d="M240.9,50.5l-0.5,0.3c-0.4-0.5-1-0.8-1.7-0.8c-0.6,0-1,0.2-1.4,0.5c-0.4,0.4-0.6,0.8-0.6,1.3
		c0,0.3,0.1,0.7,0.3,1c0.2,0.3,0.4,0.5,0.7,0.7c0.3,0.2,0.6,0.2,1,0.2c0.7,0,1.2-0.3,1.7-0.8l0.5,0.3c-0.2,0.3-0.5,0.6-0.9,0.8
		c-0.4,0.2-0.8,0.3-1.3,0.3c-0.7,0-1.3-0.2-1.8-0.7c-0.5-0.5-0.7-1-0.7-1.7c0-0.4,0.1-0.9,0.3-1.2c0.2-0.4,0.5-0.7,0.9-0.9
		c0.4-0.2,0.8-0.3,1.3-0.3c0.3,0,0.6,0,0.9,0.1c0.3,0.1,0.5,0.2,0.7,0.4C240.6,50.1,240.8,50.3,240.9,50.5z"/>
	<path fill="#00539B" d="M242.7,50.2c0.5-0.5,1.1-0.8,1.8-0.8c0.7,0,1.3,0.3,1.8,0.8c0.4,0.5,0.6,1,0.6,1.7c0,0.6-0.2,1.2-0.7,1.7
		c-0.5,0.5-1,0.7-1.7,0.7c-0.7,0-1.3-0.2-1.7-0.7c-0.5-0.5-0.7-1.1-0.7-1.7C242.1,51.2,242.3,50.7,242.7,50.2L242.7,50.2z M244.5,50
		c-0.5,0-0.9,0.2-1.3,0.5c-0.4,0.4-0.5,0.8-0.5,1.3c0,0.3,0.1,0.6,0.2,0.9c0.2,0.3,0.4,0.5,0.7,0.7c0.3,0.2,0.6,0.2,0.9,0.2
		c0.3,0,0.6-0.1,0.9-0.2c0.3-0.2,0.5-0.4,0.7-0.7c0.2-0.3,0.2-0.6,0.2-0.9c0-0.5-0.2-1-0.5-1.3C245.4,50.2,245,50,244.5,50z"/>
	<path fill="#00539B" d="M248.2,49.5h0.6v0.8c0.2-0.3,0.4-0.5,0.6-0.7c0.3-0.2,0.6-0.3,1-0.3c0.2,0,0.4,0,0.6,0.1
		c0.2,0.1,0.4,0.2,0.5,0.4c0.1,0.1,0.2,0.4,0.3,0.6c0.2-0.4,0.4-0.6,0.7-0.8c0.3-0.2,0.6-0.3,1-0.3c0.3,0,0.6,0.1,0.8,0.2
		c0.2,0.2,0.4,0.4,0.5,0.7c0.1,0.3,0.2,0.7,0.2,1.3v2.5h-0.6v-2.5c0-0.5,0-0.8-0.1-1c-0.1-0.2-0.2-0.3-0.4-0.4
		c-0.2-0.1-0.4-0.2-0.6-0.2c-0.3,0-0.6,0.1-0.8,0.3c-0.2,0.2-0.4,0.4-0.5,0.7c-0.1,0.3-0.2,0.8-0.2,1.4v1.8h-0.6v-2.4
		c0-0.6,0-0.9-0.1-1.1c-0.1-0.2-0.2-0.4-0.4-0.5c-0.2-0.1-0.4-0.2-0.6-0.2c-0.3,0-0.5,0.1-0.8,0.2c-0.2,0.2-0.4,0.4-0.5,0.7
		c-0.1,0.3-0.2,0.7-0.2,1.3v2h-0.6V49.5z"/>
</g>
</svg>
