<?xml version="1.0" encoding="utf-8"?>
<!-- Generator: Adobe Illustrator 19.0.0, SVG Export Plug-In . SVG Version: 6.00 Build 0)  -->
<svg version="1.1" id="Full_Color" xmlns="http://www.w3.org/2000/svg" xmlns:xlink="http://www.w3.org/1999/xlink" x="0px" y="0px"
	 viewBox="0 0 875.3 267.3" enable-background="new 0 0 875.3 267.3" xml:space="preserve">
<g id="Wave">
	<path fill="#34A1D6" d="M21.2,182.2c68,32.5,167.5,39.5,246.5,39.5c161,0,189-25.5,400-25.5c90.5,0,144,13,189,26
		c-68.3-37.5-225.7-40-248-40c-118,0-214.7,27-365.5,27C182.7,209.2,82.7,205.2,21.2,182.2z"/>
</g>
<g id="VA">
	<g>
		<path fill="#34A1D6" stroke="#34A1D6" stroke-width="3" stroke-miterlimit="10" d="M781.3,54.1l-38.4,99.2l-37.8-99.2h2.4
			l35.4,92.8l36-92.8H781.3z"/>
		<path fill="#34A1D6" stroke="#34A1D6" stroke-width="3" stroke-miterlimit="10" d="M775.7,151.2l39.5-99.1l39.5,99.1h-2.5
			l-9.7-24.2h-54.5l-9.8,24.2H775.7z M788.8,124.8h52.6l-26.3-66.6L788.8,124.8z"/>
	</g>
</g>
<g id="HAMPTON">
	<g>
		<g>
			<g>
				<path fill="#024F7D" d="M90.3,54.1v97.7H81v-47H31.2v47h-9.4V54.1h9.4v42H81v-42H90.3z"/>
				<path fill="#024F7D" d="M91.4,152.9H79.8v-47H32.3v47H20.7V53h11.6v42h47.5V53h11.6V152.9z M82.1,150.6h7.1V55.2h-7.1v42H30v-42
					h-7.1v95.4H30v-47h52V150.6z"/>
			</g>
			<g>
				<path fill="#024F7D" d="M107.1,151.8l40-100.6l40,100.6h-10l-8.2-20.3H125l-8,20.3H107.1z M128.5,122.8h37.2l-18.6-46.7
					L128.5,122.8z"/>
				<path fill="#024F7D" d="M188.7,152.9h-12.4l-8.2-20.3h-42.4l-8,20.3h-12.3l41.6-104.7L188.7,152.9z M177.8,150.6h7.5l-38.3-96.4
					l-38.3,96.4h7.4l8-20.3h45.4L177.8,150.6z M167.3,124h-40.5l20.3-50.8L167.3,124z M130.1,121.7H164l-16.9-42.5L130.1,121.7z"/>
			</g>
			<g>
				<path fill="#024F7D" d="M201.8,151.8l10.6-100.6l40,61.3L293,51.3l9.8,100.4h-9.5l-7.1-73.7l-34.1,51.5l-33.5-51.5l-7.4,73.7
					H201.8z"/>
				<path fill="#024F7D" d="M304.1,152.9h-11.7l-6.9-71.5l-33.3,50.3l-32.7-50.2l-7.2,71.5h-11.7l11-105l40.8,62.5l41.5-62.4
					L304.1,152.9z M294.4,150.6h7.2l-9.4-96.1l-39.9,60l-39.2-60.1L203,150.6h7.2l7.7-75.8l34.3,52.7l34.9-52.7L294.4,150.6z"/>
			</g>
			<g>
				<path fill="#024F7D" d="M379.3,83.2c0,16.4-13,29.2-29.2,29.2H330v39.4h-9.1V54.1h29.3C366.3,54.1,379.3,66.9,379.3,83.2z
					 M369.7,83.2c0-11.2-8.5-20.5-19.6-20.5h-20v41h20C361.2,103.8,369.7,94.5,369.7,83.2z"/>
				<path fill="#024F7D" d="M331.1,152.9h-11.4V53h30.4c17,0,30.3,13.3,30.3,30.3c0,17-13.3,30.3-30.3,30.3h-19V152.9z M322,150.6
					h6.9v-39.4h21.3c15.7,0,28-12.3,28-28c0-15.7-12.3-28-28-28H322V150.6z M350.1,104.9h-21.2V61.6h21.2c11.4,0,20.7,9.7,20.7,21.6
					C370.8,95.4,361.7,104.9,350.1,104.9z M331.2,102.6h18.9c10.3,0,18.4-8.5,18.4-19.4c0-10.7-8.3-19.4-18.4-19.4h-18.9V102.6z"/>
			</g>
			<g>
				<path fill="#024F7D" d="M458.5,62.7h-28.7v89h-9.4v-89h-29v-8.6h67.1V62.7z"/>
				<path fill="#024F7D" d="M430.9,152.9h-11.6v-89h-29V53h69.3v10.9h-28.7V152.9z M421.6,150.6h7.1v-89h28.7v-6.4h-64.8v6.4h29
					V150.6z"/>
			</g>
			<g>
				<path fill="#024F7D" d="M562.4,102.9c0,29.2-20.5,50.2-48.6,50.2c-28.1,0-48.7-21-48.7-50.2c0-29.2,20.6-50.2,48.7-50.2
					C541.9,52.8,562.4,73.8,562.4,102.9z M513.8,61.6c-22.8,0-39.1,17.4-39.1,41.3c0,23.8,16.3,41.3,39.1,41.3
					c22.8,0,39-17.5,39-41.3C552.8,79,536.6,61.6,513.8,61.6z"/>
				<path fill="#024F7D" d="M513.8,154.2c-28.9,0-49.8-21.6-49.8-51.3c0-29.7,21-51.3,49.8-51.3c28.8,0,49.7,21.6,49.7,51.3
					C563.5,132.6,542.6,154.2,513.8,154.2z M513.8,53.9c-27.6,0-47.6,20.6-47.6,49c0,28.4,20,49,47.6,49c27.5,0,47.5-20.6,47.5-49
					C561.3,74.5,541.3,53.9,513.8,53.9z M513.8,145.3c-23.3,0-40.2-17.8-40.2-42.4s16.9-42.4,40.2-42.4c23.2,0,40.1,17.8,40.1,42.4
					S537,145.3,513.8,145.3z M513.8,62.8c-22,0-38,16.9-38,40.2s16,40.2,38,40.2c21.9,0,37.9-16.9,37.9-40.2S535.7,62.8,513.8,62.8z
					"/>
			</g>
			<g>
				<path fill="#024F7D" d="M655.3,54.1v100.3l-66.5-78.8v76.2h-9.4V51.2l66.5,78.5V54.1H655.3z"/>
				<path fill="#024F7D" d="M656.4,157.5l-66.5-78.8v74.2h-11.6V48.1l66.5,78.5V53h11.6V157.5z M587.7,72.5l66.5,78.8V55.2H647v77.5
					l-66.5-78.5v96.4h7.1V72.5z"/>
			</g>
		</g>
	</g>
</g>
</svg>
