<?xml version="1.0" encoding="utf-8"?>
<!-- Generator: Adobe Illustrator 17.0.0, SVG Export Plug-In . SVG Version: 6.00 Build 0)  -->
<!DOCTYPE svg PUBLIC "-//W3C//DTD SVG 1.1//EN" "http://www.w3.org/Graphics/SVG/1.1/DTD/svg11.dtd">
<svg version="1.1" id="Layer_1" xmlns="http://www.w3.org/2000/svg" xmlns:xlink="http://www.w3.org/1999/xlink" x="0px" y="0px"
	 width="222px" height="44.546px" viewBox="0 0 222 44.546" enable-background="new 0 0 222 44.546" xml:space="preserve">
<g>
	<g>
		<path d="M86.995,12.868h-4.256v6.551h4.922c3.058,0,4.489-1.23,4.489-3.226C92.149,13.899,90.386,12.868,86.995,12.868
			 M86.828,3.857h-4.09v5.42h3.99c2.494,0,4.157-0.865,4.157-2.793C90.886,4.855,89.655,3.857,86.828,3.857 M88.657,23.277H77.751V0
			h9.377c5.753,0,8.679,1.996,8.679,5.654c0,3.258-2.361,4.921-3.824,5.187c1.795,0.299,5.087,1.895,5.087,6.185
			C97.07,20.85,94.444,23.277,88.657,23.277"/>
	</g>
	<polygon points="104.077,23.277 104.077,0 109.064,0 109.064,19.054 120.071,19.054 120.071,23.277 	"/>
	<polygon points="126.512,23.277 126.512,0 142.872,0 142.872,4.223 131.499,4.223 131.499,9.577 140.809,9.577 140.809,13.7 
		131.499,13.7 131.499,19.054 143.071,19.054 143.071,23.277 	"/>
	<g>
		<path d="M212.389,3.924h-5.087v6.417h5.021c2.661,0,4.622-0.732,4.622-3.226C216.945,4.622,214.984,3.924,212.389,3.924
			 M211.226,14.266h-3.924v9.011h-4.987V0h10.307c6.052,0,9.345,2.195,9.345,7.116c0,3.891-2.029,6.086-5.787,6.851l5.82,9.311
			h-5.42L211.226,14.266z"/>
	</g>
	<path d="M33.996,6.849l-2.801,7.168h5.637L33.996,6.849z M32.041,0.138h4.202L46.28,23.205h-5.735l-1.988-4.887h-8.959
		l-1.923,4.887h-5.604L32.041,0.138z"/>
	<path d="M184.735,6.849l-2.801,7.168h5.636L184.735,6.849z M182.781,0.138h4.202l10.036,23.067h-5.735l-1.988-4.887h-8.959
		l-1.923,4.887h-5.604L182.781,0.138z"/>
	<path d="M9.245,12.868H4.988v6.551h4.921c3.06,0,4.49-1.23,4.49-3.226C14.399,13.899,12.636,12.868,9.245,12.868 M9.078,3.857
		h-4.09v5.42h3.99c2.494,0,4.157-0.865,4.157-2.793C13.136,4.855,11.905,3.857,9.078,3.857 M10.907,23.277H0V0h9.378
		c5.753,0,8.679,1.996,8.679,5.654c0,3.258-2.361,4.921-3.824,5.187c1.795,0.299,5.087,1.895,5.087,6.185
		C19.32,20.85,16.693,23.277,10.907,23.277"/>
	<path d="M69.581,13.9c0,5.42-1.863,9.743-9.644,9.743c-7.813,0-9.71-4.323-9.71-9.743V0.001h4.988v14.299
		c0,2.826,0.799,5.087,4.722,5.087c3.857,0,4.689-2.261,4.689-5.087V0.001h4.955V13.9z"/>
	<path d="M159.621,12.868h-4.256v6.551h4.922c3.059,0,4.489-1.23,4.489-3.226C164.775,13.899,163.013,12.868,159.621,12.868
		 M159.455,3.857h-4.09v5.42h3.99c2.494,0,4.157-0.865,4.157-2.793C163.512,4.855,162.281,3.857,159.455,3.857 M161.283,23.277
		h-10.906V0h9.377c5.753,0,8.679,1.996,8.679,5.654c0,3.258-2.361,4.921-3.824,5.187c1.795,0.299,5.087,1.895,5.087,6.185
		C169.696,20.85,167.069,23.277,161.283,23.277"/>
</g>
</svg>
