<?xml version="1.0" encoding="utf-8"?>
<!-- Generator: Adobe Illustrator 16.0.3, SVG Export Plug-In . SVG Version: 6.00 Build 0)  -->
<!DOCTYPE svg PUBLIC "-//W3C//DTD SVG 1.1//EN" "http://www.w3.org/Graphics/SVG/1.1/DTD/svg11.dtd">
<svg version="1.1" id="Layer_1" xmlns="http://www.w3.org/2000/svg" xmlns:xlink="http://www.w3.org/1999/xlink" x="0px" y="0px"
	 width="185px" height="49.987px" viewBox="0 0 185 49.987" enable-background="new 0 0 185 49.987" xml:space="preserve">
<g>
	<rect x="97.7" y="17.252" fill="#AD29B6" width="5.711" height="17.291"/>
	<path fill="#AD29B6" d="M95.878,20.96h-8.072l-4.723,4.713h6.484c-0.846,1.895-2.75,3.217-4.959,3.217
		c-2.997,0-5.428-2.432-5.428-5.427c0-3,2.431-5.435,5.428-5.435c1.085,0,2.1,0.318,2.947,0.868l4.373-4.369
		c-1.998-1.64-4.551-2.624-7.337-2.624c-6.381,0-11.553,5.173-11.553,11.56c0,6.378,5.172,11.55,11.553,11.55
		c6.387,0,11.562-5.172,11.562-11.55C96.153,22.602,96.056,21.762,95.878,20.96"/>
	<rect x="97.7" y="12.302" fill="#AD29B6" width="5.711" height="3.486"/>
	<polygon fill="#AD29B6" points="116.28,34.664 111.347,34.664 111.301,34.544 104.541,17.243 110.635,17.243 113.849,26.858 
		117.089,17.243 123.09,17.243 	"/>
	<rect x="124.138" y="17.252" fill="#AD29B6" width="5.717" height="17.291"/>
	<rect x="124.138" y="12.302" fill="#AD29B6" width="5.717" height="3.486"/>
	<path fill="#AD29B6" d="M147.591,34.543h-5.707v-9.589c0-1.8-0.746-2.718-2.215-2.718c-1.904,0-2.296,1.482-2.296,2.718v9.589
		h-5.716V17.252h3.958l1.569,1.559c1.238-1.255,2.674-1.864,4.357-1.864c3.732,0,6.049,2.514,6.049,6.566V34.543z"/>
	<path fill="#AD29B6" d="M17.631,34.842c-2.983,0-5.46-1.129-7.339-3.367L9.974,31.1l3.871-3.869l0.223,0.242
		c1.225,1.346,2.253,1.926,3.442,1.926c1.544,0,2.271-0.932,2.271-2.934V12.302h5.899V26.68
		C25.68,31.865,22.744,34.842,17.631,34.842"/>
	<path fill="#AD29B6" d="M163.12,17.252l-1.453,1.463c-1.373-1.21-2.916-1.768-4.83-1.768c-3.876,0-7.803,2.804-7.803,8.162v0.064
		c0,5.362,3.927,8.167,7.803,8.167c1.838,0,3.279-0.516,4.607-1.657c-0.246,2.042-1.479,3.401-3.945,3.401
		c-1.486,0-2.766-0.268-4.098-0.864l-3.736,3.737l0.516,0.27c2.175,1.151,4.746,1.764,7.439,1.764c6.584,0,9.646-3.348,9.646-9.6
		V17.252H163.12z M161.841,25.176c0,1.995-1.547,3.44-3.68,3.44c-2.145,0-3.639-1.413-3.639-3.44v-0.067
		c0-1.995,1.531-3.44,3.639-3.44c2.133,0,3.68,1.445,3.68,3.44V25.176z"/>
	<path fill="#AD29B6" d="M33.645,34.842c-3.733,0-6.05-2.515-6.05-6.567V17.252h5.71v9.575c0,1.808,0.745,2.722,2.205,2.722
		c1.907,0,2.302-1.482,2.302-2.722v-9.575h5.725v17.291h-3.967l-1.566-1.564C36.763,34.234,35.335,34.842,33.645,34.842"/>
	<path fill="#AD29B6" d="M67.165,34.814c-3.544,0-5.271-1.772-5.271-5.426v-7.088h-1.927v-5.049h1.927v-4.95h5.714v4.95h3.797v5.049
		h-3.797v6.338c0,0.768,0.211,1,0.916,1c0.704,0,1.38-0.166,1.986-0.506l0.837-0.453v4.957l-0.273,0.16
		C69.907,34.493,68.671,34.814,67.165,34.814"/>
	<path fill="#AD29B6" d="M53.831,23.9l-0.53-0.176c-1.333-0.452-2.598-0.877-2.598-1.442v-0.061c0-0.562,0.699-0.763,1.354-0.763
		c0.916,0,2.153,0.383,3.48,1.056l3.296-3.295l-0.262-0.173c-1.854-1.248-4.254-1.992-6.42-1.992c-3.874,0-6.474,2.276-6.474,5.663
		v0.065c0,3.373,2.652,4.606,5.24,5.363c0.217,0.069,0.428,0.13,0.634,0.194c1.361,0.401,2.538,0.747,2.538,1.362v0.064
		c0,0.701-0.868,0.852-1.6,0.852c-1.392,0-3.034-0.587-4.592-1.623l-3.144,3.149l-0.045,0.064l0.279,0.215
		c2.125,1.679,4.747,2.603,7.381,2.603c4.223,0,6.748-2.146,6.748-5.757v-0.066C59.116,25.664,55.673,24.52,53.831,23.9"/>
	<polygon fill="#AD29B6" points="168.45,18.035 169.269,18.035 169.269,20.007 170.188,20.007 170.188,18.035 170.997,18.035 
		170.997,17.252 168.45,17.252 	"/>
	<polygon fill="#AD29B6" points="173.445,17.252 172.849,18.216 172.253,17.252 171.298,17.252 171.298,20.007 172.202,20.007 
		172.202,18.635 172.617,19.277 173.065,19.277 173.485,18.635 173.485,20.007 174.411,20.007 174.411,17.252 	"/>
</g>
</svg>
