<?xml version="1.0" encoding="UTF-8"?>
<svg width="196px" height="29px" viewBox="0 0 196 29" version="1.1" xmlns="http://www.w3.org/2000/svg" xmlns:xlink="http://www.w3.org/1999/xlink">
    <!-- Generator: Sketch 52.5 (67469) - http://www.bohemiancoding.com/sketch -->
    <title>Group</title>
    <desc>Created with Sketch.</desc>
    <defs>
        <polygon id="path-1" points="0.122238023 0.109868933 9.32118917 0.109868933 9.32118917 14.1030401 0.122238023 14.1030401"></polygon>
    </defs>
    <g id="FINAL" stroke="none" stroke-width="1" fill="none" fill-rule="evenodd">
        <g id="s4-desktop-neat-layers" transform="translate(-200.000000, -4371.000000)">
            <g id="s7-by-the-numbers" transform="translate(178.000000, 3755.000000)">
                <g id="Group-54" transform="translate(0.000000, 571.000000)">
                    <g id="Group-52" transform="translate(0.000000, 30.500000)">
                        <g id="Group-32" transform="translate(0.000000, 0.802813)">
                            <g id="Group-31" transform="translate(3.000000, 0.000000)">
                                <g id="Group-26" transform="translate(0.000000, 0.040177)">
                                    <g id="squarespace-logo-horizontal-black" transform="translate(0.500000, 0.037810)">
                                        <g id="squarespace-logo" transform="translate(19.185066, 14.027389)">
                                            <g id="Group">
                                                <path d="M7.24949068,14.9676384 L18.1973703,3.88570649 C18.941186,3.13278309 19.9308687,2.71877349 20.9858053,2.71877349 C22.039965,2.71877349 23.0296477,3.13238991 23.7726866,3.88531334 L24.625647,4.74871793 L26.3319564,3.02151555 L25.4789959,2.15811094 C24.2807341,0.945176865 22.6851231,0.277178488 20.9850284,0.277178488 C19.2857106,0.27757166 17.6897112,0.945570034 16.4914494,2.15889728 L5.54356976,13.240436 L7.24949068,14.9676384 Z" id="Fill-1" fill="#000000"></path>
                                                <path d="M21.8971006,7.56676157 L20.1827188,5.84211782 L9.18343559,16.9076331 C7.63881387,18.4615006 5.12558402,18.4618932 3.58135256,16.9084183 C2.03673085,15.3545508 2.03673085,12.8258846 3.58135256,11.2720171 L13.0726978,1.72425116 L11.358316,0 L1.86736101,9.54776598 C-0.622453668,12.0524842 -0.622453668,16.1283438 1.86736101,18.6326695 C3.07129179,19.8438067 4.67445145,20.5112081 6.38180868,20.5112081 C8.08955618,20.5112081 9.69349637,19.8434141 10.8974271,18.6322769 L21.8971006,7.56676157 Z" id="Fill-3" fill="#000000"></path>
                                                <path d="M32.7796491,9.6391797 C31.5761032,8.42801925 29.9729364,7.76099767 28.264791,7.76099767 C26.5570358,7.76139026 24.9530885,8.42841184 23.7491524,9.63996489 L12.7502105,20.7052994 L14.4638194,22.4299761 L25.4635418,11.3642491 C27.0085607,9.8103518 29.5214115,9.81074439 31.0656497,11.3638565 C31.8125975,12.1152863 32.2239262,13.1156224 32.2239262,14.1815221 C32.2239262,15.2478144 31.8125975,16.248543 31.0656497,16.9999729 L21.5746525,26.5479216 L23.289042,28.2722058 L32.7796491,18.7246497 C35.269865,16.2198835 35.269865,12.1439458 32.7796491,9.6391797" id="Fill-5" fill="#000000"></path>
                                                <path d="M27.3978522,13.3045674 L16.4501771,24.3864993 C14.9124689,25.9422789 12.4115081,25.9430653 10.8745766,24.3868924 L10.0216321,23.5234879 L8.31535464,25.2506902 L9.16829918,26.1140949 C10.3665386,27.3270289 11.9621198,27.9950273 13.6625711,27.9950273 C15.3618572,27.9946343 16.9574383,27.3266357 18.1560662,26.1133085 L29.1037413,15.0317698 L27.3978522,13.3045674 Z" id="Fill-7" fill="#000000"></path>
                                                <path d="M44.7574191,17.021671 C44.8986374,17.7287915 45.2295688,18.2823795 45.7494381,18.6812477 C46.2689194,19.0809074 46.9525086,19.2803415 47.8002058,19.2803415 C48.634324,19.2803415 49.2791171,19.084073 49.7349726,18.6911403 C50.1908282,18.2986033 50.4185619,17.78142 50.4185619,17.1395903 C50.4185619,16.8254025 50.3576516,16.5602817 50.2358317,16.3442281 C50.1136237,16.1281744 49.9436961,15.9449641 49.7256614,15.7942014 C49.5068509,15.6442301 49.2376052,15.5160225 48.9167606,15.411557 C48.595916,15.3066958 48.2362749,15.1955033 47.8382258,15.0775839 L46.7988755,14.7831812 C46.1824037,14.6130291 45.6303337,14.406868 45.1426653,14.1643023 C44.6546092,13.9221323 44.2375498,13.6372264 43.8910997,13.3099803 C43.5446496,12.9827343 43.2812233,12.6064211 43.1015969,12.1806451 C42.9219706,11.7552647 42.8319633,11.2606365 42.8319633,10.6979473 C42.8319633,10.1087461 42.9475761,9.56544642 43.1788014,9.06765251 C43.4096387,8.57065003 43.7370788,8.14447832 44.1607334,7.79111585 C44.5843879,7.43775342 45.0976618,7.15957448 45.7013308,6.95618332 C46.3042239,6.75397928 46.9843215,6.65228371 47.7420114,6.65228371 C49.1669962,6.65228371 50.2963536,6.9957536 51.1312482,7.68308906 C51.9653667,8.37082019 52.4530348,9.29043311 52.5946411,10.4427191 L50.2839391,10.6389876 C50.1423327,10.0497864 49.8602842,9.59156279 49.4366296,9.26431672 C49.0129751,8.93707065 48.4224968,8.77324976 47.665195,8.77324976 C46.9591038,8.77324976 46.4070338,8.94023628 46.0093728,9.2742093 C45.6109356,9.6081823 45.4119112,10.0371239 45.4119112,10.5606385 C45.4119112,10.8617682 45.4701054,11.1134351 45.5857182,11.3164305 C45.7013308,11.5198217 45.8677665,11.6963051 46.0861892,11.8466721 C46.3042239,11.9974347 46.5707538,12.1315779 46.8850032,12.2491016 C47.1996404,12.367021 47.5557896,12.492063 47.9538387,12.6226449 L48.9361587,12.9368328 C49.5518544,13.1331013 50.1074163,13.3392623 50.6012918,13.555316 C51.0955556,13.7713696 51.5161064,14.0301591 51.8625567,14.3312888 C52.2093946,14.6324185 52.4759247,14.9925079 52.6617585,15.411557 C52.8479803,15.8306061 52.9410912,16.3477894 52.9410912,16.963107 C52.9410912,17.6179948 52.8126758,18.2170886 52.5562328,18.7599926 C52.2990139,19.303688 51.940149,19.7650772 51.4776983,20.1445561 C51.0156354,20.5244306 50.467057,20.819229 49.8311871,21.02816 C49.1957053,21.2374867 48.493106,21.3427436 47.7230014,21.3427436 C46.2980165,21.3427436 45.1104647,21.0024393 44.1607334,20.3214351 C43.2106143,19.6404309 42.6267314,18.6127912 42.4083087,17.2377246 L44.7574191,17.021671 Z" id="Fill-9" fill="#000000"></path>
                                                <path d="M62.8809283,9.04065524 C62.1882728,9.04065524 61.5689164,9.17102928 61.0236345,9.4309896 C60.4779649,9.69134383 60.0160655,10.0521373 59.6379361,10.5137638 C59.2590312,10.9757842 58.9701014,11.5224887 58.7711474,12.1526956 C58.5725809,12.7840841 58.4732978,13.4702218 58.4732978,14.2115026 C58.4732978,14.9531774 58.5756836,15.6424661 58.7812306,16.2801567 C58.9860023,16.9174534 59.2784223,17.4700661 59.6569395,17.9387824 C60.0350688,18.406711 60.497356,18.7742004 61.0430259,19.0412506 C61.5879197,19.307513 62.2072762,19.4406442 62.9003194,19.4406442 C63.5933627,19.4406442 64.2123313,19.3142089 64.758001,19.0605507 C65.3028951,18.8068924 65.7651822,18.452401 66.1436994,17.9966827 C66.5222165,17.5417521 66.8142488,16.9918966 67.0194082,16.3482978 C67.2245677,15.7043052 67.3273413,14.9984735 67.3273413,14.2311966 C67.3273413,13.4765239 67.2245677,12.7805392 67.0194082,12.1432425 C66.8142488,11.5063396 66.5222165,10.9596352 66.1436994,10.5043107 C65.7651822,10.0493801 65.2997923,9.69134383 64.7479175,9.4309896 C64.1964304,9.17102928 63.5739715,9.04065524 62.8809283,9.04065524 M62.9003194,6.9294622 C63.9396902,6.9294622 64.8894737,7.10867728 65.7492816,7.46710745 C66.6087015,7.8255376 67.3401395,8.32694594 67.943595,8.97212023 C68.546275,9.61768841 69.0143796,10.3896918 69.3486849,11.2889183 C69.6822143,12.1881447 69.848979,13.1720552 69.848979,14.2406497 C69.848979,15.3490261 69.6725186,16.3490856 69.3199858,17.2416161 C68.9662894,18.1345405 68.4632806,18.9065439 67.8086318,19.5580202 L69.656618,21.7672892 L69.656618,22.4514575 L67.3083377,22.4514575 L66.0184319,20.8487627 C65.5693307,21.0571248 65.0876521,21.219797 64.5749476,21.337173 C64.0614672,21.454549 63.5095924,21.513237 62.9197108,21.513237 C61.8543556,21.513237 60.8952646,21.3336281 60.0420496,20.9755918 C59.1884468,20.6171616 58.4632143,20.1153594 57.8667395,19.4701851 C57.2698769,18.8250109 56.8079773,18.0565524 56.4810411,17.1632341 C56.1537169,16.2707036 55.9900546,15.2966401 55.9900546,14.2406497 C55.9900546,13.1720552 56.1537169,12.1916896 56.4810411,11.2983714 C56.8079773,10.4062348 57.2729794,9.63698849 57.8764352,8.9918142 C58.4791152,8.34663992 59.2074505,7.84168665 60.0610529,7.47656054 C60.9146557,7.1122222 61.8609486,6.9294622 62.9003194,6.9294622" id="Fill-11" fill="#000000" fill-rule="nonzero"></path>
                                                <path d="M79.2730476,19.3201601 C80.257781,19.3201601 81.0249301,19.0095717 81.5748813,18.3876035 C82.1244459,17.7656353 82.3996149,16.813296 82.3996149,15.53019 L82.3996149,6.9294622 L84.8166174,6.9294622 L84.8166174,15.5891424 C84.8166174,16.6103255 84.6886948,17.4839296 84.4328496,18.2107461 C84.1766181,18.937167 83.8125602,19.533022 83.3395174,19.9979155 C82.8664743,20.462809 82.2844458,20.8030715 81.5942048,21.0190986 C80.9035775,21.2351257 80.1298584,21.3427436 79.2730476,21.3427436 C78.4030966,21.3427436 77.6262859,21.2351257 76.9426149,21.0190986 C76.2581711,20.8030715 75.6796209,20.462809 75.2065778,19.9979155 C74.733535,19.533022 74.3690908,18.937167 74.1128592,18.2107461 C73.857014,17.4839296 73.7294778,16.6103255 73.7294778,15.5891424 L73.7294778,6.9294622 L76.1464804,6.9294622 L76.1464804,15.53019 C76.1464804,16.813296 76.4212629,17.7656353 76.9712139,18.3876035 C77.5211651,19.0095717 78.2883142,19.3201601 79.2730476,19.3201601" id="Fill-13" fill="#000000"></path>
                                                <path d="M91.7410967,15.023967 L96.3659831,15.023967 L95.6048016,12.8235574 C95.3052041,11.9617498 95.0649757,11.26017 94.8829371,10.7199846 C94.7005051,10.1794103 94.5377318,9.70339383 94.3950101,9.29154623 L93.7903111,9.29154623 C93.7120697,9.51010934 93.6338283,9.72906139 93.5559803,9.9476245 C93.4777391,10.1665765 93.3900615,10.4111961 93.2925548,10.6810944 C93.1946548,10.9513815 93.0877121,11.26017 92.9705466,11.6078487 C92.8533813,11.9547496 92.7102666,12.3603747 92.5412024,12.8235574 L91.7410967,15.023967 Z M87.3112238,20.3900417 L92.2876062,7.20664069 L95.9759561,7.20664069 L100.89297,20.3900417 L100.89297,21.0655651 L98.4733869,21.0655651 L97.068582,17.1084836 L90.9995736,17.1084836 L89.5947687,21.0655651 L87.3112238,21.0655651 L87.3112238,20.3900417 Z" id="Fill-15" fill="#000000" fill-rule="nonzero"></path>
                                                <path d="M106.338278,13.5377598 L108.444913,13.5377598 C109.372844,13.5377598 110.103741,13.3685826 110.638382,13.0310058 C111.173024,12.6930402 111.440928,12.1415612 111.440928,11.375791 C111.440928,10.5979644 111.169908,10.0562082 110.628648,9.75013347 C110.087776,9.44444765 109.359994,9.29121581 108.444913,9.29121581 L106.338278,9.29121581 L106.338278,13.5377598 Z M114.474716,21.0655651 L112.136001,21.0655651 L107.903652,15.6223349 L106.338278,15.6223349 L106.338278,21.0655651 L103.941933,21.0655651 L103.941933,7.20664069 L108.444913,7.20664069 C109.153225,7.20664069 109.826881,7.25486592 110.464322,7.35131641 C111.102154,7.44776691 111.67885,7.66983641 112.19441,8.01713595 C113.289004,8.73740332 113.837274,9.82480483 113.837274,11.2781737 C113.837274,11.908991 113.743819,12.4589144 113.556519,12.9287216 C113.369609,13.3981399 113.121563,13.7967761 112.812772,14.1250189 C112.503202,14.4532617 112.145736,14.7200562 111.740374,14.9254024 C111.334234,15.1315264 110.912128,15.285925 110.474057,15.3885981 L114.474716,20.3896338 L114.474716,21.0655651 Z" id="Fill-17" fill="#000000" fill-rule="nonzero"></path>
                                                <polygon id="Fill-19" fill="#000000" points="117.523679 7.20664069 126.534695 7.20664069 126.534695 9.32965866 119.907329 9.32965866 119.907329 12.9585066 126.069679 12.9585066 126.069679 15.0430232 119.907329 15.0430232 119.907329 18.9421582 126.670569 18.9421582 126.670569 21.0655651 117.523679 21.0655651"></polygon>
                                                <path d="M132.068944,17.021671 C132.209769,17.7287915 132.540689,18.2823795 133.060539,18.6812477 C133.580389,19.0809074 134.263953,19.2803415 135.111231,19.2803415 C135.945319,19.2803415 136.590088,19.084073 137.046314,18.6911403 C137.501765,18.2986033 137.729878,17.78142 137.729878,17.1395903 C137.729878,16.8254025 137.668971,16.5602817 137.546767,16.3442281 C137.424951,16.1281744 137.254642,15.9449641 137.036616,15.7942014 C136.818201,15.6442301 136.548577,15.5160225 136.228133,15.411557 C135.906912,15.3066958 135.547284,15.1955033 135.14925,15.0775839 L134.109938,14.7831812 C133.493877,14.6130291 132.941439,14.406868 132.453788,14.1643023 C131.96575,13.9221323 131.548706,13.6372264 131.202657,13.3099803 C130.855831,12.9827343 130.592415,12.6064211 130.412795,12.1806451 C130.233175,11.7552647 130.143171,11.2606365 130.143171,10.6979473 C130.143171,10.1087461 130.25878,9.56544642 130.489997,9.06765251 C130.720826,8.57065003 131.048253,8.14447832 131.471893,7.79111585 C131.895532,7.43775342 132.408787,7.15957448 133.012433,6.95618332 C133.615304,6.75397928 134.295765,6.65228371 135.053039,6.65228371 C136.477971,6.65228371 137.607287,6.9957536 138.442151,7.68308906 C139.276238,8.37082019 139.764277,9.29043311 139.90549,10.4427191 L137.594873,10.6389876 C137.45366,10.0497864 137.171234,9.59156279 136.747983,9.26431672 C136.324344,8.93707065 135.733499,8.77324976 134.976225,8.77324976 C134.27016,8.77324976 133.71811,8.94023628 133.320464,9.2742093 C132.922429,9.6081823 132.723412,10.0371239 132.723412,10.5606385 C132.723412,10.8617682 132.781216,11.1134351 132.896825,11.3164305 C133.012433,11.5198217 133.178863,11.6963051 133.397277,11.8466721 C133.615304,11.9974347 133.881824,12.1315779 134.19645,12.2491016 C134.511076,12.367021 134.867212,12.492063 135.264858,12.6226449 L136.247142,12.9368328 C136.863203,13.1331013 137.418356,13.3392623 137.912602,13.555316 C138.406459,13.7713696 138.827383,14.0301591 139.173432,14.3312888 C139.520257,14.6324185 139.786778,14.9925079 139.972993,15.411557 C140.15882,15.8306061 140.252315,16.3477894 140.252315,16.963107 C140.252315,17.6179948 140.123904,18.2170886 139.867083,18.7599926 C139.609873,19.303688 139.251022,19.7650772 138.788588,20.1445561 C138.326542,20.5244306 137.777984,20.819229 137.142525,21.02816 C136.506679,21.2374867 135.804106,21.3427436 135.034029,21.3427436 C133.609485,21.3427436 132.421589,21.0024393 131.471893,20.3214351 C130.521808,19.6404309 129.937947,18.6127912 129.719532,17.2377246 L132.068944,17.021671 Z" id="Fill-21" fill="#000000"></path>
                                                <path d="M146.31147,13.6534751 L148.669135,13.6534751 C149.1014,13.6534751 149.497643,13.6184739 149.857863,13.5480825 C150.217688,13.4780801 150.532387,13.3602427 150.800771,13.1941814 C151.069551,13.028509 151.278954,12.805279 151.429772,12.5244915 C151.580194,12.2440929 151.655405,11.8995254 151.655405,11.491178 C151.655405,11.0703856 151.580194,10.7168734 151.429772,10.4298634 C151.278954,10.1428535 151.072322,9.91651232 150.810667,9.75045101 C150.548616,9.58438971 150.237481,9.4665523 149.877656,9.39654987 C149.517039,9.32654745 149.127526,9.29115733 148.70872,9.29115733 L146.31147,9.29115733 L146.31147,13.6534751 Z M143.855635,7.20664069 L149.00323,7.20664069 C149.9592,7.20664069 150.761582,7.31592225 151.40998,7.53487429 C152.058377,7.7534374 152.582083,8.05561454 152.981888,8.44218348 C153.380902,8.82797461 153.669474,9.28143476 153.846022,9.80295282 C154.02257,10.3236931 154.111239,10.8868237 154.111239,11.4915669 C154.111239,12.2125918 153.99011,12.8395024 153.747852,13.3734654 C153.505594,13.9074283 153.155269,14.3480547 152.696878,14.6957334 C152.238091,15.0430232 151.68153,15.3035878 151.0268,15.4774271 C150.371673,15.6512665 149.631835,15.7379917 148.80689,15.7379917 L146.31147,15.7379917 L146.31147,21.0655651 L143.855635,21.0655651 L143.855635,7.20664069 Z" id="Fill-23" fill="#000000" fill-rule="nonzero"></path>
                                                <path d="M159.095469,15.023967 L163.720356,15.023967 L162.959174,12.8235574 C162.659577,11.9617498 162.418955,11.26017 162.236916,10.7199846 C162.054878,10.1794103 161.892104,9.70339383 161.749383,9.29154623 L161.14429,9.29154623 C161.066442,9.51010934 160.988201,9.72906139 160.90996,9.9476245 C160.832112,10.1665765 160.744041,10.4111961 160.646534,10.6810944 C160.549027,10.9513815 160.442085,11.26017 160.324919,11.6078487 C160.207754,11.9547496 160.064639,12.3603747 159.895575,12.8235574 L159.095469,15.023967 Z M154.665596,20.3900417 L159.641979,7.20664069 L163.329936,7.20664069 L168.247342,20.3900417 L168.247342,21.0655651 L165.82776,21.0655651 L164.422955,17.1084836 L158.353946,17.1084836 L156.948748,21.0655651 L154.665596,21.0655651 L154.665596,20.3900417 Z" id="Fill-25" fill="#000000" fill-rule="nonzero"></path>
                                                <path d="M182.937802,17.4013382 C182.71763,17.94243 182.428898,18.4516011 182.072783,18.9292411 C181.715885,19.406881 181.284942,19.8253512 180.779564,20.1827053 C180.274186,20.5400594 179.687321,20.8226727 179.019752,21.0305453 C178.352183,21.238418 177.610179,21.3427436 176.793347,21.3427436 C175.756343,21.3427436 174.813363,21.1621202 173.964406,20.8012626 C173.115449,20.4411836 172.390683,19.9417443 171.790497,19.3045018 C171.190312,18.6664807 170.726853,17.907006 170.400121,17.0245204 C170.073388,16.1424242 169.910413,15.1859765 169.910413,14.1551773 C169.910413,13.1251568 170.073388,12.1687091 170.400121,11.2862235 C170.726853,10.4041273 171.193054,9.64075981 171.7999,8.99651033 C172.406745,8.35303942 173.135038,7.84698243 173.983994,7.48028576 C174.832951,7.11281053 175.782199,6.9294622 176.832524,6.9294622 C178.361586,6.9294622 179.642268,7.28409137 180.672612,7.99218188 C181.703348,8.70027235 182.432424,9.64075981 182.860233,10.8128656 L180.390933,11.2955661 C180.053622,10.5874756 179.583503,10.0300344 178.980967,9.62441027 C178.37804,9.21878613 177.648964,9.01597405 176.793347,9.01597405 C176.106581,9.01597405 175.49386,9.14754888 174.955965,9.4106985 C174.418071,9.67384813 173.964406,10.0362628 173.594971,10.4983318 C173.225536,10.9600114 172.943464,11.5053851 172.749148,12.1344529 C172.554833,12.7631314 172.457675,13.4365764 172.457675,14.1551773 C172.457675,14.8866243 172.557967,15.5635729 172.758942,16.1860229 C172.959527,16.8088623 173.251392,17.3472291 173.633756,17.8030696 C174.016119,18.2585209 174.479578,18.6143179 175.024133,18.8708499 C175.568295,19.1277711 176.190811,19.2562317 176.890505,19.2562317 C177.798226,19.2562317 178.546499,19.0370701 179.136498,18.5991362 C179.726498,18.1612023 180.183297,17.6267282 180.507287,16.9953248 L182.937802,17.4013382 Z" id="Fill-27" fill="#000000"></path>
                                                <g id="Group-31" transform="translate(185.986766, 6.929462)">
                                                    <g id="Fill-29-Clipped">
                                                        <mask id="mask-2" fill="white">
                                                            <use xlink:href="#path-1"></use>
                                                        </mask>
                                                        <g id="path-1"></g>
                                                        <polygon id="Fill-29" fill="#000000" mask="url(#mask-2)" points="0.122238023 0.109868933 9.18465798 0.109868933 9.18465798 2.25345187 2.51948547 2.25345187 2.51948547 5.9174512 8.71698857 5.9174512 8.71698857 8.02215987 2.51948547 8.02215987 2.51948547 11.9590645 9.32130697 11.9590645 9.32130697 14.1030401 0.122238023 14.1030401"></polygon>
                                                    </g>
                                                </g>
                                            </g>
                                        </g>
                                    </g>
                                </g>
                            </g>
                        </g>
                    </g>
                </g>
            </g>
        </g>
    </g>
</svg>