<?xml version="1.0" encoding="utf-8"?>
<!-- Generator: Adobe Illustrator 19.0.0, SVG Export Plug-In . SVG Version: 6.00 Build 0)  -->
<svg version="1.1" id="Layer_1" xmlns="http://www.w3.org/2000/svg" xmlns:xlink="http://www.w3.org/1999/xlink" x="0px" y="0px"
	 viewBox="0 0 789 236" enable-background="new 0 0 789 236" xml:space="preserve">
<g>
	<defs>
		<rect id="SVGID_1_" x="13" width="763" height="230"/>
	</defs>
	<clipPath id="SVGID_2_">
		<use xlink:href="#SVGID_1_"  overflow="visible"/>
	</clipPath>
	<g clip-path="url(#SVGID_2_)">
		<text transform="matrix(1 0 0 1 724.5352 33.2866)" fill="#004990" font-family="'Arial-BoldMT'" font-size="38.4772px">®</text>
	</g>
	<path clip-path="url(#SVGID_2_)" fill="#004990" d="M636.9,64.2c-0.4-1-0.6-2.1-0.6-3.2l0-16.9c0-5.7,5.8-10.3,12.9-10.3l31.1,0
		c7.1,0,12.9,4.6,12.9,10.3l0,16.9c0,1.2-0.2,2.1-0.7,3.1c-6.6-8-16.5-12.9-27.7-12.9C653.6,51.2,643.6,56.3,636.9,64.2L636.9,64.2"
		/>
</g>
<g>
	<defs>
		<rect id="SVGID_3_" x="13" y="0.3" width="762.5" height="229.7"/>
	</defs>
	<clipPath id="SVGID_4_">
		<use xlink:href="#SVGID_3_"  overflow="visible"/>
	</clipPath>
	<path clip-path="url(#SVGID_4_)" fill="#004990" d="M584.9,105.8c6.5,0,6.8,14.1,6.8,18c0,3.8-0.3,18-6.8,18
		c-6.5,0-6.7-14.2-6.7-18C578.2,119.9,578.5,105.8,584.9,105.8"/>
	<path clip-path="url(#SVGID_4_)" fill="#004990" d="M766.6,47.1l-20.3-1c-5.1-0.3-9.5,3.7-9.8,8.8l-1.8,4.7
		c-10.9-22.3-28.4-52.5-44.3-53.4c-3.7-0.2-83.5-0.1-83.5-0.1c-39.6,0-79.2,0-82.9,0.2c-22.8,1.4-49.1,63.1-54.1,75.2
		c-27,24.9-16.2,105.4-8.4,112.2c0.1,0,2.5,0,6.6,0l0,20.8c0,8.6,6.9,15.5,15.5,15.5l21,0c8.5,0,15.5-6.9,15.5-15.5V194
		c0-0.1,0-0.1,0-0.1l174.5,0l0,20.6c0,8.6,6.9,15.5,15.5,15.5l21.1,0c8.5,0,15.5-6.9,15.5-15.5v-20.7c3.5,0,5.8,0,6.6,0
		c7.8-6.7,18.7-87.8-8.8-112.3c-0.5-1.2-1.2-2.8-2-4.9l22.8-0.8c5.1,0.2,9.5-3.7,9.7-8.9l0.5-10.1C775.8,51.7,771.8,47.3,766.6,47.1
		 M489.5,158.4c-11.6,0-21.1-9.4-21.1-21.1c0-11.6,9.4-21.1,21.1-21.1c11.6,0,21.1,9.4,21.1,21.1
		C510.6,148.9,501.2,158.4,489.5,158.4z M555.2,106.9c-1.8-1.6-3.2-2.1-5.5-2.1c-9.2,0-11.2,11.1-11.2,18c0,7.2,1.5,18,10.9,18
		c2.2,0,4-0.8,5.8-2l0,17.2c-3.5,1.6-7,2.4-10.9,2.4c-18.3,0-24.7-19.2-24.7-34.6c0-17,6.7-35.4,26.2-35.4c3.3,0,6.3,0.7,9.4,2
		L555.2,106.9z M584.8,158.6c-13.7,0-25.6-8-25.6-34.9c0-29.3,14.9-35.1,25.6-35.1c12.3,0,25.6,8,25.6,35.1
		C610.4,151.2,597.5,158.6,584.8,158.6z M692,157.2h-18.8l0-36.6c0-3.5,0.9-13.3-4.7-13.3c-4.4,0-5.1,4.5-5.1,7.6v42.3h-18.8l0-37.8
		c0-3.3,0.9-11.9-4.5-11.9c-4.7,0-5.3,4.3-5.3,7.8l0,4.1v37.8l-18.9,0l0-67.4h18.9l0.1,10.9l0.3,0c3.2-6.5,8.6-12.2,16.6-12.2
		c7,0,10.7,5.3,11.6,11.5l0.3,0c3.1-6,9-11.5,16.2-11.5c12.1,0,12.1,13.5,12.1,22.1L692,157.2z M688.3,70L688.3,70
		c-5.2-7.5-13.9-12.4-23.7-12.4c-8.6,0-16.3,3.8-21.6,9.7l-0.1,0c-3-0.1-34.4-1.4-34.4-1.4c-11.2-0.1-22.9,0.1-34.9,0.4
		c0.7-1.2,1.1-2.6,1.1-4.1l0-16.8c0-5.6-5.7-10.2-12.7-10.2l-30.7,0c-7.1,0-12.8,4.6-12.7,10.2l0,16.8c0,2.7,1.3,5.2,3.5,7
		c-14.3,1.3-27.5,3.1-38.4,5.4c7.2-18.7,24.2-56,45.7-56.7c2.2-0.1,37.2-0.1,74.1-0.2l0,3.7l-13.4,0c-3.9,0-7.1,3.6-7.1,8
		c0,4.4,3.2,8,7.1,8l33.7,0c3.9,0,7.1-3.6,7.1-8c0-4.4-3.2-8-7.1-8l-13.7,0l0-3.7c15.4,0,73.2,0,75.1,0.1
		c21.6,0.7,38.6,38.4,45.8,57C722.8,73.2,691.1,70.2,688.3,70z M744.1,138.1c0,11.6-9.4,21.1-21.1,21.1c-11.6,0-21.1-9.4-21.1-21.1
		c0-11.6,9.5-21.1,21.1-21.1C734.7,117,744.1,126.5,744.1,138.1z"/>
	<path clip-path="url(#SVGID_4_)" fill="#BF2F38" d="M48.5,114.9H33.2l0-2.2c0-4.7,1.3-13.3,7.7-13.3c6.5,0,7.6,8.8,7.6,13.7
		L48.5,114.9 M66.5,119.2C67.7,95.7,55,83.4,41.3,83.4c-21.8,0-28.3,22.5-28.3,40.4c0,18.5,7.5,37.2,28.7,37.2
		c15.2,0,21.9-10.8,23.6-24.5H47.6c0,4.4-1.3,8.5-6.7,8.5c-8,0-7.7-11.7-7.9-17.2l33,0L66.5,119.2z"/>
</g>
<g>
	<defs>
		<rect id="SVGID_5_" x="13" width="763" height="230"/>
	</defs>
	<clipPath id="SVGID_6_">
		<use xlink:href="#SVGID_5_"  overflow="visible"/>
	</clipPath>
	<path clip-path="url(#SVGID_6_)" fill="#BF2F38" d="M99.9,142c-7.4,0-7.7-15.4-7.7-20.2c0-4.3,0.4-20,7.4-20c7.1,0,7.5,15.8,7.5,20
		C107.1,125.8,106.5,142,99.9,142 M105.6,159.5l20.9,0V40.1l-20.9,0v54l-0.3,0c-2.4-6-7.1-10.6-14-10.6c-17.5,0-20,25.8-20,38.7
		c0,12,3.4,38.9,20.3,38.9c6.6,0,10.9-4.3,13.7-9.9l0.3,0V159.5z"/>
	<path clip-path="url(#SVGID_6_)" fill="#BF2F38" d="M154.3,96.9l0.3,0c3.5-7.2,9.5-13.5,18.4-13.5c7.7,0,11.9,5.9,12.9,12.7h0.3
		c3.4-6.7,9.9-12.7,17.9-12.7c13.5,0,13.5,15,13.5,24.5l0,51.6l-20.9,0l0-40.5c0-3.8,1-14.8-5.2-14.8c-4.9,0-5.6,5-5.6,8.4l0,46.9
		H165v-41.8c0-3.7,1-13.1-4.9-13.1c-5.2,0-5.9,4.7-5.9,8.6l0,46.4l-20.9,0V84.9l20.9,0L154.3,96.9"/>
	<path clip-path="url(#SVGID_6_)" fill="#BF2F38" d="M245.1,84.9l0,41c0,4.1-1.6,15.7,5.4,15.7c5.7,0,5.2-7.4,5.2-11.1l0.2-45.6
		l20.8,0v47.6c0,17.3-8.2,28.5-26.7,28.5c-23.8,0-25.7-17.7-25.7-31.3V84.9H245.1"/>
	<path clip-path="url(#SVGID_6_)" fill="#BF2F38" d="M304.8,96.4l0.3,0c2.8-7.1,9.2-13,17.4-13c15.4,0,14.1,17.1,14.1,27.9l0,48.2
		h-20.9l0-41c0-3.8,1.5-14.2-5.2-14.2c-4.7,0-5.6,4.9-5.6,8.6l0,46.6l-20.9,0l0-74.6l20.9,0L304.8,96.4"/>
	<path clip-path="url(#SVGID_6_)" fill="#BF2F38" d="M370.2,142c-7.3,0-7.6-15.4-7.6-20.2c0-4.3,0.4-20,7.3-20
		c7.1,0,7.5,15.8,7.5,20C377.4,125.8,376.8,142,370.2,142 M375.9,159.5l20.9,0V40.1h-20.9l0,54l-0.3,0c-2.4-6-7.1-10.6-14-10.6
		c-17.5,0-20,25.8-20,38.7c0,12,3.4,38.9,20.3,38.9c6.6,0,10.9-4.3,13.7-9.9l0.3,0L375.9,159.5z"/>
	<path clip-path="url(#SVGID_6_)" fill="#BF2F38" d="M438.8,105c-3-2.7-5.8-4.9-10.1-4.9c-3.7,0-5.6,2.2-5.6,5.5
		c0.3,8.7,23.8,7,23.9,29.3c0,14.8-8.6,26.1-24,26.1c-8,0-16.3-3.4-22.5-8.5l9.2-14.8c3.1,2.7,6.2,4.9,10.4,4.9
		c3.2,0,6.1-2.4,6.1-6.2c0.3-9.9-23.8-7.4-23.9-31.1c0-14.2,11.9-21.9,25.1-21.9c7.5,0,13.9,1.9,20,6.4L438.8,105"/>
</g>
</svg>
