<?xml version="1.0" encoding="utf-8"?>
<!-- Generator: Adobe Illustrator 19.0.0, SVG Export Plug-In . SVG Version: 6.00 Build 0)  -->
<svg version="1.1" id="Layer_1" xmlns="http://www.w3.org/2000/svg" xmlns:xlink="http://www.w3.org/1999/xlink" x="0px" y="0px"
	 viewBox="0 0 652 107" enable-background="new 0 0 652 107" xml:space="preserve">
<g>
	<g>
		<polygon fill="#434344" points="251.1,51.3 284.8,51.3 284.8,39.4 251.1,39.4 251.1,24.4 287.8,24.4 287.8,11.6 235.7,11.6 
			235.7,81.2 288.6,81.2 288.6,68.3 251.1,68.3 		"/>
		<polygon fill="#434344" points="339.2,30.8 323.9,30.8 315.1,43.9 306.2,30.8 290.4,30.8 307,54.7 288.8,81.2 304.3,81.2 
			314.9,65.3 325.4,81.2 341.2,81.2 322.6,54.4 		"/>
		<path fill="#434344" d="M387.8,37.6c-1.9-2.5-4.3-4.5-7.1-5.9c-2.9-1.5-6.3-2.2-10.2-2.2c-3.1,0-6,0.6-8.6,1.9
			c-2.6,1.2-4.7,3.2-6.4,5.9h-0.2v-6.4H342v68.1h13.9V75h0.2c1.7,2.5,3.8,4.3,6.5,5.6c2.6,1.3,5.5,1.9,8.6,1.9
			c3.7,0,6.9-0.7,9.7-2.1c2.8-1.4,5.1-3.4,6.9-5.8c1.9-2.4,3.2-5.2,4.2-8.3c0.9-3.1,1.4-6.4,1.4-9.8c0-3.6-0.5-7-1.4-10.3
			C391.1,43,389.7,40.1,387.8,37.6z M378.9,62.1c-0.4,1.9-1.1,3.7-2,5.1c-0.9,1.5-2.2,2.6-3.7,3.6c-1.5,0.9-3.4,1.4-5.7,1.4
			c-2.2,0-4.1-0.5-5.7-1.4c-1.6-0.9-2.8-2.1-3.8-3.6c-0.9-1.5-1.6-3.2-2.1-5.1c-0.4-2-0.6-3.9-0.6-6c0-2.1,0.2-4.1,0.6-6
			c0.4-2,1.1-3.7,2-5.2c0.9-1.5,2.2-2.7,3.7-3.7c1.5-0.9,3.4-1.4,5.7-1.4c2.2,0,4.1,0.5,5.6,1.4c1.5,0.9,2.8,2.2,3.8,3.7
			c1,1.5,1.7,3.3,2.1,5.2c0.4,2,0.6,3.9,0.6,5.9S379.3,60.2,378.9,62.1z"/>
		<path fill="#434344" d="M443.6,48.1c-0.9-3.6-2.4-6.8-4.4-9.6c-2.1-2.8-4.7-5-7.9-6.7c-3.2-1.7-6.9-2.5-11.2-2.5
			c-3.8,0-7.3,0.7-10.5,2.1c-3.2,1.4-5.9,3.2-8.1,5.6s-4,5.2-5.3,8.4c-1.2,3.2-1.9,6.8-1.9,10.5c0,3.9,0.6,7.5,1.8,10.7
			c1.2,3.2,2.9,6,5.1,8.4c2.2,2.3,4.9,4.1,8.1,5.4c3.2,1.3,6.8,1.9,10.7,1.9c5.7,0,10.6-1.3,14.6-3.9s7-6.9,9-13h-12.2
			c-0.5,1.6-1.7,3-3.7,4.4c-2,1.4-4.4,2.1-7.2,2.1c-3.9,0-6.9-1-9-3c-2.1-2-3.2-5.3-3.4-9.8h36.4C444.8,55.5,444.5,51.7,443.6,48.1z
			 M408.2,50.6c0.1-1,0.3-2.1,0.6-3.3c0.4-1.2,1-2.4,1.9-3.5c0.9-1.1,2.1-2,3.5-2.8c1.5-0.7,3.3-1.1,5.5-1.1c3.4,0,5.9,0.9,7.6,2.7
			c1.7,1.8,2.8,4.5,3.5,8H408.2z"/>
		<path fill="#434344" d="M490.5,35.1c-1.4-1.8-3.2-3.2-5.6-4.2c-2.4-1-5.4-1.5-9.1-1.5c-2.9,0-5.8,0.7-8.6,2
			c-2.8,1.3-5.1,3.5-6.8,6.4h-0.3v-7h-13.2v50.5h13.9V54.8c0-5.1,0.8-8.8,2.5-11.1c1.7-2.2,4.4-3.4,8.2-3.4c3.3,0,5.6,1,6.9,3.1
			c1.3,2.1,2,5.2,2,9.3v28.5h13.9v-31c0-3.1-0.3-6-0.8-8.5C492.8,39.1,491.9,36.9,490.5,35.1z"/>
		<path fill="#434344" d="M537.3,55.1c-1.5-1.1-3.2-1.9-5.1-2.6s-3.9-1.2-5.9-1.7c-1.9-0.5-3.9-0.9-5.8-1.3c-1.9-0.4-3.6-0.8-5-1.3
			c-1.5-0.5-2.6-1.1-3.6-1.9c-0.9-0.8-1.4-1.8-1.4-3c0-1,0.3-1.9,0.8-2.5c0.5-0.6,1.2-1.1,1.9-1.4c0.7-0.3,1.6-0.5,2.5-0.6
			c0.9-0.1,1.8-0.1,2.5-0.1c2.5,0,4.6,0.5,6.4,1.4c1.8,0.9,2.8,2.7,3,5.4h13.2c-0.3-3.1-1.1-5.7-2.4-7.8c-1.3-2.1-3-3.7-5-4.9
			c-2-1.2-4.3-2.1-6.9-2.6c-2.6-0.5-5.2-0.8-8-0.8c-2.7,0-5.4,0.2-8,0.7c-2.6,0.5-4.9,1.3-7,2.5c-2.1,1.2-3.7,2.8-5,4.9
			c-1.3,2.1-1.9,4.7-1.9,8c0,2.2,0.4,4.1,1.4,5.6c0.9,1.5,2.1,2.8,3.6,3.8c1.5,1,3.2,1.8,5.1,2.4c1.9,0.6,3.9,1.2,5.9,1.6
			c4.9,1,8.8,2.1,11.6,3.1c2.8,1,4.1,2.6,4.1,4.7c0,1.2-0.3,2.3-0.9,3.1c-0.6,0.8-1.3,1.5-2.2,2c-0.9,0.5-1.9,0.8-2.9,1.1
			c-1.1,0.2-2.1,0.3-3.1,0.3c-1.4,0-2.7-0.2-4-0.5c-1.3-0.3-2.4-0.8-3.4-1.5c-1-0.7-1.8-1.6-2.4-2.6c-0.6-1.1-0.9-2.4-0.9-3.9h-13.2
			c0.1,3.4,0.9,6.2,2.3,8.4c1.4,2.2,3.2,4,5.4,5.4c2.2,1.4,4.7,2.3,7.5,2.9c2.8,0.6,5.7,0.9,8.6,0.9c2.9,0,5.7-0.3,8.4-0.8
			c2.8-0.5,5.2-1.5,7.4-2.9s3.9-3.2,5.2-5.4c1.3-2.2,2-5,2-8.3c0-2.3-0.5-4.3-1.4-5.9C540,57.5,538.8,56.2,537.3,55.1z"/>
		<rect x="543.6" y="30.8" fill="#434344" width="13.9" height="50.4"/>
		<rect x="543.6" y="11.6" fill="#434344" width="13.9" height="11.4"/>
		<path fill="#434344" d="M624.7,30.8l-11,34.5h-0.2L602,30.8h-11.1h-3.6h-6v-3c0-2.1,0.4-3.6,1.2-4.4s2.2-1.3,4.1-1.3
			c1.8,0,3.4,0.1,5.1,0.3V11.9c-1.2-0.1-2.4-0.1-3.6-0.2c-1.2-0.1-2.5-0.1-3.7-0.1c-5.7,0-9.9,1.4-12.7,4.3c-2.8,2.9-4.2,6.5-4.2,11
			v3.9h-8.3V40h8.3v41.2h13.9V40h9.4L605,78.1c0.4,1,0.6,2,0.6,3.1c0,1.5-0.4,2.9-1.3,4.1c-0.9,1.2-2.2,2-4.1,2.1
			c-1.4,0.1-2.7,0-4.1-0.1c-1.4-0.1-2.7-0.3-4-0.4v11.4c1.4,0.1,2.8,0.2,4.2,0.3c1.4,0.1,2.8,0.1,4.2,0.1c4.7,0,8.4-0.9,11.1-2.6
			c2.7-1.8,4.7-4.7,6.3-8.8L639,30.8H624.7z"/>
	</g>
	<path fill="#00A5D5" d="M228,74.6c0,3.6-2.9,6.5-6.5,6.5H165c-3.6,0-6.5-2.9-6.5-6.5V18.1c0-3.6,2.9-6.5,6.5-6.5h56.5
		c3.6,0,6.5,2.9,6.5,6.5L228,74.6L228,74.6z"/>
	<path fill="#AFBD37" d="M154.8,74.6c0,3.6-2.9,6.5-6.5,6.5H91.8c-3.6,0-6.5-2.9-6.5-6.5V18.1c0-3.6,2.9-6.5,6.5-6.5h56.5
		c3.6,0,6.5,2.9,6.5,6.5V74.6z"/>
	<path fill="#F9D111" d="M81.5,74.6c0,3.6-2.9,6.5-6.5,6.5H18.5c-3.6,0-6.5-2.9-6.5-6.5V18.1c0-3.6,2.9-6.5,6.5-6.5H75
		c3.6,0,6.5,2.9,6.5,6.5V74.6z"/>
	<g>
		<path fill="#FFFFFF" d="M213.4,21.9c3.1-3.1,7.9,1.6,4.6,4.8l-13.2,13.2l7.4,29.5l-4.9,4.9l-12.3-24.4l-9.8,9.8l0.9,7.6l-3.8,3.8
			l-4.5-8.6l-8.6-4.5l3.8-3.8l7.5,0.9l9.8-9.8l-24.4-12.3l4.9-4.9l29.2,7.1L213.4,21.9z"/>
	</g>
	<g>
		<g>
			<path fill="#434344" d="M118,37.2c0,1.8-1.7,3.8-3.9,3.8v31.1c0,4.4-6,4.4-6,0V41c-2.1,0-4-1.6-4-4.1V19.8c0-1.5,2.2-1.5,2.2,0.1
				v12.6h1.8V19.7c0-1.4,2.1-1.5,2.1,0.1v12.7h1.9V19.7c0-1.4,2-1.5,2,0.1v12.7h1.8V19.7c0-1.4,2.1-1.5,2.1,0.1V37.2z"/>
		</g>
		<g>
			<path fill="#434344" d="M134,23.7v48.3c0,4.3-6,4.3-6,0V52.9h-3.2V23.7C124.8,17,134,17,134,23.7z"/>
		</g>
	</g>
	<path fill="#434344" d="M70.2,41.4l-4.7-12c-0.9-2.3-2.8-4.2-6.3-4.2h-6.6h0v-3.7c0-0.6-0.5-1.2-1.2-1.2h-8.9
		c-0.6,0-1.2,0.5-1.2,1.2v3.7h-6.6c-3.6,0-5.5,2-6.3,4.2l-4.7,12c-1.8,0.2-5.1,2.4-5.1,6.5v15.3h4.5V68c0,6,8.5,5.9,8.5,0v-4.9h15.3
		l0,0h0h15.3V68c0,5.9,8.5,6,8.5,0v-4.9h4.5V47.9C75.3,43.8,72,41.6,70.2,41.4z M27.5,54c-2.2,0-3.9-1.8-3.9-4.1
		c0-2.2,1.8-4.1,3.9-4.1c2.2,0,3.9,1.8,3.9,4.1C31.5,52.1,29.7,54,27.5,54z M47,41.3L47,41.3L47,41.3H28.5l3.5-9.5
		c0.4-1.3,1.1-2.3,2.6-2.3h12.3h0h0h12.3c1.5,0,2.2,1,2.6,2.3l3.5,9.5H47z M66.4,54c-2.2,0-3.9-1.8-3.9-4.1c0-2.2,1.8-4.1,3.9-4.1
		s3.9,1.8,3.9,4.1C70.3,52.1,68.5,54,66.4,54z"/>
</g>
</svg>
