<?xml version="1.0" encoding="utf-8"?>
<!-- Generator: Adobe Illustrator 19.0.0, SVG Export Plug-In . SVG Version: 6.00 Build 0)  -->
<svg version="1.1" id="Layer_1" xmlns="http://www.w3.org/2000/svg" xmlns:xlink="http://www.w3.org/1999/xlink" x="0px" y="0px"
	 viewBox="-374.2 231.2 244 110" enable-background="new -374.2 231.2 244 110" xml:space="preserve">
<g>
	<path fill="#AC162C" d="M-250.9,292.6v-26.5c0-6.1,4.9-11,11-11c6.1,0,11,4.9,11,11c0,2.8-1.1,5.4-2.9,7.3h0.1L-250.9,292.6z"/>
	<g>
		<path fill="#57C1E8" d="M-327.4,294.9c0-13.6,10.7-23.6,24.5-23.6c13.8,0,24.5,10,24.5,23.6s-10.7,23.6-24.5,23.6
			C-316.6,318.5-327.4,308.5-327.4,294.9z M-291.9,294.9c0-7.2-4.2-12.4-11-12.4c-6.8,0-11,5.2-11,12.4c0,7.2,4.2,12.4,11,12.4
			C-296.1,307.3-291.9,302.1-291.9,294.9z"/>
		<path fill="#57C1E8" d="M-275.4,294.9c0-13.6,10.7-23.6,24.5-23.6c13.8,0,24.5,10,24.5,23.6s-10.7,23.6-24.5,23.6
			C-264.6,318.5-275.4,308.5-275.4,294.9z M-239.9,294.9c0-7.2-4.2-12.4-11-12.4c-6.8,0-11,5.2-11,12.4c0,7.2,4.2,12.4,11,12.4
			C-244.1,307.3-239.9,302.1-239.9,294.9z"/>
	</g>
	<path fill="#F7323F" d="M-250.9,292.6v-26.5c0-6.1-4.9-11-11-11c-6.1,0-11,4.9-11,11c0,2.8,1.1,5.4,2.9,7.3h-0.1L-250.9,292.6z"/>
	<path fill="#57C1E8" d="M-330.9,306.4H-345l20.7-33.4v-0.5h-37.9v5.4c0,3,2.4,5.4,5.4,5.4h12.4l-20.8,33.5v0.5h39.7v-5.4
		C-325.5,308.8-327.9,306.4-330.9,306.4z"/>
	<path fill="#57C1E8" d="M-203.7,289.4c-7.5-1.4-9.2-2.2-9.2-4.5c0-1.7,1.7-3.1,5.1-3.1c3.4,0,6.4,1.2,8.6,3.2l6.9-8
		c-4.3-3.6-9.2-5.7-15.9-5.7c-10.1,0-16.5,5.8-16.5,14.1c0,8.3,5.5,12.6,14.8,14.5c7.3,1.6,8.6,2.5,8.6,4.6c0,1.8-1.8,3.3-6.5,3.3
		c-4,0-7.7-1.5-10.8-4.6l-7.2,8.3c5.1,4.6,11.6,7,18.2,7c12.3,0,18.7-5.8,18.7-14.8C-188.8,296.3-193.6,291.3-203.7,289.4z"/>
	<path fill="#57C1E8" d="M-159,290.8l16-18.3h-9.5c-4.8,0-7.1,1.7-9,3.9l0,0l-11.4,13.5v-41.1c0-2.6-1.8-4.8-4.3-5.3h-8.8v73.7h13.1
		v-6.7c0-2.2,0.3-4.4,1.4-5.6l0,0l3.7-4.2l7.8,11.7c2.3,3.5,6,4.8,8.7,4.8h10.1L-159,290.8z"/>
</g>
</svg>
