<svg xmlns="http://www.w3.org/2000/svg" width="118" height="42" viewBox="0 0 118 42">
  <path d="M15.9324826 35.4473557C21.4849532 35.4473557 25.7781878 31.1531822 25.7781878 24.7987819L25.7781878.0676099927 31.7879649.0676099927 31.7879649 40.1415551 25.8354685 40.1415551 25.8354685 36.4201884C23.1451542 39.2250641 19.4247265 40.8279843 15.2451143 40.8279843 6.65770622 40.8279843.0741831864 34.5881454.0741831864 25.1462221L.0741831864.0741831864 6.08396031.0741831864 6.08396031 24.7987819C6.08396031 31.2677436 10.3199142 35.4473557 15.9306045 35.4473557M36.2549196.0685490204L42.036513.0685490204 42.036513 14.6666733C44.7607145 11.8762093 48.4980149 10.306638 52.3977443 10.315219 60.9851524 10.315219 67.7395785 17.1278648 67.7395785 25.6007115 67.7395785 34.0162776 60.9851524 40.8280377 52.3977443 40.8280377 48.4796514 40.8385849 44.7224766 39.2703876 41.9745371 36.4774691L41.9745371 40.139677 36.2464683 40.139677 36.2549196.0685490204zM51.9977185 35.7337592C57.4938475 35.7337592 62.0162048 31.2104629 62.0162048 25.6007115 62.0162048 19.9327405 57.4938475 15.4676639 51.9977185 15.4676639 46.4443089 15.4676639 41.9219516 19.9327405 41.9219516 25.6007115 41.9219516 31.2104629 46.3870282 35.7337592 51.9977185 35.7337592M85.0298951 10.3724997C93.4445221 10.3724997 99.6280194 16.8414614 99.6280194 25.5434308L99.6280194 27.4327545 75.8734362 27.4327545C76.6753659 32.1842346 80.6249163 35.7337592 85.5454213 35.7337592 88.9259209 35.7337592 91.7861992 34.3590227 93.9609873 31.4395856L98.1405995 34.5308647C95.2202234 38.4240735 90.8697082 40.7707036 85.5454213 40.7707036 76.7871102 40.7707036 70.0317451 34.2444613 70.0317451 25.5434308 70.0317451 17.2997069 76.5007067 10.3724997 85.0308341 10.3724997M75.9851805 22.8531166L93.7891453 22.8531166C92.8163126 18.3871009 89.2095073 15.4103832 84.9162728 15.4103832 80.6230382 15.4103832 77.0162329 18.3871009 75.9851805 22.8531166M115.141696 16.0977515C111.363048 16.0977515 108.615453 19.0171885 108.615453 23.5395458L108.615453 40.1415551 102.832921 40.1415551 102.832921 10.9453066 108.56099 10.9453066 108.56099 14.554929C109.992068 12.2073598 112.339637 10.7190009 115.545478 10.7190009L117.548424 10.7190009 117.548424 16.1005685 115.141696 16.0977515z" transform="translate(.048 .53)"/>
</svg>
