<?xml version="1.0" encoding="utf-8"?>
<!-- Generator: Adobe Illustrator 19.0.0, SVG Export Plug-In . SVG Version: 6.00 Build 0)  -->
<svg version="1.1" id="Layer_1" xmlns="http://www.w3.org/2000/svg" xmlns:xlink="http://www.w3.org/1999/xlink" x="0px" y="0px"
	 viewBox="0 0 258.228 91.667" enable-background="new 0 0 258.228 91.667" xml:space="preserve">
<g>
	<path fill="#231F20" d="M63.917,61.045H48.862l-2.63,8.514H34.494l16.715-45.575h10.329l16.84,45.575h-11.8L63.917,61.045z
		 M51.491,52.562h9.797l-4.914-15.807L51.491,52.562z"/>
	<path fill="#231F20" d="M77.011,52.374c0-2.567,0.282-4.914,0.845-7.042c0.563-2.129,1.397-3.954,2.504-5.478
		c1.106-1.523,2.478-2.702,4.116-3.537c1.637-0.835,3.541-1.252,5.711-1.252c1.607,0,3.037,0.313,4.289,0.939
		c1.252,0.626,2.367,1.503,3.35,2.629V21.48h10.579v48.079h-9.483l-0.533-3.631c-1.001,1.315-2.18,2.353-3.537,3.115
		c-1.356,0.762-2.932,1.142-4.726,1.142c-2.149,0-4.038-0.433-5.665-1.299c-1.628-0.865-2.995-2.06-4.1-3.584
		c-1.107-1.523-1.941-3.333-2.504-5.43c-0.564-2.097-0.845-4.377-0.845-6.84V52.374z M87.559,53.032
		c0,1.273,0.084,2.458,0.251,3.553c0.166,1.096,0.453,2.05,0.86,2.864c0.407,0.813,0.949,1.45,1.628,1.909
		c0.678,0.459,1.518,0.688,2.52,0.688c1.188,0,2.201-0.255,3.036-0.767c0.835-0.511,1.491-1.236,1.973-2.175V46.208
		c-0.961-2.003-2.609-3.005-4.946-3.005c-0.981,0-1.812,0.23-2.489,0.688c-0.678,0.459-1.226,1.101-1.643,1.925
		c-0.417,0.824-0.72,1.795-0.908,2.911c-0.188,1.116-0.282,2.332-0.282,3.646V53.032z"/>
	<path fill="#231F20" d="M130.369,60.043c0-0.439-0.098-0.824-0.296-1.158c-0.199-0.334-0.549-0.652-1.049-0.955
		c-0.501-0.302-1.18-0.589-2.035-0.861c-0.856-0.271-1.94-0.553-3.255-0.845c-1.649-0.354-3.198-0.819-4.648-1.393
		c-1.451-0.574-2.714-1.283-3.788-2.128c-1.075-0.845-1.921-1.841-2.536-2.989c-0.615-1.148-0.922-2.462-0.922-3.944
		c0-1.44,0.307-2.806,0.922-4.1c0.615-1.294,1.519-2.431,2.709-3.412c1.188-0.981,2.649-1.758,4.381-2.332
		c1.732-0.574,3.704-0.861,5.916-0.861c2.275,0,4.33,0.271,6.167,0.813c1.836,0.543,3.396,1.299,4.68,2.269
		c1.283,0.97,2.269,2.129,2.957,3.474c0.688,1.346,1.033,2.833,1.033,4.461h-10.58c0-1.294-0.323-2.295-0.97-3.005
		c-0.647-0.709-1.753-1.064-3.318-1.064c-0.544,0-1.049,0.078-1.518,0.235c-0.47,0.157-0.883,0.375-1.236,0.657
		c-0.356,0.282-0.638,0.621-0.845,1.017c-0.209,0.397-0.314,0.835-0.314,1.314c0,0.919,0.444,1.67,1.331,2.254
		c0.886,0.585,2.321,1.065,4.304,1.44c1.711,0.313,3.355,0.715,4.93,1.205c1.576,0.491,2.968,1.148,4.179,1.972
		c1.211,0.825,2.176,1.852,2.896,3.083c0.719,1.231,1.079,2.744,1.079,4.539c0,1.502-0.344,2.89-1.033,4.163
		c-0.689,1.273-1.675,2.374-2.959,3.302c-1.283,0.928-2.832,1.659-4.648,2.191s-3.86,0.798-6.135,0.798
		c-2.44,0-4.596-0.344-6.464-1.033c-1.867-0.688-3.432-1.581-4.695-2.676c-1.263-1.096-2.217-2.327-2.864-3.694
		c-0.647-1.366-0.97-2.728-0.97-4.085h9.859c0.043,1.565,0.564,2.708,1.566,3.428c1.001,0.72,2.285,1.08,3.849,1.08
		c1.441,0,2.52-0.292,3.24-0.877C130.009,61.744,130.369,60.982,130.369,60.043z"/>
	<path fill="#231F20" d="M153.863,69.559h-10.58V21.48h10.58V69.559z"/>
	<path fill="#231F20" d="M156.462,52.312c0-2.462,0.355-4.747,1.065-6.855c0.71-2.107,1.753-3.933,3.13-5.478
		c1.377-1.544,3.084-2.749,5.117-3.615c2.035-0.865,4.368-1.299,6.997-1.299c2.67,0,5.024,0.433,7.058,1.299
		c2.035,0.867,3.742,2.071,5.118,3.615c1.377,1.545,2.42,3.371,3.13,5.478c0.708,2.108,1.065,4.393,1.065,6.855v0.657
		c0,2.484-0.351,4.774-1.049,6.87c-0.701,2.097-1.737,3.913-3.116,5.447c-1.377,1.534-3.082,2.734-5.117,3.599
		c-2.035,0.866-4.377,1.299-7.027,1.299s-4.992-0.433-7.027-1.299c-2.035-0.865-3.745-2.065-5.133-3.599
		c-1.388-1.534-2.436-3.349-3.146-5.447c-0.71-2.097-1.065-4.387-1.065-6.87V52.312z M167.011,52.969
		c0,1.273,0.088,2.462,0.266,3.568c0.177,1.106,0.49,2.066,0.938,2.88c0.449,0.813,1.049,1.455,1.801,1.925
		c0.751,0.47,1.689,0.704,2.816,0.704c1.106,0,2.03-0.235,2.77-0.704c0.74-0.469,1.33-1.111,1.769-1.925
		c0.437-0.814,0.751-1.774,0.938-2.88c0.189-1.106,0.282-2.295,0.282-3.568v-0.657c0-1.231-0.089-2.4-0.266-3.506
		c-0.178-1.106-0.49-2.071-0.938-2.896c-0.449-0.824-1.049-1.481-1.801-1.972c-0.751-0.49-1.689-0.736-2.817-0.736
		c-1.106,0-2.03,0.245-2.77,0.736c-0.742,0.49-1.33,1.148-1.769,1.972c-0.439,0.825-0.751,1.79-0.938,2.896
		c-0.189,1.106-0.282,2.275-0.282,3.506V52.969z"/>
	<circle fill="#231F20" cx="218.891" cy="65.74" r="4.843"/>
	<path fill="#231F20" d="M204.406,27.271v8.42h4.832v7.324h-4.832V58.51c0,0.668,0.057,1.221,0.173,1.659
		c0.114,0.438,0.302,0.788,0.564,1.049c0.26,0.261,0.61,0.443,1.047,0.548c0.439,0.105,0.981,0.157,1.628,0.157
		c0.605,0,1.106-0.016,1.502-0.047c0.397-0.031,0.772-0.078,1.127-0.141v7.544c-0.918,0.292-1.857,0.516-2.816,0.673
		c-0.961,0.156-2.003,0.235-3.13,0.235c-1.691,0-3.198-0.193-4.523-0.579c-1.325-0.386-2.442-0.996-3.349-1.831
		c-0.908-0.834-1.596-1.909-2.065-3.224c-0.471-1.315-0.704-2.89-0.704-4.726V43.015h-4.838v-7.324h4.838v-8.42H204.406z"/>
</g>
</svg>
