<?xml version="1.0" encoding="utf-8"?>
<!-- Generator: Adobe Illustrator 23.0.2, SVG Export Plug-In . SVG Version: 6.00 Build 0)  -->
<svg version="1.1" id="Layer_1" xmlns="http://www.w3.org/2000/svg" xmlns:xlink="http://www.w3.org/1999/xlink" x="0px" y="0px"
	 viewBox="0 0 111 19" style="enable-background:new 0 0 111 19;" xml:space="preserve">
<style type="text/css">
	.st0{fill:#FFD20A;}
</style>
<title>stanley-logo</title>
<desc>Created with Sketch.</desc>
<g id="XMLID_1_">
	<path id="path4645" class="st0" d="M0.6,18.2h99.9l10-17.3H0.6V18.2z"/>
	<g id="g4649">
		<g id="g4655" transform="translate(34.548904,751.66051)">
			<path id="path4657" d="M-15-744.6c-0.4-0.3-0.9-0.4-1.4-0.4c-0.6,0-1.1,0.4-1.1,0.8c0,0.3,0.2,0.5,0.6,0.6l0.7,0.2
				c0.8,0.3,1.3,0.7,1.3,1.4c0,1.4-1.2,2.5-3.1,2.5c-0.9,0-1.6-0.2-2.1-0.6l0.7-1c0.5,0.3,1,0.5,1.7,0.5c0.8,0,1.3-0.4,1.3-1.1
				c0-0.3-0.2-0.5-0.7-0.7l-0.7-0.2c-0.7-0.2-1.2-0.6-1.2-1.3c0-1.3,1.2-2.3,2.7-2.3c0.8,0,1.5,0.2,2,0.6L-15-744.6z"/>
		</g>
		<g id="g4659" transform="translate(40.7229,749.51601)">
			<path id="path4661" d="M-17.7-741.2h-0.8l-0.5,2.4c0,0.2,0,0.3,0,0.4c0,0.3,0.1,0.3,0.4,0.3c0.1,0,0.3,0,0.5-0.1v0.7
				c-0.4,0.1-0.7,0.2-1,0.2c-0.7,0-1.1-0.3-1.1-0.8c0-0.2,0-0.4,0.1-0.6l0.5-2.6h-0.5l0.2-0.8h0.5c0.1-0.5,0.2-0.8,0.3-1.1l1.3-0.3
				c-0.1,0.4-0.3,0.9-0.4,1.4h1.1L-17.7-741.2z"/>
		</g>
		<g id="g4663" transform="translate(46.086899,749.4826)">
			<path id="path4665" d="M-20.1-741.2c-0.3,0-0.5,0-0.9,0.4c-0.4,0.5-0.6,1.4-0.6,2c0,0.4,0.1,0.6,0.4,0.6c0.4,0,0.8-0.4,0.9-0.7
				l0.5-2.2C-19.8-741.1-20-741.2-20.1-741.2 M-18.7-740.6l-0.4,1.8c-0.1,0.4,0,0.7,0.2,0.9l-1,0.8c-0.2-0.1-0.3-0.4-0.4-0.6
				c-0.4,0.4-0.7,0.6-1.3,0.6c-0.9,0-1.3-0.5-1.3-1.5c0-1.1,0.4-2.1,1-2.7c0.5-0.5,1.1-0.7,1.9-0.7c0.6,0,1.2,0.1,1.6,0.3
				C-18.5-741.5-18.6-741-18.7-740.6"/>
		</g>
		<g id="g4667" transform="translate(53.004303,751.31531)">
			<path id="path4669" d="M-23.2-744c0.1,0.2,0.1,0.6,0.1,0.8c0.4-0.4,0.9-0.7,1.6-0.7c0.6,0,0.9,0.4,0.9,0.9c0,0.2,0,0.5-0.1,0.7
				l-0.7,3.2h-1.2l0.7-3.1c0-0.2,0.1-0.3,0.1-0.4c0-0.2-0.1-0.3-0.3-0.3c-0.3,0-0.6,0.2-1,0.7l-0.7,3.1H-25l0.7-3.2
				c0.1-0.5,0.1-0.9,0-1.2L-23.2-744z"/>
		</g>
		<g id="g4671" transform="translate(62.691406,752.2722)">
			<path id="path4673" d="M-27.5-745.5l-0.7,3.5c-0.1,0.6-0.2,0.8-0.2,0.9c0,0.2,0.1,0.3,0.2,0.3c0,0,0.1,0,0.1,0l0.1,0.7
				c-0.2,0.1-0.5,0.1-0.8,0.1c-0.7,0-1-0.4-1-0.8c0-0.2,0.1-0.5,0.1-0.9l0.7-3.5c0.1-0.6,0.2-1,0.1-1.4l1.3-0.4
				C-27.3-746.8-27.3-746.1-27.5-745.5"/>
		</g>
		<g id="g4675" transform="translate(66.553406,747.55321)">
			<path id="path4677" d="M-29.2-738.2c0.5,0,1.1-0.2,1.1-0.7c0-0.3-0.1-0.5-0.5-0.5c-0.5,0-0.8,0.3-1,1.1
				C-29.5-738.2-29.3-738.2-29.2-738.2 M-27.4-735.9c-0.6,0.4-1.2,0.6-1.9,0.6c-1.1,0-1.8-0.6-1.8-1.7c0-1,0.4-2,1.1-2.6
				c0.5-0.4,1-0.6,1.6-0.6c0.9,0,1.6,0.4,1.6,1.3c0,0.9-0.8,1.6-2.4,1.6c-0.3,0-0.6-0.1-0.6-0.1s0,0.3,0,0.4c0,0.5,0.3,0.8,0.8,0.8
				c0.4,0,0.9-0.2,1.3-0.5L-27.4-735.9z"/>
		</g>
		<g id="g4679" transform="translate(74.212097,751.16611)">
			<path id="path4681" d="M-32.6-743.8l0.2,2.7c0,0.3,0,1,0,1s0.3-0.8,0.6-1.4l1.2-2.2h1.3l-2.7,4.8c-0.5,0.9-0.8,1.3-1.2,1.6
				c-0.4,0.2-0.8,0.4-1.2,0.4l-0.2-0.8c0.3-0.1,0.6-0.2,0.8-0.3c0.4-0.2,0.5-0.4,0.8-0.9h-0.3c0-0.3-0.1-0.9-0.1-1.3l-0.4-3.3
				L-32.6-743.8z"/>
		</g>
		<g id="g4683" transform="translate(83.660995,749.4646)">
			<path id="path4685" d="M-36.8-741.1h0.8c0.4,0,0.5-0.1,0.7-0.2c0.2-0.1,0.4-0.4,0.4-0.7c0-0.4-0.2-0.6-0.7-0.6h-0.8L-36.8-741.1z
				 M-37.3-738.3h0.8c0.3,0,0.5-0.1,0.7-0.2c0.3-0.2,0.5-0.6,0.5-0.9c0-0.4-0.2-0.6-0.8-0.6H-37L-37.3-738.3z M-35.2-743.7
				c1,0,1.7,0.5,1.7,1.4c0,0.6-0.4,1.3-1.3,1.6c0.6,0.1,1,0.6,1,1.2c0,0.4-0.2,1-0.6,1.5c-0.5,0.5-1,0.7-2,0.7h-2.3l1.4-6.4H-35.2z"
				/>
		</g>
		<g id="g4687" transform="translate(93.9617,752.2722)">
			<path id="path4689" d="M-41.3-745.5l-0.7,3.5c-0.1,0.6-0.2,0.8-0.2,0.9c0,0.2,0.1,0.3,0.2,0.3c0,0,0.1,0,0.1,0l0.1,0.7
				c-0.2,0.1-0.5,0.1-0.8,0.1c-0.7,0-1-0.4-1-0.8c0-0.2,0.1-0.5,0.1-0.9l0.7-3.5c0.1-0.6,0.2-1,0.1-1.4l1.3-0.4
				C-41.2-746.8-41.2-746.1-41.3-745.5"/>
		</g>
		<g id="g4691" transform="translate(99.542099,749.4826)">
			<path id="path4693" d="M-43.8-741.2c-0.3,0-0.5,0-0.9,0.4c-0.4,0.5-0.6,1.4-0.6,2c0,0.4,0.1,0.6,0.4,0.6c0.4,0,0.8-0.4,0.9-0.7
				l0.5-2.2C-43.5-741.1-43.7-741.2-43.8-741.2 M-42.4-740.6l-0.4,1.8c-0.1,0.4,0,0.7,0.2,0.9l-1,0.8c-0.2-0.1-0.3-0.4-0.4-0.6
				c-0.3,0.4-0.7,0.6-1.2,0.6c-0.9,0-1.3-0.5-1.3-1.5c0-1.1,0.4-2.1,1-2.7c0.5-0.5,1.1-0.7,1.9-0.7c0.6,0,1.2,0.1,1.6,0.3
				C-42.2-741.5-42.3-741-42.4-740.6"/>
		</g>
		<g id="g4695" transform="translate(109.1628,748.88811)">
			<path id="path4697" d="M-48.1-740.2c-0.2-0.2-0.5-0.3-0.7-0.3c-0.2,0-0.4,0.1-0.6,0.3c-0.3,0.4-0.7,1.4-0.7,2.1
				c0,0.5,0.2,0.7,0.6,0.7c0.3,0,0.7-0.2,1-0.5l0.4,0.8c-0.5,0.4-1,0.6-1.7,0.6c-1,0-1.6-0.6-1.6-1.6c0-1.2,0.5-2.2,1.2-2.8
				c0.4-0.4,0.9-0.6,1.5-0.6c0.4,0,0.9,0.2,1.2,0.6L-48.1-740.2z"/>
		</g>
		<g id="g4699" transform="translate(119.2789,751.0351)">
			<path id="path4701" d="M-52.5-743.6l-1.9,2l1.3,2.7h-1.5l-1-2.7l1.6-2H-52.5z M-55-745.7c0.1,0.2,0.1,0.8-0.2,1.8l-1.1,5.1h-1.2
				l1.1-5.2c0.1-0.7,0.2-1,0.1-1.3L-55-745.7z"/>
		</g>
		<g id="g4703" transform="translate(125.40269,751.2317)">
			<path id="path4705" d="M-55.3-743.9c0-0.3-0.2-0.5-0.5-0.5c-0.4,0-0.7,0.3-0.7,0.8c0,0.2,0.1,0.4,0.4,0.7
				C-55.6-743.1-55.3-743.5-55.3-743.9 M-57.4-740.5c0,0.4,0.3,0.7,0.9,0.7c0.4,0,0.8-0.1,1-0.3l-1.2-1.4
				C-57.2-741.4-57.4-741-57.4-740.5 M-53.4-742.2c-0.1,0.6-0.4,1.3-0.7,1.8l1.1,1.3h-1.6l-0.3-0.4c-0.4,0.3-1,0.5-1.9,0.5
				c-1.3,0-2-0.6-2-1.5c0-0.8,0.5-1.5,1.5-1.9c-0.4-0.4-0.5-0.7-0.5-1.1c0-1,0.9-1.8,2.2-1.8c0.9,0,1.5,0.5,1.5,1.1
				c0,0.7-0.3,1.2-1.4,1.8l-0.1,0.1l0.8,1c0.2-0.3,0.3-0.8,0.3-1H-53.4z"/>
		</g>
		<g id="g4707" transform="translate(133.32719,744.4649)">
			<path id="path4709" d="M-58.8-733.4h0.6c0.6,0,1-0.3,1.2-0.7c0.6-0.9,0.7-2.2,0.7-2.5c0-0.6-0.2-1.1-1-1.1h-0.6L-58.8-733.4z
				 M-57.5-738.7c1.1,0,1.7,0.1,2.1,0.6c0.3,0.4,0.5,0.8,0.5,1.6c0,1-0.4,2.4-1.2,3.3c-0.7,0.7-1.3,1-2.7,1h-1.6l1.4-6.4H-57.5z"/>
		</g>
		<g id="g4711" transform="translate(144.3022,747.55321)">
			<path id="path4713" d="M-63.6-738.2c0.5,0,1.1-0.2,1.1-0.7c0-0.3-0.1-0.5-0.5-0.5c-0.5,0-0.8,0.3-1,1.1
				C-64-738.2-63.8-738.2-63.6-738.2 M-61.8-735.9c-0.6,0.4-1.2,0.6-1.9,0.6c-1.1,0-1.8-0.6-1.8-1.7c0-1,0.4-2,1.1-2.6
				c0.5-0.4,1-0.6,1.6-0.6c0.9,0,1.6,0.4,1.6,1.3c0,0.9-0.8,1.6-2.4,1.6c-0.3,0-0.6-0.1-0.6-0.1s0,0.3,0,0.4c0,0.5,0.3,0.8,0.8,0.8
				c0.4,0,0.9-0.2,1.3-0.5L-61.8-735.9z"/>
		</g>
		<g id="g4715" transform="translate(155.2123,748.88811)">
			<path id="path4717" d="M-68.5-740.2c-0.2-0.2-0.5-0.3-0.7-0.3c-0.2,0-0.4,0.1-0.6,0.3c-0.3,0.4-0.7,1.4-0.7,2.1
				c0,0.5,0.2,0.7,0.6,0.7c0.3,0,0.7-0.2,1-0.5l0.4,0.8c-0.5,0.4-1,0.6-1.7,0.6c-1,0-1.6-0.6-1.6-1.6c0-1.2,0.5-2.2,1.2-2.8
				c0.4-0.4,0.9-0.6,1.5-0.6c0.4,0,0.9,0.2,1.2,0.6L-68.5-740.2z"/>
		</g>
		<g id="g4719" transform="translate(165.3273,751.0351)">
			<path id="path4721" d="M-73-743.6l-1.9,2l1.3,2.7h-1.5l-1-2.7l1.6-2H-73z M-75.4-745.7c0.1,0.2,0.1,0.8-0.2,1.8l-1.1,5.1h-1.2
				l1.1-5.2c0.1-0.7,0.2-1,0.1-1.3L-75.4-745.7z"/>
		</g>
		<g id="g4723" transform="translate(168.466,747.55321)">
			<path id="path4725" d="M-74.4-738.2c0.5,0,1.1-0.2,1.1-0.7c0-0.3-0.1-0.5-0.5-0.5c-0.5,0-0.8,0.3-1,1.1
				C-74.7-738.2-74.5-738.2-74.4-738.2 M-72.5-735.9c-0.6,0.4-1.2,0.6-1.9,0.6c-1.1,0-1.8-0.6-1.8-1.7c0-1,0.4-2,1.1-2.6
				c0.5-0.4,1-0.6,1.6-0.6c0.9,0,1.6,0.4,1.6,1.3c0,0.9-0.8,1.6-2.4,1.6c-0.3,0-0.6-0.1-0.6-0.1s0,0.3,0,0.4c0,0.5,0.3,0.8,0.8,0.8
				c0.4,0,0.9-0.2,1.3-0.5L-72.5-735.9z"/>
		</g>
		<g id="g4727" transform="translate(176.5033,751.31531)">
			<path id="path4729" d="M-77.9-744c0.1,0.2,0.1,0.5,0.1,0.8c0.4-0.4,0.9-0.7,1.3-0.7c0.2,0,0.3,0,0.4,0.1l-0.5,1.1
				c-0.1-0.1-0.2-0.1-0.4-0.1c-0.2,0-0.5,0.1-0.9,0.6l-0.7,3.1h-1.2l0.7-3.1c0.1-0.6,0.1-1,0-1.3L-77.9-744z"/>
		</g>
	</g>
</g>
</svg>
