<svg xmlns="http://www.w3.org/2000/svg" width="140" height="40" viewBox="0 0 140 40">
  <g fill="none" transform="translate(.687 .53)">
    <path fill="#0054A4" d="M10.7850178 31.9127443L27.6815836 31.9127443C27.8797907 31.9127443 27.8797907 32.0078109 27.6815836 32.1028774 25.8045383 32.9592372 23.0375352 35.6241432 23.0375352 35.6241432 21.16049 37.4319292 19.6782797 38.5742491 16.4177328 38.5742491L.212128112 38.5742491C.11341938 38.5742491.11341938 38.384116.212128112 38.384116 1.99046462 37.4319292 4.65875906 34.7677836 4.65875906 34.7677836 5.74534477 33.5303971 8.01801461 31.9127443 10.7850178 31.9127443M121.850504 31.9127443L138.846568 31.9127443C138.945276 31.9127443 138.945276 32.0078109 138.846568 32.1028774 136.870024 32.9592372 134.202519 35.6241432 134.202519 35.6241432 132.225975 37.4319292 130.743766 38.5742491 127.581927 38.5742491L111.376322 38.5742491C111.277614 38.5742491 111.277614 38.384116 111.376322 38.384116 113.154659 37.4319292 115.822953 34.7677836 115.822953 34.7677836 116.909539 33.5303971 119.0835 31.9127443 121.850504 31.9127443M38.5513892 31.9127443L55.447955 31.9127443C55.6461621 31.9127443 55.6461621 32.0078109 55.447955 32.1028774 53.5709097 32.9592372 50.8039065 35.6241432 50.8039065 35.6241432 48.9268614 37.4319292 47.4446511 38.5742491 44.1833146 38.5742491L28.0772082 38.5742491C27.8797907 38.5742491 27.8797907 38.384116 27.9784995 38.384116 29.756836 37.4319292 32.4251304 34.7677836 32.4251304 34.7677836 33.5117161 33.5303971 35.784386 31.9127443 38.5513892 31.9127443M66.3177606 31.9127443L83.215116 31.9127443C83.4125335 31.9127443 83.4125335 32.0078109 83.215116 32.1028774 81.3372811 32.9592372 78.5702779 35.6241432 78.5702779 35.6241432 76.6932328 37.4319292 75.2110224 38.5742491 72.0491844 38.5742491L55.8435796 38.5742491C55.7448709 38.5742491 55.7448709 38.384116 55.7448709 38.384116 57.6219161 37.4319292 60.1915018 34.7677836 60.1915018 34.7677836 61.2780875 33.5303971 63.5507574 31.9127443 66.3177606 31.9127443M94.084132 31.9127443L111.080196 31.9127443C111.178905 31.9127443 111.178905 32.0078109 110.981487 32.1028774 109.103652 32.9592372 106.336649 35.6241432 106.336649 35.6241432 104.459604 37.4319292 102.977394 38.5742491 99.8155557 38.5742491L83.609951 38.5742491C83.5112423 38.5742491 83.5112423 38.384116 83.609951 38.384116 85.3890771 37.4319292 88.0565819 34.7677836 88.0565819 34.7677836 89.0444589 33.5303971 91.3171288 31.9127443 94.084132 31.9127443"/>
    <path fill="#F02E24" d="M98.7281803.127046247C88.0565819.127046247 80.9416566 5.45609795 80.9416566 13.5451224 80.9416566 20.9686807 87.4635399 25.9167055 97.1472613 25.9167055 100.309099 25.9167055 103.076103 25.5364392 106.336649 24.6800796L106.336649 18.4939077C104.06398 20.9686807 101.297766 21.920107 98.3333454 21.920107 92.6019216 21.920107 88.649624 18.3037746 88.649624 12.9739624 88.649624 7.73997724 92.7006304 3.93351174 98.4320541 3.93351174 101.495183 3.93351174 103.965271 5.07583165 105.941814 7.07375071L105.941814.792512242C103.866562.41224596 101.297766.127046247 98.7281803.127046247M19.0852376 4.5046717C23.0375352 4.5046717 27.781082 5.2659648 29.756836 6.88361757L29.756836.983405913 1.69433843.983405913 1.69433843 6.88361757C3.67009239 5.2659648 7.91930587 4.59973828 12.4646456 4.59973828L12.4646456 20.777787C12.4646456 23.1574934 12.2672281 23.8229595 11.2793511 25.0603459L20.2713217 25.0603459C19.282655 23.8229595 19.0852376 23.1574934 19.0852376 20.777787L19.0852376 4.5046717M47.7407772 10.3098168C46.1598582 10.8809767 43.1954375 10.9760433 41.7132273 10.9760433L39.3418486 10.9760433 39.3418486 4.59973828 42.5036867 4.59973828C45.3693987 4.59973828 50.2116543 5.17089823 52.0886995 6.78855099L52.0886995.983405913 31.6346709.983405913C32.6225479 2.1249653 32.8199653 2.88701894 32.8199653 5.17089823L32.8199653 20.777787C32.8199653 23.1574934 32.6225479 23.8229595 31.7333796 25.0603459L53.472201 25.0603459 53.472201 19.1601343C50.5077804 21.348947 44.7763566 21.348947 42.5036867 21.348947L39.3418486 21.348947 39.3418486 14.5923756 41.6145185 14.5923756C43.1954375 14.5923756 46.0611495 14.7825088 47.7407772 15.3536688L47.7407772 10.3098168M78.0767343 1.74469901C74.8153978.697445671 70.566974.127046247 67.3056375.127046247 61.3767962.127046247 55.6461621 1.93483216 55.6461621 8.02517696 55.6461621 18.4939077 73.4326859 12.9739624 73.4326859 19.445334 73.4326859 21.5390801 70.2700581 22.3962003 67.7012621 22.3962003 63.1559224 22.3962003 59.9940843 21.6341467 56.040997 19.1601343L56.040997 24.4891859C59.0054177 25.4413727 63.0572137 26.0117722 67.4043463 26.0117722 73.5313946 26.0117722 79.2620287 24.2990528 79.2620287 18.1136414 79.2620287 7.07375071 61.5750034 12.0225361 61.5750034 6.69348442 61.5750034 4.5046717 64.4407153 3.74337861 66.9108026 3.74337861 71.0605177 3.74337861 75.6058573 4.98000456 78.0767343 7.35971096L78.0767343 1.74469901M123.727548.50731253C114.143326.50731253 107.325316 5.83636423 107.325316 13.3549892 107.325316 20.777787 113.451575 25.6315059 122.443545 25.6315059 132.127267 25.6315059 138.846568 20.4925874 138.846568 12.8788958 138.846568 5.45609795 132.720308.50731253 123.727548.50731253zM123.036587 22.0151735C117.898206 22.0151735 114.636869 18.0178144 114.636869 13.0697894 114.636869 8.12100405 117.898206 4.12364489 123.036587 4.12364489 128.075471 4.12364489 131.435516 8.12100405 131.435516 13.0697894 131.435516 18.0178144 128.075471 22.0151735 123.036587 22.0151735z"/>
  </g>
</svg>
