<svg xmlns="http://www.w3.org/2000/svg" width="211" height="48" viewBox="0 0 211 48">
  <g fill="none" transform="translate(.217 .578)">
    <path fill="#DA3743" d="M41.705741,0.135849319 C28.8000557,0.135849319 18.3396581,10.5962469 18.3396581,23.5019322 C18.3396581,36.4076176 28.8000557,46.8680152 41.705741,46.8680152 C54.6114264,46.8680152 65.0718239,36.4076176 65.0718239,23.5019322 C65.0718239,10.5962469 54.6114264,0.135849319 41.705741,0.135849319 Z M41.705741,29.343453 C38.4453574,29.343453 35.8642203,26.7623159 35.8642203,23.5019322 C35.8642203,20.2415486 38.4453574,17.6604115 41.705741,17.6604115 C44.9661247,17.6604115 47.5472617,20.2415486 47.5472617,23.5019322 C47.5472617,26.6264666 44.8302754,29.343453 41.705741,29.343453 Z M0.679246596,23.5019322 C0.679246596,20.2415486 3.26038366,17.6604115 6.52076733,17.6604115 C9.78115099,17.6604115 12.3622881,20.2415486 12.3622881,23.5019322 C12.3622881,26.7623159 9.78115099,29.343453 6.52076733,29.343453 C3.26038366,29.343453 0.679246596,26.6264666 0.679246596,23.5019322 L0.679246596,23.5019322 Z"/>
    <path fill="#212120" d="M120.770045,19.0189047 C124.302127,19.0189047 126.883264,21.6000418 126.883264,25.1321241 C126.883264,25.2679734 126.883264,25.8113707 126.883264,25.94722 C126.883264,26.3547679 126.475716,26.4906173 126.204018,26.4906173 L117.64551,26.4906173 C117.64551,28.1208091 119.004004,29.6151516 120.905894,29.6151516 C122.264387,29.6151516 123.215333,29.0717543 123.75873,28.6642064 C124.030429,28.3925077 124.437976,28.3925077 124.573826,28.6642064 L125.66062,30.1585489 C125.932319,30.4302475 125.932319,30.7019462 125.66062,30.9736448 C124.437976,31.92459 122.807785,32.7396859 120.634196,32.7396859 C116.694565,32.7396859 113.84173,29.6151516 113.84173,25.8113707 C114.113428,22.143439 116.830415,19.0189047 120.770045,19.0189047 Z M123.215333,24.3170282 C123.215333,22.958535 122.128538,22.0075897 120.634196,22.0075897 C119.004004,22.0075897 117.917209,22.958535 117.78136,24.3170282 L123.215333,24.3170282 Z M155.547471,13.8566306 L141.962539,13.8566306 C141.69084,13.8566306 141.419141,14.1283292 141.419141,14.4000278 L141.419141,16.7094663 C141.419141,16.9811649 141.69084,17.2528635 141.962539,17.2528635 L146.853114,17.2528635 L146.853114,32.0604394 C146.853114,32.332138 147.124813,32.6038366 147.396511,32.6038366 L150.113498,32.6038366 C150.385196,32.6038366 150.656895,32.332138 150.656895,32.0604394 L150.656895,17.2528635 L155.547471,17.2528635 C155.819169,17.2528635 156.090868,16.9811649 156.090868,16.7094663 L156.090868,14.4000278 C156.090868,14.1283292 155.955019,13.8566306 155.547471,13.8566306 Z M176.060718,19.0189047 C174.702225,19.0189047 173.343731,19.2906033 172.800334,19.562302 L172.800334,14.5358772 C172.800334,14.2641785 172.528635,13.8566306 172.121088,13.8566306 L169.811649,13.8566306 C169.53995,13.8566306 169.132403,14.1283292 169.132403,14.5358772 L169.132403,32.0604394 C169.132403,32.4679873 169.404101,32.7396859 169.811649,32.7396859 L170.762594,32.7396859 C170.762594,32.7396859 170.762594,32.7396859 170.762594,32.7396859 L171.034293,32.7396859 C171.441841,32.7396859 171.71354,32.4679873 171.71354,32.0604394 L171.71354,31.1094941 L171.71354,31.1094941 C171.71354,31.1094941 173.207882,33.1472339 176.196567,33.1472339 C179.864499,33.1472339 182.445636,30.0226996 182.445636,26.2189186 C182.445636,22.0075897 180.000348,19.0189047 176.060718,19.0189047 Z M175.65317,29.6151516 C173.887129,29.6151516 172.936183,28.528357 172.664485,27.7132611 L172.664485,23.0943843 C172.664485,23.0943843 173.751279,22.2792884 175.381471,22.2792884 C177.55506,22.2792884 178.641855,24.0453295 178.641855,25.94722 C178.913553,27.8491105 177.826759,29.6151516 175.65317,29.6151516 Z M198.340006,19.0189047 C201.872088,19.0189047 204.453226,21.6000418 204.453226,25.1321241 C204.453226,25.2679734 204.453226,25.8113707 204.453226,25.94722 C204.453226,26.3547679 204.045678,26.4906173 203.773979,26.4906173 L195.215472,26.4906173 C195.215472,28.1208091 196.573965,29.6151516 198.475855,29.6151516 C199.834349,29.6151516 200.785294,29.0717543 201.328691,28.6642064 C201.60039,28.3925077 202.007938,28.3925077 202.143787,28.6642064 L203.230582,30.1585489 C203.50228,30.4302475 203.50228,30.7019462 203.230582,30.9736448 C202.007938,31.92459 200.377746,32.7396859 198.204157,32.7396859 C194.264527,32.7396859 191.411691,29.6151516 191.411691,25.8113707 C191.54754,22.143439 194.400376,19.0189047 198.340006,19.0189047 Z M200.785294,24.3170282 C200.785294,22.958535 199.698499,22.0075897 198.204157,22.0075897 C196.573965,22.0075897 195.48717,22.958535 195.351321,24.3170282 L200.785294,24.3170282 Z M105.554921,19.0189047 C102.837935,19.0189047 101.343592,20.9207952 101.207743,21.0566445 L101.207743,19.9698499 C101.207743,19.562302 100.936044,19.2906033 100.528496,19.2906033 L99.1700031,19.2906033 C98.7624551,19.2906033 98.4907565,19.562302 98.4907565,19.9698499 L98.4907565,37.4944121 C98.4907565,37.7661108 98.7624551,38.1736587 99.1700031,38.1736587 L101.479442,38.1736587 C101.75114,38.1736587 102.158688,37.9019601 102.158688,37.4944121 L102.158688,32.4679873 C102.702085,32.7396859 104.060579,33.0113846 105.419072,33.0113846 C109.358702,33.0113846 112.075688,29.8868502 112.075688,26.0830693 C111.939839,21.8717404 109.222853,19.0189047 105.554921,19.0189047 Z M104.875674,29.6151516 C103.245483,29.6151516 102.158688,28.8000557 102.158688,28.8000557 L102.158688,24.0453295 C102.430387,23.2302336 103.381332,22.143439 105.147373,22.143439 C107.185113,22.143439 108.271907,23.9094802 108.271907,25.8113707 C108.271907,27.8491105 107.049264,29.6151516 104.875674,29.6151516 Z M136.664415,19.0189047 C134.083278,19.0189047 132.860634,20.3773979 132.317237,20.9207952 L132.317237,19.9698499 C132.317237,19.562302 132.045538,19.2906033 131.63799,19.2906033 L130.143648,19.2906033 C129.871949,19.2906033 129.464401,19.562302 129.464401,19.9698499 L129.464401,32.0604394 C129.464401,32.4679873 129.7361,32.7396859 130.143648,32.7396859 L132.317237,32.7396859 C132.996484,32.7396859 133.132333,32.6038366 133.132333,32.0604394 L133.132333,24.4528775 C133.404032,23.5019322 134.354977,22.4151377 135.985169,22.4151377 C137.61536,22.4151377 138.294607,23.5019322 138.294607,25.2679734 L138.294607,32.1962887 C138.294607,32.6038366 138.566306,32.8755353 138.973854,32.8755353 L141.283292,32.8755353 C141.554991,32.8755353 141.962539,32.6038366 141.962539,32.1962887 L141.962539,25.2679734 C142.098388,21.8717404 140.875744,19.0189047 136.664415,19.0189047 Z M160.981443,19.0189047 C158.807854,19.0189047 156.770114,19.562302 156.362566,19.6981513 C156.090868,19.8340006 155.819169,19.9698499 155.955019,20.5132472 L156.226717,22.0075897 C156.226717,22.4151377 156.498416,22.6868363 157.041813,22.550987 C157.856909,22.2792884 159.62295,22.0075897 160.845594,22.0075897 C162.204087,22.0075897 162.747484,22.8226856 162.747484,24.4528775 C162.747484,24.4528775 161.524841,24.0453295 160.166347,24.0453295 C156.770114,24.0453295 154.868224,25.8113707 154.868224,28.2566584 C154.868224,31.1094941 156.770114,32.8755353 159.351252,32.8755353 C161.388991,32.8755353 162.747484,31.92459 163.56258,31.2453434 L163.56258,31.92459 C163.56258,32.332138 163.834279,32.6038366 164.241827,32.6038366 L164.513526,32.6038366 C164.513526,32.6038366 164.513526,32.6038366 164.649375,32.6038366 L165.60032,32.6038366 C166.007868,32.6038366 166.279567,32.332138 166.279567,31.92459 L166.279567,24.7245761 C166.007868,21.1924938 165.056923,19.0189047 160.981443,19.0189047 Z M162.475786,28.8000557 C162.339937,29.343453 161.253142,30.1585489 160.030498,30.1585489 C158.807854,30.1585489 158.128608,29.343453 158.128608,28.2566584 C158.128608,27.0340145 158.943704,26.3547679 160.438046,26.3547679 C161.524841,26.3547679 162.339937,26.7623159 162.339937,26.7623159 L162.339937,28.8000557 L162.475786,28.8000557 Z M86.2643177,13.8566306 C80.9661943,13.8566306 76.7548654,18.2038088 76.7548654,23.5019322 C76.7548654,28.8000557 80.9661943,33.0113846 86.2643177,33.0113846 C91.6982905,33.0113846 95.9096194,28.8000557 95.9096194,23.5019322 C95.9096194,18.2038088 91.5624412,13.8566306 86.2643177,13.8566306 Z M86.2643177,17.5245622 C89.3888521,17.5245622 92.1058385,20.2415486 92.1058385,23.3660829 C92.1058385,26.6264666 89.5247014,29.2076036 86.2643177,29.2076036 C83.0039341,29.2076036 80.422797,26.6264666 80.422797,23.3660829 C80.422797,20.2415486 83.1397834,17.5245622 86.2643177,17.5245622 Z M189.238102,32.6038366 C189.64565,32.6038366 189.917348,32.332138 189.917348,31.92459 L189.917348,29.6151516 C189.917348,29.2076036 189.64565,28.935905 189.238102,28.935905 L189.102252,28.935905 C188.830554,28.935905 188.558855,28.6642064 188.558855,28.3925077 L188.558855,28.2566584 L188.558855,14.5358772 C188.558855,14.2641785 188.287157,13.8566306 187.879609,13.8566306 L185.57017,13.8566306 C185.298471,13.8566306 184.890924,14.1283292 184.890924,14.5358772 L184.890924,29.8868502 L184.890924,30.2943982 C184.890924,31.3811928 185.977718,32.6038366 187.200362,32.6038366 L189.238102,32.6038366 Z M205.268321,19.4264527 L204.317376,19.4264527 L204.317376,19.0189047 L206.626815,19.0189047 L206.626815,19.4264527 L205.675869,19.4264527 L205.675869,21.7358911 L205.132472,21.7358911 L205.132472,19.4264527 L205.268321,19.4264527 Z M207.170212,19.0189047 L207.849458,19.0189047 L208.257006,19.9698499 L208.528705,20.6490965 L208.528705,20.6490965 L208.800404,19.9698499 L209.207952,19.0189047 L209.887198,19.0189047 L209.887198,21.7358911 L209.343801,21.7358911 L209.343801,20.5132472 L209.343801,19.562302 L209.343801,19.562302 L208.664554,21.3283431 L208.257006,21.3283431 L207.57776,19.562302 L207.57776,19.562302 L207.57776,20.5132472 L207.57776,21.7358911 L207.034363,21.7358911 L207.034363,19.0189047 L207.170212,19.0189047 Z"/>
  </g>
</svg>
