<?xml version="1.0" encoding="utf-8"?>
<!-- Generator: Adobe Illustrator 19.0.0, SVG Export Plug-In . SVG Version: 6.00 Build 0)  -->
<svg version="1.1" id="Layer_1" xmlns="http://www.w3.org/2000/svg" xmlns:xlink="http://www.w3.org/1999/xlink" x="0px" y="0px"
	 viewBox="0 0 580 86" enable-background="new 0 0 580 86" xml:space="preserve">
<g>
	<path d="M6.5,70.9v-1.5c2.1-0.2,3.7-1,4.7-2.4c1-1.3,2.8-5,5.4-11l17-40h1.6l20.3,46.2c1.4,3.1,2.4,4.9,3.2,5.7
		c0.8,0.7,2.2,1.2,4.1,1.5v1.5H42.1v-1.5c2.4-0.2,3.9-0.5,4.6-0.8c0.7-0.3,1-1,1-2.2c0-0.4-0.1-1.1-0.4-2.1c-0.3-1-0.6-2.1-1.1-3.2
		L43,53.3H21.5c-2.1,5.3-3.4,8.6-3.8,9.7c-0.4,1.2-0.6,2.1-0.6,2.8c0,1.4,0.6,2.3,1.7,2.8c0.7,0.3,2,0.6,3.9,0.7v1.5H6.5z M41.6,50
		l-9.3-22.4L22.9,50H41.6z"/>
	<path d="M81.3,69.4c3-0.3,4.9-0.8,5.8-1.6c0.9-0.8,1.3-2.7,1.3-5.7V25.9c0-2.9-0.4-4.8-1.3-5.7c-0.9-0.9-2.8-1.4-5.8-1.6v-1.5h23
		v1.5c-3,0.2-5,0.6-6,1.5c-1,0.8-1.5,2.6-1.5,5.3v39.1c0,0.9,0.2,1.6,0.5,2.1c0.3,0.5,1,0.8,2,1c0.6,0.1,1.3,0.1,1.9,0.2
		c0.7,0,1.9,0,3.8,0c7.2,0,12.1-0.6,14.7-1.8c2.5-1.2,5-4.2,7.4-9.1h2.1l-4,14.1H81.3V69.4z"/>
	<path d="M147.3,69.4c3-0.3,4.9-0.8,5.8-1.6c0.9-0.8,1.3-2.7,1.3-5.7V25.9c0-2.9-0.4-4.8-1.3-5.7c-0.9-0.9-2.8-1.4-5.8-1.6v-1.5h23
		v1.5c-3,0.2-5,0.6-6,1.5c-1,0.8-1.5,2.6-1.5,5.3v39.1c0,0.9,0.2,1.6,0.5,2.1c0.3,0.5,1,0.8,2,1c0.6,0.1,1.3,0.1,1.9,0.2
		c0.7,0,1.9,0,3.8,0c7.2,0,12.1-0.6,14.7-1.8c2.5-1.2,5-4.2,7.4-9.1h2.1l-4,14.1h-43.8V69.4z"/>
	<path d="M217.7,54.6c1.4,3.7,3,6.6,4.8,8.7c3.2,3.8,7.2,5.7,12,5.7c2.6,0,4.8-0.8,6.7-2.5c1.9-1.6,2.8-3.9,2.8-6.9
		c0-2.6-1-5-2.9-6.9c-1.2-1.2-3.9-3.1-7.9-5.6l-6.9-4.3c-2.1-1.3-3.8-2.7-5-4c-2.3-2.6-3.5-5.4-3.5-8.5c0-4.1,1.4-7.5,4.1-10.3
		c2.7-2.7,6.3-4.1,10.9-4.1c1.9,0,4.1,0.5,6.7,1.4c2.6,0.9,4.1,1.4,4.5,1.4c1,0,1.7-0.2,2.1-0.7c0.4-0.5,0.7-1.2,0.9-2h1.7l1.8,17.3
		h-1.9c-1.3-5.2-3.5-8.9-6.4-10.9c-2.9-2.1-5.8-3.1-8.7-3.1c-2.2,0-4.2,0.7-5.8,2c-1.7,1.3-2.5,3.1-2.5,5.5c0,2.1,0.6,3.9,1.9,5.4
		c1.3,1.5,3.2,3.1,5.9,4.7l7.1,4.4c4.5,2.8,7.6,5.3,9.5,7.6c1.8,2.3,2.7,5.1,2.7,8.3c0,4.3-1.6,7.8-4.8,10.7
		c-3.2,2.9-7.3,4.3-12.3,4.3c-2.5,0-5.1-0.5-7.9-1.4c-2.7-1-4.3-1.4-4.7-1.4c-1,0-1.6,0.3-1.9,0.9c-0.3,0.6-0.6,1.2-0.7,1.9h-1.8
		l-2.4-17.3H217.7z"/>
	<path d="M275.2,70.9v-1.5c2.1-0.2,3.7-1,4.7-2.4c1-1.3,2.8-5,5.4-11l17-40h1.6l20.3,46.2c1.4,3.1,2.4,4.9,3.2,5.7
		c0.8,0.7,2.2,1.2,4.1,1.5v1.5h-20.7v-1.5c2.4-0.2,3.9-0.5,4.6-0.8c0.7-0.3,1-1,1-2.2c0-0.4-0.1-1.1-0.4-2.1c-0.3-1-0.6-2.1-1.1-3.2
		l-3.3-7.8h-21.5c-2.1,5.3-3.4,8.6-3.8,9.7c-0.4,1.2-0.6,2.1-0.6,2.8c0,1.4,0.6,2.3,1.7,2.8c0.7,0.3,2,0.6,3.9,0.7v1.5H275.2z
		 M310.2,50l-9.3-22.4L291.5,50H310.2z"/>
	<path d="M350.4,69.4c3.3-0.2,5.5-0.7,6.4-1.5c1-0.8,1.5-2.7,1.5-5.8V25.9c0-3-0.5-4.9-1.5-5.8c-1-0.9-3.1-1.4-6.4-1.5v-1.5h24.1
		v1.5c-3.3,0.2-5.5,0.7-6.4,1.5c-1,0.9-1.5,2.8-1.5,5.8v36.2c0,3.1,0.5,5.1,1.5,5.8c1,0.8,3.1,1.2,6.4,1.5v1.5h-24.1V69.4z"/>
	<path d="M393.4,69.4c3.4-0.3,5.5-1.1,6.5-2.3c1-1.2,1.4-3.9,1.4-8.2V23.1l-1.1-1.3c-1.2-1.4-2.2-2.3-3-2.6
		c-0.8-0.3-2.1-0.5-3.8-0.6v-1.5h13.9L438.7,56V29c0-4.4-0.7-7.3-2-8.7c-0.9-0.9-2.8-1.4-5.8-1.7v-1.5H450v1.5
		c-3.1,0.3-5.2,1.1-6.2,2.3c-1,1.2-1.6,3.9-1.6,8.2v42.8h-1.4l-36-44.6v31.7c0,4.4,0.6,7.3,1.9,8.7c0.8,0.9,2.7,1.5,5.7,1.8v1.5
		h-19.1V69.4z"/>
	<path d="M469.1,17.1h46l0.4,13.8h-1.9c-1-4.3-2.2-7.2-3.6-8.5c-1.5-1.3-4.6-2-9.3-2h-4.5v41.7c0,3.1,0.5,5.1,1.5,5.8
		c1,0.8,3.1,1.2,6.4,1.5v1.5h-23.7v-1.5c3.4-0.3,5.6-0.8,6.4-1.7c0.8-0.9,1.3-3.1,1.3-6.6V20.5h-4.6c-4.5,0-7.6,0.6-9.2,1.9
		c-1.6,1.3-2.9,4.1-3.7,8.5h-2L469.1,17.1z"/>
	<path d="M538.8,54.6c1.4,3.7,3,6.6,4.8,8.7c3.2,3.8,7.2,5.7,12,5.7c2.6,0,4.8-0.8,6.7-2.5c1.9-1.6,2.8-3.9,2.8-6.9
		c0-2.6-1-5-2.9-6.9c-1.2-1.2-3.9-3.1-7.9-5.6l-6.9-4.3c-2.1-1.3-3.8-2.7-5-4c-2.3-2.6-3.5-5.4-3.5-8.5c0-4.1,1.4-7.5,4.1-10.3
		c2.7-2.7,6.3-4.1,10.9-4.1c1.9,0,4.1,0.5,6.7,1.4c2.6,0.9,4.1,1.4,4.5,1.4c1,0,1.7-0.2,2.1-0.7c0.4-0.5,0.7-1.2,0.9-2h1.7l1.8,17.3
		h-1.9c-1.3-5.2-3.5-8.9-6.4-10.9c-2.9-2.1-5.8-3.1-8.7-3.1c-2.2,0-4.2,0.7-5.8,2c-1.7,1.3-2.5,3.1-2.5,5.5c0,2.1,0.6,3.9,1.9,5.4
		c1.3,1.5,3.2,3.1,5.9,4.7l7.1,4.4c4.5,2.8,7.6,5.3,9.5,7.6c1.8,2.3,2.7,5.1,2.7,8.3c0,4.3-1.6,7.8-4.8,10.7
		c-3.2,2.9-7.3,4.3-12.3,4.3c-2.5,0-5.1-0.5-7.9-1.4c-2.7-1-4.3-1.4-4.7-1.4c-1,0-1.6,0.3-1.9,0.9c-0.3,0.6-0.6,1.2-0.7,1.9h-1.8
		l-2.4-17.3H538.8z"/>
</g>
</svg>
