<?xml version="1.0" encoding="utf-8"?>
<!-- Generator: Adobe Illustrator 19.0.0, SVG Export Plug-In . SVG Version: 6.00 Build 0)  -->
<svg version="1.1" id="Layer_1" xmlns="http://www.w3.org/2000/svg" xmlns:xlink="http://www.w3.org/1999/xlink" x="0px" y="0px"
	 viewBox="0 0 824 224" enable-background="new 0 0 824 224" xml:space="preserve">
<g>
	<g id="Logotype_1_">
		<g>
			<path fill="#A02021" d="M416.432,58.96c-12.511-8.254-29.36-11.328-51.803-11.328l-42.442-0.021v140.521l43.331,0.02
				c15.428,0,28.689-1.982,39.777-6.431c11.137-4.543,19.848-11.754,25.753-22.146c5.901-10.384,8.988-23.917,8.988-41.131
				c0-14.879-1.872-27.05-5.756-36.854C430.395,71.771,424.459,64.323,416.432,58.96z M405.069,142.754
				c-2.093,7.009-5.44,12.354-10.639,16.076c-5.715,4.032-14.342,6.228-24.999,6.228h-15.189l-0.023-94.321l12.752,0.014
				c12.555,0.044,21.848,2.048,28.103,6.648c4.571,3.407,7.755,8.166,9.837,14.655c2.079,6.503,3.003,14.698,3.003,24.851
				C407.914,127.064,407.157,135.727,405.069,142.754z"/>
			<path fill="#A02021" d="M416.432,58.96c-12.511-8.254-29.36-11.328-51.803-11.328l-42.442-0.021v140.521l43.331,0.02
				c15.428,0,28.689-1.982,39.777-6.431c11.137-4.543,19.848-11.754,25.753-22.146c5.901-10.384,8.988-23.917,8.988-41.131
				c0-14.879-1.872-27.05-5.756-36.854C430.395,71.771,424.459,64.323,416.432,58.96z M405.069,142.754
				c-2.093,7.009-5.44,12.354-10.639,16.076c-5.715,4.032-14.342,6.228-24.999,6.228h-15.189l-0.023-94.321l12.752,0.014
				c12.555,0.044,21.848,2.048,28.103,6.648c4.571,3.407,7.755,8.166,9.837,14.655c2.079,6.503,3.003,14.698,3.003,24.851
				C407.914,127.064,407.157,135.727,405.069,142.754z"/>
			<polygon display="none" fill="#9F2122" points="243.027,128.243 280.205,128.243 280.205,105.349 243.027,105.349 
				243.027,70.652 300.309,70.652 300.309,47.61 210.871,47.61 210.871,188.131 300.327,188.131 300.327,164.827 243.027,164.827 
							"/>
			<polygon fill="#A02021" points="460.158,188.131 492.252,188.131 492.252,128.243 529.348,128.243 529.348,105.349 
				492.252,105.349 492.252,70.743 549.56,70.75 549.56,47.61 460.158,47.61 			"/>
			<path fill="#A02021" d="M569.872,188.131h32.136V47.61h-32.136C569.872,47.61,569.632,188.131,569.872,188.131z"/>
			<polygon fill="#A02021" points="743.225,47.61 710.964,47.61 710.964,128.243 651.25,47.61 625.523,47.61 625.523,188.131 
				657.802,188.131 657.802,105.37 716.868,188.131 743.225,188.131 			"/>
			<polygon display="none" fill="#9F2122" points="243.027,128.243 280.205,128.243 280.205,105.349 243.027,105.349 
				243.027,70.652 300.309,70.652 300.309,47.61 210.871,47.61 210.871,188.131 300.327,188.131 300.327,164.827 243.027,164.827 
							"/>
			<polygon fill="#A02021" points="460.158,188.131 492.252,188.131 492.252,128.243 529.348,128.243 529.348,105.349 
				492.252,105.349 492.252,70.743 549.56,70.75 549.56,47.61 460.158,47.61 			"/>
			<polygon fill="#A02021" points="743.225,47.61 710.964,47.61 710.964,128.243 651.25,47.61 625.523,47.61 625.523,188.131 
				657.802,188.131 657.802,105.37 716.868,188.131 743.225,188.131 			"/>
		</g>
		<path fill="#A02021" d="M200.944,193.49c-2.698-1.081-5.405-3.146-12.667-15.372l-14.469-23.99l-17.055-28.279l-1.447-2.404
			c0.835-0.235,1.654-0.504,2.465-0.778c19.578-6.712,31.007-24.634,31.007-50.208c0-12.637-5.111-24.309-14.869-33.044
			c-1.422-1.207-2.892-2.361-4.465-3.414c-13.026-8.593-30.571-11.798-53.94-11.798l-44.196-0.021h-0.021v0.011h-0.65
			c-2.873-0.037-3.145,1.617-2.018,3.114c1.017,1.331,2.168,3.11,2.668,7.628v141.088c-0.498,5.743-1.667,7.573-2.668,8.897
			c-1.139,1.493-0.636,3.201,2.237,3.168h32.725v-59.844h14.874l10.448,17.751l13.14,22.33l6.387,10.854
			c8.116,13.661,15.218,21.229,29.356,22.848c1.928,0.253,3.986,0.376,6.203,0.395c0.173,0,2.018,0,2.188,0
			c5.084,0,10.048-2.04,13.138-3.353c0.42-0.155,0.829-0.319,1.234-0.499C204.259,196.926,203.232,194.401,200.944,193.49z
			 M124.371,105.349h-19.693h-1.098V47.621h20.791c10.292,0,18.139,1.334,24.016,6.673c2.172,2.055,3.85,4.542,5.04,7.541
			c1.443,3.635,2.169,8.011,2.169,13.281C155.596,82.787,154.893,105.349,124.371,105.349z"/>
		<polygon fill="#A02021" points="243.027,128.265 280.205,128.265 280.205,105.374 243.027,105.374 243.027,70.679 300.309,70.679 
			300.309,47.632 210.871,47.632 210.871,188.151 300.327,188.151 300.327,164.852 243.027,164.852 		"/>
	</g>
</g>
<g>
	<path fill="#A02021" d="M757.625,174.105c3.807,0,7.2,2.738,7.2,6.995c0,4.274-3.394,7.031-7.2,7.031c-3.807,0-7.2-2.757-7.2-7.031
		C750.425,176.843,753.818,174.105,757.625,174.105z M757.625,186.63c2.906,0,5.288-2.324,5.288-5.53
		c0-3.188-2.382-5.495-5.288-5.495c-2.943,0-5.287,2.308-5.287,5.495C752.338,184.306,754.682,186.63,757.625,186.63z
		 M754.831,177.161h2.964c1.968,0,3.074,0.619,3.074,2.325c0,1.444-0.919,2.006-2.062,2.101l2.101,3.432h-1.632l-1.913-3.357h-0.975
		v3.357h-1.557V177.161z M756.388,180.443h1.388c0.899,0,1.537-0.132,1.537-1.089c0-0.824-0.9-0.975-1.612-0.975h-1.312V180.443z"/>
</g>
</svg>
