<?xml version="1.0" encoding="utf-8"?>
<!-- Generator: Adobe Illustrator 22.0.1, SVG Export Plug-In . SVG Version: 6.00 Build 0)  -->
<svg version="1.1" id="Layer_1" xmlns="http://www.w3.org/2000/svg" xmlns:xlink="http://www.w3.org/1999/xlink" x="0px" y="0px"
	 width="233px" height="46.8px" viewBox="0 0 233 46.8" style="enable-background:new 0 0 233 46.8;" xml:space="preserve">
<style type="text/css">
	.st0{fill:#E22726;}
</style>
<g>
	<g>
		<g>
			<g>
				<g>
					<path class="st0" d="M206.1,23.7h-6.6V5.3h6.6V0h-6.6c-2.9,0-5.2,2.4-5.2,5.2v18.5c0,2.9,2.4,5.2,5.2,5.2h6.6V23.7z"/>
				</g>
				<g>
					<path class="st0" d="M211.4,5.3h6.6v18.4h-6.6V29h6.6c2.9,0,5.2-2.4,5.2-5.2V5.3c0-2.9-2.4-5.2-5.2-5.2h-6.6V5.3z"/>
				</g>
			</g>
			<path class="st0" d="M14.7,39.6C6.8,39.6,1,35.4,0,28.8h8.1c1.1,2.6,4.3,3.6,6.6,3.6c3.2,0,5.6-1,5.6-2.8c0-1.7-1.1-2.5-6.5-3.3
				C8.3,25.5,0.9,24,0.9,17c0-4.9,4.3-9.9,13.2-9.9c7.1,0,12.4,3.8,13.4,9.7h-8.2c-0.5-1.4-2.2-2.6-5.2-2.6c-3.7,0-5.2,1.3-5.2,2.5
				c0,1.6,2.3,2.2,6.1,2.8c7.7,1.3,13.2,2.9,13.2,9.7C28.2,35.3,22.6,39.6,14.7,39.6"/>
			<path class="st0" d="M46.7,38.8c-9.1,1-13.9-4.5-13.9-13v-9h-3.7v-7h3.7V0.1h7.9v9.7h6v7h-6v9.1c0,4.3,2,6,6,5.7
				C46.7,31.6,46.7,38.8,46.7,38.8z"/>
			<path class="st0" d="M100.4,39.6c-3.5,0-6.7-1.4-9.1-3.7v10.9h-8V7.9h7.6v3.2c2.4-2.5,5.7-4,9.4-4c8.1,0,14.7,7,14.7,16.1
				C115.1,32.5,108.5,39.6,100.4,39.6 M99.2,14.6c-4.4,0-7.9,3.9-7.9,8.7c0,4.9,3.5,8.8,7.9,8.8s7.9-3.8,7.9-8.8
				C107.2,18.3,103.6,14.6,99.2,14.6"/>
			<rect x="117.7" class="st0" width="7.9" height="38.9"/>
			<path class="st0" d="M136.3,26.5c1,3.8,4,6.1,7.8,6.1c2.6,0,5.2-1.1,6.6-3.6h8.5c-1.8,6.3-7.3,10.6-15,10.6
				c-8.7,0-15.9-7.2-15.9-16.2s7.2-16.3,15.9-16.3c9.1,0,16.7,7.1,15.6,19.4H136.3z M151.8,20c-1-3.6-4-5.9-7.8-5.9
				c-3.6,0-6.5,2.3-7.6,5.9H151.8z"/>
			<path class="st0" d="M175.7,19.5c-3.8-0.6-6.1-1.1-6.1-2.8c0-1.1,1.5-2.5,5.2-2.5c2.9,0,4.7,1.1,5.2,2.6h8.2
				c-1-5.8-6.3-9.7-13.4-9.7c-9,0-13.2,5.1-13.2,9.9c0,6.9,7.4,8.4,12.9,9.3c5.4,0.8,6.5,1.6,6.5,3.3c0,1.8-2.4,2.8-5.6,2.8
				c-2.3,0-5.3-0.9-6.5-3.4h-8.1c1.1,6.5,6.9,10.6,14.6,10.6c7.9,0,13.6-4.3,13.6-10.5C189,22.4,183.4,20.7,175.7,19.5"/>
			<path class="st0" d="M62.5,7.2c3.5,0,6.7,1.4,9.1,3.7v-3h8v31H72v-3.2c-2.4,2.5-5.7,4-9.4,4c-8.1,0-14.7-7-14.7-16.1
				C47.8,14.3,54.4,7.2,62.5,7.2 M63.7,32.2c4.4,0,7.9-3.9,7.9-8.7c0-4.9-3.5-8.8-7.9-8.8s-7.9,3.8-7.9,8.8
				C55.7,28.5,59.3,32.2,63.7,32.2"/>
		</g>
	</g>
	<g>
		<path class="st0" d="M226.7,2.3h2.5v0.8h-0.8v2.2h-0.9V3.1h-0.8V2.3z M233,2.3v3h-0.9V3.7l-0.8,1l-0.8-1v1.6h-0.9v-3h0.8l0.9,1.2
			l0.9-1.2H233z"/>
	</g>
</g>
</svg>
