<?xml version="1.0" encoding="utf-8"?>
<!-- Generator: Adobe Illustrator 19.0.0, SVG Export Plug-In . SVG Version: 6.00 Build 0)  -->
<svg version="1.1" id="Layer_1" xmlns="http://www.w3.org/2000/svg" xmlns:xlink="http://www.w3.org/1999/xlink" x="0px" y="0px"
	 viewBox="422.906 132.978 104.25 21.125" enable-background="new 422.906 132.978 104.25 21.125" xml:space="preserve">
<path d="M498.583,141.053c-1.026,0-1.858-0.833-1.858-1.859c0-1.027,0.832-1.859,1.858-1.859c1.026,0,1.859,0.832,1.859,1.859
	C500.441,140.22,499.609,141.053,498.583,141.053L498.583,141.053z M498.583,149.834c1.026,0,1.859-0.832,1.859-1.858
	c0-1.026-0.833-1.859-1.859-1.859c-1.026,0-1.858,0.833-1.858,1.859C496.725,149.002,497.557,149.834,498.583,149.834
	L498.583,149.834z"/>
<path fill="#E40D2E" d="M435.185,148.307c0,2.703-1.676,4.703-4.865,4.703c-3.216,0-5.19-2.162-5.19-4.946v-8.919
	c0-2.784,1.973-4.946,5.19-4.946c3.189,0,4.865,2,4.865,4.703v2.189h-3v-2.162c0-1.054-0.595-1.784-1.811-1.784
	c-1.216,0-1.838,0.73-1.838,1.73v9.46c0,1,0.622,1.729,1.838,1.729c1.216,0,1.811-0.729,1.811-1.784v-2.162h3V148.307
	L435.185,148.307z M447.421,148.09c0,2.865-1.946,4.92-5.108,4.92c-3.136,0-5.109-2.055-5.109-4.92v-8.973
	c0-2.838,1.973-4.892,5.109-4.892c3.162,0,5.108,2.054,5.108,4.892V148.09L447.421,148.09z M444.042,148.307V138.9
	c0-1.054-0.622-1.757-1.729-1.757c-1.082,0-1.703,0.703-1.703,1.757v9.406c0,1.054,0.622,1.757,1.703,1.757
	C443.421,150.063,444.042,149.36,444.042,148.307L444.042,148.307z M458.959,137.576v-2.973h-10v2.973h3.325v15.028h3.379v-15.028
	H458.959L458.959,137.576z M470.498,137.576v-2.973h-10.001v2.973h3.325v15.028h3.378v-15.028H470.498L470.498,137.576z
	 M482.253,148.09c0,2.865-1.946,4.92-5.108,4.92c-3.136,0-5.108-2.055-5.108-4.92v-8.973c0-2.838,1.974-4.892,5.108-4.892
	c3.162,0,5.108,2.054,5.108,4.892V148.09L482.253,148.09z M478.874,148.307V138.9c0-1.054-0.621-1.757-1.73-1.757
	c-1.081,0-1.703,0.703-1.703,1.757v9.406c0,1.054,0.622,1.757,1.703,1.757C478.253,150.063,478.874,149.36,478.874,148.307
	L478.874,148.307z M494.705,152.605v-18.001h-3.027v10.676l-1.189-2.865l-3.324-7.811h-2.892v18.001h3.081v-10.542l1.271,2.865
	l3.486,7.677H494.705L494.705,152.605z M512.678,148.09c0,2.865-1.945,4.92-5.108,4.92c-3.135,0-5.108-2.055-5.108-4.92v-8.973
	c0-2.838,1.974-4.892,5.108-4.892c3.163,0,5.108,2.054,5.108,4.892V148.09L512.678,148.09z M509.3,148.307V138.9
	c0-1.054-0.622-1.757-1.73-1.757c-1.081,0-1.702,0.703-1.702,1.757v9.406c0,1.054,0.621,1.757,1.702,1.757
	C508.678,150.063,509.3,149.36,509.3,148.307L509.3,148.307z M525.131,152.605v-18.001h-3.027v10.676l-1.189-2.865l-3.324-7.811
	h-2.893v18.001h3.081v-10.542l1.271,2.865l3.487,7.677H525.131L525.131,152.605z"/>
</svg>
