<?xml version="1.0" encoding="utf-8"?>
<!-- Generator: Adobe Illustrator 19.0.0, SVG Export Plug-In . SVG Version: 6.00 Build 0)  -->
<svg version="1.1" id="Layer_1" xmlns="http://www.w3.org/2000/svg" xmlns:xlink="http://www.w3.org/1999/xlink" x="0px" y="0px"
	 viewBox="0 0 765.072 359.982" enable-background="new 0 0 765.072 359.982" xml:space="preserve">
<g>
	<g>
		<g>
			<g>
				<path fill-rule="evenodd" clip-rule="evenodd" fill="#ED1C24" d="M177.37,248.283c0-6.438,15.092-41.571,20.775-54.068
					l2.079-7.281c-9.471,8.609-35.507,42.687-69.532,60.883v28.077l50.788,49.855l50.788-49.855v-34.318
					c-12.472,8.862-27.547,15.795-43.534,15.795C181.916,257.37,177.37,254.341,177.37,248.283z"/>
				<path fill-rule="evenodd" clip-rule="evenodd" fill="#ED1C24" d="M181.916,115.738c0,11.742-52.26,98.084-52.26,109.062
					c0,3.792,2.271,6.063,6.057,6.063c14.012,0,42.795-29.161,69.302-61.732c10.227-12.496,19.695-29.915,25.373-41.275
					c0.675-1.344,1.298-2.613,1.88-3.812V81.323L181.48,31.47l-50.788,49.853v35.53c11.978-7.871,25.289-13.991,37.213-13.991
					C175.857,102.862,181.916,106.648,181.916,115.738z"/>
				<path fill-rule="evenodd" clip-rule="evenodd" fill="#ED1C24" d="M132.211,127.794l-49.137,0.026l-49.855,50.791L83.074,229.4
					h6.934c12.066-31.41,47.138-88.898,48.447-93.183C139.885,131.537,136.764,127.794,132.211,127.794z"/>
				<path fill-rule="evenodd" clip-rule="evenodd" fill="#ED1C24" d="M235.076,229.4h44.715l49.855-50.788l-49.855-50.791h-13.95
					c-15.159,33.625-40.783,86.73-42.208,89.801C216.589,232.79,231.191,228.118,235.076,229.4z"/>
			</g>
			<path d="M530.73,114.21v-0.012h-33.832v0.012h-37.364l-18.498,78.858c-2.597,11.081-5.266,20.841-18.97,20.841
				s-11.79-9.76-9.193-20.841l18.502-78.858H379.93l-19.645,83.738c-9.692,41.306,11.815,60.087,51.43,60.087
				c39.617,0,69.935-18.781,79.623-60.087l10.074-42.937h29.319v-0.016h7.35l-23.642,100.781h51.443l23.643-100.781h36.086
				l9.88-40.786H530.73z"/>
		</g>
		<g>
			<polygon fill="#939598" points="689.69,154.927 699.243,114.21 647.799,114.21 638.247,154.927 			"/>
			<polygon fill="#939598" points="636.81,161.056 614.584,255.777 666.03,255.777 688.252,161.056 			"/>
		</g>
	</g>
</g>
<g>
	<path fill="#939598" d="M713.732,114.515c5.161,0,9.169,4.007,9.169,9.004c0,5.106-4.008,9.059-9.224,9.059
		c-5.161,0-9.279-3.953-9.279-9.059c0-4.997,4.118-9.004,9.279-9.004H713.732z M713.623,116.327c-3.954,0-6.918,3.239-6.918,7.192
		c0,4.008,2.964,7.192,7.027,7.192c3.953,0.055,6.862-3.184,6.862-7.192c0-3.953-2.909-7.192-6.917-7.192H713.623z M712.25,128.186
		h-2.086v-8.949c0.823-0.164,1.976-0.329,3.459-0.329c1.702,0,2.471,0.274,3.13,0.714c0.493,0.384,0.878,1.098,0.878,1.922
		c0,1.042-0.769,1.812-1.866,2.141v0.109c0.878,0.275,1.372,0.988,1.646,2.196c0.275,1.373,0.44,1.922,0.659,2.196h-2.25
		c-0.275-0.329-0.44-1.098-0.714-2.141c-0.166-0.988-0.714-1.427-1.866-1.427h-0.989V128.186z M712.305,123.135h0.989
		c1.152,0,2.086-0.385,2.086-1.318c0-0.824-0.604-1.373-1.922-1.373c-0.549,0-0.933,0.055-1.153,0.11V123.135z"/>
</g>
</svg>
