<?xml version="1.0" encoding="UTF-8" standalone="no"?>
<svg xmlns="http://www.w3.org/2000/svg" xmlns:xlink="http://www.w3.org/1999/xlink" version="1.0" width="500" height="55">
 <defs id="defs5070">
  <linearGradient id="linearGradient5191">
   <stop id="stop5193" stop-color="#8ba68a"/>
   <stop id="stop5195" offset="1" stop-color="#98cc00"/>
  </linearGradient>
  <linearGradient x1="121.86" x2="535.28" id="linearGradient5197" xlink:href="#linearGradient5191" gradientUnits="userSpaceOnUse"/>
 </defs>
 <g transform="translate(-92.576998,-502.93473)" id="layer1">
  <g transform="matrix(1.2094823,0,0,1.2094823,-54.824339,-69.020767)" id="g5164" fill="url(#linearGradient5197)">
   <path d="M 137.54743,474.22485 C 139.25843,474.27185 141.77343,474.03381 141.77343,475.98284 C 141.77343,476.74084 141.15643,478.78381 140.96543,479.54583 L 132.51243,511.03782 C 131.84843,513.55282 130.46943,516.31082 127.47743,516.31082 C 126.85943,516.31082 126.19543,516.02582 125.76643,515.69382 C 125.43443,515.17082 125.48143,514.88482 125.52743,514.26782 C 125.57443,513.12782 124.95743,512.17782 123.72343,512.17782 C 122.58243,512.17782 121.87143,513.03382 121.87143,514.07682 C 121.87143,516.59582 125.24243,517.35382 127.23843,517.35382 C 131.89543,517.35382 135.02743,514.74082 136.88343,510.65882 C 138.30543,507.47482 139.25843,503.38882 140.16043,499.97082 L 145.00443,480.92083 C 145.33643,479.78381 146.28543,476.31482 147.00043,475.41284 C 147.85243,474.22485 149.70743,474.27185 151.03543,474.22485 L 151.32043,473.17785 L 137.83243,473.17785 L 137.54743,474.22485 z M 153.63743,505.14682 C 159.81343,505.14682 164.56343,497.31082 164.56343,491.75282 C 164.56343,487.76385 162.42243,484.05682 158.00843,484.05682 C 151.59443,484.05682 147.03543,492.70182 147.03543,498.21382 C 147.03543,502.29582 149.50443,505.14682 153.63743,505.14682 z M 153.68443,504.10382 C 151.44943,504.10382 150.45343,502.67782 150.45343,500.54182 C 150.45343,496.64282 153.25843,485.10382 158.24243,485.10382 C 160.19143,485.10382 161.14143,486.90881 161.14143,488.61584 C 161.14143,492.60782 158.91043,504.10382 153.68443,504.10382 z" id="path465" fill-rule="evenodd" stroke-width="0" stroke-miterlimit="10"/>
   <path d="M 177.23843,495.40882 C 176.76243,496.69382 175.67243,499.68582 175.62543,502.01382 C 175.62543,503.76782 176.19543,505.14682 178.37943,505.14682 C 181.79743,505.14682 184.07843,500.87382 185.26643,498.11582 L 184.22343,497.68982 C 183.46143,499.25682 181.03943,503.72082 179.13743,503.72082 C 177.76243,503.72082 178.85243,501.10782 178.99643,500.68182 L 181.08643,495.07682 C 181.79743,493.13182 182.60643,490.51782 182.60643,488.33081 C 182.65243,486.05285 181.89543,484.24884 179.23443,484.24884 C 175.52743,484.24884 173.10643,487.90484 171.25443,490.56482 L 171.16043,490.47082 L 176.33643,472.89282 L 168.64143,473.36981 L 168.35643,474.4168 L 169.07043,474.4168 C 170.16043,474.46386 171.72743,474.4168 171.72743,475.93585 C 171.72743,476.64685 171.34843,477.88183 171.16043,478.64282 L 163.60643,504.52982 L 166.78943,504.52982 L 167.59843,502.06082 C 168.78543,498.45182 173.15243,485.67083 178.33243,485.67083 C 179.18843,485.67083 179.75843,486.2918 179.75843,487.14282 C 179.75843,488.52185 178.66443,491.51382 178.18843,492.89282 L 177.23843,495.40882 z M 192.68843,503.05682 C 193.82443,499.30282 195.29743,495.02982 197.24643,491.60782 C 198.34043,489.66284 201.09443,485.48284 203.66043,485.48284 C 204.60943,485.48284 205.27343,486.24084 205.27343,487.09582 C 205.27343,488.71386 204.13343,491.27582 203.56343,492.74882 L 202.70743,495.07682 C 202.09043,496.92782 200.94943,499.82682 200.94943,501.77582 C 200.94943,503.67482 202.04343,505.14682 204.08643,505.14682 C 207.36343,505.14682 209.64543,500.82682 210.87943,498.21382 L 209.88343,497.73682 C 209.21543,499.25682 206.93843,503.72082 205.03543,503.72082 C 204.37143,503.72082 204.03943,502.81882 204.03943,502.29582 C 204.03943,501.34582 205.32043,498.11582 205.65243,497.16682 L 206.50843,494.88882 C 207.27043,492.89282 208.12543,490.04182 208.12543,487.90484 C 208.12543,485.81482 206.55543,484.05682 204.41843,484.05682 C 200.33243,484.05682 197.57843,488.6668 195.96543,491.79982 L 195.86743,491.70582 L 196.01243,490.84982 C 196.15243,489.80282 196.39143,488.33081 196.39143,487.33483 C 196.39143,485.52984 195.44143,484.05682 193.49243,484.05682 C 189.78943,484.05682 188.03143,488.71386 186.79743,491.46782 L 187.74643,491.79982 C 188.50843,490.37382 190.54743,485.48284 192.44943,485.48284 C 193.30543,485.48284 193.35243,486.47882 193.35243,487.00286 C 193.35243,490.27982 190.83243,498.21382 189.74243,501.53782 L 188.69543,504.52982 L 192.25843,504.52982 L 192.68843,503.05682 z" id="path469" fill-rule="evenodd" stroke-width="0" stroke-miterlimit="10"/>
   <path d="M 245.20743,496.64282 L 244.16043,496.64282 C 241.69143,502.67782 238.98443,503.58082 232.90243,503.58082 C 231.14543,503.58082 226.44543,504.15082 226.44543,501.10782 C 226.44543,500.06482 226.87143,498.40082 227.15643,497.35782 L 231.57443,480.97082 C 231.90643,479.83081 232.85643,476.36181 233.57043,475.45983 C 234.42243,474.27185 236.27743,474.22485 237.60643,474.22485 L 237.89143,473.17785 L 224.44943,473.17785 L 224.16443,474.22485 C 225.30543,474.22485 228.34443,473.98681 228.34443,475.88885 C 228.34443,476.69384 227.68043,478.73681 227.44143,479.54583 L 222.26243,498.73282 C 221.26643,502.24882 220.93443,503.76782 216.75443,503.58082 L 216.46943,504.62382 L 243.07043,504.62382 L 245.20743,496.64282 z" id="path473" fill-rule="evenodd" stroke-width="0" stroke-miterlimit="10"/>
   <path d="M 259.28943,498.40082 C 257.57843,500.68182 255.29743,504.10382 252.11743,504.10382 C 250.50043,504.10382 249.78943,502.86582 249.78943,501.39282 C 249.78943,499.87382 250.16843,498.40082 250.59843,497.02582 L 251.35643,496.69382 C 255.15643,495.12382 262.13743,492.32282 262.13743,487.33483 C 262.13743,485.33886 260.66443,484.05682 258.71943,484.05682 C 252.07043,484.05682 246.36743,493.74882 246.36743,499.73282 C 246.36743,503.00982 248.36343,505.14682 251.68843,505.14682 C 255.48843,505.14682 258.19543,501.91682 260.14543,499.01782 L 259.28943,498.40082 z M 250.97743,495.74082 C 251.73443,492.89282 254.58643,485.10382 258.05543,485.10382 C 259.00443,485.10382 259.52743,485.72082 259.52743,486.67083 C 259.52743,490.89682 254.34843,494.26782 250.97743,495.74082 z" id="path477" fill-rule="evenodd" stroke-width="0" stroke-miterlimit="10"/>
   <path d="M 266.97743,485.24481 C 265.22343,485.24481 264.17643,486.67083 264.17643,488.38183 C 264.17643,488.85382 264.32043,490.23282 264.98443,490.23282 C 265.17243,490.23282 265.22343,490.08882 265.22343,489.90082 L 265.22343,489.47082 C 265.22343,488.95184 265.41043,488.18982 266.07443,488.18982 C 266.50443,488.18982 266.88343,488.38183 267.26243,488.52185 C 267.88343,488.90081 268.21543,488.85382 268.87943,488.99884 C 270.11343,488.99884 270.82443,488.42785 271.77743,487.85784 L 271.87143,487.95184 C 269.68843,491.27582 265.50843,496.64282 265.50843,500.72882 C 265.50843,503.48282 267.64543,505.14682 270.30543,505.14682 C 273.19943,505.14682 275.62543,503.15082 277.19143,500.82682 C 277.28543,503.24882 278.66443,505.14682 281.27743,505.14682 C 288.25843,505.14682 292.58243,493.46382 292.58243,487.6668 C 292.58243,486.2918 292.39143,484.05682 290.53943,484.05682 C 289.11343,484.05682 288.73443,485.15081 288.73443,486.33886 C 288.73443,486.90881 288.87543,487.42785 288.97343,487.95184 C 289.20743,489.23284 289.35243,490.23282 289.35243,491.56082 C 289.35243,494.83882 286.83243,503.72082 282.46543,503.72082 C 280.84843,503.72082 280.27743,501.82282 280.27743,500.44382 C 280.27743,497.02582 283.32043,489.42486 283.32043,487.61981 C 283.32043,486.67083 282.60643,486.00683 281.70343,486.00683 C 281.03943,486.00683 280.60943,486.33886 280.32443,486.85784 C 279.85243,487.76385 279.32843,490.13882 279.04343,491.13482 L 278.47343,493.27182 C 277.71543,496.35782 275.85943,503.72082 272.15643,503.72082 C 270.02043,503.72082 269.63743,500.96782 269.63743,499.30282 C 269.63743,495.97882 271.82443,490.23282 273.53543,487.42785 C 273.82043,486.90881 274.81643,485.52984 274.81643,484.81884 C 274.81643,484.38885 274.43843,484.05682 274.00843,484.05682 C 272.29743,484.05682 273.86743,487.09582 270.44543,487.09582 C 269.40243,487.09582 268.87943,485.24481 266.97743,485.24481 z" id="path481" fill-rule="evenodd" stroke-width="0" stroke-miterlimit="10"/>
   <path d="M 298.64543,495.31482 C 297.88743,497.16682 296.55543,499.73282 296.55543,501.72882 C 296.55543,503.58082 297.69543,505.14682 299.64543,505.14682 C 302.73143,505.14682 305.19943,500.96782 306.38743,498.49882 L 305.43843,498.02182 C 304.72743,499.49482 302.16043,503.72082 300.35643,503.72082 C 299.93043,503.72082 299.64543,503.29582 299.64543,502.91682 C 299.64543,502.06082 300.78543,499.20982 301.07043,498.40082 L 302.59043,494.55282 C 303.44543,492.41682 304.82043,489.56884 304.82043,487.28784 C 304.82043,485.62384 303.68043,484.05682 301.87543,484.05682 C 298.83643,484.05682 296.88743,487.81085 295.51243,490.13882 L 296.46143,490.65882 C 297.12543,489.37786 299.45343,485.48284 300.92643,485.48284 C 301.44943,485.48284 301.73443,485.95581 301.73443,486.43182 C 301.73443,487.57281 300.40243,490.99082 299.97743,492.13182 L 298.64543,495.31482 z M 304.72743,477.69384 C 305.91443,477.69384 306.91043,476.74084 306.91043,475.60382 C 306.91043,474.36584 306.00843,473.36981 304.72743,473.36981 C 303.49243,473.36981 302.59043,474.36584 302.59043,475.60382 C 302.59043,476.7918 303.58643,477.69384 304.72743,477.69384 z" id="path485" fill-rule="evenodd" stroke-width="0" stroke-miterlimit="10"/>
   <path d="M 311.78943,489.66284 C 311.78943,493.74882 317.29743,497.21382 317.29743,500.54182 C 317.29743,502.91682 315.39843,504.10382 313.16443,504.10382 C 312.02743,504.10382 310.22343,503.67482 310.22343,502.24882 C 310.22343,501.82282 310.36343,501.39282 310.36343,500.96782 C 310.36343,500.15882 309.69943,499.54182 308.93843,499.54182 C 307.98843,499.54182 307.70343,500.39682 307.70343,501.29982 C 307.70343,504.19782 311.12543,505.14682 313.44943,505.14682 C 317.29743,505.14682 320.81343,503.05682 320.71943,498.92482 C 320.62543,494.22082 315.20743,491.32682 315.20743,487.99884 C 315.20743,486.24084 316.77743,485.10382 318.39143,485.10382 C 321.76243,485.10382 319.34043,488.28381 321.76243,488.28381 C 322.47743,488.28381 322.94943,487.76385 322.94943,487.04986 C 322.94943,484.81884 320.10243,484.05682 318.34443,484.05682 C 314.92243,484.05682 311.78943,486.00683 311.78943,489.66284 z" id="path489" fill-rule="evenodd" stroke-width="0" stroke-miterlimit="10"/>
   <path d="M 336.07043,474.22485 C 337.21143,474.27185 340.25043,473.98681 340.25043,475.88885 C 340.25043,476.69384 339.58643,478.73681 339.34843,479.54583 L 334.21943,498.73282 C 333.22343,502.24882 332.88743,503.76782 328.70743,503.58082 L 328.42243,504.62382 L 341.77043,504.62382 L 342.10243,503.58082 C 340.44143,503.53382 337.97343,503.81882 337.97343,502.01382 C 337.97343,501.25282 338.68443,499.11582 338.87543,498.35382 L 341.19943,489.75682 C 342.62543,489.80282 344.00443,489.90082 345.43043,489.94782 C 351.46143,489.94782 359.34843,488.14282 359.48843,480.58886 C 359.34843,474.17785 352.64843,473.27581 347.61343,473.17785 L 336.35643,473.17785 L 336.07043,474.22485 z M 344.66843,476.7918 C 344.76243,476.40881 345.00043,475.36584 345.19143,475.03381 C 345.71543,474.22485 347.56643,474.22485 348.18443,474.22485 C 351.55543,474.22485 354.73843,475.74481 354.73843,479.68585 C 354.73843,485.72082 350.27343,488.80682 344.62143,488.80682 C 343.57443,488.71386 342.53143,488.6668 341.48443,488.56884 L 344.66843,476.7918 z" id="path493" fill-rule="evenodd" stroke-width="0" stroke-miterlimit="10"/>
   <path d="M 367.14543,485.10382 C 368.52043,485.10382 369.37543,486.33886 369.37543,487.61981 C 369.37543,490.32682 367.76243,494.41282 366.62143,496.88182 C 365.34043,499.58882 363.01243,504.10382 359.63743,504.10382 C 357.97743,504.10382 357.31343,502.29582 357.31343,500.87382 C 357.31343,497.02582 362.39543,485.10382 367.14543,485.10382 z M 370.37543,486.62384 C 369.75843,485.05285 368.52043,484.05682 366.76243,484.05682 C 360.11343,484.05682 353.89143,493.41682 353.89143,499.54182 C 353.89143,502.63182 356.07443,505.14682 359.25843,505.14682 C 362.53543,505.14682 364.86343,502.24882 366.33643,499.63882 L 366.43043,499.73282 C 366.28943,500.58882 366.00443,501.49082 366.00443,502.43982 C 366.00443,504.15082 367.14543,505.14682 368.85243,505.14682 C 372.51243,505.14682 374.03143,500.44382 375.45743,497.68982 L 374.45743,497.26382 C 373.74643,498.68582 371.46543,503.72082 369.85243,503.72082 C 369.28143,503.72082 369.23443,503.00982 369.23443,502.58082 C 369.23443,499.77982 371.46543,492.74882 372.36743,490.32682 L 374.45743,484.67486 L 371.08643,484.67486 L 370.37543,486.62384 z" id="path497" fill-rule="evenodd" stroke-width="0" stroke-miterlimit="10"/>
   <path d="M 377.89143,491.42082 C 378.32043,490.32682 380.93043,485.48284 382.07043,485.48284 C 382.92643,485.48284 382.83243,487.6668 382.83243,488.09582 C 382.83243,490.47082 382.02343,494.36582 381.45343,496.69382 L 379.03143,504.52982 L 382.54743,504.52982 L 384.06643,500.01782 C 385.25443,496.40882 386.63343,492.17782 388.38743,488.80682 C 388.77043,488.04583 390.38343,485.48284 391.38343,485.48284 C 391.80943,485.48284 391.71543,486.19384 391.71543,486.47882 C 391.71543,487.42785 392.37943,487.99884 393.28143,487.99884 C 394.27743,487.99884 395.13343,487.19384 395.13343,486.24084 C 395.13343,484.81884 393.75843,484.05682 392.47343,484.05682 C 389.10243,484.05682 386.82043,489.04583 385.82443,491.70582 L 385.72743,491.60782 C 385.82443,490.56482 386.06343,489.51782 386.10943,488.47485 C 386.15643,486.57684 385.34843,484.05682 382.97343,484.05682 C 380.45743,484.05682 377.75043,488.85382 376.89543,491.04182 L 377.89143,491.42082 z" id="path501" fill-rule="evenodd" stroke-width="0" stroke-miterlimit="10"/>
   <path d="M 402.44543,478.07281 L 400.21143,484.67486 L 396.45743,484.67486 L 396.07843,485.72082 L 399.83243,485.72082 L 397.12543,495.07682 C 396.55543,497.02582 395.60243,499.97082 395.60243,501.96382 C 395.60243,503.81882 396.93443,505.14682 398.78543,505.14682 C 402.49243,505.14682 404.25043,500.72882 405.62543,498.02182 L 404.67643,497.49882 C 403.86743,499.01782 401.77743,503.72082 399.83243,503.72082 C 399.11743,503.72082 399.02343,503.10382 399.02343,502.43982 C 399.02343,500.72882 402.25443,489.28381 402.96543,486.95581 L 403.34843,485.72082 L 407.05143,485.72082 L 407.38343,484.67486 L 403.68043,484.67486 L 405.72343,478.07281 L 402.44543,478.07281 z" id="path505" fill-rule="evenodd" stroke-width="0" stroke-miterlimit="10"/>
   <path d="M 412.68843,503.05682 C 413.82443,499.30282 415.29743,495.02982 417.24643,491.60782 C 418.34043,489.66284 421.09443,485.48284 423.66043,485.48284 C 424.60943,485.48284 425.27343,486.24084 425.27343,487.09582 C 425.27343,488.71386 424.13343,491.27582 423.56343,492.74882 L 422.70743,495.07682 C 422.09043,496.92782 420.94943,499.82682 420.94943,501.77582 C 420.94943,503.67482 422.04343,505.14682 424.08643,505.14682 C 427.36343,505.14682 429.64543,500.82682 430.87943,498.21382 L 429.88343,497.73682 C 429.21543,499.25682 426.93843,503.72082 425.03543,503.72082 C 424.37143,503.72082 424.03943,502.81882 424.03943,502.29582 C 424.03943,501.34582 425.32043,498.11582 425.65243,497.16682 L 426.50843,494.88882 C 427.27043,492.89282 428.12543,490.04182 428.12543,487.90484 C 428.12543,485.81482 426.55543,484.05682 424.41843,484.05682 C 420.33243,484.05682 417.57843,488.6668 415.96543,491.79982 L 415.86743,491.70582 L 416.01243,490.84982 C 416.15243,489.80282 416.39143,488.33081 416.39143,487.33483 C 416.39143,485.52984 415.44143,484.05682 413.49243,484.05682 C 409.78943,484.05682 408.03143,488.71386 406.79743,491.46782 L 407.74643,491.79982 C 408.50843,490.37382 410.54743,485.48284 412.44943,485.48284 C 413.30543,485.48284 413.35243,486.47882 413.35243,487.00286 C 413.35243,490.27982 410.83243,498.21382 409.74243,501.53782 L 408.69543,504.52982 L 412.25843,504.52982 L 412.68843,503.05682 z" id="path509" fill-rule="evenodd" stroke-width="0" stroke-miterlimit="10"/>
   <path d="M 445.29143,498.40082 C 443.58143,500.68182 441.30143,504.10382 438.12143,504.10382 C 436.50143,504.10382 435.79143,502.86582 435.79143,501.39282 C 435.79143,499.87382 436.17143,498.40082 436.60143,497.02582 L 437.35143,496.69382 C 441.16143,495.12382 448.14143,492.32282 448.14143,487.33483 C 448.14143,485.33886 446.66143,484.05682 444.72143,484.05682 C 438.07143,484.05682 432.36743,493.74882 432.36743,499.73282 C 432.36743,503.00982 434.36343,505.14682 437.69143,505.14682 C 441.49143,505.14682 444.19143,501.91682 446.14143,499.01782 L 445.29143,498.40082 z M 436.98143,495.74082 C 437.73143,492.89282 440.58143,485.10382 444.05143,485.10382 C 445.00143,485.10382 445.53143,485.72082 445.53143,486.67083 C 445.53143,490.89682 440.35143,494.26782 436.98143,495.74082 z" id="path513" fill-rule="evenodd" stroke-width="0" stroke-miterlimit="10"/>
   <path d="M 449.89143,491.42082 C 450.32143,490.32682 452.93143,485.48284 454.07143,485.48284 C 454.92143,485.48284 454.83143,487.6668 454.83143,488.09582 C 454.83143,490.47082 454.02143,494.36582 453.45143,496.69382 L 451.03143,504.52982 L 454.55143,504.52982 L 456.07143,500.01782 C 457.25143,496.40882 458.63143,492.17782 460.39143,488.80682 C 460.77143,488.04583 462.38143,485.48284 463.38143,485.48284 C 463.81143,485.48284 463.71143,486.19384 463.71143,486.47882 C 463.71143,487.42785 464.38143,487.99884 465.28143,487.99884 C 466.28143,487.99884 467.13143,487.19384 467.13143,486.24084 C 467.13143,484.81884 465.76143,484.05682 464.47143,484.05682 C 461.10143,484.05682 458.82143,489.04583 457.82143,491.70582 L 457.73143,491.60782 C 457.82143,490.56482 458.06143,489.51782 458.11143,488.47485 C 458.16143,486.57684 457.35143,484.05682 454.97143,484.05682 C 452.46143,484.05682 449.75143,488.85382 448.89143,491.04182 L 449.89143,491.42082 z" id="path517" fill-rule="evenodd" stroke-width="0" stroke-miterlimit="10"/>
   <path d="M 468.79143,489.66284 C 468.79143,493.74882 474.30143,497.21382 474.30143,500.54182 C 474.30143,502.91682 472.40143,504.10382 470.16143,504.10382 C 469.03143,504.10382 467.22143,503.67482 467.22143,502.24882 C 467.22143,501.82282 467.36143,501.39282 467.36143,500.96782 C 467.36143,500.15882 466.70143,499.54182 465.94143,499.54182 C 464.99143,499.54182 464.70143,500.39682 464.70143,501.29982 C 464.70143,504.19782 468.12143,505.14682 470.45143,505.14682 C 474.30143,505.14682 477.81143,503.05682 477.72143,498.92482 C 477.62143,494.22082 472.21143,491.32682 472.21143,487.99884 C 472.21143,486.24084 473.78143,485.10382 475.39143,485.10382 C 478.76143,485.10382 476.34143,488.28381 478.76143,488.28381 C 479.48143,488.28381 479.95143,487.76385 479.95143,487.04986 C 479.95143,484.81884 477.10143,484.05682 475.34143,484.05682 C 471.92143,484.05682 468.79143,486.00683 468.79143,489.66284 z M 495.24143,495.40882 C 494.76143,496.69382 493.67143,499.68582 493.62143,502.01382 C 493.62143,503.76782 494.19143,505.14682 496.38143,505.14682 C 499.80143,505.14682 502.08143,500.87382 503.26143,498.11582 L 502.22143,497.68982 C 501.46143,499.25682 499.04143,503.72082 497.14143,503.72082 C 495.76143,503.72082 496.85143,501.10782 497.00143,500.68182 L 499.08143,495.07682 C 499.80143,493.13182 500.60143,490.51782 500.60143,488.33081 C 500.65143,486.05285 499.89143,484.24884 497.23143,484.24884 C 493.53143,484.24884 491.10143,487.90484 489.25143,490.56482 L 489.16143,490.47082 L 494.33143,472.89282 L 486.64143,473.36981 L 486.35143,474.4168 L 487.07143,474.4168 C 488.16143,474.46386 489.73143,474.4168 489.73143,475.93585 C 489.73143,476.64685 489.35143,477.88183 489.16143,478.64282 L 481.60143,504.52982 L 484.79143,504.52982 L 485.60143,502.06082 C 486.78143,498.45182 491.15143,485.67083 496.33143,485.67083 C 497.19143,485.67083 497.76143,486.2918 497.76143,487.14282 C 497.76143,488.52185 496.66143,491.51382 496.19143,492.89282 L 495.24143,495.40882 z" id="path521" fill-rule="evenodd" stroke-width="0" stroke-miterlimit="10"/>
   <path d="M 505.64143,495.31482 C 504.89143,497.16682 503.55143,499.73282 503.55143,501.72882 C 503.55143,503.58082 504.69143,505.14682 506.64143,505.14682 C 509.73143,505.14682 512.20143,500.96782 513.39143,498.49882 L 512.44143,498.02182 C 511.73143,499.49482 509.16143,503.72082 507.35143,503.72082 C 506.93143,503.72082 506.64143,503.29582 506.64143,502.91682 C 506.64143,502.06082 507.78143,499.20982 508.07143,498.40082 L 509.59143,494.55282 C 510.44143,492.41682 511.82143,489.56884 511.82143,487.28784 C 511.82143,485.62384 510.68143,484.05682 508.87143,484.05682 C 505.83143,484.05682 503.89143,487.81085 502.51143,490.13882 L 503.46143,490.65882 C 504.12143,489.37786 506.45143,485.48284 507.92143,485.48284 C 508.45143,485.48284 508.73143,485.95581 508.73143,486.43182 C 508.73143,487.57281 507.40143,490.99082 506.98143,492.13182 L 505.64143,495.31482 z M 511.73143,477.69384 C 512.91143,477.69384 513.91143,476.74084 513.91143,475.60382 C 513.91143,474.36584 513.01143,473.36981 511.73143,473.36981 C 510.49143,473.36981 509.59143,474.36584 509.59143,475.60382 C 509.59143,476.7918 510.58143,477.69384 511.73143,477.69384 z" id="path525" fill-rule="evenodd" stroke-width="0" stroke-miterlimit="10"/>
   <path d="M 526.67143,477.35784 L 523.39143,476.88482 L 522.06143,482.10784 C 521.35143,484.86584 520.83143,485.52984 518.55143,487.19384 C 516.22143,488.95184 514.56143,490.32682 513.75143,493.27182 L 514.70143,493.65082 C 515.98143,490.32682 517.64143,489.33081 520.54143,487.33483 L 513.94143,511.46382 C 513.66143,512.46382 513.04143,514.97882 512.37143,515.78782 C 511.76143,516.40482 510.71143,516.45182 509.90143,516.49882 L 509.62143,517.54582 L 519.35143,517.54582 L 519.69143,516.49882 C 518.78143,516.45182 516.46143,516.54582 516.46143,514.93182 C 516.46143,513.88882 517.60143,510.08882 517.88143,509.04182 L 519.69143,502.63182 C 520.21143,504.10382 521.82143,505.14682 523.35143,505.14682 C 530.14143,505.14682 535.27143,496.02582 535.27143,490.08882 C 535.27143,486.95581 533.41143,484.05682 530.00143,484.05682 C 526.76143,484.05682 525.15143,486.38482 523.58143,488.75982 L 523.49143,488.6668 L 526.67143,477.35784 z M 529.38143,485.10382 C 530.99143,485.10382 531.85143,486.85784 531.85143,488.28381 C 531.85143,492.22882 527.86143,504.10382 523.06143,504.10382 C 521.44143,504.10382 520.69143,502.24882 520.69143,500.87382 C 520.69143,496.92782 524.58143,485.10382 529.38143,485.10382 z" id="path529" fill-rule="evenodd" stroke-width="0" stroke-miterlimit="10"/>
  </g>
 </g>
</svg>
