<svg xmlns="http://www.w3.org/2000/svg" width="165" height="48" viewBox="0 0 165 48">
  <g fill="none" transform="translate(.036 .578)">
    <path fill="#95BF47" d="M35.2370703,8.92409975 C35.2042611,8.69443542 35.007406,8.56319866 34.84336,8.56319866 C34.6793141,8.56319866 31.1687307,8.30072513 31.1687307,8.30072513 C31.1687307,8.30072513 28.7408507,5.87284505 28.4455679,5.61037153 C28.1830944,5.34789801 27.6581474,5.41351639 27.4612922,5.47913477 C27.428483,5.47913477 26.9363452,5.64318072 26.0833062,5.90565424 C25.2630765,3.51058336 23.8194721,1.3451768 21.2931645,1.3451768 C21.2275461,1.3451768 21.1619277,1.3451768 21.0635001,1.3451768 C20.3745071,0.426519473 19.4558498,0 18.7012384,0 C12.7955842,0 9.97399384,7.38206781 9.0881457,11.1223155 C6.79150238,11.8441177 5.15104287,12.3362555 4.95418773,12.4018739 C3.67462931,12.7955842 3.64182012,12.8283934 3.47777417,14.0423334 C3.34653741,14.9609908 0,40.8802511 0,40.8802511 L26.0833062,45.7688204 L40.2240672,42.7175657 C40.2240672,42.6847565 35.2698795,9.15376408 35.2370703,8.92409975 Z M24.6397019,6.29936453 C23.9835181,6.49621967 23.2289067,6.725884 22.4414861,6.98835752 C22.4414861,6.82431157 22.4414861,6.69307481 22.4414861,6.49621967 C22.4414861,5.0526153 22.244631,3.87148445 21.9165391,2.92001793 C23.2289067,3.11687307 24.0819456,4.59328663 24.6397019,6.29936453 Z M20.2760796,3.24810983 C20.6369807,4.16676716 20.866645,5.44632558 20.866645,7.21802185 C20.866645,7.31644943 20.866645,7.38206781 20.866645,7.48049538 C19.4230406,7.93982404 17.8810087,8.3991527 16.3061676,8.89129056 C17.1920157,5.51194396 18.8652844,3.87148445 20.2760796,3.24810983 Z M18.5371925,1.57484113 C18.799666,1.57484113 19.0621395,1.6732687 19.2918039,1.83731465 C17.3888708,2.72316279 15.3875102,4.95418773 14.5344713,9.44904679 C13.2877221,9.84275707 12.073782,10.2036582 10.9254604,10.5645593 C11.9097361,7.15240347 14.3048069,1.57484113 18.5371925,1.57484113 Z"/>
    <path fill="#5E8E3E" d="M34.84336,8.53038946 C34.6793141,8.53038946 31.1687307,8.26791594 31.1687307,8.26791594 C31.1687307,8.26791594 28.7408507,5.84003586 28.4455679,5.57756234 C28.3471404,5.47913477 28.2159036,5.41351639 28.0846669,5.41351639 L26.1161154,45.7688204 L40.2568764,42.7175657 C40.2568764,42.7175657 35.3026887,9.15376408 35.2698795,8.92409975 C35.2042611,8.69443542 35.007406,8.56319866 34.84336,8.53038946 Z"/>
    <path fill="#FFF" d="M21.2931645,16.3389767 L19.5542774,21.5228288 C19.5542774,21.5228288 18.0122454,20.702599 16.1421216,20.702599 C13.3861496,20.702599 13.2549129,22.4414861 13.2549129,22.8680056 C13.2549129,25.2302673 19.4230406,26.1489246 19.4230406,31.6936778 C19.4230406,36.0573001 16.6670686,38.8788904 12.926821,38.8788904 C8.43196189,38.8788904 6.16812777,36.0901093 6.16812777,36.0901093 L7.38206781,32.1201973 C7.38206781,32.1201973 9.7443295,34.154367 11.7128809,34.154367 C13.0252485,34.154367 13.5501956,33.1372822 13.5501956,32.3826708 C13.5501956,29.2986069 8.49758027,29.1673701 8.49758027,24.0819456 C8.49758027,19.8167509 11.548835,15.6827929 17.7497719,15.6827929 C20.1120336,15.6499837 21.2931645,16.3389767 21.2931645,16.3389767 Z"/>
    <path fill="#000" d="M56.7270899 26.0833062C55.3162948 25.3286949 54.5944926 24.6725111 54.5944926 23.7866629 54.5944926 22.6711505 55.6115775 21.9493483 57.1864186 21.9493483 59.0237333 21.9493483 60.6641928 22.7039597 60.6641928 22.7039597L61.9437512 18.7668568C61.9437512 18.7668568 60.7626203 17.8481995 57.2848462 17.8481995 52.429086 17.8481995 49.0497394 20.6369807 49.0497394 24.5412743 49.0497394 26.7722992 50.6245806 28.4455679 52.7243687 29.659508 54.4304466 30.6109745 55.021012 31.2999675 55.021012 32.3170524 55.021012 33.3669465 54.1679731 34.2199854 52.593132 34.2199854 50.2636795 34.2199854 48.0326545 33.0060454 48.0326545 33.0060454L46.6546685 36.9431482C46.6546685 36.9431482 48.6888383 38.3211342 52.1338033 38.3211342 57.1208002 38.3211342 60.7298112 35.8604449 60.7298112 31.4312043 60.697002 29.0033242 58.8924965 27.3300555 56.7270899 26.0833062zM76.6094592 17.7825811C74.14877 17.7825811 72.2130277 18.963712 70.7366142 20.7354082L70.6709958 20.702599 72.8035932 9.54747436 67.25884 9.54747436 61.8453236 37.9602331 67.3900768 37.9602331 69.2273914 28.2487128C69.9491936 24.5740835 71.8521266 22.3102494 73.6238229 22.3102494 74.8705721 22.3102494 75.36271 23.1632883 75.36271 24.3772284 75.36271 25.1318397 75.2970916 26.0833062 75.1330457 26.8379176L73.0332575 37.9602331 78.5780106 37.9602331 80.7434172 26.4770165C80.9730815 25.2630765 81.1371275 23.8194721 81.1371275 22.8351964 81.1699367 19.652705 79.5294772 17.7825811 76.6094592 17.7825811zM93.7358565 17.7825811C87.0427817 17.7825811 82.613541 23.8194721 82.613541 30.5453561 82.613541 34.84336 85.2710855 38.3211342 90.2580824 38.3211342 96.8199204 38.3211342 101.249161 32.4482892 101.249161 25.5583592 101.28197 21.555638 98.9525178 17.7825811 93.7358565 17.7825811zM91.0126938 34.0559395C89.1097607 34.0559395 88.3223402 32.4482892 88.3223402 30.4141194 88.3223402 27.2316279 89.9627997 22.0477758 92.9812452 22.0477758 94.9497966 22.0477758 95.6059804 23.7538537 95.6059804 25.3943133 95.6059804 28.806469 93.9327117 34.0559395 91.0126938 34.0559395zM115.48835 17.7825811C111.748102 17.7825811 109.615505 21.0963093 109.615505 21.0963093L109.549886 21.0963093 109.877978 18.110673 104.9566 18.110673C104.726935 20.1120336 104.267607 23.1960975 103.841087 25.4927408L99.9696027 45.8344388 105.514356 45.8344388 107.056388 37.599332 107.187625 37.599332C107.187625 37.599332 108.335946 38.3211342 110.435734 38.3211342 116.964763 38.3211342 121.229958 31.6280594 121.229958 24.8693662 121.229958 21.1291185 119.556689 17.7825811 115.48835 17.7825811zM110.173261 34.1215579C108.729656 34.1215579 107.876618 33.3013281 107.876618 33.3013281L108.795275 28.117476C109.451459 24.6397019 111.255964 22.3430586 113.191706 22.3430586 114.897784 22.3430586 115.422731 23.9178997 115.422731 25.3943133 115.422731 29.0033242 113.290134 34.1215579 110.173261 34.1215579zM129.169782 9.80994788C127.398086 9.80994788 125.987291 11.2207431 125.987291 13.0252485 125.987291 14.665708 127.037185 15.8140297 128.612026 15.8140297L128.677644 15.8140297C130.416531 15.8140297 131.892945 14.6328989 131.925754 12.5987291 131.925754 10.9582695 130.843051 9.80994788 129.169782 9.80994788z"/>
    <polygon fill="#000" points="121.394 37.927 126.939 37.927 130.712 18.209 125.134 18.209"/>
    <path fill="#000" d="M144.852575 18.1762914L140.981091 18.1762914 141.177946 17.2576341C141.506038 15.354701 142.62155 13.6814323 144.491674 13.6814323 145.47595 13.6814323 146.26337 13.976715 146.26337 13.976715L147.346073 9.61309274C147.346073 9.61309274 146.394607 9.12095489 144.327628 9.12095489 142.359076 9.12095489 140.390525 9.67871112 138.881302 10.9582695 136.978369 12.5659199 136.092521 14.8953724 135.666002 17.2576341L135.501956 18.1762914 132.91003 18.1762914 132.0898 22.3758678 134.681726 22.3758678 131.728899 37.9274239 137.273652 37.9274239 140.226479 22.3758678 144.065154 22.3758678 144.852575 18.1762914zM158.238725 18.2091006C158.238725 18.2091006 154.76095 26.9691544 153.218918 31.7592962L153.1533 31.7592962C153.054873 30.2172642 151.775314 18.2091006 151.775314 18.2091006L145.935278 18.2091006 149.281816 36.2869644C149.347434 36.6806747 149.314625 36.9431482 149.150579 37.2056217 148.494395 38.452371 147.411692 39.666311 146.132133 40.5521591 145.082239 41.3067705 143.901108 41.7989084 142.982451 42.1270003L144.524483 46.8515237C145.639996 46.6218593 148.002257 45.6703928 149.970809 43.8330782 152.497116 41.4708165 154.859378 37.7961872 157.254449 32.8091902L164.045951 18.2091006 158.238725 18.2091006z"/>
  </g>
</svg>
