<?xml version="1.0" encoding="utf-8"?>
<!-- Generator: Adobe Illustrator 19.0.0, SVG Export Plug-In . SVG Version: 6.00 Build 0)  -->
<svg version="1.1" id="Layer_1" xmlns="http://www.w3.org/2000/svg" xmlns:xlink="http://www.w3.org/1999/xlink" x="0px" y="0px"
	 viewBox="0 0 596 185" enable-background="new 0 0 596 185" xml:space="preserve">
<g>
	<path fill="#FCCC0F" d="M144.364,16.812H33.083c-10.201,0-18.547,8.346-18.547,18.547v92.734v18.547v18.547h18.547H51.63h92.734
		c10.201,0,18.547-8.346,18.547-18.547V35.359C162.912,25.158,154.565,16.812,144.364,16.812z"/>
	<path fill="#F09622" d="M174.967,16.812H63.685c-10.201,0-18.547,8.346-18.547,18.547v92.734v18.547v18.547h18.547h18.547h92.734
		c10.201,0,18.547-8.346,18.547-18.547V35.359C193.514,25.158,185.167,16.812,174.967,16.812z"/>
	<path fill="#E12129" d="M205.569,16.812H94.288c-10.201,0-18.547,8.346-18.547,18.547v92.734v18.547v18.547h18.547h18.547h92.735
		c10.201,0,18.547-8.346,18.547-18.547V35.359C224.116,25.158,215.77,16.812,205.569,16.812z"/>
	<path d="M190.416,16.812v148.375h261.219h18.548h92.734c10.201,0,18.547-8.346,18.547-18.547V16.812H190.416z"/>
	<g>
		<path fill="#FFFFFF" d="M100.699,36.067c3.338,0.044,6.677-0.111,10.01,0.066c3.322,0.271,5.952,3.388,5.875,6.683
			c0.033,23.391,0.011,46.788,0.011,70.186c8.36-0.006,16.72,0.021,25.085-0.018c-0.188,3.532,0.819,7.408-0.819,10.691
			c-1.008,1.805-2.967,3.194-5.083,3.15c-9.594,0.011-19.194,0.006-28.795,0c-3.388,0.16-6.5-3.084-6.317-6.444
			C100.704,92.279,100.632,64.17,100.699,36.067z"/>
		<path fill="#FFFFFF" d="M153.101,36.339c3.288,0.022,6.577-0.045,9.866,0.016c3.327-0.033,6.023,3.228,5.847,6.461
			c0,26.962,0.005,53.93,0,80.893c0.05,7.252-2.63,14.533-7.646,19.82c-7.364,7.557-18.613,10.773-28.922,9.257
			c0.132-4.49,0.038-8.985,0.055-13.476c4.822-0.05,10.121,0.321,14.284-2.597c4.623-3.073,6.4-8.853,6.511-14.156
			C153.112,93.817,153.101,65.078,153.101,36.339z"/>
		<g>
			<path fill="#FFFFFF" d="M298.41,62.061c6.279-2.021,13.138-2.259,19.499-0.427c7.457,2.004,13.907,7.707,16.515,15.009
				c1.694,4.772,2.126,9.877,2.192,14.904c0.05,6.051,0.078,12.219-1.633,18.077c-1.423,5.547-5.127,10.308-9.8,13.524
				c-6.173,4.054-13.918,5.288-21.144,4.181c-7.911-0.902-15.292-5.726-19.089-12.756c-3.366-6.367-3.444-13.764-3.687-20.784
				c0.249-6.588,0.365-13.442,3.283-19.505C287.365,68.605,292.486,64.253,298.41,62.061z M297.341,81.466
				c-1.727,5.786-1.439,11.897-1.257,17.86c0.304,3.893,0.891,8.072,3.427,11.206c4.949,6.345,16.554,5.492,20.18-1.827
				c2.891-5.812,2.293-12.523,2.314-18.812c-0.277-5.055-1.052-10.929-5.42-14.185c-2.968-2.519-7.093-2.58-10.752-2.098
				C301.809,74.418,298.637,77.646,297.341,81.466z"/>
		</g>
		<g>
			<path fill="#FFFFFF" d="M353.779,66.573c6.954-5.946,16.896-7.291,25.634-5.37c6.81,1.384,12.972,5.753,16.443,11.776
				c3.614,6.268,3.881,13.73,3.848,20.778c0.027,7.242-0.128,14.926-3.87,21.359c-4.19,7.446-12.44,11.936-20.845,12.507
				c-7.341,0.554-15.142-1.029-20.905-5.836c-5.16-4.146-8.238-10.48-8.985-16.996c-0.582-3.654-0.383-7.369-0.521-11.057
				c0.149-3.471-0.05-6.976,0.509-10.419C345.812,76.926,348.758,70.703,353.779,66.573z M365.207,75.205
				c-3.859,2.392-5.327,7.042-5.857,11.305c-0.25,5.896-0.593,11.887,0.48,17.717c0.731,4.102,3.245,8.104,7.259,9.633
				c4.551,1.723,10.287,1.074,13.809-2.491c2.689-2.796,3.709-6.71,3.975-10.486c0.398-2.353,0.216-4.745,0.255-7.119
				c0.038-4.247-0.028-8.637-1.506-12.673c-1.401-3.947-5.017-7.147-9.246-7.601C371.253,73.245,367.842,73.283,365.207,75.205z"/>
		</g>
		<g>
			<path fill="#FFFFFF" d="M485.336,61.181c8.133-1.788,17.24-0.631,24.066,4.357c6.112,4.352,9.531,11.529,10.901,18.774
				c0.781,4.129,0.527,8.331,0.564,12.501c0.005,0.555-0.604,1.177-1.124,1.186c-13.829,0.066-27.659,0.017-41.484,0.021
				c-0.138,4.075,0.659,8.344,3.14,11.671c3.056,4.312,8.609,6.251,13.752,5.996c4.928,0.072,9.933-1.605,13.554-5.005
				c0.415-0.294,1.068-1.162,1.583-0.531c2.713,2.657,5.432,5.32,8.122,8.005c-3.931,4.036-8.88,7.17-14.384,8.505
				c-2.004,0.564-4.097,0.592-6.134,0.963c-2.563,0.095-5.154,0.249-7.701-0.138c-7.724-0.41-15.696-3.704-20.214-10.215
				c-4.772-6.611-5.919-15.016-6.078-22.965c0.049-8.051,1.561-16.444,6.316-23.121C473.754,66.097,479.268,62.438,485.336,61.181z
				 M485.585,73.787c-4.119,2.176-6.489,6.688-7.075,11.184c-0.211,1.323-0.25,2.663-0.277,3.997
				c9.445,0.005,18.891-0.017,28.341,0.011c0.1-4.833-1.18-10.087-4.855-13.459C497.405,71.645,490.645,71.129,485.585,73.787z"/>
		</g>
		<path fill="#FFFFFF" d="M274.26,104.287c-0.005-20.49,0.011-40.975-0.005-61.465c0.094-3.305-2.707-6.655-6.146-6.483
			c-3.216-0.011-6.428-0.006-9.645,0.022c0.017,12.625,0.006,25.255,0.006,37.886h-30.832c0-10.475,0.005-20.956,0-31.436
			c0.188-3.289-2.641-6.61-6.029-6.466c-3.233-0.022-6.466-0.005-9.694,0.011c0.017,27.992,0.006,55.99,0,83.988
			c-0.216,3.399,2.94,6.633,6.35,6.478c3.126,0.038,6.247-0.006,9.373,0.012V87.963h0.127c0-0.001,0-0.002,0-0.003
			c0,0,23.599,0,30.694,0c0.027,10.791,0.011,21.581,0.011,32.377c-0.15,3.377,2.896,6.645,6.328,6.483
			c3.106,0.006,6.217,0.062,9.324-0.027C274.454,119.324,274.166,111.783,274.26,104.287z"/>
		<path fill="#FFFFFF" d="M439.954,87.224l23.064-25.927h-17.412l-24.3,29.119v-47.78c0-3.453-2.824-6.278-6.277-6.278h-1.945
			h-6.277v6.278v77.918c0,3.452,2.826,6.278,6.277,6.278h1.945l0,0h6.278v-6.278h-0.001v-13.056l9.142-10.364l17.855,29.622h17.046
			L439.954,87.224z"/>
		<path fill="#FFFFFF" d="M551.768,61.297c-12.982,0-23.505,10.523-23.505,23.504v35.752l0,0v6.278h6.277l0,0h1.945
			c3.452,0,6.277-2.826,6.277-6.278V84.801c0-4.973,4.031-9.004,9.005-9.004h8.105v-14.5H551.768z"/>
	</g>
</g>
</svg>
