<?xml version="1.0" encoding="UTF-8"?>
<svg width="293px" height="74px" viewBox="0 0 293 74" version="1.1" xmlns="http://www.w3.org/2000/svg" xmlns:xlink="http://www.w3.org/1999/xlink">
    <!-- Generator: Sketch 51.2 (57519) - http://www.bohemiancoding.com/sketch -->
    <title>Lever_logo_vector</title>
    <desc>Created with Sketch.</desc>
    <defs></defs>
    <g id="Source-Design" stroke="none" stroke-width="1" fill="none" fill-rule="evenodd">
        <g id="explore_overview" transform="translate(-573.000000, -4023.000000)" fill-rule="nonzero">
            <g id="Group-25" transform="translate(452.000000, 4023.809737)">
                <g id="Lever_logo_vector" transform="translate(121.500000, 0.025081)">
                    <g id="Group-copy-6">
                        <path d="M52.3185815,57.2456316 C53.3483624,56.2834649 55.0160316,56.2797332 56.0497379,57.2456316 L70.3103059,70.554257 C71.3400868,71.5164237 70.9992255,72.2963572 69.5592333,72.2963572 L38.8097404,72.2963572 C37.3645142,72.2963572 37.0243071,71.5201554 38.0586678,70.554257 L52.3185815,57.2456316 Z" id="Triangle_47_copy_4-copy-2" fill="#AFAFAF"></path>
                        <path d="M0.314603645,71.6603667 L68.0495424,3.66709577 C68.8027247,4.43247307 69.4229899,5.2380673 69.5625813,5.93039173 L72.1707715,18.826526 C72.4648621,20.279536 71.8427996,22.3075843 70.7809565,23.3571293 L23.2209568,70.3969889 C22.1591137,71.4451936 20.0848943,72.2963572 18.5866587,72.2963572 L1.43305639,72.5176211 C0.685632689,72.5176211 0.71270671,72.2963572 0.314603645,71.6603667 Z" id="Path-copy-2" fill="#D9D9D9"></path>
                        <path d="M0,70.4403443 L0,53.7926147 C0,52.2925867 0.849132565,50.2117054 1.89550458,49.1471475 L48.8224481,1.46554986 C49.8694887,0.401671289 51.8926975,-0.221302309 53.3422403,0.0728607966 L66.2076016,2.68771945 C66.9383905,2.83649939 67.6584816,3.27400758 68.2301417,3.85961634 L0.720759768,72.2963572 C0.274129411,71.8106144 0,71.1584283 0,70.4403443 Z" id="Path_345_copy_7-copy-2" fill="#AFAFAF"></path>
                    </g>
                    <path d="M121.800315,58.5912803 L122.856535,54.0063091 L111.791374,54.0063091 L111.791374,31.6296563 L106.107904,31.6296563 L106.107904,58.5912803 L121.800315,58.5912803 Z M145.346117,58.5912803 L162.84919,58.5912803 L162.84919,53.9066358 L151.029586,53.9066358 L151.029586,46.7301592 L159.881715,46.7301592 L159.881715,42.294698 L150.979289,42.294698 L150.979289,36.0651175 L161.642082,36.0651175 L162.446821,31.6296563 L145.346117,31.6296563 L145.346117,58.5912803 Z M197.560746,58.7407902 L208.173242,31.6296563 L202.288587,31.6296563 L196.906896,45.6337531 C196.672179,46.1985712 196.445848,46.846441 196.227897,47.5773821 C196.009945,48.3083233 195.817146,48.9977232 195.649491,49.6456029 C195.481836,50.2934824 195.347714,50.833374 195.247121,51.2652938 L195.096233,51.9131701 L194.895047,51.2652938 C194.794455,50.8001494 194.660333,50.2436458 194.492679,49.5957662 C194.325023,48.9478866 194.132223,48.2584866 193.914272,47.5275455 C193.696321,46.7966044 193.486755,46.1487345 193.28557,45.5839164 L188.306247,31.6296563 L182.06952,31.6296563 L192.48083,58.7407902 L197.560746,58.7407902 Z M229.153937,58.5912803 L246.657012,58.5912803 L246.657012,53.9066358 L234.837406,53.9066358 L234.837406,46.7301592 L243.689536,46.7301592 L243.689536,42.294698 L234.787111,42.294698 L234.787111,36.0651175 L245.449903,36.0651175 L246.254642,31.6296563 L229.153937,31.6296563 L229.153937,58.5912803 Z M285.694039,58.5912803 L292.484024,58.5912803 L288.762107,53.1590862 C288.125018,52.2287975 287.479557,51.3317469 286.825703,50.4679074 C286.17185,49.604068 285.62698,48.8897499 285.191077,48.3249318 C284.788706,47.7268891 284.38634,47.2949758 283.983968,47.029179 C285.928764,46.8298314 287.529843,46.0573712 288.787254,44.7117751 C290.044666,43.366179 290.673361,41.63022 290.673361,39.5038459 C290.673361,37.0784505 289.734508,35.0850047 287.856775,33.5234487 C286.98497,32.8257322 285.920378,32.3356768 284.662967,32.0532677 C283.405556,31.7708587 281.871537,31.6296563 280.060865,31.6296563 L270.906959,31.6296563 L270.906959,58.5912803 L276.489836,58.5912803 L276.489836,47.3780356 C277.126925,47.3780356 277.646646,47.5109319 278.049018,47.7767287 C278.45139,48.0425255 278.820225,48.3581544 279.155534,48.7236249 C279.524375,49.1555447 279.985419,49.7784965 280.53868,50.5924991 C281.091941,51.4065017 281.905054,52.6274872 282.978045,54.2554923 C282.978045,54.2554923 281.905054,52.6274872 282.978045,54.2554923 L285.694039,58.5912803 Z M284.788708,39.6035192 C284.788708,40.5005833 284.621056,41.1982893 284.285745,41.6966582 C283.950436,42.1950271 283.506158,42.5687982 282.952897,42.8179827 C282.399636,43.0671671 281.770939,43.2166756 281.06679,43.2665125 C280.36264,43.3163494 279.6585,43.3412675 278.95435,43.3412675 L276.489836,43.3412675 L276.489836,35.9156076 L279.20583,35.9156076 C279.842919,35.9156076 280.496763,35.9488317 281.167382,36.0152809 C281.838001,36.08173 282.441549,36.2395446 282.978045,36.488729 C283.51454,36.7379135 283.950436,37.1116846 284.285745,37.6100535 C284.621056,38.1084224 284.788708,38.7729043 284.788708,39.6035192 C284.788708,39.6035192 284.788708,38.7729043 284.788708,39.6035192 Z" id="lever-copy-5" fill="#3F484B"></path>
                </g>
            </g>
        </g>
    </g>
</svg>