<?xml version="1.0" encoding="utf-8"?>
<!-- Generator: Adobe Illustrator 19.0.0, SVG Export Plug-In . SVG Version: 6.00 Build 0)  -->
<svg version="1.1" id="Layer_1" xmlns="http://www.w3.org/2000/svg" xmlns:xlink="http://www.w3.org/1999/xlink" x="0px" y="0px"
	 viewBox="0 0 220.9 55" enable-background="new 0 0 220.9 55" xml:space="preserve">
<g>
	<defs>
		<polyline id="SVGID_1_" points="10.7,3.5 207.5,3.5 207.5,48.9 10.7,48.9 10.7,3.5 		"/>
	</defs>
	<clipPath id="SVGID_2_">
		<use xlink:href="#SVGID_1_"  overflow="visible"/>
	</clipPath>
	<path clip-path="url(#SVGID_2_)" fill-rule="evenodd" clip-rule="evenodd" fill="#004877" d="M33.9,20.7c0-4.8,2.7-7.2,6.5-7.2
		c3.5,0,6.8,2.8,6.8,8.1c0,6.4-4.1,7.5-6.1,7.5C37,29.1,33.9,25.8,33.9,20.7 M31.6,21.3c0,4,2.6,8.6,8.8,8.6c5.4,0,9-4.1,9-9
		c0-5.1-3.8-8.2-8.9-8.2C34.3,12.7,31.6,17.7,31.6,21.3z"/>
	<path clip-path="url(#SVGID_2_)" fill="#004877" d="M53.4,13H64l0,2.7h-0.3c0-0.2-0.1-0.6-0.1-0.8c-0.2-0.8-0.7-1-2.8-1l-2.6,0v9.4
		c0,2.3,0,4,0.1,4.8c0.1,0.6,0.2,1.1,0.9,1.2c0.3,0,0.6,0.1,0.9,0.1c0,0.1,0,0.2,0,0.3c-1.2,0-5,0-5.7,0c0-0.1,0-0.2,0-0.3
		c0.2,0,0.6,0,0.9-0.1c0.5-0.1,0.7-0.5,0.8-1.2c0.1-0.8,0.1-2.6,0.1-4.8v-9.4l-3.3,0c-1.6,0-2,0.2-2.3,0.7c-0.2,0.3-0.4,0.7-0.5,0.9
		c0,0-0.3,0-0.3,0l0.8-2.9C51.2,12.8,52.4,13,53.4,13"/>
	<path clip-path="url(#SVGID_2_)" fill="#004877" d="M156.1,27c-0.3,0.8-0.4,1.3-0.4,1.6c0,0.5,0.3,0.6,1.1,0.6v0.3h-4.6v-0.3
		c0.1,0,0.3,0,0.5,0c1-0.1,1.4-0.8,1.9-2.1c0.5-1.3,4.6-12.4,5.4-14.5h0.5c0.6,1.6,4.3,11,5.5,14.1c0.6,1.4,1.1,2.2,1.9,2.4
		c0.3,0.1,0.5,0.1,0.8,0.1v0.3h-5.4v-0.3c0.9,0,1.2-0.3,1.2-0.7c0-0.2,0-0.3-0.1-0.5l-1.9-4.9h-5.1C157.2,23.8,156.4,26.1,156.1,27
		 M162.3,22.4l-2.4-6.6l-2.2,6.6H162.3z"/>
	<path clip-path="url(#SVGID_2_)" fill="#004877" d="M136.4,20v-0.6c0-3.5,0-4.1,0-4.8c0.1-0.8,0.3-1.2,0.8-1.3
		c0.2,0,0.4-0.1,0.6-0.1V13h-5.3v0.3c0.3,0,0.6,0,0.9,0.1c0.7,0.1,0.9,0.5,0.9,1.3c0,0.6,0,1.2,0,4.8v3.8c0,2.1,0,3.9-0.1,4.8
		c-0.1,0.8-0.2,1.1-0.7,1.2c-0.2,0-0.5,0.1-0.7,0.1v0.3h5.4v-0.3c-0.2,0-0.5,0-0.8-0.1c-0.6-0.1-0.8-0.3-0.9-1.2
		c-0.1-0.7-0.1-2.5-0.1-4.8v-2.4h9.7v2.4c0,1.3,0,3.9-0.1,4.8c-0.1,0.7-0.3,1.1-0.9,1.2c-0.2,0-0.5,0.1-0.7,0.1v0.3h5.4v-0.3
		c-0.2,0-0.5,0-0.8-0.1c-0.6-0.1-0.8-0.4-0.9-1.2c-0.1-0.9-0.1-2.6-0.1-4.8v-3.8c0-3.5,0-4.1,0-4.8c0.1-0.9,0.4-1.2,0.8-1.3
		c0.2,0,0.5-0.1,0.6-0.1V13h-5.2v0.3c0.2,0,0.5,0,0.7,0.1c0.7,0.1,0.9,0.5,1,1.3c0,0.7,0,1.3,0,4.8V20H136.4"/>
	<path clip-path="url(#SVGID_2_)" fill="#004877" d="M192.6,29.3v0.3H187v-0.3c1.2-0.1,1.4-0.5,1.3-1c0-0.8-0.5-11.3-0.5-11.3
		l-6.7,12.6l-0.4,0L174,17.1c0,1-0.3,9.7-0.3,10.3c0,0.4,0,0.7,0,1.1c0,0.4,0.2,0.6,0.6,0.7c0.3,0.1,0.6,0.1,0.9,0.1v0.3h-4.5
		c0,0,0-0.2,0-0.3c0.3,0,0.5,0,0.7-0.1c0.6-0.1,0.8-0.7,0.9-1.8c0-0.6,0.7-11.9,0.8-14.4h0.8l7.5,13.8l7.2-13.8h0.8
		c0,0,0.7,12.8,0.8,13.8c0.1,1.4,0.5,2.1,1.2,2.3C191.8,29.3,192.2,29.3,192.6,29.3"/>
	<path clip-path="url(#SVGID_2_)" fill="#004877" d="M29.1,13v0.3c-0.2,0-0.5,0-0.7,0.1c-0.6,0.1-0.8,0.5-0.8,2l0,14.5
		c0,0-0.6,0-0.8,0c-1.6-1.7-5.4-5.7-7-7.4c-1.6-1.7-4.1-4.5-5.8-6.4l0.3,10.6c0,2,0.3,2.4,0.9,2.6c0.3,0.1,0.7,0.1,1,0.1v0.3h-5
		v-0.3c0.3,0,0.7,0,1-0.1c0.5-0.1,0.7-0.5,0.7-2.8l0-13.6h0.8c2.2,2.4,4.9,5.3,7.4,8c1.6,1.7,3.6,4,5.4,5.8l-0.2-11.2
		c0-1.5-0.2-1.9-0.9-2.1c-0.3-0.1-0.7-0.1-1-0.1V13H29.1"/>
	<path clip-path="url(#SVGID_2_)" fill="#004877" d="M110.1,13v0.3c-0.2,0-0.5,0-0.7,0.1c-0.6,0.1-0.8,0.5-0.8,2l0,14.5
		c0,0-0.6,0-0.8,0c-1.6-1.7-5.4-5.7-7-7.4c-1.6-1.7-4.1-4.5-5.8-6.4l0.3,10.6c0,2,0.3,2.4,0.9,2.6c0.3,0.1,0.7,0.1,1,0.1v0.3h-5
		v-0.3c0.3,0,0.7,0,1-0.1c0.5-0.1,0.7-0.5,0.7-2.8l0-13.6h0.8c2.2,2.4,4.9,5.3,7.4,8c1.6,1.7,3.6,4,5.4,5.8l-0.2-11.2
		c0-1.5-0.2-1.9-0.9-2.1c-0.3-0.1-0.7-0.1-1-0.1V13H110.1"/>
	<path clip-path="url(#SVGID_2_)" fill-rule="evenodd" clip-rule="evenodd" fill="#004877" d="M86.6,23.3c0,2.4,0,4.2,0.1,4.8
		c0.1,0.5,0.2,0.8,0.4,1c0.3,0.2,0.8,0.3,1.5,0.3v0.3h-5.9v-0.3c0.2,0,0.8,0,1-0.1c0.4-0.1,0.7-0.4,0.8-1.2c0.1-0.6,0.1-2.4,0.1-4.8
		v-3.9c0-2.4,0-4.2-0.1-4.8c-0.1-0.5-0.2-0.8-0.4-1c-0.3-0.2-0.8-0.3-1.5-0.3V13h5.9v0.3c-0.2,0-0.8,0-1,0.1
		c-0.4,0.1-0.7,0.4-0.8,1.2c-0.1,0.6-0.1,2.4-0.1,4.8V23.3"/>
	<path clip-path="url(#SVGID_2_)" fill-rule="evenodd" clip-rule="evenodd" fill="#004877" d="M126.2,24c0-1.8-0.2-2.1-0.9-2.3
		c-0.2,0-0.5-0.1-0.8-0.1v-0.3h5.1v0.3c-0.2,0-0.4,0-0.6,0.1c-0.6,0.1-0.8,0.5-0.8,1.3c0,0.7,0,1.3,0,2.3v3.5
		c-0.9,0.6-3.1,1.2-5,1.2c-1.7,0-4.9-0.2-7.4-2.4c-1.4-1.2-2.7-3.5-2.7-6.3c0-3.3,1.6-5.9,3.8-7.2c1.6-0.9,3.2-1.4,6-1.4
		c1.7,0,3.8,0.4,5.4,1.1v3.3h-0.3c-0.4-2.5-2.4-3.6-5.7-3.6c-3.9,0-7.1,2.4-7.1,7c0,3.1,1.5,5.2,2.3,6.1c1.4,1.5,3.8,2.4,5.8,2.4
		c1.2,0,2.3-0.2,3-0.7V24"/>
	<path clip-path="url(#SVGID_2_)" fill="#004877" d="M145,44l0,0.4c0,1.6,0,2.8,0.1,3.3c0.1,0.5,0.2,0.7,0.5,0.7
		c0.2,0,0.4,0,0.6,0.1v0.4h-3.8v-0.4c0.2,0,0.5,0,0.6-0.1c0.3-0.1,0.4-0.2,0.5-0.7c0.1-0.6,0.1-1.6,0.1-3.2v-2.7c0-2.4,0-2.8,0-3.2
		c0-0.4-0.2-0.7-0.6-0.7c-0.2,0-0.4,0-0.7,0v-0.4h3.8c1,0,2,0.1,2.8,0.7c0.4,0.3,1.1,1,1.1,2.1c0,1.4-0.6,2.4-1.8,3.4
		c0.5,0.9,1.7,2.7,2.4,3.8c0.4,0.6,0.9,0.9,1.7,1c0.2,0,0.4,0,0.6,0v0.4h-3.1c-0.2-0.5-0.5-0.9-1-1.7c-0.6-1-1.6-2.6-1.9-3.1L145,44
		 M145,43.1c0.3,0.1,0.9,0.2,1.6,0.2c0.4,0,0.7,0,1.1-0.3c0.5-0.3,0.9-1,0.9-2.1c0-1.8-1-2.8-2.5-2.8c-0.5,0-0.9,0-1,0.1L145,43.1z
		 M113.2,44.4c0,1.7,0,2.8,0.1,3.2c0,0.4,0.2,0.6,0.5,0.7c0.2,0,0.6,0.1,0.8,0.1v0.4c0,0-3.8,0-4.2,0c0-0.2,0-0.3,0-0.4
		c0.2,0,0.6,0,0.8-0.1c0.3-0.1,0.4-0.3,0.4-0.7c0.1-0.4,0.1-1.5,0.1-3.2v-2.7c0-1.7,0-2.8-0.1-3.2c0-0.4-0.2-0.6-0.5-0.7
		c-0.2,0-0.6-0.1-0.8-0.1v-0.4c0,0,3.8,0,4.2,0c0,0.2,0,0.2,0,0.4c-0.2,0-0.6,0-0.8,0.1c-0.3,0.1-0.4,0.3-0.4,0.7
		c-0.1,0.4-0.1,1.5-0.1,3.2V44.4z M166.9,44.4c0,1.7,0,2.8,0.1,3.2c0,0.4,0.2,0.6,0.5,0.7c0.2,0,0.6,0.1,0.8,0.1v0.4
		c0,0-3.8,0-4.2,0c0-0.2,0-0.3,0-0.4c0.2,0,0.6,0,0.8-0.1c0.3-0.1,0.4-0.3,0.4-0.7c0.1-0.4,0.1-1.5,0.1-3.2v-2.7
		c0-1.7,0-2.8-0.1-3.2c0-0.4-0.2-0.6-0.5-0.7c-0.2,0-0.6-0.1-0.8-0.1v-0.4c0,0,3.8,0,4.2,0c0,0.2,0,0.2,0,0.4c-0.2,0-0.6,0-0.8,0.1
		c-0.3,0.1-0.4,0.3-0.4,0.7c-0.1,0.4-0.1,1.5-0.1,3.2V44.4z M136.5,38.2c0.9,0,1.1,0.2,1.1,1.2h0.4l0.2-2c-2.2,0-6.7,0-7.3,0
		c0,0.1,0,0.3,0,0.4c0.2,0,0.6,0,0.7,0c0.4,0.1,0.5,0.2,0.6,0.7c0,0.5,0,0.9,0,3.2v2.7c0,1.4,0,2.6-0.1,3.2c0,0.4-0.1,0.6-0.4,0.7
		c-0.1,0-0.5,0.1-0.7,0.1v0.4h7.2l0.3-2.1h-0.4c-0.1,0.6-0.3,1-0.7,1.1c-0.3,0.1-0.8,0.2-1.4,0.2c-1.5,0-2.2-0.2-2.3-1.1
		c0-0.3,0-2,0-2.5v-1.3h2.5c1,0,1,0.2,1,1.1h0.4l0.3-2.8h-0.4c-0.1,0.7-0.2,0.8-1.1,0.8h-2.8v-4.1C134.1,38.2,136.3,38.2,136.5,38.2
		z M82.6,47.9c-0.8-0.7-1.4-1.8-1.4-4v-2.2c0-2.3,0-2.7,0-3.2c0-0.5-0.2-0.7-0.6-0.7c-0.2,0-0.4,0-0.7,0v-0.4h3.9v0.4
		c-0.2,0-0.4,0-0.6,0c-0.3,0-0.4,0.3-0.5,0.7c0,0.5,0,0.9,0,3.2v2.1c0,2.1,0.5,3,1.1,3.6c0.7,0.7,1.4,0.8,2.2,0.8
		c0.9,0,1.8-0.4,2.3-1c0.7-0.8,0.8-2,0.8-3.6v-1.9c0-2.3,0-2.8,0-3.2c0-0.5-0.2-0.7-0.6-0.7c-0.2,0-0.5,0-0.7,0v-0.4h3.6v0.4
		c-0.1,0-0.5,0-0.6,0c-0.3,0.1-0.4,0.3-0.5,0.7c0,0.5,0,0.9,0,3.2v1.6c0,1.6-0.2,3.4-1.4,4.5c-1.1,1-2.3,1.1-3.2,1.1
		C85.3,49,83.7,49,82.6,47.9z M129,37.8c-0.6,0-0.7,0-0.9,0.1c-0.2,0.1-0.4,0.4-0.8,1.3c-0.4,1-3.5,8.5-4,9.8h-0.5l-4.1-10.1
		c-0.3-0.8-0.5-0.9-1-1.1c-0.1,0-0.5-0.1-0.8-0.1v-0.4h4.1v0.4c-0.7,0-0.9,0.1-0.9,0.3c0,0.2,0.2,0.5,0.4,1.3l2.8,7.2
		c0.9-2.2,2.5-6.4,3-7.6c0.2-0.5,0.3-0.8,0.3-0.9c0-0.2-0.1-0.2-0.8-0.2v-0.4h3.2V37.8z M159.5,48.4c-0.6,0.5-1.5,0.6-2.3,0.6
		c-0.9,0-1.9-0.3-2.5-0.8v-2.2h0.4c0,0.2,0.1,0.5,0.1,0.8c0.2,0.8,0.9,1.4,2.3,1.4c1.4,0,2-1,1.9-1.9c-0.1-1-0.5-1.5-1.9-2.6
		l-0.7-0.6c-1.7-1.3-2.2-2.3-2.3-3.3c-0.1-1.8,1.3-2.8,3.1-2.8c0.8,0,1.8,0.2,2.3,0.5v2h-0.4c0-0.4-0.1-0.8-0.3-1
		c-0.3-0.5-1-0.7-1.8-0.7c-1,0-1.7,0.6-1.7,1.6c0,0.8,0.5,1.2,2,2.4l0.4,0.3c1.9,1.4,2.4,2.3,2.5,3.6
		C160.7,46.6,160.4,47.7,159.5,48.4z M192.9,37.8c-0.3,0-0.7,0.1-0.9,0.2c-0.3,0.2-0.6,0.4-1.1,1.3c-0.4,0.7-2,3.5-2.7,4.5v2.3
		c0,0.2,0,1.1,0,1.5c0,0.5,0.3,0.7,0.5,0.7c0.3,0,0.6,0.1,0.8,0.1v0.4h-4.1v-0.4c0.3,0,0.7,0,0.8-0.1c0.3-0.1,0.4-0.3,0.4-0.7
		c0-0.4,0-1.2,0-1.5v-2.3c-0.7-1.1-2.5-4.2-3-4.8c-0.8-1.2-1.1-1.3-2-1.3v-0.4h3.9v0.4c-0.6,0-0.8,0.1-0.8,0.2
		c0,0.2,0.1,0.3,0.3,0.7c0.2,0.4,2,3.4,2.6,4.3c0.6-1,2-3.5,2.3-4.1c0.2-0.4,0.3-0.6,0.3-0.9c0-0.2-0.2-0.3-0.7-0.3v-0.4h3.2V37.8z
		 M180.3,37.4v2.2h-0.4c-0.1-1.1-0.5-1.3-1.9-1.3c-1.2,0-1.8,0-1.8,0v6.2c0,1.7,0,2.8,0.1,3.2c0,0.4,0.2,0.6,0.6,0.7
		c0.2,0,0.6,0.1,0.8,0.1v0.4h-4.2v-0.4c0.2,0,0.6,0,0.8-0.1c0.3-0.1,0.4-0.3,0.5-0.7c0.1-0.4,0.1-1.5,0.1-3.2v-6.2c0,0-1.3,0-2.1,0
		c-1,0-1.2,0.1-1.4,0.4c-0.1,0.2-0.3,0.5-0.4,0.7h-0.4L171,37c0.7,0.2,1.5,0.3,2.2,0.3H180.3z M106.8,37.8c-0.2,0-0.5,0-0.7,0
		c-0.3,0.1-0.5,0.2-0.5,1.2l0,9.9h-0.5c-1-1-3.4-3.5-4.9-5c-1.4-1.4-2.8-3-3.7-4l0.2,6.8c0,1.3,0.2,1.5,0.5,1.6
		c0.2,0.1,0.6,0.1,0.9,0.1v0.4h-3.8v-0.4c0.4,0,0.7,0,0.9-0.1c0.3-0.1,0.4-0.3,0.4-1.8l0-9.2h0.6c1.1,1.2,3.5,3.6,5.1,5.4
		c1.1,1.2,2.5,2.6,3.4,3.6l-0.2-7.2c0-1-0.1-1.2-0.5-1.3c-0.2,0-0.6-0.1-0.8-0.1v-0.4h3.6V37.8z"/>
	<path clip-path="url(#SVGID_2_)" fill="#004877" d="M26,44l0,0.4c0,1.6,0,2.8,0.1,3.3c0.1,0.5,0.2,0.7,0.5,0.7c0.2,0,0.4,0,0.6,0.1
		v0.4h-3.8v-0.4c0.2,0,0.5,0,0.6-0.1c0.3-0.1,0.4-0.2,0.5-0.7c0.1-0.6,0.1-1.6,0.1-3.2v-2.7c0-2.4,0-2.8,0-3.2
		c0-0.4-0.2-0.7-0.6-0.7c-0.2,0-0.4,0-0.7,0v-0.4h3.8c1,0,2,0.1,2.8,0.7c0.4,0.3,1.1,1,1.1,2.1c0,1.4-0.6,2.4-1.8,3.4
		c0.5,0.9,1.7,2.7,2.4,3.8c0.4,0.6,0.9,0.9,1.7,1c0.2,0,0.4,0,0.6,0v0.4h-3.1c-0.2-0.5-0.5-0.9-1-1.7c-0.6-1-1.6-2.6-1.9-3.1L26,44
		 M26,43.1c0.3,0.1,0.9,0.2,1.6,0.2c0.4,0,0.7,0,1.1-0.3c0.5-0.3,0.9-1,0.9-2.1c0-1.8-1-2.8-2.5-2.8c-0.5,0-0.9,0-1,0.1L26,43.1z
		 M41.1,38.2c0.9,0,1.1,0.2,1.1,1.2h0.4l0.2-2c-1.8,0-6.7,0-7.3,0c0,0.1,0,0.3,0,0.4c0.2,0,0.6,0,0.7,0c0.4,0.1,0.5,0.2,0.6,0.7
		c0,0.5,0,0.9,0,3.2v2.7c0,1.4,0,2.6-0.1,3.2c0,0.4-0.1,0.6-0.4,0.7c-0.1,0-0.5,0.1-0.7,0.1v0.4h7.2l0.3-2.1h-0.4
		c-0.1,0.6-0.3,1-0.7,1.1C41.8,48,41.4,48,40.7,48c-1.5,0-2.2-0.2-2.3-1.1c0-0.3,0-2,0-2.5v-1.3H41c1,0,1,0.2,1,1.1h0.4l0.3-2.8
		h-0.4c-0.1,0.7-0.2,0.8-1.1,0.8h-2.8v-4.1C38.8,38.2,40.9,38.2,41.1,38.2z M59,37.8c-0.2,0-0.5,0-0.7,0c-0.3,0.1-0.5,0.2-0.5,1.2
		l0,9.9h-0.5c-1-1-3.4-3.5-4.9-5c-1.4-1.4-2.8-3-3.7-4l0.2,6.8c0,1.3,0.2,1.5,0.5,1.6c0.2,0.1,0.6,0.1,0.9,0.1v0.4h-3.8v-0.4
		c0.4,0,0.7,0,0.9-0.1c0.3-0.1,0.4-0.3,0.4-1.8l0-9.2h0.6c1.1,1.2,3.5,3.6,5.1,5.4c1.1,1.2,2.5,2.6,3.4,3.6l-0.2-7.2
		c0-1-0.1-1.2-0.5-1.3c-0.2,0-0.6-0.1-0.8-0.1v-0.4H59V37.8z M71.1,37.4v2.2h-0.4c-0.1-1.1-0.5-1.3-1.9-1.3c-1.2,0-1.8,0-1.8,0v6.2
		c0,1.7,0,2.8,0.1,3.2c0,0.4,0.2,0.6,0.6,0.7c0.2,0,0.6,0.1,0.8,0.1v0.4h-4.2v-0.4c0.2,0,0.6,0,0.8-0.1c0.3-0.1,0.4-0.3,0.5-0.7
		c0.1-0.4,0.1-1.5,0.1-3.2v-6.2c0,0-1.3,0-2.1,0c-1,0-1.2,0.1-1.4,0.4c-0.1,0.2-0.3,0.5-0.4,0.7h-0.4l0.6-2.3
		c0.7,0.2,1.5,0.3,2.2,0.3H71.1z M20.5,37.4v2.2h-0.4c-0.1-1.1-0.5-1.3-1.9-1.3c-1.2,0-1.8,0-1.8,0v6.2c0,1.7,0,2.8,0.1,3.2
		c0,0.4,0.2,0.6,0.6,0.7c0.2,0,0.6,0.1,0.8,0.1v0.4h-4.2v-0.4c0.2,0,0.6,0,0.8-0.1c0.3-0.1,0.4-0.3,0.5-0.7c0.1-0.4,0.1-1.5,0.1-3.2
		v-6.2c0,0-1.3,0-2.1,0c-1,0-1.2,0.1-1.4,0.4c-0.1,0.2-0.3,0.5-0.4,0.7h-0.4l0.6-2.3c0.7,0.2,1.5,0.3,2.2,0.3H20.5z"/>
	<path clip-path="url(#SVGID_2_)" fill="#004877" d="M71.7,13.9l-2.6,0c-2.1,0-2.5,0.2-2.8,1c0,0.2-0.1,0.5-0.1,0.8h-0.3l0-2.7h13.7
		v2.7h-0.3c0-0.2-0.1-0.6-0.1-0.7c-0.2-0.8-0.7-1-2.8-1l-2.8,0v9.4c0,2.3,0,4,0.1,4.8c0.1,0.6,0.2,1.1,0.9,1.2
		c0.3,0,0.6,0.1,0.9,0.1c0,0.1,0,0.2,0,0.3c-1.2,0-5,0-5.7,0c0-0.1,0-0.2,0-0.3c0.2,0,0.7,0,0.9-0.1c0.5-0.1,0.7-0.5,0.8-1.2
		c0.1-0.8,0.1-2.6,0.1-4.8V13.9"/>
	<path clip-path="url(#SVGID_2_)" fill-rule="evenodd" clip-rule="evenodd" fill="#ED1164" d="M201.4,3.5c-4.2,0-6,0.5-6,0.5
		s0,3.9,0,7.1c0,5.5,6,6.6,6,6.6s6-1.1,6-6.6c0-3.2,0-7.1,0-7.1S205.6,3.5,201.4,3.5"/>
	<polyline clip-path="url(#SVGID_2_)" fill="#FFFFFF" points="197.9,11 197.9,8.5 199.1,11 199.9,11 199.9,7.5 199.9,7.5 199.9,7.5 
		199.3,7.5 199.2,7.5 199.2,7.5 199.2,10 198,7.5 197.2,7.5 197.2,11 197.9,11 	"/>
	<polyline clip-path="url(#SVGID_2_)" fill="#FFFFFF" points="201.9,11 201.9,8.1 202.7,8.1 202.7,7.5 200.3,7.5 200.3,8.1 
		201.1,8.1 201.1,11 201.9,11 	"/>
	<path clip-path="url(#SVGID_2_)" fill="#FFFFFF" d="M203.1,9.7c0,0.8,0.5,1.3,1.3,1.3c0.8,0,1.3-0.5,1.3-1.3V7.5h-0.7v2.2
		c0,0.6-0.2,0.7-0.5,0.7c-0.3,0-0.5-0.1-0.5-0.7V7.5h-0.7V9.7"/>
</g>
<polyline fill="none" points="10.7,3.5 10.7,49 207.4,49 207.4,3.5 "/>
</svg>
