<?xml version="1.0" encoding="utf-8"?>
<!-- Generator: Adobe Illustrator 19.0.0, SVG Export Plug-In . SVG Version: 6.00 Build 0)  -->
<svg version="1.1" id="Layer_1" xmlns="http://www.w3.org/2000/svg" xmlns:xlink="http://www.w3.org/1999/xlink" x="0px" y="0px"
	 viewBox="0 0 179.7 48.4" enable-background="new 0 0 179.7 48.4" xml:space="preserve">
<g>
	<g>
		<path fill="#231F20" d="M35.4,27h0.4c-0.4,1.5-1.5,2.2-3.3,2.2c-1.1,0-2.1-0.4-2.8-1.1c-0.8-0.8-1.1-1.8-1.1-3
			c0-1.3,0.4-2.3,1.2-3.1c0.8-0.8,1.8-1.2,2.9-1.2c0.7,0,1.3,0.1,1.9,0.4c0.6,0.3,0.9,0.7,0.9,1.1c0,0.2-0.1,0.3-0.2,0.5
			C35.2,22.9,35,23,34.8,23c-0.4,0-0.7-0.2-0.8-0.7c-0.1-0.4-0.2-0.6-0.4-0.8c-0.2-0.1-0.5-0.2-1-0.2c-0.9,0-1.5,0.3-1.9,0.9
			c-0.4,0.6-0.6,1.5-0.6,2.7c0,1.2,0.2,2.2,0.7,2.9c0.5,0.7,1.2,1,2.1,1C34.2,28.7,35,28.2,35.4,27z"/>
		<path fill="#231F20" d="M42,22.4c0.4-0.5,0.8-0.9,1.3-1.2c0.5-0.3,1-0.4,1.6-0.4c0.6,0,1.2,0.1,1.6,0.4c0.4,0.3,0.7,0.6,0.8,1
			c0.1,0.4,0.2,1,0.2,1.9v2.2c0,0.9,0,1.5,0.1,1.7c0,0.2,0.1,0.3,0.3,0.4c0.2,0.1,0.5,0.1,1,0.1v0.4h-4.1v-0.4h0.2
			c0.5,0,0.8-0.1,0.9-0.2c0.1-0.1,0.2-0.3,0.2-0.5c0-0.2,0-0.7,0-1.6v-2.4c0-0.7,0-1.1-0.1-1.4c-0.1-0.3-0.3-0.6-0.5-0.8
			c-0.3-0.2-0.6-0.3-1.1-0.3c-0.5,0-0.9,0.1-1.3,0.4c-0.4,0.3-0.7,0.7-1,1.3v3.1c0,0.9,0,1.4,0,1.6c0,0.2,0.1,0.4,0.3,0.5
			c0.2,0.1,0.5,0.2,0.9,0.2v0.4h-4v-0.4h0.2c0.5,0,0.8-0.1,0.9-0.2c0.1-0.1,0.2-0.3,0.2-0.5c0-0.2,0-0.7,0-1.6v-7.8
			c0-0.8-0.1-1.3-0.2-1.5c-0.1-0.2-0.5-0.3-1.1-0.3v-0.4c1,0,1.8-0.1,2.5-0.4H42V22.4z"/>
		<path fill="#231F20" d="M60.6,27.5h0.4c-0.1,1.1-0.6,1.6-1.6,1.6c-0.4,0-0.8-0.1-1-0.3c-0.3-0.2-0.4-0.6-0.5-1
			c-0.6,0.5-1.2,0.8-1.8,1c-0.5,0.2-1,0.3-1.4,0.3c-0.5,0-1-0.2-1.4-0.5c-0.4-0.3-0.6-0.7-0.6-1.2c0-0.7,0.3-1.2,1-1.7
			c0.6-0.5,1.5-1,2.7-1.4l1.5-0.6v-0.4c0-0.5,0-0.9-0.1-1.2c-0.1-0.2-0.3-0.5-0.5-0.7c-0.3-0.2-0.7-0.3-1.2-0.3c-1,0-1.5,0.3-1.6,1
			c-0.1,0.7-0.4,1-0.8,1c-0.4,0-0.6-0.2-0.6-0.6c0-0.4,0.3-0.8,0.8-1.2c0.5-0.4,1.3-0.6,2.4-0.6c0.8,0,1.4,0.1,1.9,0.4
			c0.4,0.3,0.7,0.5,0.9,0.9c0.1,0.3,0.2,0.8,0.2,1.5v3.2c0,0.7,0,1.2,0.1,1.4c0.1,0.2,0.2,0.3,0.5,0.3
			C60.2,28.4,60.5,28.1,60.6,27.5z M57.8,24.1l-1,0.4c-1.7,0.7-2.5,1.5-2.5,2.5c0,0.4,0.1,0.7,0.3,1c0.2,0.2,0.5,0.4,0.8,0.4
			c0.3,0,0.6-0.1,1-0.3c0.4-0.2,0.8-0.5,1.3-0.9V24.1z"/>
		<path fill="#231F20" d="M67.1,22.8c0.2-0.6,0.6-1,1.1-1.4c0.5-0.4,1-0.6,1.4-0.6c0.4,0,0.8,0.1,1,0.4c0.2,0.3,0.4,0.5,0.4,0.8
			c0,0.2-0.1,0.3-0.2,0.5c-0.1,0.1-0.3,0.2-0.5,0.2c-0.3,0-0.6-0.2-0.7-0.7c-0.1-0.3-0.3-0.5-0.5-0.5c-0.3,0-0.6,0.2-1,0.6
			c-0.4,0.4-0.6,0.8-0.7,1.2c-0.1,0.4-0.2,1-0.2,1.7v1.4c0,0.8,0,1.4,0,1.6c0,0.2,0.1,0.4,0.3,0.5c0.2,0.1,0.4,0.2,0.9,0.2h0.3v0.4
			h-4.2v-0.4h0.2c0.4,0,0.7-0.1,0.8-0.2c0.2-0.1,0.3-0.3,0.3-0.4c0-0.2,0-0.7,0-1.6V24c0-0.8,0-1.4,0-1.6c0-0.2-0.1-0.4-0.3-0.5
			c-0.2-0.1-0.4-0.2-0.9-0.2h-0.2v-0.4c0.6-0.1,1.4-0.3,2.3-0.6C67,21.3,67.1,21.9,67.1,22.8z"/>
		<path fill="#231F20" d="M76.9,20.8v5.5c0,0.8,0,1.4,0,1.6c0,0.2,0.1,0.4,0.3,0.5c0.2,0.1,0.4,0.2,0.9,0.2h0.2v0.4h-4.2v-0.4h0.3
			c0.5,0,0.7-0.1,0.9-0.2c0.1-0.1,0.2-0.3,0.2-0.5c0-0.2,0-0.7,0-1.6v-2.4c0-0.9,0-1.5-0.1-1.7c-0.1-0.2-0.2-0.3-0.3-0.4
			c-0.1-0.1-0.4-0.1-0.8-0.1h-0.3v-0.4c1.1-0.1,2-0.3,2.6-0.5H76.9z M75.1,16.8c0-0.3,0.1-0.5,0.3-0.7c0.2-0.2,0.4-0.3,0.7-0.3
			c0.3,0,0.5,0.1,0.7,0.3c0.2,0.2,0.3,0.4,0.3,0.7c0,0.3-0.1,0.5-0.3,0.7c-0.2,0.2-0.4,0.3-0.7,0.3c-0.3,0-0.5-0.1-0.7-0.3
			C75.2,17.3,75.1,17,75.1,16.8z"/>
		<path fill="#231F20" d="M86.8,21.5h-2.4v4.7c0,0.7,0,1.2,0.1,1.5c0.1,0.3,0.2,0.5,0.4,0.6c0.2,0.2,0.4,0.2,0.7,0.2
			c0.5,0,0.9-0.3,1.2-0.8l0.3,0.2c-0.2,0.4-0.5,0.7-0.9,1c-0.4,0.2-0.8,0.3-1.2,0.3c-0.5,0-0.9-0.1-1.2-0.4c-0.3-0.3-0.6-0.6-0.7-1
			c-0.1-0.4-0.1-1-0.1-1.9v-4.4h-1.1v-0.4c0.5,0,1-0.2,1.4-0.7c0.4-0.4,0.7-1,0.8-1.8h0.3v2.5h2.4V21.5z"/>
		<path fill="#231F20" d="M95,27.4l1.8-4.4c0.3-0.6,0.4-1,0.4-1.1c0-0.3-0.4-0.5-1.1-0.5v-0.4h2.8v0.4c-0.4,0-0.7,0.1-0.9,0.3
			c-0.2,0.2-0.4,0.7-0.7,1.4l-3.5,8.4c-0.3,0.8-0.6,1.4-0.9,1.6c-0.3,0.3-0.5,0.4-0.8,0.4c-0.4,0-0.6-0.2-0.6-0.6
			c0-0.4,0.3-0.8,1-1.1c0.4-0.2,0.6-0.3,0.8-0.4c0.1-0.1,0.3-0.3,0.4-0.7l0.7-1.9l-2.9-6.3c-0.3-0.6-0.5-0.9-0.7-1.1
			c-0.2-0.1-0.5-0.2-0.9-0.2v-0.4h3.6v0.4c-0.6,0-0.9,0.2-0.9,0.4c0,0.1,0.1,0.4,0.4,0.9L95,27.4z"/>
		<path fill="#231F20" d="M103.1,21.6c0-0.3,0.1-0.5,0.3-0.7c0.2-0.2,0.4-0.3,0.7-0.3c0.3,0,0.5,0.1,0.7,0.3
			c0.2,0.2,0.3,0.4,0.3,0.7c0,0.3-0.1,0.5-0.3,0.7c-0.2,0.2-0.4,0.3-0.7,0.3c-0.3,0-0.5-0.1-0.7-0.3
			C103.2,22.1,103.1,21.8,103.1,21.6z M103.1,28.2c0-0.3,0.1-0.5,0.3-0.7c0.2-0.2,0.4-0.3,0.7-0.3c0.3,0,0.5,0.1,0.7,0.3
			c0.2,0.2,0.3,0.4,0.3,0.7c0,0.3-0.1,0.5-0.3,0.7c-0.2,0.2-0.4,0.3-0.7,0.3c-0.3,0-0.5-0.1-0.7-0.3
			C103.2,28.7,103.1,28.5,103.1,28.2z"/>
		<path fill="#231F20" d="M126.3,29.2h-0.4l-2.3-6.2l-2.4,6.2h-0.4l-2.4-6.2c-0.3-0.7-0.5-1.1-0.6-1.3c-0.1-0.1-0.4-0.2-0.8-0.2
			v-0.4h3.6v0.4c-0.4,0-0.7,0-0.8,0.1c-0.1,0.1-0.2,0.2-0.2,0.4c0,0.1,0.1,0.5,0.4,1.1l1.6,4.2l2.4-6.3h0.4l2.4,6.3l1.7-4.5
			c0.2-0.5,0.3-0.8,0.3-0.9c0-0.3-0.3-0.5-1-0.5v-0.4h2.5v0.4c-0.3,0-0.5,0.1-0.7,0.2c-0.2,0.1-0.3,0.4-0.5,0.8l-0.2,0.6L126.3,29.2
			z"/>
		<path fill="#231F20" d="M141.6,27.5h0.4c-0.1,1.1-0.6,1.6-1.6,1.6c-0.4,0-0.8-0.1-1-0.3c-0.3-0.2-0.4-0.6-0.5-1
			c-0.6,0.5-1.2,0.8-1.8,1c-0.5,0.2-1,0.3-1.4,0.3c-0.5,0-1-0.2-1.4-0.5c-0.4-0.3-0.6-0.7-0.6-1.2c0-0.7,0.3-1.2,1-1.7
			c0.6-0.5,1.5-1,2.7-1.4l1.5-0.6v-0.4c0-0.5,0-0.9-0.1-1.2c-0.1-0.2-0.3-0.5-0.5-0.7c-0.3-0.2-0.7-0.3-1.2-0.3c-1,0-1.5,0.3-1.6,1
			c-0.1,0.7-0.4,1-0.8,1c-0.4,0-0.6-0.2-0.6-0.6c0-0.4,0.3-0.8,0.8-1.2c0.5-0.4,1.3-0.6,2.4-0.6c0.8,0,1.4,0.1,1.9,0.4
			c0.4,0.3,0.7,0.5,0.9,0.9c0.1,0.3,0.2,0.8,0.2,1.5v3.2c0,0.7,0,1.2,0.1,1.4c0.1,0.2,0.2,0.3,0.5,0.3
			C141.2,28.4,141.5,28.1,141.6,27.5z M138.8,24.1l-1,0.4c-1.7,0.7-2.5,1.5-2.5,2.5c0,0.4,0.1,0.7,0.3,1c0.2,0.2,0.5,0.4,0.8,0.4
			c0.3,0,0.7-0.1,1-0.3c0.4-0.2,0.8-0.5,1.3-0.9V24.1z"/>
		<path fill="#231F20" d="M150.1,21.5h-2.4v4.7c0,0.7,0,1.2,0.1,1.5c0.1,0.3,0.2,0.5,0.4,0.6c0.2,0.2,0.4,0.2,0.7,0.2
			c0.5,0,0.9-0.3,1.2-0.8l0.3,0.2c-0.2,0.4-0.5,0.7-0.9,1c-0.4,0.2-0.8,0.3-1.2,0.3c-0.5,0-0.9-0.1-1.2-0.4c-0.3-0.3-0.6-0.6-0.7-1
			c-0.1-0.4-0.1-1-0.1-1.9v-4.4h-1.1v-0.4c0.5,0,1-0.2,1.4-0.7c0.4-0.4,0.7-1,0.8-1.8h0.3v2.5h2.4V21.5z"/>
		<path fill="#231F20" d="M161,23.7h-5.5c0,0.4,0,0.7,0,0.8c0,1.4,0.2,2.4,0.6,3.1c0.4,0.7,1.1,1,1.9,1c1.2,0,2-0.5,2.5-1.6h0.5
			c-0.2,0.7-0.6,1.2-1.2,1.5c-0.6,0.4-1.3,0.6-2,0.6c-0.7,0-1.3-0.2-1.9-0.5c-0.6-0.3-1.1-0.8-1.5-1.4c-0.4-0.6-0.6-1.4-0.6-2.2
			c0-1.2,0.4-2.3,1.1-3.1c0.7-0.8,1.6-1.2,2.7-1.2c1,0,1.8,0.3,2.4,0.9C160.7,22.3,161,23,161,23.7z M159.3,23.4c0-0.1,0-0.3,0-0.4
			c0-0.6-0.2-1-0.5-1.3c-0.3-0.3-0.7-0.5-1.2-0.5c-1.2,0-1.9,0.7-2.1,2.2H159.3z"/>
		<path fill="#231F20" d="M167.7,22.8c0.2-0.6,0.6-1,1.1-1.4c0.5-0.4,1-0.6,1.4-0.6c0.4,0,0.8,0.1,1,0.4c0.2,0.3,0.4,0.5,0.4,0.8
			c0,0.2-0.1,0.3-0.2,0.5c-0.1,0.1-0.3,0.2-0.5,0.2c-0.3,0-0.6-0.2-0.7-0.7c-0.1-0.3-0.3-0.5-0.5-0.5c-0.3,0-0.6,0.2-1,0.6
			c-0.4,0.4-0.6,0.8-0.7,1.2c-0.1,0.4-0.2,1-0.2,1.7v1.4c0,0.8,0,1.4,0,1.6c0,0.2,0.1,0.4,0.3,0.5c0.2,0.1,0.4,0.2,0.9,0.2h0.3v0.4
			h-4.2v-0.4h0.2c0.4,0,0.7-0.1,0.8-0.2c0.2-0.1,0.3-0.3,0.3-0.4c0-0.2,0-0.7,0-1.6V24c0-0.8,0-1.4,0-1.6c0-0.2-0.1-0.4-0.3-0.5
			c-0.2-0.1-0.4-0.2-0.9-0.2h-0.2v-0.4c0.6-0.1,1.4-0.3,2.3-0.6C167.6,21.3,167.7,21.9,167.7,22.8z"/>
	</g>
	<path fill="#FFCA0A" d="M16.3,23.6h-2.9c-0.3,0-0.5,0.2-0.5,0.5v1.3c0,0.3,0.2,0.5,0.5,0.5h2.9c0.3,0,0.5-0.2,0.5-0.5v-1.3
		C16.8,23.8,16.5,23.6,16.3,23.6z M21.1,17.1c-0.1-0.2-0.7-1.3-0.7-1.3s0.2-0.1,0.3-0.2c0.1,0,0.2-0.1,0-0.4
		c-0.1-0.3-0.3-0.2-0.3-0.2s-0.2,0.1-0.4,0.2c-0.4-0.5-0.8-0.6-1-0.6c-0.1,0-0.6,0-0.7,0c-0.1,0-0.3,0-0.3,0.1
		c-0.1,0.1-0.2,0.1-0.4,0.1c-0.2,0-5,0-5,0c0,0-0.1,0-0.1,0c-0.3-0.2-0.7,0-0.8,0.1c-0.1,0.1-0.4,0.5-0.6,0.7
		c-0.2,0.2-0.3,0.3-0.5,0.3c0.1-0.1,0-0.2,0-0.2l-0.1-0.1l0.1-0.3l0.1,0l-0.1-0.1c0,0-0.1,0-0.2,0.1c-0.1,0.1-0.1,0.1-0.1,0.1
		c0,0.2-0.2,0.2-0.2,0.2s-0.3-0.5-0.3-0.6c0-0.1-0.1-0.3-1.1,0.2c-1,0.5-0.7,0.7-0.7,0.7l0.3,0.6l-0.1,0.1L8.8,17c0,0-0.1,0-0.3,0.2
		c-0.2,0.1-0.4,0.3-0.4,0.6v13.7c0,1,0.3,1.5,1.4,1.5H20c0.7,0,1.3-0.4,1.3-1.5V17.9C21.3,17.2,21.2,17.2,21.1,17.1z M13.6,15.9h3.5
		c0.3,0,0.5,0.2,0.5,0.5c0,0.3-0.2,0.5-0.5,0.5h-3.5c-0.3,0-0.5-0.2-0.5-0.5C13,16.2,13.3,15.9,13.6,15.9z M18,26.7
		c0,0,1.2,2,1.4,2.5c0.3,0.6-0.1,0.9-0.1,0.9s-0.6,0.3-0.9-0.2c-0.2-0.5-1.1-1.9-1.4-2.3c-0.4-0.6-0.5-0.8-1-0.8c-0.7,0-0.2,0-1.2,0
		h-0.1c-0.9,0-0.5,0-1.2,0c-0.5,0-0.7,0.2-1,0.8c-0.3,0.4-1.1,1.9-1.4,2.3c-0.3,0.5-0.9,0.2-0.9,0.2s-0.4-0.3-0.1-0.9
		c0.2-0.5,1.4-2.5,1.4-2.5s0.3-0.5,0.3-0.8v-1c0-0.1,0-0.2,0-0.2v-1c0-0.4-0.3-0.8-0.3-0.8s-1.2-2-1.4-2.5c-0.3-0.6,0.1-0.9,0.1-0.9
		s0.6-0.3,0.9,0.2c0.3,0.4,1.1,1.9,1.4,2.3c0.4,0.6,0.5,0.8,1,0.8c0.7,0,0.2,0,1.2,0h0.1c0.9,0,0.5,0,1.2,0c0.5,0,0.7-0.2,1-0.8
		c0.3-0.4,1.1-1.9,1.4-2.3c0.3-0.5,0.9-0.2,0.9-0.2s0.4,0.3,0.1,0.9c-0.2,0.5-1.4,2.5-1.4,2.5s-0.3,0.5-0.3,0.8v1c0,0.1,0,0.2,0,0.2
		v1C17.7,26.2,18,26.7,18,26.7z"/>
</g>
</svg>
