<?xml version="1.0" encoding="utf-8"?>
<!-- Generator: Adobe Illustrator 19.0.0, SVG Export Plug-In . SVG Version: 6.00 Build 0)  -->
<svg version="1.1" id="Layer_1" xmlns="http://www.w3.org/2000/svg" xmlns:xlink="http://www.w3.org/1999/xlink" x="0px" y="0px"
	 viewBox="0 0 258 61.333" enable-background="new 0 0 258 61.333" xml:space="preserve">
<g>
	<g>
		<path fill="#006892" d="M22.523,19.669c1.116,0,2.231,0,3.349,0c0,4.309-1.517,19.161,3.348,19.161
			c6.975,0-0.298-19.161,6.697-19.161c0,7.812,0,15.625,0,23.432c-3.087-0.295-7.081,0.123-9.785-1.133
			C20.293,39.234,22.523,25.932,22.523,19.669z"/>
		<path fill="#006892" d="M38.148,19.669C55.183,20.766,51.54,27.306,51.54,43.1c-1.119,0-2.233,0-3.348,0
			c-0.14-4.46,2.162-19.51-3.854-19.14c-4.15,0.224-2.843,15.009-2.843,19.14c-1.117,0-2.232,0-3.348,0
			C38.148,35.293,38.148,27.481,38.148,19.669z"/>
	</g>
	<g>
		<path fill="#0084A9" d="M63.815,27.481c-3.68-11.006-10.148,5.785-5.091,10.619c3.293,3.152,4.185-3.366,5.648-3.366
			c0-0.195,0,0.192,0,0c0.924,0,1.866,0,2.789,0c-0.714,5.472-5.996,11.546-11.282,5.737c-4.744-5.216-2.32-16.707,2.356-20.803
			c5.265,0.332,8.926,2.649,8.926,8.368"/>
		<path fill="#0084A9" d="M85.577,19.669c1.48,0.192,2.979-0.176,4.461,0c0-0.193,0,0.192,0,0c1.709,0.104,7.257,0.559,7.257,2.79
			c0.19,0,0.38,0,0.557,0c-0.557,0,0-0.365,0-0.561c12.974-7.339,11.157,12.536,11.157,21.202c-1.116,0-2.229,0-3.348,0
			c0-4.444,2.058-19.49-3.851-19.14c-4.155,0.224-2.845,15.009-2.845,19.14c-1.114,0-2.233,0-3.348,0c0-4.391,1.416-18.97-3.4-19.14
			c-4.829-0.196-3.294,14.821-3.294,19.14c-1.118,0-2.232,0-3.347,0C85.577,35.293,85.577,27.481,85.577,19.669z"/>
		<path fill="#0084A9" d="M111.241,19.669c2.754,0.153,5.509,0.332,8.268,0.49c1.517,0.576,2.249,1.43,3.767,2.004
			c0-0.188,0.797-0.629,0.797-0.82C137.05,15.1,134.68,34.681,134.68,43.1c-1.118,0-2.233,0-3.35,0
			c0-4.354,1.446-19.074-3.379-19.158c-4.849-0.107-3.321,14.805-3.321,19.158c-1.115,0-2.226,0-3.346,0
			c0-4.424,1.642-19.581-3.837-19.123c-4.17,0.332-2.857,14.956-2.857,19.123c-1.115,0-2.234,0-3.349,0
			C111.241,35.293,111.241,27.481,111.241,19.669z"/>
		<path fill="#0084A9" d="M154.208,19.669c1.479,0.192,2.977-0.176,4.462,0c0-0.193,0,0.192,0,0
			c11.56,1.113,8.924,13.459,8.924,23.432c-1.111,0-2.229,0-3.345,0c0-4.376,1.451-18.99-3.4-19.158
			c-4.812-0.195-3.293,14.819-3.293,19.158c-1.117,0-2.234,0-3.348,0C154.208,35.293,154.208,27.481,154.208,19.669z"/>
		<path fill="#0084A9" d="M73.857,19.669c-4.917,4.896-7.601,24.641,3.801,22.838C84.491,41.43,87.337,20.518,73.857,19.669z
			 M78.88,39.196c-0.364,0.191-0.751,0.367-1.117,0.561c-6.518,0-6.292-13.445-2.792-16.74c0-0.178,0,0.193,0,0
			C81.563,24.778,80.396,33.654,78.88,39.196z"/>
		<path fill="#0084A9" d="M141.933,19.669c-5.74,4.292-8.126,24.584,3.238,22.826C152.954,41.272,154.594,20.888,141.933,19.669z
			 M145.28,39.756c-6.557,0-4.935-13.231-2.794-16.74C149.008,25.038,148.681,34.627,145.28,39.756z"/>
	</g>
	<g>
		<g>
			<path fill="#B2BB1E" d="M28.001,13.686c-0.372-1.258-0.977-3.824-1.348-5.105c2.949,0.258,4.658,2.746,3.901,4.447L28.001,13.686
				z"/>
			<path fill="#B2BB1E" d="M49.531,9.734c3.921,1.722,0.721,5.451-2.486,5.451C47.618,13.493,48.952,11.43,49.531,9.734z"/>
			<path fill="#B2BB1E" d="M25.599,52.131c0,0,3.541-3.264,1.585-5.594c-1.696,1.296-2.748,2.355-4.445,3.629c-0.317,0,0.355,0,0,0
				L25.599,52.131z"/>
			<path fill="#B2BB1E" d="M48,53.846c-0.578-1.356-2.423-3.105-1.357-5.24c0,0,0.586-1.162,0.876-1.162
				c0.459,1.095,2.091,4.088,3.394,4.66L48,53.846z"/>
			<path fill="#B2BB1E" d="M15.462,28.006c0,0-4.678,1.414-3.924,4.408c2.123-0.438,3.554-0.941,5.666-1.352
				c0.286,0.141-0.326-0.154,0,0L15.462,28.006z"/>
		</g>
		<g>
			<path fill="#B2BB1E" d="M240.522,23.112c0.773-0.006,1.864,0.502,2.779,1.35c0.922,0.85,1.674,2.027,1.871,3.303l0.041,0.266
				h0.268c0.895,0,1.791,0,2.684,0h0.379l-0.072-0.373c-0.504-2.568-1.151-4.523-2.444-5.873c-1.296-1.344-3.202-2-6.048-2.035
				l-0.068-0.001l-0.062,0.029c-1.785,0.797-3.023,1.583-3.83,2.39c-0.807,0.801-1.182,1.646-1.18,2.49
				c0.004,1.15,0.667,2.215,1.595,3.239c1.395,1.534,3.44,3.027,5.124,4.514c1.697,1.481,2.975,2.968,2.955,4.315
				c0,0.09-0.004,0.174-0.013,0.258c-0.108,0.929-0.392,1.551-0.749,1.93c-0.359,0.379-0.793,0.547-1.298,0.55
				c-0.817,0.004-1.815-0.479-2.635-1.316c-0.819-0.835-1.46-2.005-1.628-3.321l-0.032-0.275h-0.276c-0.74,0-1.492,0-2.236,0
				c0,0-0.636,0.13-0.709,0.191c-0.073,0.054-0.13,0.176-0.127,0.275l0.28,1.652c0.626,3.448,3.509,6.129,6.757,6.137
				c0,0,0.002,0,0.004,0c1.305,0,2.658-0.443,3.91-1.438c1.114-0.91,1.938-1.92,2.1-3.368c0.135-0.461,0.195-0.92,0.195-1.367
				c-0.002-1.336-0.54-2.567-1.295-3.522c-1.089-1.4-2.838-2.412-4.362-3.547c-1.531-1.135-2.804-2.359-3.073-4.115
				c-0.046-0.28-0.064-0.53-0.064-0.752c0-0.617,0.154-1.007,0.366-1.238C239.838,23.227,240.132,23.114,240.522,23.112z"/>
			<path fill="#B2BB1E" d="M191.86,19.353l-0.119-0.005l-0.095,0.074c-3.005,2.386-4.873,8.14-4.884,13.356
				c0,2.624,0.479,5.11,1.586,6.979c1.098,1.865,2.877,3.099,5.338,3.099c0.008,0,0.016,0,0.023,0c0.257,0,0.524-0.011,0.804-0.038
				c2.088-0.211,3.741-1.741,4.868-3.854c1.127-2.12,1.747-4.852,1.749-7.608c-0.002-2.85-0.664-5.727-2.158-7.964
				C197.482,21.149,195.13,19.561,191.86,19.353z M192.344,22.705c0.021-0.003,0.044-0.01,0.064-0.019
				c1.423,0.205,2.702,0.355,3.597,1.282c1.006,1.007,1.705,4.069,1.69,7.168c0,1.97-0.263,3.961-0.825,5.479
				c-0.564,1.53-1.4,2.525-2.477,2.676l0,0c-0.176,0.028-0.34,0.041-0.502,0.041c-1.355-0.005-2.301-0.873-2.965-2.338
				c-0.656-1.457-0.957-3.471-0.955-5.533c-0.002-1.914,0.256-3.872,0.705-5.482C191.091,24.465,191.699,23.266,192.344,22.705z"/>
			<path fill="#B2BB1E" d="M207.956,19.353l-0.115-0.005l-0.096,0.068c-3.243,2.446-5.154,8.154-5.166,13.338
				c0.002,2.619,0.5,5.109,1.623,6.973c1.116,1.863,2.911,3.099,5.371,3.099c0.004,0,0.012,0,0.018,0c0.32,0,0.65-0.021,0.992-0.063
				c2.104-0.259,3.76-1.781,4.883-3.877c1.122-2.1,1.732-4.797,1.732-7.514c0-2.852-0.67-5.73-2.164-7.973
				C213.544,21.155,211.202,19.563,207.956,19.353z M209.948,39.32c-1.357-0.004-2.301-0.87-2.965-2.329
				c-0.65-1.449-0.956-3.457-0.954-5.514c0-1.929,0.263-3.902,0.718-5.519c0.42-1.517,1.037-2.712,1.685-3.253
				c0.02-0.002,0.043-0.008,0.063-0.016c1.73,0.332,2.906,1.426,3.69,2.962c0.805,1.577,1.155,3.618,1.155,5.633
				c0,1.999-0.343,3.978-0.893,5.468c-0.545,1.5-1.332,2.451-1.99,2.527l0,0C210.282,39.307,210.112,39.32,209.948,39.32z"/>
			<path fill="#B2BB1E" d="M232.78,15.52c-0.016-0.17-0.031-0.329-0.045-0.45c-0.008-0.061-0.015-0.115-0.023-0.155
				c-0.004-0.023-0.007-0.043-0.012-0.066c-0.014-0.173-0.105-0.34-0.225-0.44c-0.395-0.316-0.945-0.324-1.537-0.338
				c-0.664,0-1.372,0.07-1.68,0.07h-0.303l-0.012,0.303c-0.059,1.553-0.485,2.476-1.1,3.117c-0.92,0.967-2.391,1.309-3.871,1.855
				c-1.469,0.545-2.971,1.363-3.744,3.35c-1.024,2.602-1.436,5.423-1.434,8.521c0,2.958,0.236,5.122,0.756,6.743
				c0.775,2.439,2.278,3.633,4.416,4.205c2.141,0.586,4.928,0.644,8.523,0.985l0.342,0.033v-0.343c0-8.776,0-17.566,0-26.342
				c0.009-0.059,0.004-0.086,0.006-0.137C232.839,16.223,232.813,15.856,232.78,15.52z M229.013,38.915
				c-0.752,0.02-1.504,0.098-2.214,0.097c-0.991,0-1.864-0.142-2.555-0.71c-1.384-1.119-2.003-3.903-1.991-6.85
				c-0.008-3.369,0.774-6.967,1.707-8.445c1.367-0.346,2.719-0.645,5.262-0.658c0.021,0.15,0.049,0.384,0.074,0.648
				c0.129,1.29,0.285,3.579,0.298,4.127l-0.003,0.122C229.452,32.497,229.167,33.791,229.013,38.915z"/>
			<path fill="#B2BB1E" d="M185.169,37.145c0.014-5.642,0.013-11.289,0.014-16.924v-0.311h-0.311
				c-1.127-0.001-2.197,0.233-3.021,0.963c-1.855-0.023-3.412-0.896-5.672-0.962l-0.094-0.003l-0.08,0.047
				c-1.93,1.227-3.871,2.829-4.793,5.041c-0.615,1.469-0.682,3.266-0.684,5.028c0,0.611,0.01,1.217,0.01,1.801
				c0,0.829-0.014,1.661-0.014,2.494c0.002,2.098,0.075,4.157,0.646,5.976c0.568,1.811,1.664,3.378,3.646,4.395
				c0.949,0.483,1.894,0.654,2.822,0.654c1.359-0.002,2.68-0.348,4.021-0.582c0,0.333,0,0.666,0,1
				c-0.512,0.893-1.179,2.165-2.533,2.973c-0.76,0.457-1.851,0.629-2.844,0.726c-0.498,0.053-0.966,0.086-1.364,0.136
				c-0.36,0.054-0.655,0.097-0.903,0.235c-0.09,0.008-0.184,0.033-0.273,0.094c-0.129,0.09-0.191,0.258-0.185,0.375
				c0.011,0.232,0.106,0.385,0.21,0.568c0.162,0.272,0.387,0.57,0.564,0.863c0.18,0.281,0.298,0.566,0.291,0.686v0.322l0.324-0.012
				c5.66-0.226,9.013-4.493,9.785-6.942c0.418-1.387,0.511-2.941,0.511-4.521C185.244,39.874,185.169,38.461,185.169,37.145
				L185.169,37.145z M181.663,41.37c-0.533,0.539-1.022,0.691-1.648,0.78c-1.768,0.003-3.649-0.175-4.695-1.269
				c-0.461-0.465-0.867-1.496-1.126-2.816c-0.261-1.325-0.39-2.941-0.388-4.611c-0.002-2.197,0.225-4.496,0.666-6.355
				c0.402-1.745,1.036-3.103,1.723-3.615c0.045-0.003,0.09-0.018,0.131-0.042c0.844,0.047,1.775,0.062,2.602,0.216
				c0.891,0.17,1.624,0.489,2.06,1.126c0.333,0.465,0.588,1.47,0.73,2.746c0.148,1.277,0.199,2.83,0.199,4.446
				C181.917,35.522,181.673,39.36,181.663,41.37z"/>
		</g>
	</g>
</g>
</svg>
