<?xml version="1.0" encoding="utf-8"?>
<!-- Generator: Adobe Illustrator 19.0.0, SVG Export Plug-In . SVG Version: 6.00 Build 0)  -->
<svg version="1.1" id="Layer_1" xmlns="http://www.w3.org/2000/svg" xmlns:xlink="http://www.w3.org/1999/xlink" x="0px" y="0px"
	 viewBox="0 0 239.3 111.3" enable-background="new 0 0 239.3 111.3" xml:space="preserve">
<path fill="#1966CC" d="M60,26c-8.2,0-15.2,2.9-20.9,8.7c-5.9,5.8-8.7,12.8-8.7,21c0,8.1,2.9,15.1,8.7,20.8
	c5.7,5.8,12.7,8.7,20.9,8.7c8.1,0,15.1-2.9,20.9-8.7c5.8-5.7,8.7-12.7,8.7-20.8c0-8.2-2.9-15.2-8.7-21C75.1,28.9,68.1,26,60,26z
	 M78.9,74.5c-5.3,5.2-11.6,7.8-18.9,7.8c-7.4,0-13.7-2.6-18.8-7.8c-5.3-5.2-7.9-11.5-7.9-18.8c0-7.5,2.6-13.7,7.9-18.9
	c5.1-5.3,11.4-7.9,18.8-7.9c7.3,0,13.6,2.6,18.9,7.9c5.2,5.2,7.7,11.5,7.7,18.9C86.6,63,84.1,69.3,78.9,74.5z M60,31.9
	c-6.5,0-12.2,2.3-16.8,6.9c-4.7,4.7-6.9,10.3-6.9,16.8c0,6.5,2.3,12.1,6.9,16.8c4.7,4.7,10.3,7,16.8,7c6.6,0,12.1-2.3,16.8-7
	c4.7-4.7,7-10.3,7-16.8c0-6.6-2.3-12.2-7-16.8C72.1,34.2,66.6,31.9,60,31.9z M80.7,56.7c-0.2,5.8-2.5,10.6-6.8,14.4
	c-4.3,3.9-9.3,5.7-15,5.3c-5.8-0.3-10.6-2.6-14.4-6.8c-3.8-4.3-5.6-9.3-5.3-15.1c0.3-5.7,2.6-10.5,6.9-14.4c4.2-3.9,9.3-5.6,15-5.3
	c5.7,0.3,10.5,2.6,14.3,6.9C79.3,46,81.1,51,80.7,56.7z M92.6,41.9c-1.7-4.3-4.3-8.1-7.5-11.3c-3.3-3.3-7.1-5.8-11.3-7.6
	c-4.3-1.9-9-2.8-13.8-2.8c-4.9,0-9.4,0.9-13.8,2.8c-4.2,1.8-8,4.3-11.2,7.6c-3.3,3.3-5.7,7-7.5,11.3c-1.9,4.3-2.8,8.9-2.8,13.8
	c0,4.8,0.9,9.4,2.8,13.8c1.8,4.2,4.3,8,7.5,11.2c3.3,3.3,7.1,5.8,11.2,7.6c4.5,1.9,9,2.8,13.8,2.8c4.8,0,9.5-0.9,13.8-2.8
	c4.3-1.8,8-4.3,11.3-7.6c3.2-3.3,5.8-7.1,7.5-11.2c1.9-4.4,2.9-9,2.9-13.8C95.5,50.8,94.5,46.2,92.6,41.9z M89.9,68.3
	c-1.7,3.9-4,7.3-7,10.3c-3,3-6.4,5.3-10.3,7c-4,1.7-8.2,2.5-12.6,2.5c-4.4,0-8.7-0.9-12.6-2.5c-3.9-1.7-7.3-4-10.4-7
	c-2.9-3-5.3-6.5-6.9-10.3c-1.7-4.1-2.5-8.3-2.5-12.6c0-4.5,0.8-8.7,2.5-12.7c1.6-3.9,4-7.3,6.9-10.3c3.1-3,6.5-5.3,10.4-7
	c4-1.7,8.3-2.5,12.6-2.5c4.5,0,8.7,0.8,12.6,2.5c3.9,1.7,7.3,4,10.3,7c3,3,5.3,6.5,7,10.3c1.7,4.1,2.6,8.3,2.6,12.7
	C92.5,60.1,91.7,64.3,89.9,68.3z"/>
<path fill="#318BFF" d="M44.7,63.8c0.5,0.9,1.1,1.8,1.7,2.6V44.8c-2.5,3.1-3.8,6.7-3.8,10.8C42.7,58.7,43.3,61.4,44.7,63.8z
	 M50.3,70C50.4,70.1,50.4,70.1,50.3,70c1.3,0.8,2.6,1.5,3.9,2V39.3c-1.4,0.5-2.7,1.1-3.9,2V70z M58.1,38.4v34.4c0,0,0,0,0,0
	C58.7,73,59.4,73,60,73c0.7,0,1.3,0,1.9-0.1c0,0,0,0,0,0V38.4c-0.6-0.1-1.3-0.1-1.9-0.1C59.4,38.3,58.7,38.4,58.1,38.4z M65.9,72
	c1.4-0.5,2.6-1.1,3.8-1.9c0,0,0.1,0,0.1-0.1V41.3c-1.2-0.8-2.5-1.5-3.9-2V72z M73.6,44.9v21.6c0.7-0.8,1.2-1.7,1.7-2.6
	c1.3-2.4,2-5.2,2-8.2C77.3,51.6,76.1,48,73.6,44.9z"/>
<g>
	<path fill="#1966CC" d="M133.4,62.4h-2.1v10.4h-6.8V38.4h8.8c7,0,13.6,4.9,13.6,12C147,57.5,140.4,62.4,133.4,62.4z M133.6,44.4
		h-2.2v12h2.2c3.7,0,6.6-2.6,6.6-6C140.1,47,137.2,44.4,133.6,44.4z"/>
	<path fill="#1966CC" d="M159.8,56.7v16h-6.5V57.7c0-3.8-1.4-6.4-4.4-8.7l5.5-3.4c1.6,1.3,2.7,2.9,3.3,4.2c0.6-0.6,4.2-4.2,8.3-4.1
		l1.3,6.6C163.1,52.3,160.3,55.9,159.8,56.7z"/>
	<path fill="#1966CC" d="M182.4,67.7c2.5,0,4.8-1.3,5.8-2.6l3.7,3.7c-1.5,1.8-4.6,4.8-10.1,4.8c-7.9,0-11.8-6.7-11.8-13.9
		c0-7.4,5-13.9,12.5-13.9c5.2,0,9.7,3,9.7,7.7c0,6.4-6.8,9.7-15.5,9.5C177.5,66.1,179.4,67.7,182.4,67.7z M186.4,53.8
		c0-1.5-1.4-2.7-3.7-2.7c-3.3,0-5.6,2.8-6.2,6.7C183.5,57.5,186.4,56,186.4,53.8z"/>
	<path fill="#1966CC" d="M205.5,66.9h10.7v5.9h-20.8l11-20.4h-10.1v-5.9h20.3L205.5,66.9z"/>
	<path fill="#1966CC" d="M225.3,42.3c-2.2,0-3.9-1.8-3.9-3.9c0-2.2,1.7-3.9,3.9-3.9c2.1,0,3.9,1.7,3.9,3.9
		C229.2,40.5,227.4,42.3,225.3,42.3z M222,72.8V46.4h6.5v26.3H222z"/>
</g>
<path fill="#318BFF" d="M52.1,6.3c-1.7,0.3-3.4,0.6-5.1,1.1l2.8,10.3c1.3-0.4,2.7-0.6,4-0.9L52.1,6.3z M27,34.2l-8.9-5.8
	c-1,1.5-1.8,3-2.6,4.5l9.5,4.8C25.5,36.6,26.2,35.4,27,34.2 M42.1,9c-1.6,0.6-3.2,1.3-4.8,2.1l4.9,9.5c1.2-0.6,2.5-1.2,3.7-1.7
	L42.1,9z M38.6,22.7l-5.8-8.9c-1.5,1-2.9,2-4.2,3.1l6.7,8.3C36.3,24.2,37.4,23.4,38.6,22.7 M32.2,27.8l-7.6-7.5
	c-1.2,1.2-2.4,2.5-3.5,3.8l8.3,6.7C30.3,29.8,31.2,28.8,32.2,27.8 M84.8,25.1l6.8-8.2c-1.4-1.1-2.8-2.2-4.3-3.1l-5.8,8.9
	C82.6,23.4,83.7,24.2,84.8,25.1 M82.7,11.1C81.2,10.3,79.6,9.6,78,9l-3.8,9.9c1.3,0.5,2.6,1.1,3.8,1.7L82.7,11.1z M90.6,30.9
	l8.2-6.7c-1.1-1.3-2.3-2.6-3.5-3.9l-7.6,7.5C88.8,28.8,89.7,29.8,90.6,30.9 M95.1,37.8l9.5-4.9c-0.8-1.5-1.7-3-2.6-4.5L93,34.3
	C93.8,35.4,94.5,36.6,95.1,37.8 M98,45.4l10.3-2.7c-0.5-1.7-1-3.4-1.6-5l-9.9,3.8C97.2,42.8,97.7,44.1,98,45.4 M72.9,7.4
	c-1.7-0.4-3.4-0.8-5.1-1.1l-1.6,10.5c1.4,0.2,2.7,0.5,4.1,0.9L72.9,7.4z M62.6,5.7c-1.7-0.1-3.5-0.1-5.2,0l0.6,10.6
	c1.4-0.1,2.8-0.1,4.1,0L62.6,5.7z M22,65.9l-10.3,2.7c0.5,1.7,1,3.3,1.6,4.9l10-3.8C22.8,68.5,22.4,67.2,22,65.9 M98.9,61.9
	l10.5,1.6c0.3-1.7,0.5-3.5,0.5-5.3l-10.6-0.6C99.3,59.1,99.1,60.5,98.9,61.9 M96.8,69.8l9.9,3.8c0.6-1.6,1.2-3.3,1.6-5L98,65.9
	C97.7,67.2,97.3,68.5,96.8,69.8 M109.4,47.8l-10.5,1.7c0.2,1.4,0.4,2.7,0.4,4.1l0,0l10.6-0.6l0,0C109.8,51.3,109.7,49.5,109.4,47.8
	 M93,77.1l8.9,5.8c1-1.5,1.8-3,2.6-4.6l-9.5-4.8C94.5,74.8,93.8,76,93,77.1 M87.8,83.5l7.5,7.5c1.2-1.2,2.4-2.6,3.5-3.9l-8.3-6.7
	C89.7,81.5,88.8,82.5,87.8,83.5 M81.5,88.7l5.7,9c1.5-1,2.9-2,4.2-3.1l-6.7-8.2C83.7,87.1,82.6,87.9,81.5,88.7 M23.2,41.6l-9.9-3.8
	c-0.6,1.6-1.2,3.2-1.6,4.9L22,45.5C22.3,44.1,22.8,42.8,23.2,41.6 M29.4,80.4l-8.3,6.7c1.1,1.4,2.3,2.7,3.5,3.9l7.6-7.5
	C31.2,82.5,30.3,81.5,29.4,80.4 M24.9,73.5l-9.5,4.9c0.8,1.5,1.6,3,2.6,4.5l9-5.7C26.2,76,25.6,74.8,24.9,73.5 M20.7,57.8l-10.6,0.6
	c0.1,1.7,0.3,3.4,0.5,5.1l10.5-1.7C20.9,60.5,20.8,59.1,20.7,57.8 M35.2,86.3l-6.7,8.2c1.4,1.1,2.8,2.1,4.2,3.1l5.8-8.9
	C37.4,87.9,36.3,87.1,35.2,86.3 M21.1,49.5l-10.5-1.6c-0.3,1.7-0.5,3.4-0.5,5.2l10.6,0.5C20.8,52.2,20.9,50.8,21.1,49.5 M74.2,92.4
	l3.8,10c1.7-0.6,3.3-1.4,4.8-2.2l-4.8-9.5C76.7,91.4,75.4,91.9,74.2,92.4 M37.3,100.2c1.6,0.8,3.2,1.5,4.8,2.1l3.8-9.9
	c-1.3-0.5-2.5-1.1-3.7-1.7L37.3,100.2z M57.3,105.6c1.7,0.1,3.5,0.1,5.3,0L62.1,95c-1.4,0.1-2.8,0.1-4.1,0L57.3,105.6z M66.2,94.6
	l1.7,10.5c1.7-0.3,3.4-0.6,5.1-1.1l-2.7-10.3C68.9,94,67.5,94.3,66.2,94.6 M47.1,104c1.7,0.4,3.4,0.8,5.1,1.1l1.7-10.5
	c-1.4-0.2-2.7-0.5-4-0.9L47.1,104z"/>
</svg>
