<?xml version="1.0" encoding="UTF-8"?>
<svg width="157px" height="44px" viewBox="0 0 157 44" version="1.1" xmlns="http://www.w3.org/2000/svg" xmlns:xlink="http://www.w3.org/1999/xlink">
    <title>shopify</title>
    <g fill="#3d5154">
      <g transform="translate(44.076098, 8.225302)">
          <path d="M9.89963151,16.0736111 C8.57035236,15.3538972 7.87073176,14.7712716 7.87073176,13.9487414 C7.87073176,12.8863066 8.81521957,12.2351368 10.3194039,12.2351368 C12.0684554,12.2351368 13.6076207,12.9548508 13.6076207,12.9548508 L14.8319567,9.28773693 C14.8319567,9.28773693 13.7125638,8.43093463 10.3893659,8.43093463 C5.77186996,8.43093463 2.55361519,11.0356136 2.55361519,14.6684554 C2.55361519,16.7247809 4.05779949,18.3012971 6.0517182,19.4322762 C7.66084558,20.3233505 8.22054206,20.9745203 8.22054206,21.8998668 C8.22054206,22.8937574 7.41597837,23.6820156 5.91179408,23.6820156 C3.67300816,23.6820156 1.57414635,22.5510365 1.57414635,22.5510365 L0.27984824,26.2181504 C0.27984824,26.2181504 2.23878592,27.4862178 5.49202172,27.4862178 C10.2494418,27.4862178 13.6426017,25.1899876 13.6426017,21.0773366 C13.7125638,18.8153785 11.9635123,17.2388623 9.89963151,16.0736111 Z" ></path>
          <path d="M28.8593498,8.36239044 C26.5156208,8.36239044 24.6966072,9.45909739 23.262385,11.1041578 L23.1924229,11.0698857 L25.2213227,0.651169748 L19.9391871,0.651169748 L14.7969757,27.1434969 L20.0791113,27.1434969 L21.8281628,18.0956646 C22.5277834,14.6684554 24.3118159,12.5778578 25.9909053,12.5778578 C27.1802604,12.5778578 27.6350137,13.3661159 27.6350137,14.4970949 C27.6350137,15.2168088 27.5650517,16.0736111 27.3901465,16.7933251 L25.3962278,27.1777689 L30.6783634,27.1777689 L32.7422441,16.4848762 C32.9871113,15.3538972 33.1270355,14.0172856 33.1270355,13.0919391 C33.1620165,10.1102671 31.5878701,8.36239044 28.8593498,8.36239044 Z" ></path>
          <path d="M45.1255288,8.36239044 C38.7589813,8.36239044 34.5262767,13.9830135 34.5262767,20.2548064 C34.5262767,24.2646411 37.0449108,27.5204899 41.8023309,27.5204899 C48.0639353,27.5204899 52.2616589,22.0369551 52.2616589,15.6280739 C52.2966399,11.8924159 50.092835,8.36239044 45.1255288,8.36239044 Z M42.5369326,23.5106551 C40.717919,23.5106551 39.9833174,22.0026831 39.9833174,20.117718 C39.9833174,17.136046 41.5574637,12.303681 44.4259082,12.303681 C46.3148838,12.303681 46.9095613,13.8801973 46.9095613,15.4224414 C46.9095613,18.644018 45.335415,23.5106551 42.5369326,23.5106551 Z" ></path>
          <path d="M65.8342986,8.36239044 C62.2662335,8.36239044 60.2373338,11.4468787 60.2373338,11.4468787 L60.1673717,11.4468787 L60.482201,8.67083927 L55.7947429,8.67083927 C55.5498757,10.5558043 55.1301034,13.400388 54.710331,15.5595298 L51.0373229,34.5462687 L56.3194584,34.5462687 L57.7886617,26.8693201 L57.8936047,26.8693201 C57.8936047,26.8693201 58.9780167,27.554762 61.0069164,27.554762 C67.2335398,27.554762 71.2913393,21.3172412 71.2913393,15.0111763 C71.2913393,11.4811508 69.7171929,8.36239044 65.8342986,8.36239044 Z M60.7970302,23.6134714 C59.4327701,23.6134714 58.6282064,22.8594854 58.6282064,22.8594854 L59.5027321,18.0271204 C60.1323907,14.8055437 61.8464611,12.6464019 63.6654747,12.6464019 C65.2746021,12.6464019 65.7643365,14.1201019 65.7643365,15.4909856 C65.7643365,18.8153785 63.7354368,23.6134714 60.7970302,23.6134714 Z" ></path>
          <path d="M78.8472418,0.891074392 C77.1681523,0.891074392 75.8038921,2.19341389 75.8038921,3.90701849 C75.8038921,5.44926263 76.783361,6.51169748 78.2875453,6.51169748 L78.3575073,6.51169748 C80.0016157,6.51169748 81.435838,5.41499053 81.470819,3.49575338 C81.5058,1.98778134 80.4563691,0.891074392 78.8472418,0.891074392 Z" ></path>
          <polygon  points="71.4312634 27.1434969 76.7483799 27.1434969 80.351426 8.77365555 74.9993284 8.77365555"></polygon>
          <path d="M93.7841416,8.70511136 L90.1111334,8.70511136 L90.2860386,7.84830906 C90.6008679,6.06616028 91.6502988,4.48964405 93.4343313,4.48964405 C94.3788191,4.48964405 95.1134207,4.76382079 95.1134207,4.76382079 L96.1628516,0.719713932 C96.1628516,0.719713932 95.2533448,0.274176736 93.2944072,0.274176736 C91.4054315,0.274176736 89.5514369,0.788258116 88.1172147,1.98778134 C86.2982012,3.49575338 85.4586564,5.65489518 85.0388841,7.84830906 L84.89896,8.70511136 L82.4502878,8.70511136 L81.6807052,12.6121299 L84.1293773,12.6121299 L81.3308949,27.1092248 L86.6130304,27.1092248 L89.4115128,12.6121299 L93.04954,12.6121299 L93.7841416,8.70511136 Z" ></path>
          <path d="M106.517237,8.77365555 C106.517237,8.77365555 103.194039,16.9304134 101.724835,21.3857854 L101.654873,21.3857854 C101.54993,19.9463575 100.360575,8.77365555 100.360575,8.77365555 L94.7985915,8.77365555 L97.9818652,25.6355248 C98.0518273,26.0125178 98.0168462,26.2524225 97.8769221,26.4923271 C97.2472636,27.6575782 96.2328137,28.7885573 95.0084776,29.6110875 C94.0290088,30.3308014 92.9096158,30.7763386 92.0350901,31.0847874 L93.5042933,35.4716152 C94.5887053,35.2317106 96.7925102,34.3749083 98.6814858,32.6613037 C101.095177,30.4336177 103.333963,27.0406806 105.60773,22.3796761 L112.07922,8.77365555 L106.517237,8.77365555 Z" ></path>
      </g>
      <path d="M25.1863416,42.6002103 L38.2692469,39.8241709 C38.2692469,39.8241709 33.5468078,8.5337509 33.5118268,8.32811835 C33.4768458,8.1224858 33.3019406,7.98539743 33.1270355,7.98539743 C32.9521303,7.98539743 29.6289325,7.74549279 29.6289325,7.74549279 C29.6289325,7.74549279 27.3201845,5.48353472 27.0403362,5.24363007 C26.9703742,5.17508589 26.9004121,5.1408138 26.8304501,5.10654171 L25.1863416,42.6002103 Z" ></path>
      <path d="M26.2707536,5.03799752 C26.2357725,5.03799752 26.1658105,5.07226961 26.1308295,5.07226961 C26.0958484,5.07226961 25.606114,5.20935798 24.8365313,5.44926263 C24.0669487,3.25584874 22.7026885,1.23379531 20.2889974,1.23379531 C20.2190354,1.23379531 20.1490733,1.23379531 20.0791113,1.23379531 C19.3794907,0.376993012 18.5399459,0 17.8053443,0 C12.1733985,0 9.47985915,6.88869049 8.64031442,10.3844439 C6.47149056,11.0356136 4.89734421,11.5154229 4.72243906,11.5839671 C3.49810301,11.9609601 3.46312198,11.9952322 3.32319786,13.1262112 C3.18327374,13.9487414 0,38.1105663 0,38.1105663 L24.5916641,42.6344824 L26.2707536,5.03799752 Z M19.8692251,6.71733003 C19.8692251,6.78587421 19.8692251,6.88869049 19.8692251,6.95723467 C18.5049649,7.36849978 17.0007806,7.81403697 15.5315773,8.25957417 C16.3711221,5.10654171 17.9452684,3.56429757 19.3095286,2.981672 C19.6593389,3.87274639 19.8692251,5.07226961 19.8692251,6.71733003 Z M17.6304391,1.47369996 C17.8753064,1.47369996 18.1201736,1.54224414 18.3650408,1.7136046 C16.5810082,2.53613481 14.6220706,4.62673242 13.8175069,8.80792764 C12.6281519,9.18492065 11.4737779,9.52764157 10.3893659,9.8360904 C11.3338537,6.64878585 13.6076207,1.47369996 17.6304391,1.47369996 Z M18.609908,20.0834459 C18.609908,20.0834459 17.1407047,19.3294599 15.3916532,19.3294599 C12.768076,19.3294599 12.6631329,20.9402482 12.6631329,21.3515133 C12.6631329,23.5449272 18.5399459,24.4017295 18.5399459,29.5768154 C18.5399459,33.6551943 15.9163687,36.2598733 12.3483036,36.2598733 C8.08061794,36.2598733 5.91179408,33.6551943 5.91179408,33.6551943 L7.06616807,29.9538084 C7.06616807,29.9538084 9.304954,31.8387735 11.1939296,31.8387735 C12.4182657,31.8387735 12.9429811,30.8791549 12.9429811,30.193713 C12.9429811,27.3148573 8.11559897,27.1777689 8.11559897,22.4482203 C8.11559897,18.4726576 11.0190245,14.5999112 16.9308185,14.5999112 C19.2045855,14.5999112 20.3239785,15.2510809 20.3239785,15.2510809 L18.609908,20.0834459 Z M20.8486939,2.74176736 C22.108011,2.87885573 22.9125747,4.2840115 23.4372901,5.86052773 C22.8076316,6.06616028 22.108011,6.27179283 21.3384283,6.51169748 C21.3384283,6.37460911 21.3384283,6.23752074 21.3384283,6.06616028 C21.3384283,4.72954869 21.1635232,3.63284175 20.8486939,2.74176736 Z" ></path>
    </g>
</svg>
