<?xml version="1.0" encoding="UTF-8"?>
<svg version="1.1"  xmlns="http://www.w3.org/2000/svg" xmlns:xlink="http://www.w3.org/1999/xlink" x="0px" y="0px" viewBox="0 0 121 34" width="121" height="34" style="enable-background:new 0 0 121 34;" xml:space="preserve">
  <title>slack</title>
  <g fill="#3d5154">
    <path class="st2" d="M38.7,26l1.5-3.5c1.6,1.2,3.8,1.9,5.9,1.9c1.6,0,2.6-0.6,2.6-1.5c0-2.6-9.5-0.6-9.6-7c0-3.3,2.9-5.8,7-5.8 c2.5,0,4.9,0.6,6.7,2l-1.4,3.6c-1.6-1-3.6-1.8-5.5-1.8c-1.3,0-2.1,0.6-2.1,1.4c0,2.5,9.6,1.1,9.7,7.3c0,3.4-2.9,5.7-6.9,5.7 C43.6,28.2,40.8,27.5,38.7,26"/>
    <path class="st2" d="M96.7,21.2c-0.8,1.3-2.2,2.2-3.8,2.2c-2.4,0-4.4-2-4.4-4.4s2-4.4,4.4-4.4c1.6,0,3,0.9,3.8,2.2l4.2-2.3 c-1.6-2.8-4.6-4.7-8-4.7c-5,0-9.1,4.1-9.1,9.1s4.1,9.1,9.1,9.1c3.4,0,6.4-1.9,8-4.7L96.7,21.2z"/>
    <rect x="55.6" y="2.3" class="st2" width="5.2" height="25.5"/>
    <polygon class="st2" points="102.9,2.3 102.9,27.9 108.1,27.9 108.1,20.2 114.3,27.9 121,27.9 113.1,18.8 120.4,10.3 114,10.3 108.1,17.3 108.1,2.3 		"/>
    <path class="st2" d="M76.3,21.3c-0.8,1.2-2.3,2.2-4.1,2.2c-2.4,0-4.4-2-4.4-4.4s2-4.4,4.4-4.4c1.8,0,3.3,1,4.1,2.2V21.3z M76.3,10.3v2.1c-0.9-1.4-3-2.4-5.2-2.4c-4.6,0-8.2,4-8.2,9.1s3.6,9.2,8.2,9.2c2.2,0,4.3-1,5.2-2.4v2.1h5.2V10.3 C81.5,10.3,76.3,10.3,76.3,10.3z"/>
    <path class="st2" d="M6.5,21.2c0,1.8-1.4,3.2-3.2,3.2S0,23,0,21.2S1.5,18,3.2,18h3.2V21.2z"/>
    <path class="st2" d="M8.1,21.2c0-1.8,1.4-3.2,3.2-3.2s3.2,1.4,3.2,3.2v8c0,1.8-1.4,3.2-3.2,3.2s-3.2-1.4-3.2-3.2V21.2z"/>
    <path class="st2" d="M11.3,8.3c-1.8,0-3.2-1.4-3.2-3.2c0-1.8,1.4-3.2,3.2-3.2s3.2,1.4,3.2,3.2v3.2H11.3z"/>
    <path class="st2" d="M11.3,9.9c1.8,0,3.2,1.4,3.2,3.2c0,1.8-1.4,3.2-3.2,3.2H3.2c-1.8,0-3.2-1.4-3.2-3.2c0-1.8,1.4-3.2,3.2-3.2 H11.3z"/>
    <path class="st2" d="M24.2,13.2c0-1.8,1.4-3.2,3.2-3.2c1.8,0,3.2,1.4,3.2,3.2c0,1.8-1.4,3.2-3.2,3.2h-3.2V13.2z"/>
    <path class="st2" d="M22.6,13.2c0,1.8-1.4,3.2-3.2,3.2c-1.8,0-3.2-1.4-3.2-3.2V5.1c0-1.8,1.4-3.2,3.2-3.2c1.8,0,3.2,1.4,3.2,3.2 V13.2z"/>
    <path class="st2" d="M19.4,26.1c1.8,0,3.2,1.4,3.2,3.2s-1.4,3.2-3.2,3.2c-1.8,0-3.2-1.4-3.2-3.2v-3.2H19.4z"/>
    <path class="st2" d="M19.4,24.4c-1.8,0-3.2-1.4-3.2-3.2s1.4-3.2,3.2-3.2h8.1c1.8,0,3.2,1.4,3.2,3.2s-1.4,3.2-3.2,3.2H19.4z"/>
  </g>
</svg>
