<?xml version="1.0" encoding="UTF-8"?>
<svg width="160px" height="45px" viewBox="0 0 160 45" version="1.1" xmlns="http://www.w3.org/2000/svg" xmlns:xlink="http://www.w3.org/1999/xlink">
    <title>Uber</title>
    <g transform="translate(42.000000, 9.000000)" fill="#3D5154" fill-rule="nonzero">
      <path d="M10.5009327,23.4358283 C14.1776271,23.4358283 17.0204898,20.5913332 17.0204898,16.3821273 L17.0204898,0 L21,0 L21,26.5453038 L17.0584194,26.5453038 L17.0584194,24.0802406 C15.2769668,25.9382128 12.8134012,27 10.0457762,27 C4.35942913,27 0,22.8666804 0,16.6122746 L0,0.00435413643 L3.97951026,0.00435413643 L3.97951026,16.3821273 C3.97951026,20.6672196 6.78444319,23.4358283 10.4996891,23.4358283" ></path>
      <path d="M24.0056354,0 L27.8608742,0 L27.8608742,9.67010013 C29.677406,7.82163894 32.1694846,6.78192238 34.769873,6.78760664 C40.4960642,6.78760664 45,11.3004445 45,16.9130337 C45,22.4876791 40.4960642,26.9999653 34.769873,26.9999653 C32.1572396,27.006917 29.6519084,25.9681105 27.819548,24.1180235 L27.819548,26.5439459 L24,26.5439459 L24.0056354,0 Z M34.5031308,23.6253745 C38.1680184,23.6253745 41.1835828,20.6290494 41.1835828,16.9130337 C41.1835828,13.1584522 38.1680184,10.2006929 34.5031308,10.2006929 C30.8000478,10.2006929 27.7844833,13.1584522 27.7844833,16.9130337 C27.7844833,20.6290494 30.7618522,23.6253745 34.5031308,23.6253745" ></path>
      <path d="M56.6284029,7 C62.0303636,7 66,11.2561473 66,16.9814654 L66,18.224515 L50.7502063,18.224515 C51.2650232,21.3506734 53.8005267,23.686025 56.9593566,23.686025 C59.129545,23.686025 60.9657656,22.7815396 62.3619201,20.8607439 L65.0451171,22.8946002 C63.1703154,25.4560731 60.3774034,27 56.9593566,27 C51.33676,27 47,22.7061659 47,16.9814654 C47,11.5576424 51.1528968,7 56.6290056,7 M50.8219431,15.2114172 L62.2516023,15.2114172 C61.6270702,12.2730755 59.3115997,10.3145929 56.5554604,10.3145929 C53.799321,10.3145929 51.4838505,12.2730755 50.8219431,15.2114172" ></path>
      <path d="M76.3644949,10.4733987 C73.7966945,10.4733987 71.9295514,12.3586634 71.9295514,15.2790349 L71.9295514,26 L68,26 L68,7.14613986 L71.8925403,7.14613986 L71.8925403,9.47710082 C72.8650374,7.96112725 74.4603408,7 76.6388872,7 L78,7 L78,10.4752178 L76.3644949,10.4733987 Z" ></path>
    </g>
</svg>
