<?xml version="1.0" encoding="UTF-8"?>
<svg width="185px" height="29px" viewBox="0 0 185 29" version="1.1" xmlns="http://www.w3.org/2000/svg" xmlns:xlink="http://www.w3.org/1999/xlink">
    <title>Stanley Black and Decker</title>
    <g>
      <polygon fill="#3d5154" transform="translate(92.094624, 14.274870) scale(-1, 1) rotate(-180.000000) translate(-92.094624, -14.274870) " points="0.140988594 0.152379316 167.295038 0.152379316 184.04826 28.3973602 0.140988594 28.3973602"></polygon>
      <path d="M31.9687574,16.3496532 C31.2785463,16.8590453 30.523133,17.0820177 29.60192,17.0820177 C28.6332026,17.0820177 27.818176,16.4847055 27.818176,15.7668432 C27.818176,15.3480902 28.0789845,15.0045677 28.8036596,14.7643739 L30.0331855,14.3592168 C31.4154707,13.9123656 32.13642,13.1935969 32.13642,12.0134748 C32.13642,9.75202732 30.1542752,7.89845611 26.9565764,7.89845611 C25.4504071,7.89845611 24.3289304,8.2863918 23.4393871,8.84110358 L24.5748356,10.4417915 C25.4681048,9.9314929 26.2654338,9.63419639 27.3403375,9.63419639 C28.6965418,9.63419639 29.5711819,10.3221478 29.5711819,11.354528 C29.5711819,11.8793289 29.2013926,12.2237577 28.4338704,12.4757346 L27.3114623,12.8500745 C26.0987026,13.2525124 25.3600556,13.8226328 25.3600556,15.0344787 C25.3600556,17.1291501 27.3878419,18.8331667 29.9232734,18.8331667 C31.2310419,18.8331667 32.4782655,18.445231 33.2616226,17.7871905 L31.9687574,16.3496532 Z" fill="#FFFFFF" transform="translate(28.350505, 13.365811) scale(-1, 1) rotate(-180.000000) translate(-28.350505, -13.365811) "></path>
      <path d="M37.7195818,15.0938473 L36.3512684,15.0938473 L35.5213384,11.2498398 C35.4598621,10.9969564 35.4430959,10.7540434 35.4430959,10.5754843 C35.4430959,10.1576376 35.6740977,10.0216789 36.1370329,10.0216789 C36.3195988,10.0216789 36.6744847,10.0833135 36.9036236,10.1721399 L36.9036236,8.9593877 C36.3056269,8.73732172 35.6890011,8.63036748 35.1534121,8.63036748 C33.9695277,8.63036748 33.292357,9.19867514 33.292357,9.94735475 C33.292357,10.2165531 33.3230951,10.5754843 33.4013377,10.9353218 L34.3067159,15.0938473 L33.5233588,15.0938473 L33.8288774,16.4706565 L34.6150288,16.4706565 C34.7687195,17.2193361 34.8758373,17.7115068 35.0910044,18.2807209 L37.2585095,18.7892067 C37.0265762,18.0858466 36.7983688,17.2474342 36.6269803,16.4706565 L38.4582288,16.4706565 L37.7195818,15.0938473 Z" fill="#FFFFFF" transform="translate(35.875293, 13.709787) scale(-1, 1) rotate(-180.000000) translate(-35.875293, -13.709787) "></path>
      <path d="M42.7159271,17.292219 C42.206419,17.292219 41.8245208,17.2623081 41.2712341,16.6332722 C40.625733,15.8864054 40.3015853,14.3754503 40.3015853,13.3584787 C40.3015853,12.6687145 40.4869456,12.371418 40.9331145,12.371418 C41.5786156,12.371418 42.23902,13.0140498 42.45605,13.5660424 L43.2701452,17.1734817 C43.1779307,17.2323972 42.9012874,17.292219 42.7159271,17.292219 M45.1004622,16.438398 L44.4698644,13.5379443 C44.3301456,12.8789974 44.3906904,12.4330527 44.7595482,12.040585 L43.0549782,10.800641 C42.6851889,11.0399285 42.5165948,11.44146 42.45605,11.7432885 C41.8701623,11.1432571 41.2246612,10.830552 40.363993,10.830552 C38.9342034,10.830552 38.1974193,11.6834667 38.1974193,13.2696523 C38.1974193,15.1078148 38.9174371,16.73932 39.8563478,17.6520566 C40.7160845,18.4895626 41.6838705,18.8475873 42.9925704,18.8475873 C43.9156463,18.8475873 44.9439771,18.6998455 45.6071759,18.3255057 C45.4376504,17.8623395 45.2215519,17.0212079 45.1004622,16.438398" fill="#FFFFFF" transform="translate(41.902298, 14.824114) scale(-1, 1) rotate(-180.000000) translate(-41.902298, -14.824114) "></path>
      <path d="M49.1592055,18.6085628 C49.2970614,18.3547731 49.3902073,17.6958262 49.3594692,17.366806 C50.0180107,18.053851 50.8637755,18.5170172 52.0159903,18.5170172 C53.0163773,18.5170172 53.6004022,17.9342073 53.6004022,17.0069685 C53.6004022,16.6770419 53.5519663,16.2591953 53.478381,15.9292686 L52.3410695,10.6948561 L50.3114203,10.6948561 L51.4049532,15.6763853 C51.4636351,15.9754946 51.5092766,16.1993734 51.5092766,16.3634303 C51.5092766,16.7386765 51.341614,16.8429116 50.9708933,16.8429116 C50.4800144,16.8429116 49.896921,16.5438023 49.2514199,15.691794 L48.157887,10.6948561 L46.1291693,10.6948561 L47.2515774,15.8549445 C47.4360063,16.6924505 47.4201715,17.3513974 47.2515774,17.8752918 L49.1592055,18.6085628 Z" fill="#FFFFFF" transform="translate(49.864786, 14.651709) scale(-1, 1) rotate(-180.000000) translate(-49.864786, -14.651709) "></path>
      <path d="M58.1823451,16.4106624 L56.9360529,10.7420881 C56.7367207,9.84476027 56.6761758,9.46860767 56.6761758,9.25923117 C56.6761758,8.97643693 56.7991284,8.8250695 57.0757717,8.8250695 C57.1530828,8.8250695 57.2303939,8.8250695 57.3049107,8.85588683 L57.398988,7.65854327 C57.0291988,7.52439729 56.569058,7.44916677 56.1219577,7.44916677 C55.0163158,7.44916677 54.4928359,8.03197669 54.4928359,8.8250695 C54.4928359,9.09608065 54.6008851,9.66620108 54.7238377,10.2163809 L55.966404,15.9320875 C56.1843655,16.9336504 56.3054551,17.6370105 56.1536273,18.1454963 L58.3360358,18.7890344 C58.3984436,18.4446056 58.3984436,17.3823144 58.1823451,16.4106624" fill="#FFFFFF" transform="translate(56.432438, 13.119101) scale(-1, 1) rotate(-180.000000) translate(-56.432438, -13.119101) "></path>
      <path d="M61.7796399,15.4997296 C62.6729091,15.4997296 63.7012398,15.7979325 63.7012398,16.560208 C63.7012398,17.025187 63.4870043,17.3523944 62.8722413,17.3523944 C62.0870213,17.3523944 61.5011336,16.9046368 61.1946836,15.5740537 C61.1946836,15.5740537 61.5011336,15.4997296 61.7796399,15.4997296 Z M64.8068817,11.8324684 C63.7468813,11.1155125 62.7176191,10.7864923 61.6101143,10.7864923 C59.7350873,10.7864923 58.6303769,11.7445484 58.6303769,13.5972132 C58.6303769,15.1843052 59.3513262,16.8149041 60.3982861,17.8037775 C61.1779173,18.5352357 62.0553517,18.8180299 63.1041746,18.8180299 C64.6541224,18.8180299 65.7755991,18.2207177 65.7755991,16.7242649 C65.7755991,15.274038 64.4072858,14.0921031 61.7964061,14.0921031 C61.2580228,14.0921031 60.856564,14.198151 60.856564,14.198151 C60.856564,14.198151 60.7801843,13.703261 60.7801843,13.5092932 C60.7801843,12.6409699 61.242188,12.2838515 62.1037876,12.2838515 C62.8089021,12.2838515 63.5466176,12.5820544 64.2852647,13.0896338 L64.8068817,11.8324684 Z" fill="#FFFFFF" transform="translate(62.202988, 14.802261) scale(-1, 1) rotate(-180.000000) translate(-62.202988, -14.802261) "></path>
      <path d="M68.9133968,21.9569553 L69.2990208,17.4830054 C69.327896,17.0225584 69.3595656,15.8986326 69.3595656,15.8986326 C69.3595656,15.8986326 69.897949,17.2301221 70.419566,18.1872719 L72.4026423,21.838218 L74.6148575,21.838218 L70.0516397,14.0577509 C69.1909716,12.5767067 68.6516568,11.9358877 67.9893894,11.531637 C67.3895298,11.1572972 66.6704434,10.9189161 65.9299335,10.8300897 L65.5163657,12.1751751 C65.9923412,12.2794102 66.5465594,12.4452799 66.8995823,12.6528436 C67.5301801,13.0235578 67.7751538,13.3697995 68.2669642,14.178301 L67.6997056,14.178301 C67.668036,14.747515 67.5925879,15.6747538 67.4985105,16.3327943 L66.7915331,21.7176679 L68.9133968,21.9569553 Z" fill="#FFFFFF" transform="translate(70.065612, 16.393523) scale(-1, 1) rotate(-180.000000) translate(-70.065612, -16.393523) "></path>
      <path d="M77.7146581,14.4479616 L78.9749222,14.4479616 C79.5626729,14.4479616 79.8374533,14.5676053 80.1001247,14.7488837 C80.4363814,14.9881711 80.7456258,15.4069241 80.7456258,15.9145035 C80.7456258,16.5589481 80.4512848,16.8281464 79.5626729,16.8281464 L78.2250977,16.8281464 L77.7146581,14.4479616 Z M76.7338318,9.91600266 L78.1319518,9.91600266 C78.5781207,9.91600266 78.9600189,10.0356464 79.2375937,10.2178311 C79.7154321,10.5305363 80.0516889,11.1749809 80.0516889,11.7586972 C80.0516889,12.4901553 79.638121,12.7294428 78.6852385,12.7294428 L77.3467318,12.7294428 L76.7338318,9.91600266 Z M80.2836222,18.6082999 C81.8997036,18.6082999 83.0640274,17.8596203 83.0640274,16.3640738 C83.0640274,15.3461959 82.4054858,14.180576 80.8229369,13.7300993 C81.8046947,13.5225356 82.4213206,12.6841232 82.4213206,11.7124712 C82.4213206,11.0553371 82.1428144,10.0356464 81.4209336,9.31687769 C80.6357137,8.53919353 79.7461703,8.2119861 78.0853788,8.2119861 L74.2105093,8.2119861 L76.4869951,18.6082999 L80.2836222,18.6082999 Z" fill="#FFFFFF" transform="translate(78.637268, 13.410143) scale(-1, 1) rotate(-180.000000) translate(-78.637268, -13.410143) "></path>
      <path d="M87.3093428,16.4106624 L86.0639821,10.7420881 C85.8637184,9.84476027 85.8022421,9.46860767 85.8022421,9.25923117 C85.8022421,8.97643693 85.9261262,8.8250695 86.2027695,8.8250695 C86.2782177,8.8250695 86.3555288,8.8250695 86.4337714,8.85588683 L86.5259858,7.65854327 C86.1561966,7.52439729 85.6951243,7.44916677 85.2470926,7.44916677 C84.1423821,7.44916677 83.6198336,8.03197669 83.6198336,8.8250695 C83.6198336,9.09608065 83.7269514,9.66620108 83.8489725,10.2163809 L85.0961962,15.9320875 C85.3113632,16.9336504 85.4371102,17.6370105 85.2796936,18.1454963 L87.4621021,18.7890344 C87.5235784,18.4446056 87.5235784,17.3823144 87.3093428,16.4106624" fill="#FFFFFF" transform="translate(85.558672, 13.119101) scale(-1, 1) rotate(-180.000000) translate(-85.558672, -13.119101) "></path>
      <path d="M92.5072559,17.292219 C91.9986793,17.292219 91.6139867,17.2623081 91.0597686,16.6332722 C90.4161304,15.8864054 90.0938455,14.3754503 90.0938455,13.3584787 C90.0938455,12.6687145 90.277343,12.371418 90.7235118,12.371418 C91.369013,12.371418 92.028486,13.0140498 92.2445844,13.5660424 L93.0596111,17.1734817 C92.9664652,17.2323972 92.6907533,17.292219 92.5072559,17.292219 M94.8899281,16.438398 L94.256536,13.5379443 C94.1177486,12.8789974 94.1810878,12.4330527 94.5518085,12.040585 L92.8435126,10.800641 C92.4755863,11.0399285 92.3069922,11.44146 92.2445844,11.7432885 C91.6605596,11.1432571 91.01599,10.830552 90.1553218,10.830552 C88.7255322,10.830552 87.9859538,11.6834667 87.9859538,13.2696523 C87.9859538,15.1078148 88.7106289,16.73932 89.6495396,17.6520566 C90.5074134,18.4895626 91.4751993,18.8475873 92.7829678,18.8475873 C93.7060437,18.8475873 94.7343744,18.6998455 95.3975733,18.3255057 C95.2261848,17.8623395 95.0119492,17.0212079 94.8899281,16.438398" fill="#FFFFFF" transform="translate(91.691764, 14.824114) scale(-1, 1) rotate(-180.000000) translate(-91.691764, -14.824114) "></path>
      <path d="M101.468545,16.6328099 C101.130425,17.0071498 100.686119,17.202024 100.301427,17.202024 C99.9297744,17.202024 99.6093525,17.0533757 99.3317777,16.7524537 C98.7635877,16.1243242 98.2410392,14.5417641 98.2410392,13.35711 C98.2410392,12.5640172 98.6248003,12.2214011 99.178087,12.2214011 C99.746277,12.2214011 100.31633,12.5341063 100.899423,12.984583 L101.590566,11.7410135 C100.730829,11.0974753 99.8543262,10.7249483 98.699317,10.7249483 C96.950037,10.7249483 95.9980858,11.7120089 95.9980858,13.35711 C95.9980858,15.2569072 96.9053269,16.9926475 97.9942025,17.8899754 C98.699317,18.4736917 99.484537,18.8027119 100.57807,18.8027119 C101.299951,18.8027119 102.09728,18.5171985 102.666401,17.8899754 L101.468545,16.6328099 Z" fill="#FFFFFF" transform="translate(99.332243, 14.763830) scale(-1, 1) rotate(-180.000000) translate(-99.332243, -14.763830) "></path>
      <path d="M110.891277,15.1091744 L107.679607,11.7872485 L109.80147,7.44925741 L107.372225,7.44925741 L105.680696,11.7872485 L108.340943,15.1091744 L110.891277,15.1091744 Z M106.756531,18.6087531 C106.862717,18.2353197 106.847814,17.3225832 106.495722,15.7209889 L104.682172,7.44925741 L102.622716,7.44925741 L104.469799,15.8569476 C104.697075,16.9192388 104.729676,17.5310533 104.622558,17.9652149 L106.756531,18.6087531 Z" fill="#FFFFFF" transform="translate(106.756997, 13.029005) scale(-1, 1) rotate(-180.000000) translate(-106.756997, -13.029005) "></path>
      <path d="M116.595337,16.6930034 C116.595337,17.1271651 116.287955,17.4271808 115.827815,17.4271808 C115.149713,17.4271808 114.583385,16.8733754 114.583385,16.1990199 C114.583385,15.8863147 114.72031,15.5409795 115.196285,15.0034891 C116.072788,15.347918 116.595337,16.0204607 116.595337,16.6930034 Z M112.940292,11.2029884 C112.940292,10.5159434 113.461909,10.1116926 114.383122,10.1116926 C115.118974,10.1116926 115.719765,10.3065669 116.132402,10.6482766 L114.134422,12.9840482 C113.370626,12.5807039 112.940292,11.9670766 112.940292,11.2029884 Z M119.793967,13.941198 C119.613264,12.92332 119.179204,11.7586065 118.627781,11.0090205 L120.393827,8.85543363 L117.674898,8.85543363 L117.150487,9.51438046 C116.397868,9.00317549 115.489695,8.64605713 113.997498,8.64605713 C111.863525,8.64605713 110.678709,9.67662459 110.678709,11.0407442 C110.678709,12.2942841 111.570115,13.4037076 113.264439,14.0898462 C112.630116,14.6599666 112.461522,15.1539502 112.461522,15.8110842 C112.461522,17.471594 114.045002,18.8175858 116.119361,18.8175858 C117.703773,18.8175858 118.703229,18.0553103 118.703229,16.9622018 C118.703229,15.8110842 118.271963,14.9427609 116.332666,14.0744375 L116.132402,13.9847048 L117.549151,12.324195 C117.826726,12.7456672 118.040961,13.6565909 118.072631,13.941198 L119.793967,13.941198 Z" fill="#FFFFFF" transform="translate(115.536268, 13.731821) scale(-1, 1) rotate(-180.000000) translate(-115.536268, -13.731821) "></path>
      <path d="M123.976684,9.91663714 L125.036684,9.91663714 C125.957897,9.91663714 126.651834,10.4106207 127.035596,10.9961498 C127.988478,12.4454702 128.189673,14.5401417 128.189673,15.0930406 C128.189673,16.0501904 127.911167,16.9629269 126.484172,16.9629269 L125.511729,16.9629269 L123.976684,9.91663714 Z M126.146052,18.6089344 C127.927002,18.6089344 129.021466,18.4149665 129.69398,17.5910564 C130.186721,16.9765228 130.508075,16.2912906 130.508075,15.0631297 C130.508075,13.3573004 129.876546,11.1302957 128.559462,9.76798888 C127.43426,8.61415214 126.360288,8.21171418 124.007422,8.21171418 L121.406789,8.21171418 L123.681412,18.6089344 L126.146052,18.6089344 Z" fill="#FFFFFF" transform="translate(125.957432, 13.410324) scale(-1, 1) rotate(-180.000000) translate(-125.957432, -13.410324) "></path>
      <path d="M134.199456,15.4997296 C135.091794,15.4997296 136.121056,15.7979325 136.121056,16.560208 C136.121056,17.025187 135.906821,17.3523944 135.293921,17.3523944 C134.506838,17.3523944 133.925607,16.9046368 133.6145,15.5740537 C133.6145,15.5740537 133.925607,15.4997296 134.199456,15.4997296 Z M137.225767,11.8324684 C136.167629,11.1155125 135.138367,10.7864923 134.030862,10.7864923 C132.156767,10.7864923 131.047399,11.7445484 131.047399,13.5972132 C131.047399,15.1843052 131.772074,16.8149041 132.818102,17.8037775 C133.599597,18.5352357 134.477962,18.8180299 135.522128,18.8180299 C137.073007,18.8180299 138.195415,18.2207177 138.195415,16.7242649 C138.195415,15.274038 136.829897,14.0921031 134.21436,14.0921031 C133.676908,14.0921031 133.278243,14.198151 133.278243,14.198151 C133.278243,14.198151 133.201864,13.703261 133.201864,13.5092932 C133.201864,12.6409699 133.661073,12.2838515 134.523604,12.2838515 C135.231513,12.2838515 135.969228,12.5820544 136.70415,13.0896338 L137.225767,11.8324684 Z" fill="#FFFFFF" transform="translate(134.621407, 14.802261) scale(-1, 1) rotate(-180.000000) translate(-134.621407, -14.802261) "></path>
      <path d="M144.361767,16.6328099 C144.023648,17.0071498 143.577479,17.202024 143.194649,17.202024 C142.825791,17.202024 142.500712,17.0533757 142.227795,16.7524537 C141.65681,16.1243242 141.134262,14.5417641 141.134262,13.35711 C141.134262,12.5640172 141.51616,12.2214011 142.070378,12.2214011 C142.642294,12.2214011 143.208621,12.5341063 143.79544,12.984583 L144.485651,11.7410135 C143.624052,11.0974753 142.751275,10.7249483 141.596266,10.7249483 C139.840465,10.7249483 138.886651,11.7120089 138.886651,13.35711 C138.886651,15.2569072 139.796687,16.9926475 140.888357,17.8899754 C141.596266,18.4736917 142.37776,18.8027119 143.470361,18.8027119 C144.192242,18.8027119 144.989571,18.5171985 145.560555,17.8899754 L144.361767,16.6328099 Z" fill="#FFFFFF" transform="translate(142.223603, 14.763830) scale(-1, 1) rotate(-180.000000) translate(-142.223603, -14.763830) "></path>
      <path d="M153.783476,15.1091744 L150.574599,11.7872485 L152.696463,7.44925741 L150.266286,7.44925741 L148.572894,11.7872485 L151.235004,15.1091744 L153.783476,15.1091744 Z M149.64966,18.6087531 C149.758641,18.2353197 149.741875,17.3225832 149.38792,15.7209889 L147.573438,7.44925741 L145.514914,7.44925741 L147.359203,15.8569476 C147.590204,16.9192388 147.621874,17.5310533 147.513825,17.9652149 L149.64966,18.6087531 Z" fill="#FFFFFF" transform="translate(149.649195, 13.029005) scale(-1, 1) rotate(-180.000000) translate(-149.649195, -13.029005) "></path>
      <path d="M156.707046,15.4997296 C157.598452,15.4997296 158.629577,15.7979325 158.629577,16.560208 C158.629577,17.025187 158.41441,17.3523944 157.796853,17.3523944 C157.014427,17.3523944 156.431334,16.9046368 156.12209,15.5740537 C156.12209,15.5740537 156.431334,15.4997296 156.707046,15.4997296 Z M159.735219,11.8324684 C158.675219,11.1155125 157.645957,10.7864923 156.539383,10.7864923 C154.661562,10.7864923 153.553126,11.7445484 153.553126,13.5972132 C153.553126,15.1843052 154.277801,16.8149041 155.322898,17.8037775 C156.109049,18.5352357 156.984621,18.8180299 158.031581,18.8180299 C159.583391,18.8180299 160.701142,18.2207177 160.701142,16.7242649 C160.701142,15.274038 159.334692,14.0921031 156.721018,14.0921031 C156.182635,14.0921031 155.78397,14.198151 155.78397,14.198151 C155.78397,14.198151 155.70759,13.703261 155.70759,13.5092932 C155.70759,12.6409699 156.168663,12.2838515 157.029331,12.2838515 C157.738171,12.2838515 158.476818,12.5820544 159.213602,13.0896338 L159.735219,11.8324684 Z" fill="#FFFFFF" transform="translate(157.127134, 14.802261) scale(-1, 1) rotate(-180.000000) translate(-157.127134, -14.802261) "></path>
      <path d="M164.193462,18.6085628 C164.319209,18.3547731 164.44123,17.7991549 164.378822,17.366806 C165.070896,18.053851 165.80768,18.5324259 166.577997,18.5324259 C166.869543,18.5324259 167.008331,18.5025149 167.284974,18.3683689 L166.394499,16.6036241 C166.209139,16.7078592 166.023779,16.7531788 165.79464,16.7531788 C165.395975,16.7531788 164.947943,16.5283936 164.304305,15.7062963 L163.211704,10.6948561 L161.150385,10.6948561 L162.256958,15.7516159 C162.470262,16.7078592 162.442319,17.3804019 162.287696,17.8752918 L164.193462,18.6085628 Z" fill="#FFFFFF" transform="translate(164.217680, 14.651709) scale(-1, 1) rotate(-180.000000) translate(-164.217680, -14.651709) "></path>
    </g>
</svg>
