<?xml version="1.0" encoding="utf-8"?>
<svg version="1.1" xmlns="http://www.w3.org/2000/svg" xmlns:xlink="http://www.w3.org/1999/xlink" x="0px" y="0px" width="185px" height="40.2px" viewBox="0 0 185 40.2" style="enable-background:new 0 0 185 40.2;" xml:space="preserve">
  <g fill="#3d5154">
  	<polygon points="65.2,32.5 68.1,19.6 70.7,19.6 67.9,32.5 	"/>
  	<path d="M69.9,32.5l2.1-9.6h2.6l-0.4,1.8c0.6-0.7,1.3-1.3,1.9-1.6c0.6-0.3,1.2-0.5,1.8-0.5c0.8,0,1.3,0.2,1.8,0.7
  		c0.4,0.5,0.5,1.3,0.3,2.3l-1.5,6.8H76l1.3-6.1c0.1-0.5,0.1-0.9,0.1-1.1c-0.1-0.2-0.2-0.3-0.3-0.4c-0.1-0.1-0.3-0.1-0.5-0.1
  		c-0.4,0-0.8,0.1-1.2,0.4c-0.4,0.2-1,0.7-1.6,1.4l-1.3,6H69.9z"/>
  	<path d="M80,35.4l0.6-1.9c0.9,0.5,1.9,0.7,2.8,0.7c0.9,0,1.6-0.2,2.1-0.6c0.5-0.4,0.9-1,1.1-2l0.3-1.3
  		c-0.4,0.6-0.9,1.1-1.5,1.5c-0.6,0.4-1.3,0.6-2,0.6c-0.7,0-1.3-0.2-1.8-0.6c-0.5-0.4-0.8-0.9-0.9-1.7c-0.1-0.7-0.1-1.6,0.1-2.5
  		c0.3-1.4,0.9-2.6,1.9-3.6c0.9-1,2-1.5,3.3-1.5c0.3,0,0.6,0,0.9,0.1c0.3,0.1,0.5,0.2,0.7,0.3c0.2,0.1,0.5,0.4,0.8,0.7l0.5-0.9h2.3
  		l-1.6,7.3c-0.4,1.9-0.9,3.2-1.4,3.9c-0.5,0.7-1.2,1.2-2,1.5c-0.8,0.3-1.8,0.5-2.7,0.5C82.4,36.1,81.2,35.9,80,35.4 M87.4,28.9
  		l0.8-3.5c-0.3-0.4-0.6-0.7-0.8-0.8c-0.3-0.1-0.6-0.2-0.9-0.2c-0.6,0-1.2,0.3-1.7,0.9c-0.5,0.6-0.9,1.4-1.1,2.4
  		c-0.2,0.9-0.2,1.6,0,2c0.2,0.5,0.6,0.7,1.2,0.7c0.4,0,0.8-0.1,1.3-0.4C86.5,29.8,86.9,29.4,87.4,28.9"/>
  	<path d="M99,32.2c-1.3,0.4-2.5,0.5-3.6,0.5c-1,0-1.9-0.2-2.6-0.6c-0.7-0.4-1.2-1-1.4-1.8c-0.2-0.8-0.2-1.7,0-2.7
  		c0.2-0.9,0.6-1.7,1.1-2.5c0.5-0.8,1.2-1.4,1.9-1.8c0.8-0.4,1.7-0.7,2.6-0.7c1.2,0,2.1,0.4,2.7,1.2c0.6,0.8,0.6,2.2,0.1,4.4H94
  		c-0.1,0.6-0.1,1.2,0.1,1.5c0.2,0.4,0.4,0.7,0.7,0.9c0.3,0.2,0.9,0.3,1.5,0.3c0.9,0,1.9-0.2,3-0.6L99,32.2z M94.3,26.8h3.4
  		c0.2-0.9,0.2-1.5,0-1.9c-0.2-0.4-0.5-0.6-1-0.6c-0.5,0-1,0.2-1.4,0.6C94.9,25.4,94.5,26,94.3,26.8"/>
  	<path d="M100.4,32.5l2.1-9.6h2.6l-0.4,1.8c0.4-0.6,1-1.1,1.6-1.5c0.6-0.4,1.3-0.6,1.9-0.6c0.2,0,0.3,0,0.5,0l-0.5,2.3
  		c-0.3-0.1-0.7-0.2-1-0.2c-0.5,0-1,0.1-1.5,0.4c-0.5,0.3-0.9,0.6-1.4,1.2l-1.3,6.1H100.4z"/>
  	<path d="M106.9,32.2l0.4-1.9c1.2,0.5,2.2,0.8,3.1,0.8c0.5,0,0.9-0.1,1.2-0.3c0.3-0.2,0.5-0.5,0.6-0.8
  		c0.1-0.3,0-0.5-0.2-0.7c-0.2-0.2-0.5-0.4-0.9-0.5l-0.8-0.3c-0.8-0.4-1.4-0.8-1.7-1.2c-0.3-0.4-0.4-1-0.3-1.7
  		c0.2-0.8,0.7-1.5,1.4-2.1c0.8-0.5,1.8-0.8,3.1-0.8c0.8,0,1.7,0.1,2.7,0.3l-0.4,1.8c-1-0.4-1.8-0.5-2.4-0.5c-0.5,0-1,0.1-1.3,0.3
  		c-0.3,0.2-0.5,0.4-0.6,0.7c-0.1,0.2,0,0.4,0.1,0.6c0.1,0.2,0.4,0.3,0.8,0.5l0.7,0.3c1.1,0.5,1.8,0.9,2.1,1.4c0.3,0.4,0.3,1,0.2,1.6
  		c-0.2,0.8-0.7,1.5-1.5,2.1c-0.8,0.6-1.9,0.9-3.2,0.9C109.1,32.7,108,32.5,106.9,32.2"/>
  	<path d="M119.7,32.7c-1,0-1.9-0.2-2.5-0.6c-0.7-0.4-1.1-1-1.3-1.8c-0.2-0.8-0.2-1.7,0-2.6c0.2-1,0.6-1.8,1.1-2.6
  		c0.5-0.8,1.2-1.4,2.1-1.8c0.8-0.4,1.8-0.6,2.8-0.6c1,0,1.9,0.2,2.5,0.6c0.6,0.4,1.1,1,1.3,1.8c0.2,0.8,0.2,1.6,0,2.6
  		c-0.2,1-0.6,1.8-1.2,2.6c-0.6,0.8-1.3,1.4-2.1,1.8C121.7,32.5,120.8,32.7,119.7,32.7 M120.1,31.1c0.7,0,1.3-0.3,1.9-1
  		c0.5-0.6,0.9-1.5,1.1-2.4c0.2-1,0.2-1.8,0-2.4c-0.2-0.6-0.7-1-1.4-1c-0.7,0-1.3,0.3-1.9,1c-0.5,0.6-0.9,1.5-1.1,2.4
  		c-0.2,1-0.2,1.8,0,2.4C118.9,30.8,119.4,31.1,120.1,31.1"/>
  	<polygon points="125.9,32.5 128.9,18.7 131.4,18.7 128.4,32.5 	"/>
  	<polygon points="130.5,32.5 133.5,18.7 136.1,18.7 133.1,32.5 	"/>
  	<path d="M139.5,32.5l2.8-12.9h4.8c1,0,1.7,0.1,2.2,0.4c0.5,0.2,0.8,0.6,1,1.1c0.2,0.5,0.2,1.1,0.1,1.7
  		c-0.2,0.8-0.5,1.5-1.1,2.1c-0.6,0.7-1.3,1.2-2.2,1.5l2.9,6h-3.3l-2-5.3h-1.5l-1.2,5.3H139.5z M143.5,25.4h0.6
  		c1.1,0,1.9-0.2,2.5-0.7c0.5-0.5,0.9-1,1-1.6c0.1-0.5,0-0.9-0.2-1.3c-0.3-0.3-0.9-0.5-2-0.5h-0.9L143.5,25.4z"/>
  	<path d="M155.3,31.5c-0.4,0.4-0.8,0.6-1.1,0.8c-0.3,0.2-0.6,0.3-0.9,0.3c-0.3,0.1-0.6,0.1-1,0.1
  		c-0.9,0-1.5-0.3-1.9-0.8c-0.4-0.5-0.5-1.2-0.3-2c0.2-0.9,0.8-1.7,1.7-2.4c0.9-0.6,2.2-0.9,3.9-0.9h0.7l0.2-0.9c0.1-0.6,0-1-0.2-1.2
  		c-0.3-0.2-0.7-0.3-1.2-0.3c-1,0-2.1,0.3-3.2,0.8l0.4-1.8c1.3-0.4,2.5-0.7,3.6-0.7c0.7,0,1.3,0.1,1.8,0.3c0.5,0.2,0.9,0.5,1.1,0.9
  		c0.2,0.4,0.3,1,0.1,1.8l-0.9,4.2c-0.1,0.5-0.1,0.8,0,1c0.1,0.1,0.3,0.2,0.4,0.2c0.1,0,0.2,0,0.4,0l-0.3,1.4
  		c-0.6,0.2-1.1,0.2-1.5,0.2c-0.5,0-0.9-0.1-1.2-0.2c-0.3-0.2-0.5-0.5-0.6-1H155.3z M155.6,30.1l0.4-2h-0.6c-0.8,0-1.5,0.2-2,0.5
  		c-0.5,0.3-0.8,0.7-0.9,1.1c-0.1,0.4,0,0.7,0.2,0.9c0.2,0.2,0.5,0.4,0.8,0.4c0.3,0,0.6-0.1,1-0.2C154.9,30.6,155.3,30.4,155.6,30.1"
  		/>
  	<path d="M159.7,32.5l2.1-9.6h2.6l-0.4,1.8c0.6-0.7,1.3-1.3,1.9-1.6c0.6-0.3,1.2-0.5,1.8-0.5c0.8,0,1.3,0.2,1.8,0.7
  		c0.4,0.5,0.5,1.3,0.3,2.3l-1.5,6.8h-2.6l1.3-6.1c0.1-0.5,0.1-0.9,0.1-1.1c-0.1-0.2-0.2-0.3-0.3-0.4c-0.1-0.1-0.3-0.1-0.5-0.1
  		c-0.4,0-0.8,0.1-1.2,0.4c-0.4,0.2-1,0.7-1.6,1.4l-1.3,6H159.7z"/>
  	<polyline points="15.2,7.8 25.9,7.8 20.7,32.5 10,32.5 15.2,7.8 		"/>
  	<path d="M37,17.6l1.1-5.4c2.9,0,5.2-0.1,4.7,2.4C42.1,17.8,41,17.5,37,17.6 M23.8,32.5h10.1l2-9.5
  		c3.8-0.1,5.1,0.3,4.7,2.2L39,32.5h10l1.7-8c0.2-1.1,0.8-3.7-3.6-4.9c4.5-1.2,5.4-3.8,5.8-5.6c0.9-4.1-2.5-6.3-7.8-6.3H29
  		L23.8,32.5z"/>
  	<path d="M43.8,34.1c-2.5,1.3-5.3,2.4-8.2,3.3c-14.6,4.2-28.1-0.1-30-9.7c-1.1-5.5,1.8-11.5,7.3-16.4l0.5-2.4
  		C4.3,14.8-1.2,22.5,0.2,29.3c2,9.9,17.9,13.8,35.6,8.8c3.6-1,7.1-2.4,10.2-4H43.8"/>
  	<path d="M64.1,11c-2-9.9-17.9-13.8-35.6-8.8c-3.6,1-7.1,2.4-10.2,4h2.2c2.5-1.3,5.3-2.4,8.2-3.3
  		c14.6-4.2,28.1,0.1,30,9.7c1.1,5.5-1.8,11.4-7.3,16.3l-0.5,2.4C60,25.5,65.4,17.7,64.1,11"/>
  	<path d="M176.3,32.5l0.4-1.8c-0.5,0.7-1,1.2-1.6,1.5c-0.6,0.3-1.2,0.5-1.9,0.5c-1.2,0-2-0.4-2.4-1.3
  		c-0.4-0.9-0.5-2-0.2-3.4c0.3-1.5,1-2.8,1.9-3.8c0.9-1,2-1.5,3.3-1.5c0.3,0,0.7,0,0.9,0.1c0.3,0.1,0.5,0.2,0.8,0.3
  		c0.2,0.2,0.5,0.4,0.8,0.7l1.1-5.2h2.6l-3,13.8H176.3z M177.8,25.4c-0.3-0.4-0.5-0.7-0.8-0.8c-0.3-0.1-0.6-0.2-0.9-0.2
  		c-0.7,0-1.3,0.3-1.7,1c-0.5,0.7-0.8,1.5-1,2.4c-0.2,0.9-0.2,1.6,0,2.1c0.2,0.5,0.6,0.8,1.2,0.8c0.4,0,0.8-0.1,1.2-0.4
  		c0.4-0.3,0.8-0.6,1.3-1.1L177.8,25.4z"/>
  	<path d="M181.4,30.5c0-1,0.7-1.7,1.6-1.7c0.9,0,1.6,0.7,1.6,1.7c0,0.9-0.7,1.6-1.6,1.6
  		C182.1,32.1,181.4,31.4,181.4,30.5 M183,32.5c1.1,0,2-0.8,2-2c0-1.2-0.9-2-2-2c-1.1,0-2,0.9-2,2C181,31.6,181.9,32.5,183,32.5"/>
  	<path d="M182.6,30.3v-0.7h0.5c0.2,0,0.5,0.1,0.5,0.4c0,0.3-0.3,0.4-0.6,0.4H182.6z M182.6,30.7h0.4l0.6,1h0.4l-0.7-1
  		c0.3,0,0.6-0.2,0.6-0.6c0-0.5-0.3-0.7-0.8-0.7h-0.9v2.3h0.4V30.7z"/>
  </g>
</svg>
