<?xml version="1.0" encoding="UTF-8"?>
<svg width="117px" height="33px" viewBox="0 0 117 33" version="1.1" xmlns="http://www.w3.org/2000/svg" xmlns:xlink="http://www.w3.org/1999/xlink">
    <title>Tesco</title>
    <g fill="#3d5154">
      <path d="M9.42755695,27.1320277 L23.586428,27.1320277 C23.7525203,27.1320277 23.7525203,27.211691 23.586428,27.2913542 C22.0135142,28.0089608 19.6948394,30.2420809 19.6948394,30.2420809 C18.1219257,31.7569573 16.879873,32.7141909 14.1476218,32.7141909 L0.567757694,32.7141909 C0.485042412,32.7141909 0.485042412,32.5548644 0.567757694,32.5548644 C2.05795621,31.7569573 4.29391571,29.5244744 4.29391571,29.5244744 C5.20444553,28.4875776 7.10888218,27.1320277 9.42755695,27.1320277" id="Fill-2"></path>
      <path d="M102.497469,27.1320277 L116.739717,27.1320277 C116.822432,27.1320277 116.822432,27.211691 116.739717,27.2913542 C115.083426,28.0089608 112.848128,30.2420809 112.848128,30.2420809 C111.191837,31.7569573 109.949785,32.7141909 107.300249,32.7141909 L93.7203846,32.7141909 C93.6376693,32.7141909 93.6376693,32.5548644 93.7203846,32.5548644 C95.2105831,31.7569573 97.4465426,29.5244744 97.4465426,29.5244744 C98.3570724,28.4875776 100.178794,27.1320277 102.497469,27.1320277" id="Fill-3"></path>
      <path d="M32.6950349,27.1320277 L46.8539059,27.1320277 C47.0199982,27.1320277 47.0199982,27.211691 46.8539059,27.2913542 C45.2809921,28.0089608 42.9623173,30.2420809 42.9623173,30.2420809 C41.3894036,31.7569573 40.1473509,32.7141909 37.414438,32.7141909 L23.9179509,32.7141909 C23.7525203,32.7141909 23.7525203,32.5548644 23.8352356,32.5548644 C25.3254341,31.7569573 27.5613936,29.5244744 27.5613936,29.5244744 C28.4719234,28.4875776 30.3763601,27.1320277 32.6950349,27.1320277" id="Fill-4"></path>
      <path d="M55.9625128,27.1320277 L70.1220455,27.1320277 C70.2874761,27.1320277 70.2874761,27.211691 70.1220455,27.2913542 C68.54847,28.0089608 66.2297952,30.2420809 66.2297952,30.2420809 C64.6568815,31.7569573 63.4148288,32.7141909 60.7652929,32.7141909 L47.1854288,32.7141909 C47.1027135,32.7141909 47.1027135,32.5548644 47.1027135,32.5548644 C48.6756273,31.7569573 50.8288715,29.5244744 50.8288715,29.5244744 C51.7394013,28.4875776 53.643838,27.1320277 55.9625128,27.1320277" id="Fill-5"></path>
      <path d="M79.2299907,27.1320277 L93.4722387,27.1320277 C93.554954,27.1320277 93.554954,27.211691 93.3895234,27.2913542 C91.8159479,28.0089608 89.4972731,30.2420809 89.4972731,30.2420809 C87.9243594,31.7569573 86.6823067,32.7141909 84.0327708,32.7141909 L70.4529067,32.7141909 C70.3701914,32.7141909 70.3701914,32.5548644 70.4529067,32.5548644 C71.9437669,31.7569573 74.1790647,29.5244744 74.1790647,29.5244744 C75.0068792,28.4875776 76.9113159,27.1320277 79.2299907,27.1320277" id="Fill-6"></path>
      <path d="M83.1215792,0.496461363 C74.1790647,0.496461363 68.2169472,4.96206441 68.2169472,11.7404509 C68.2169472,17.9611946 73.6821113,22.1075073 81.7968113,22.1075073 C84.4463472,22.1075073 86.765022,21.7888543 89.4972731,21.0712478 L89.4972731,15.8874009 C87.5928365,17.9611946 85.2748234,18.7584644 82.7907181,18.7584644 C77.987938,18.7584644 74.6760181,15.7280744 74.6760181,11.2618341 C74.6760181,6.87589428 78.0706533,3.68617782 82.8734334,3.68617782 C85.440254,3.68617782 87.5101212,4.64341141 89.166412,6.31761424 L89.166412,1.0541041 C87.4274059,0.735451108 85.2748234,0.496461363 83.1215792,0.496461363" id="Fill-7"></path>
      <path d="M16.3829196,4.16479462 C19.6948394,4.16479462 23.669805,4.80273791 25.3254341,6.15828774 L25.3254341,1.2140679 L1.80981037,1.2140679 L1.80981037,6.15828774 C3.46543944,4.80273791 7.02616689,4.24445787 10.8350402,4.24445787 L10.8350402,17.8012308 C10.8350402,19.7953612 10.6696096,20.353004 9.84179509,21.3899008 L17.3768264,21.3899008 C16.5483501,20.353004 16.3829196,19.7953612 16.3829196,17.8012308 L16.3829196,4.16479462" id="Fill-8"></path>
      <path d="M40.3954967,9.02935121 C39.0707288,9.507968 36.5866234,9.58763125 35.3445708,9.58763125 L33.3574188,9.58763125 L33.3574188,4.24445787 L36.0069547,4.24445787 C38.4083448,4.24445787 42.4660257,4.72307466 44.0389395,6.07862449 L44.0389395,1.2140679 L26.8990096,1.2140679 C27.7268242,2.17066419 27.8922547,2.80924479 27.8922547,4.72307466 L27.8922547,17.8012308 C27.8922547,19.7953612 27.7268242,20.353004 26.9817249,21.3899008 L45.1982768,21.3899008 L45.1982768,16.445681 C42.7141715,18.2798476 37.9113914,18.2798476 36.0069547,18.2798476 L33.3574188,18.2798476 L33.3574188,12.6180212 L35.2618555,12.6180212 C36.5866234,12.6180212 38.9880135,12.7773477 40.3954967,13.2559645 L40.3954967,9.02935121" id="Fill-9"></path>
      <path d="M65.8162188,1.85201119 C63.0833059,0.974440852 59.5232402,0.496461363 56.7903273,0.496461363 C51.8221166,0.496461363 47.0199982,2.01133769 47.0199982,7.11488403 C47.0199982,15.8874009 61.9246303,11.2618341 61.9246303,16.6846707 C61.9246303,18.4391741 59.2744326,19.1574179 57.1218501,19.1574179 C53.3129768,19.1574179 50.6634409,18.5188373 47.3508593,16.445681 L47.3508593,20.911284 C49.8349647,21.7091911 53.2302616,22.1871706 56.8730426,22.1871706 C62.0073455,22.1871706 66.8094639,20.7519575 66.8094639,15.5687479 C66.8094639,6.31761424 51.9882089,10.4645643 51.9882089,5.99896124 C51.9882089,4.16479462 54.389599,3.52685133 56.4594662,3.52685133 C59.9368166,3.52685133 63.7456899,4.56311086 65.8162188,6.55724129 L65.8162188,1.85201119" id="Fill-10"></path>
      <path d="M104.070382,0.815114356 C96.0390594,0.815114356 90.3257494,5.2807174 90.3257494,11.5811244 C90.3257494,17.8012308 95.4593907,21.8685176 102.994422,21.8685176 C111.109122,21.8685176 116.739717,17.5622411 116.739717,11.1821708 C116.739717,4.96206441 111.606075,0.815114356 104.070382,0.815114356 Z M103.491375,18.8381276 C99.1855487,18.8381276 96.4526358,15.4884474 96.4526358,11.3421346 C96.4526358,7.19518458 99.1855487,3.84550432 103.491375,3.84550432 C107.713825,3.84550432 110.529453,7.19518458 110.529453,11.3421346 C110.529453,15.4884474 107.713825,18.8381276 103.491375,18.8381276 Z" id="Fill-11"></path>
    </g>
</svg>
