<?xml version="1.0" encoding="UTF-8"?>
<svg width="103px" height="21px" viewBox="0 0 103 21" version="1.1" xmlns="http://www.w3.org/2000/svg" xmlns:xlink="http://www.w3.org/1999/xlink">
  <g  fill="#3D5154">
    <path d="M8.3,14 L6.7,1.2 L0.1,1.8 L3.1,19.8 L10.6,19.8 C14,15.5 18,9.3 18,4.5 C18,3 17.7,1.8 17,0.7 L11,1.9 C11.4,2.7 11.6,3.7 11.6,5.1 C11.6,7.7 9.8,11.6 8.3,14 L8.3,14 Z" ></path>
    <path d="M29.2,0.8 C22.3,0.8 19,6.8 19,12.4 C19,16.7 21,20.2 26.8,20.2 C29.1,20.2 31.4,19.7 32.9,19 L33.7,13.6 C31.6,14.7 30,15.1 28.3,15.1 C26.7,15.1 25.6,14.3 25.6,12.2 C29.1,12.2 35.2,10.7 35.2,6 C35.1,2.9 32.9,0.8 29.2,0.8 L29.2,0.8 Z M29.8,6.4 C29.8,8.1 26.7,8.7 25.5,8.7 C25.7,6.6 27.3,5.2 28.5,5.2 C29.2,5.1 29.8,5.6 29.8,6.4 L29.8,6.4 Z" ></path>
    <path d="M38.5,1.1 L35.6,19.8 L42,19.8 L44,6.7 C44.6,6.4 45.4,6 46.2,6 C46.8,6 47.3,6.2 47.3,7 C47.3,7.3 47.2,8 47.2,8.3 L45.4,19.8 L51.8,19.8 L53.8,7.3 C53.9,6.6 54,5.6 54,4.9 C54,2.4 52.9,0.7 49.6,0.7 C47.1,0.7 45.4,1.6 44.1,2.5 L44,1 L38.5,1 L38.5,1.1 Z" ></path>
    <path d="M58.1,1.1 L55.2,19.8 L61.7,19.8 L63.7,6.7 C64.3,6.4 65.1,6 65.9,6 C66.5,6 67,6.2 67,7.1 C67,7.3 66.9,7.7 66.9,8 L65.1,19.7 L71.5,19.7 L73.5,6.6 C74.1,6.3 74.9,5.9 75.7,5.9 C76.3,5.9 76.8,6.1 76.8,7 C76.8,7.2 76.7,7.6 76.7,7.9 L74.9,19.6 L81.3,19.6 L83.3,7.1 C83.4,6.4 83.5,5.4 83.5,4.7 C83.5,2.2 82.4,0.5 79.1,0.5 C76.7,0.5 75,1.2 73.1,2.5 C72.4,1.3 71.1,0.5 69.1,0.5 C66.8,0.5 65,1.4 63.8,2.4 L63.6,0.8 L58.1,0.8 L58.1,1.1 Z" ></path>
    <path d="M95.5,0.8 C88.3,0.8 85.2,6.3 85.2,12.2 C85.2,16.7 87,20.3 92.4,20.3 C99.8,20.3 102.8,14.3 102.8,8.4 C102.9,4 100.9,0.8 95.5,0.8 L95.5,0.8 Z M91.7,12.5 C91.7,10.2 92.2,5.7 94.8,5.7 C95.9,5.7 96.3,6.7 96.3,8.3 C96.3,10.6 95.7,15.3 93.4,15.3 C92.2,15.3 91.7,14.2 91.7,12.5 L91.7,12.5 Z" ></path>
  </g>
</svg>
