<?xml version="1.0" encoding="UTF-8"?>
<svg width="185px" height="41px" viewBox="0 0 185 41" version="1.1" xmlns="http://www.w3.org/2000/svg" xmlns:xlink="http://www.w3.org/1999/xlink">
    <title>open table</title>
    <g fill="#3d5154">
      <path d="M0,20.3106696 C0,17.5360897 2.29507811,15.286213 5.12580403,15.286213 C7.95652996,15.286213 10.252472,17.5360897 10.252472,20.3106696 C10.252472,23.0860958 7.95652996,25.3359725 5.12580403,25.3359725 C2.29507811,25.3359725 0,23.0860958 0,20.3106696 Z M36.0071966,25.3359725 C33.1760387,25.3359725 30.8813926,23.0860958 30.8813926,20.3106696 C30.8813926,17.5360897 33.1760387,15.286213 36.0071966,15.286213 C38.8379225,15.286213 41.1338646,17.5360897 41.1338646,20.3106696 C41.1338646,23.0860958 38.8379225,25.3359725 36.0071966,25.3359725 Z M36.0076286,0.211573883 C24.682997,0.211573883 15.5026846,9.21065742 15.5026846,20.3106696 C15.5026846,31.4119512 24.682997,40.4106116 36.0076286,40.4106116 C47.3326922,40.4106116 56.5125726,31.4119512 56.5125726,20.3106696 C56.5125726,9.21065742 47.3326922,0.211573883 36.0076286,0.211573883 Z" id="Fill-1"></path>
      <path d="M182.558712,18.7556016 C182.88226,18.7556016 183.074057,18.6134239 183.074057,18.3548806 C183.074057,18.1208799 182.942304,17.9672773 182.582038,17.9672773 L182.246394,17.9672773 L182.246394,18.7556016 L182.558712,18.7556016 Z M181.754376,17.5682489 L182.665409,17.5682489 C183.169523,17.5682489 183.601497,17.7675515 183.601497,18.3320307 C183.601497,18.6134239 183.421364,18.8850848 183.15786,18.9781773 L183.709922,19.9548023 L183.15786,19.9548023 L182.737117,19.1317799 L182.246394,19.1317799 L182.246394,19.9548023 L181.754376,19.9548023 L181.754376,17.5682489 Z M184.404537,18.7902997 C184.404537,17.685884 183.624823,16.8975597 182.618756,16.8975597 C181.610528,16.8975597 180.842911,17.685884 180.842911,18.7902997 C180.842911,19.9074098 181.610528,20.6711915 182.618756,20.6711915 C183.624823,20.6711915 184.404537,19.9074098 184.404537,18.7902997 Z M180.362555,18.7902997 C180.362555,17.4146463 181.382014,16.4739888 182.618756,16.4739888 C183.865433,16.4739888 184.884892,17.4146463 184.884892,18.7902997 C184.884892,20.1659531 183.865433,21.1066106 182.618756,21.1066106 C181.382014,21.1066106 180.362555,20.1659531 180.362555,18.7902997 Z M165.315172,28.192643 C165.618849,28.192643 165.875442,27.9442553 165.875442,27.6467824 L165.875442,25.6292139 C165.875442,25.3313178 165.622305,25.0833533 165.318627,25.0833533 L165.228777,25.0833533 C164.977368,25.0833533 164.725959,24.8383507 164.725959,24.5916555 L164.726391,24.5027945 L164.726391,12.6368849 C164.726391,12.3639546 164.447768,12.0910243 164.169576,12.0910243 L162.119428,12.0910243 C161.841236,12.0910243 161.563045,12.3639546 161.563045,12.6368849 L161.563045,25.8797173 L161.571252,26.2245828 C161.571252,27.2105171 162.576888,28.1956051 163.582092,28.1956051 L165.315172,28.192643 Z M75.1038716,15.2493992 C77.8918321,15.2493992 80.2456587,17.5644406 80.2456587,20.3098233 C80.2456587,23.0797486 77.9380533,25.3292021 75.1038716,25.3292021 C72.2822171,25.3292021 69.987571,23.0797486 69.987571,20.3098233 C69.987571,17.5191638 72.2822171,15.2493992 75.1038716,15.2493992 Z M75.1038716,12.0614039 C70.4895249,12.0614039 66.7356704,15.7618311 66.7356704,20.3098233 C66.7356704,24.9115553 70.4091777,28.5167742 75.1038716,28.5167742 C79.8110928,28.5167742 83.4975593,24.9115553 83.4975593,20.3098233 C83.4975593,15.7618311 79.7307456,12.0614039 75.1038716,12.0614039 Z M141.881012,24.9238265 C141.729389,25.3457049 140.818355,26.1395301 139.780754,26.1395301 C138.692611,26.1395301 138.085256,25.4942297 138.085256,24.5269139 C138.085256,23.5100899 138.819179,22.8897552 140.160459,22.8897552 C141.096547,22.8897552 141.881012,23.2371596 141.881012,23.2371596 L141.881012,24.9238265 Z M140.514678,16.4646796 C138.616584,16.4646796 136.769031,16.9360662 136.515894,17.0355059 C136.263189,17.1095568 136.035107,17.3080131 136.136621,17.7298914 L136.389757,19.0200689 C136.440298,19.3670501 136.667949,19.6399804 137.047654,19.5159981 C137.731037,19.3175418 139.27448,19.0941198 140.337568,19.0941198 C141.577334,19.0941198 142.00758,19.7889284 141.957039,21.2525965 C141.957039,21.2525965 140.894383,20.9301579 139.704726,20.9301579 C136.743976,20.9301579 135.048478,22.4928426 135.048478,24.5269139 C135.048478,26.9828636 136.667949,28.4465317 138.996289,28.4465317 C140.818355,28.4465317 141.982525,27.6527065 142.665908,27.0078293 L142.665908,27.6235093 C142.665908,27.9214053 142.919045,28.1693699 143.222723,28.1693699 L143.429206,28.1693699 C143.450373,28.1736014 143.475428,28.1736014 143.500914,28.1736014 L144.361406,28.1736014 C144.665084,28.1736014 144.918221,27.9256368 144.918221,27.6277408 L144.918221,21.4510528 C144.918221,18.3252603 144.158811,16.4646796 140.514678,16.4646796 Z M119.26933,16.4646796 C117.029545,16.4646796 115.941402,17.6431461 115.506836,18.1187642 L115.506836,17.2585048 C115.506836,16.9610319 115.253699,16.7126442 114.950022,16.7126442 L113.626021,16.7126442 C113.347398,16.7126442 113.069207,16.9360662 113.069207,17.2585048 L113.069207,27.6277408 C113.069207,27.9256368 113.347398,28.1736014 113.626021,28.1736014 L115.498629,28.1736014 C116.055443,28.1736014 116.232553,28.0496191 116.232553,27.6277408 L116.232553,21.0786828 C116.510744,20.2848576 117.244668,19.2925761 118.763056,19.2925761 C120.180363,19.2925761 120.787719,20.2108067 120.787719,21.6990174 L120.787719,27.6277408 C120.787719,27.9256368 121.040856,28.1736014 121.344533,28.1736014 L123.39425,28.1736014 C123.672873,28.1736014 123.951065,27.9256368 123.951065,27.6277408 L123.951065,21.6990174 C123.951065,18.9206292 122.989491,16.4646796 119.26933,16.4646796 Z M91.4061401,25.6186352 C89.9382923,25.6186352 88.9767181,24.9733348 88.9767181,24.9733348 L88.9767181,20.8802265 C89.2298549,20.2353493 90.0393743,19.2925761 91.558195,19.2925761 C93.3802615,19.2925761 94.3163493,20.8556839 94.3163493,22.4678769 C94.3163493,24.080493 93.3297206,25.6186352 91.4061401,25.6186352 Z M91.9884412,16.4646796 C89.5840736,16.4646796 88.2510017,18.0730642 88.1710865,18.1720808 L88.1710865,17.2585048 C88.1710865,16.9610319 87.9179497,16.7126442 87.614272,16.7126442 L86.3701867,16.7126442 C86.066509,16.7126442 85.8133722,16.9610319 85.8133722,17.2585048 L85.8133722,32.2912523 C85.8133722,32.5641826 86.066509,32.8371129 86.3701867,32.8371129 L88.4199036,32.8371129 C88.6985268,32.8371129 88.9767181,32.5641826 88.9767181,32.2912523 L88.9767181,27.9751451 C89.5080462,28.1736014 90.6216753,28.4465317 91.7858453,28.4465317 C95.2783555,28.4465317 97.5812091,25.8170915 97.5812091,22.4678769 C97.5812091,18.9951032 95.1768416,16.4646796 91.9884412,16.4646796 Z M175.445395,21.0033625 C175.394854,19.8875218 174.484253,19.0192226 173.193082,19.0192226 C171.776207,19.0192226 170.865174,19.8625561 170.713551,21.0033625 L175.445395,21.0033625 Z M173.269542,16.4642564 C176.305887,16.4642564 178.634227,18.6722415 178.634227,21.7726451 C178.634227,21.9461357 178.608741,22.3430483 178.583686,22.5169621 C178.5582,22.8148581 178.280009,23.037857 178.026872,23.037857 L170.53601,23.037857 C170.561496,24.4515936 171.750721,25.6918397 173.446651,25.6918397 C174.610389,25.6918397 175.42034,25.2703846 175.951668,24.8489294 C176.230292,24.6250842 176.533538,24.6005417 176.711079,24.8489294 L177.697708,26.1382606 C177.900303,26.3616827 177.925358,26.634613 177.647167,26.8825776 C176.635051,27.725911 175.19269,28.4456854 173.294596,28.4456854 C169.802518,28.4456854 167.373096,25.7168055 167.373096,22.442488 C167.373096,19.2176789 169.802518,16.4642564 173.269542,16.4642564 Z M153.463532,25.6186352 C151.945143,25.6186352 151.135192,24.675862 150.882055,24.0309848 L150.882055,19.9378764 C150.882055,19.9378764 151.843629,19.2925761 153.311477,19.2925761 C155.235057,19.2925761 156.222118,20.8307182 156.222118,22.4433343 C156.222118,24.0555273 155.285598,25.6186352 153.463532,25.6186352 Z M153.741723,16.4646796 C152.577553,16.4646796 151.413815,16.7376099 150.882055,16.9610319 L150.882055,12.5949932 C150.882055,12.3220629 150.628918,12.0491326 150.32524,12.0491326 L148.275523,12.0491326 C147.9969,12.0491326 147.718709,12.3220629 147.718709,12.5949932 L147.718709,27.6277408 C147.718709,27.9256368 147.9969,28.1736014 148.275523,28.1736014 L149.16107,28.1736014 C149.177917,28.1736014 149.195196,28.1736014 149.212043,28.1693699 L149.448333,28.1693699 C149.755898,28.1693699 150.009035,27.9214053 150.009035,27.6235093 L150.009035,26.7759443 L150.021562,26.734899 C150.021562,26.734899 151.362842,28.4465317 153.918832,28.4465317 C157.107665,28.4465317 159.410518,25.7176518 159.410518,22.4433343 C159.410518,19.0941198 157.208747,16.4646796 153.741723,16.4646796 Z M135.836831,12.0491326 L123.933786,12.0491326 C123.655595,12.0491326 123.452999,12.2725546 123.452999,12.5205192 L123.452999,14.5545905 C123.452999,14.8025551 123.655595,15.0259772 123.933786,15.0259772 L128.227608,15.0259772 L128.227608,27.7022148 C128.227608,27.9501794 128.455258,28.1736014 128.708395,28.1736014 L131.062222,28.1736014 C131.314926,28.1736014 131.543009,27.9501794 131.543009,27.7022148 L131.543009,15.0259772 L135.836831,15.0259772 C136.115022,15.0259772 136.317618,14.8025551 136.317618,14.5545905 L136.317618,12.5205192 C136.317618,12.2725546 136.115022,12.0491326 135.836831,12.0491326 Z M107.501061,21.0033625 C107.450088,19.8875218 106.539487,19.0192226 105.248748,19.0192226 C103.831874,19.0192226 102.920408,19.8625561 102.769217,21.0033625 L107.501061,21.0033625 Z M105.324776,16.4642564 C108.361553,16.4642564 110.689462,18.6722415 110.689462,21.7726451 C110.689462,21.9461357 110.664407,22.3430483 110.639353,22.5169621 C110.613434,22.8148581 110.335243,23.037857 110.082106,23.037857 L102.591676,23.037857 C102.617163,24.4515936 103.806387,25.6918397 105.501885,25.6918397 C106.666055,25.6918397 107.476007,25.2703846 108.007335,24.8489294 C108.285526,24.6250842 108.589204,24.6005417 108.766313,24.8489294 L109.753374,26.1382606 C109.95597,26.3616827 109.981024,26.634613 109.702401,26.8825776 C108.690286,27.725911 107.247924,28.4456854 105.34983,28.4456854 C101.857752,28.4456854 99.4283302,25.7168055 99.4283302,22.442488 C99.4283302,19.2176789 101.857752,16.4642564 105.324776,16.4642564 Z" id="Fill-2"></path>
    </g>
</svg>
